%TF.GenerationSoftware,KiCad,Pcbnew,7.0.9*%
%TF.CreationDate,2025-02-12T23:41:43+09:00*%
%TF.ProjectId,hid_taiko_rp2040_lite,6869645f-7461-4696-9b6f-5f7270323034,rev?*%
%TF.SameCoordinates,Original*%
%TF.FileFunction,Legend,Top*%
%TF.FilePolarity,Positive*%
%FSLAX46Y46*%
G04 Gerber Fmt 4.6, Leading zero omitted, Abs format (unit mm)*
G04 Created by KiCad (PCBNEW 7.0.9) date 2025-02-12 23:41:43*
%MOMM*%
%LPD*%
G01*
G04 APERTURE LIST*
%ADD10C,0.150000*%
%ADD11C,0.100000*%
G04 APERTURE END LIST*
D10*
X134300000Y-44100000D02*
X134300000Y-61100000D01*
X159141541Y-48553152D02*
X159379636Y-49219819D01*
X159379636Y-49219819D02*
X159617731Y-48553152D01*
X160379636Y-49172200D02*
X160284398Y-49219819D01*
X160284398Y-49219819D02*
X160093922Y-49219819D01*
X160093922Y-49219819D02*
X159998684Y-49172200D01*
X159998684Y-49172200D02*
X159951065Y-49076961D01*
X159951065Y-49076961D02*
X159951065Y-48696009D01*
X159951065Y-48696009D02*
X159998684Y-48600771D01*
X159998684Y-48600771D02*
X160093922Y-48553152D01*
X160093922Y-48553152D02*
X160284398Y-48553152D01*
X160284398Y-48553152D02*
X160379636Y-48600771D01*
X160379636Y-48600771D02*
X160427255Y-48696009D01*
X160427255Y-48696009D02*
X160427255Y-48791247D01*
X160427255Y-48791247D02*
X159951065Y-48886485D01*
X160855827Y-49219819D02*
X160855827Y-48553152D01*
X160855827Y-48743628D02*
X160903446Y-48648390D01*
X160903446Y-48648390D02*
X160951065Y-48600771D01*
X160951065Y-48600771D02*
X161046303Y-48553152D01*
X161046303Y-48553152D02*
X161141541Y-48553152D01*
X161998684Y-49219819D02*
X161427256Y-49219819D01*
X161712970Y-49219819D02*
X161712970Y-48219819D01*
X161712970Y-48219819D02*
X161617732Y-48362676D01*
X161617732Y-48362676D02*
X161522494Y-48457914D01*
X161522494Y-48457914D02*
X161427256Y-48505533D01*
X162427256Y-49124580D02*
X162474875Y-49172200D01*
X162474875Y-49172200D02*
X162427256Y-49219819D01*
X162427256Y-49219819D02*
X162379637Y-49172200D01*
X162379637Y-49172200D02*
X162427256Y-49124580D01*
X162427256Y-49124580D02*
X162427256Y-49219819D01*
X163093922Y-48219819D02*
X163189160Y-48219819D01*
X163189160Y-48219819D02*
X163284398Y-48267438D01*
X163284398Y-48267438D02*
X163332017Y-48315057D01*
X163332017Y-48315057D02*
X163379636Y-48410295D01*
X163379636Y-48410295D02*
X163427255Y-48600771D01*
X163427255Y-48600771D02*
X163427255Y-48838866D01*
X163427255Y-48838866D02*
X163379636Y-49029342D01*
X163379636Y-49029342D02*
X163332017Y-49124580D01*
X163332017Y-49124580D02*
X163284398Y-49172200D01*
X163284398Y-49172200D02*
X163189160Y-49219819D01*
X163189160Y-49219819D02*
X163093922Y-49219819D01*
X163093922Y-49219819D02*
X162998684Y-49172200D01*
X162998684Y-49172200D02*
X162951065Y-49124580D01*
X162951065Y-49124580D02*
X162903446Y-49029342D01*
X162903446Y-49029342D02*
X162855827Y-48838866D01*
X162855827Y-48838866D02*
X162855827Y-48600771D01*
X162855827Y-48600771D02*
X162903446Y-48410295D01*
X162903446Y-48410295D02*
X162951065Y-48315057D01*
X162951065Y-48315057D02*
X162998684Y-48267438D01*
X162998684Y-48267438D02*
X163093922Y-48219819D01*
D11*
X145748095Y-30537419D02*
X145748095Y-31346942D01*
X145748095Y-31346942D02*
X145795714Y-31442180D01*
X145795714Y-31442180D02*
X145843333Y-31489800D01*
X145843333Y-31489800D02*
X145938571Y-31537419D01*
X145938571Y-31537419D02*
X146129047Y-31537419D01*
X146129047Y-31537419D02*
X146224285Y-31489800D01*
X146224285Y-31489800D02*
X146271904Y-31442180D01*
X146271904Y-31442180D02*
X146319523Y-31346942D01*
X146319523Y-31346942D02*
X146319523Y-30537419D01*
X146700476Y-30537419D02*
X147319523Y-30537419D01*
X147319523Y-30537419D02*
X146986190Y-30918371D01*
X146986190Y-30918371D02*
X147129047Y-30918371D01*
X147129047Y-30918371D02*
X147224285Y-30965990D01*
X147224285Y-30965990D02*
X147271904Y-31013609D01*
X147271904Y-31013609D02*
X147319523Y-31108847D01*
X147319523Y-31108847D02*
X147319523Y-31346942D01*
X147319523Y-31346942D02*
X147271904Y-31442180D01*
X147271904Y-31442180D02*
X147224285Y-31489800D01*
X147224285Y-31489800D02*
X147129047Y-31537419D01*
X147129047Y-31537419D02*
X146843333Y-31537419D01*
X146843333Y-31537419D02*
X146748095Y-31489800D01*
X146748095Y-31489800D02*
X146700476Y-31442180D01*
%TO.C,U6*%
X150500000Y-78400000D02*
X150500000Y-67400000D01*
X150500000Y-67400000D02*
X148500000Y-67400000D01*
X148500000Y-78400000D02*
X150500000Y-78400000D01*
X148500000Y-67400000D02*
X148500000Y-78400000D01*
%TO.C,U2*%
X140550000Y-84800000D02*
X150950000Y-84800000D01*
X150950000Y-84800000D02*
X150950000Y-79400000D01*
X150950000Y-79400000D02*
X140550000Y-79400000D01*
X140550000Y-79400000D02*
X140550000Y-84800000D01*
%TO.C,U8*%
X138500000Y-78400000D02*
X138500000Y-67400000D01*
X138500000Y-67400000D02*
X136500000Y-67400000D01*
X136500000Y-78400000D02*
X138500000Y-78400000D01*
X136500000Y-67400000D02*
X136500000Y-78400000D01*
%TO.C,U7*%
X144500000Y-78400000D02*
X144500000Y-67400000D01*
X144500000Y-67400000D02*
X142500000Y-67400000D01*
X142500000Y-78400000D02*
X144500000Y-78400000D01*
X142500000Y-67400000D02*
X142500000Y-78400000D01*
%TO.C,U5*%
X156500000Y-78400000D02*
X156500000Y-67400000D01*
X156500000Y-67400000D02*
X154500000Y-67400000D01*
X154500000Y-78400000D02*
X156500000Y-78400000D01*
X154500000Y-67400000D02*
X154500000Y-78400000D01*
%TD*%
M02*
