%TF.GenerationSoftware,KiCad,Pcbnew,7.0.9*%
%TF.CreationDate,2025-02-12T23:41:43+09:00*%
%TF.ProjectId,hid_taiko_rp2040_lite,6869645f-7461-4696-9b6f-5f7270323034,rev?*%
%TF.SameCoordinates,Original*%
%TF.FileFunction,Legend,Bot*%
%TF.FilePolarity,Positive*%
%FSLAX46Y46*%
G04 Gerber Fmt 4.6, Leading zero omitted, Abs format (unit mm)*
G04 Created by KiCad (PCBNEW 7.0.9) date 2025-02-12 23:41:43*
%MOMM*%
%LPD*%
G01*
G04 APERTURE LIST*
%ADD10C,0.150000*%
G04 APERTURE END LIST*
D10*
X163408458Y-48553152D02*
X163170363Y-49219819D01*
X163170363Y-49219819D02*
X162932268Y-48553152D01*
X162170363Y-49172200D02*
X162265601Y-49219819D01*
X162265601Y-49219819D02*
X162456077Y-49219819D01*
X162456077Y-49219819D02*
X162551315Y-49172200D01*
X162551315Y-49172200D02*
X162598934Y-49076961D01*
X162598934Y-49076961D02*
X162598934Y-48696009D01*
X162598934Y-48696009D02*
X162551315Y-48600771D01*
X162551315Y-48600771D02*
X162456077Y-48553152D01*
X162456077Y-48553152D02*
X162265601Y-48553152D01*
X162265601Y-48553152D02*
X162170363Y-48600771D01*
X162170363Y-48600771D02*
X162122744Y-48696009D01*
X162122744Y-48696009D02*
X162122744Y-48791247D01*
X162122744Y-48791247D02*
X162598934Y-48886485D01*
X161694172Y-49219819D02*
X161694172Y-48553152D01*
X161694172Y-48743628D02*
X161646553Y-48648390D01*
X161646553Y-48648390D02*
X161598934Y-48600771D01*
X161598934Y-48600771D02*
X161503696Y-48553152D01*
X161503696Y-48553152D02*
X161408458Y-48553152D01*
X160551315Y-49219819D02*
X161122743Y-49219819D01*
X160837029Y-49219819D02*
X160837029Y-48219819D01*
X160837029Y-48219819D02*
X160932267Y-48362676D01*
X160932267Y-48362676D02*
X161027505Y-48457914D01*
X161027505Y-48457914D02*
X161122743Y-48505533D01*
X160122743Y-49124580D02*
X160075124Y-49172200D01*
X160075124Y-49172200D02*
X160122743Y-49219819D01*
X160122743Y-49219819D02*
X160170362Y-49172200D01*
X160170362Y-49172200D02*
X160122743Y-49124580D01*
X160122743Y-49124580D02*
X160122743Y-49219819D01*
X159456077Y-48219819D02*
X159360839Y-48219819D01*
X159360839Y-48219819D02*
X159265601Y-48267438D01*
X159265601Y-48267438D02*
X159217982Y-48315057D01*
X159217982Y-48315057D02*
X159170363Y-48410295D01*
X159170363Y-48410295D02*
X159122744Y-48600771D01*
X159122744Y-48600771D02*
X159122744Y-48838866D01*
X159122744Y-48838866D02*
X159170363Y-49029342D01*
X159170363Y-49029342D02*
X159217982Y-49124580D01*
X159217982Y-49124580D02*
X159265601Y-49172200D01*
X159265601Y-49172200D02*
X159360839Y-49219819D01*
X159360839Y-49219819D02*
X159456077Y-49219819D01*
X159456077Y-49219819D02*
X159551315Y-49172200D01*
X159551315Y-49172200D02*
X159598934Y-49124580D01*
X159598934Y-49124580D02*
X159646553Y-49029342D01*
X159646553Y-49029342D02*
X159694172Y-48838866D01*
X159694172Y-48838866D02*
X159694172Y-48600771D01*
X159694172Y-48600771D02*
X159646553Y-48410295D01*
X159646553Y-48410295D02*
X159598934Y-48315057D01*
X159598934Y-48315057D02*
X159551315Y-48267438D01*
X159551315Y-48267438D02*
X159456077Y-48219819D01*
M02*
