%TF.GenerationSoftware,KiCad,Pcbnew,7.0.9*%
%TF.CreationDate,2025-04-28T00:26:43+09:00*%
%TF.ProjectId,Rp2040_v1.1,52703230-3430-45f7-9631-2e312e6b6963,rev?*%
%TF.SameCoordinates,Original*%
%TF.FileFunction,Copper,L2,Bot*%
%TF.FilePolarity,Positive*%
%FSLAX46Y46*%
G04 Gerber Fmt 4.6, Leading zero omitted, Abs format (unit mm)*
G04 Created by KiCad (PCBNEW 7.0.9) date 2025-04-28 00:26:43*
%MOMM*%
%LPD*%
G01*
G04 APERTURE LIST*
%TA.AperFunction,ComponentPad*%
%ADD10C,5.000000*%
%TD*%
%TA.AperFunction,ComponentPad*%
%ADD11R,1.524000X1.524000*%
%TD*%
%TA.AperFunction,ComponentPad*%
%ADD12O,1.524000X1.524000*%
%TD*%
%TA.AperFunction,ViaPad*%
%ADD13C,0.800000*%
%TD*%
%TA.AperFunction,Conductor*%
%ADD14C,0.250000*%
%TD*%
G04 APERTURE END LIST*
D10*
%TO.P,J2,1*%
%TO.N,N/C*%
X105000000Y-81000000D03*
%TD*%
%TO.P,J2,1*%
%TO.N,N/C*%
X105000000Y-30000000D03*
%TD*%
%TO.P,J2,1*%
%TO.N,N/C*%
X84000000Y-30000000D03*
%TD*%
%TO.P,J2,1*%
%TO.N,N/C*%
X84000000Y-81000000D03*
%TD*%
D11*
%TO.P,U2,1,1*%
%TO.N,Net-(U1-GND)*%
X90180000Y-83070000D03*
%TO.P,U2,2,2*%
X92720000Y-83070000D03*
%TO.P,U2,3,3*%
X95260000Y-83070000D03*
%TO.P,U2,4,4*%
X97800000Y-83070000D03*
D12*
%TO.P,U2,5,1_b*%
%TO.N,Net-(U2-1_b)*%
X90180000Y-80530000D03*
%TO.P,U2,6,2_b*%
%TO.N,Net-(U2-2_b)*%
X92720000Y-80530000D03*
%TO.P,U2,7,3_b*%
%TO.N,Net-(U2-3_b)*%
X95260000Y-80530000D03*
%TO.P,U2,8,4_b*%
%TO.N,Net-(U2-4_b)*%
X97800000Y-80530000D03*
%TD*%
D13*
%TO.N,Net-(U1-GND)*%
X92500000Y-46000000D03*
X101750000Y-52250000D03*
X95250000Y-41250000D03*
X84250000Y-40750000D03*
X84000000Y-72500000D03*
X85750000Y-55750000D03*
X91750000Y-58500000D03*
X95000000Y-58500000D03*
X86500000Y-58500000D03*
X84000000Y-61500000D03*
X85000000Y-66500000D03*
X89250000Y-78000000D03*
X94000000Y-78000000D03*
X92750000Y-71250000D03*
X93500000Y-73250000D03*
X90000000Y-61750000D03*
X89250000Y-64750000D03*
X93500000Y-64750000D03*
X88000000Y-71000000D03*
X86000000Y-76000000D03*
X106000000Y-73000000D03*
X99750000Y-58500000D03*
X104000000Y-61000000D03*
X98000000Y-65000000D03*
X98000000Y-69000000D03*
X100000000Y-74000000D03*
X85740000Y-53000000D03*
%TO.N,Net-(U1-5V)*%
X83200000Y-55740000D03*
X87000000Y-60250000D03*
X91702500Y-60250000D03*
X95500000Y-60250000D03*
X100000000Y-60250000D03*
%TD*%
D14*
%TO.N,Net-(U1-5V)*%
X85000000Y-60250000D02*
X83250000Y-58500000D01*
X83250000Y-58500000D02*
X83250000Y-55790000D01*
X83250000Y-55790000D02*
X83200000Y-55740000D01*
X87000000Y-60250000D02*
X85000000Y-60250000D01*
X91702500Y-60250000D02*
X87000000Y-60250000D01*
X95500000Y-60250000D02*
X91702500Y-60250000D01*
X100000000Y-60250000D02*
X95500000Y-60250000D01*
%TD*%
%TA.AperFunction,Conductor*%
%TO.N,Net-(U1-GND)*%
G36*
X92176441Y-82957047D02*
G01*
X92166123Y-83107886D01*
X92196884Y-83255915D01*
X92230090Y-83320000D01*
X90674852Y-83320000D01*
X90723559Y-83182953D01*
X90733877Y-83032114D01*
X90703116Y-82884085D01*
X90669910Y-82820000D01*
X92225148Y-82820000D01*
X92176441Y-82957047D01*
G37*
%TD.AperFunction*%
%TA.AperFunction,Conductor*%
G36*
X94716441Y-82957047D02*
G01*
X94706123Y-83107886D01*
X94736884Y-83255915D01*
X94770090Y-83320000D01*
X93214852Y-83320000D01*
X93263559Y-83182953D01*
X93273877Y-83032114D01*
X93243116Y-82884085D01*
X93209910Y-82820000D01*
X94765148Y-82820000D01*
X94716441Y-82957047D01*
G37*
%TD.AperFunction*%
%TA.AperFunction,Conductor*%
G36*
X97256441Y-82957047D02*
G01*
X97246123Y-83107886D01*
X97276884Y-83255915D01*
X97310090Y-83320000D01*
X95754852Y-83320000D01*
X95803559Y-83182953D01*
X95813877Y-83032114D01*
X95783116Y-82884085D01*
X95749910Y-82820000D01*
X97305148Y-82820000D01*
X97256441Y-82957047D01*
G37*
%TD.AperFunction*%
%TA.AperFunction,Conductor*%
G36*
X105001423Y-26000566D02*
G01*
X105040986Y-26002394D01*
X105172950Y-26008495D01*
X105372549Y-26018302D01*
X105378048Y-26018819D01*
X105563357Y-26044668D01*
X105749828Y-26072329D01*
X105754871Y-26073294D01*
X105939341Y-26116681D01*
X106120221Y-26161989D01*
X106124797Y-26163327D01*
X106305568Y-26223916D01*
X106480339Y-26286450D01*
X106484471Y-26288100D01*
X106542986Y-26313936D01*
X106659474Y-26365370D01*
X106826973Y-26444592D01*
X106830601Y-26446457D01*
X106998128Y-26539770D01*
X106998142Y-26539778D01*
X107156964Y-26634972D01*
X107160119Y-26636996D01*
X107318603Y-26745559D01*
X107467377Y-26855897D01*
X107470001Y-26857957D01*
X107618027Y-26980876D01*
X107755321Y-27105314D01*
X107757514Y-27107402D01*
X107892596Y-27242484D01*
X107894695Y-27244688D01*
X108019129Y-27381980D01*
X108142034Y-27529989D01*
X108144109Y-27532632D01*
X108254443Y-27681400D01*
X108363002Y-27839879D01*
X108365032Y-27843044D01*
X108460221Y-28001857D01*
X108553527Y-28169371D01*
X108555410Y-28173034D01*
X108634638Y-28340547D01*
X108711899Y-28515527D01*
X108713558Y-28519685D01*
X108776093Y-28694459D01*
X108836662Y-28875173D01*
X108838018Y-28879812D01*
X108883317Y-29060654D01*
X108926696Y-29245090D01*
X108927672Y-29250189D01*
X108955337Y-29436689D01*
X108981177Y-29621933D01*
X108981697Y-29627459D01*
X108991512Y-29827238D01*
X108999434Y-29998575D01*
X108999500Y-30001439D01*
X108999500Y-86998560D01*
X108999434Y-87001424D01*
X108991512Y-87172761D01*
X108981697Y-87372539D01*
X108981177Y-87378065D01*
X108955337Y-87563310D01*
X108927672Y-87749809D01*
X108926696Y-87754908D01*
X108883317Y-87939345D01*
X108838018Y-88120186D01*
X108836662Y-88124825D01*
X108776093Y-88305540D01*
X108713557Y-88480314D01*
X108711899Y-88484470D01*
X108634638Y-88659452D01*
X108555410Y-88826964D01*
X108553527Y-88830627D01*
X108460221Y-88998142D01*
X108365032Y-89156954D01*
X108363002Y-89160118D01*
X108254437Y-89318608D01*
X108144121Y-89467350D01*
X108142021Y-89470025D01*
X108019132Y-89618016D01*
X107894695Y-89755310D01*
X107892596Y-89757514D01*
X107757514Y-89892596D01*
X107755310Y-89894695D01*
X107618016Y-90019132D01*
X107470025Y-90142021D01*
X107467350Y-90144121D01*
X107318608Y-90254437D01*
X107160118Y-90363002D01*
X107156954Y-90365032D01*
X106998142Y-90460221D01*
X106830627Y-90553527D01*
X106826964Y-90555410D01*
X106659452Y-90634638D01*
X106484470Y-90711899D01*
X106480314Y-90713557D01*
X106305540Y-90776093D01*
X106124825Y-90836662D01*
X106120186Y-90838018D01*
X105939345Y-90883317D01*
X105754908Y-90926696D01*
X105749809Y-90927672D01*
X105563310Y-90955337D01*
X105378065Y-90981177D01*
X105372539Y-90981697D01*
X105172761Y-90991512D01*
X105001424Y-90999434D01*
X104998560Y-90999500D01*
X84001440Y-90999500D01*
X83998576Y-90999434D01*
X83827238Y-90991512D01*
X83627459Y-90981697D01*
X83621933Y-90981177D01*
X83436689Y-90955337D01*
X83250189Y-90927672D01*
X83245090Y-90926696D01*
X83060654Y-90883317D01*
X82879812Y-90838018D01*
X82875173Y-90836662D01*
X82694459Y-90776093D01*
X82519685Y-90713558D01*
X82515527Y-90711899D01*
X82340547Y-90634638D01*
X82173034Y-90555410D01*
X82169371Y-90553527D01*
X82001857Y-90460221D01*
X81843044Y-90365032D01*
X81839879Y-90363002D01*
X81730371Y-90287989D01*
X81681392Y-90254437D01*
X81532632Y-90144109D01*
X81529989Y-90142034D01*
X81381980Y-90019129D01*
X81244688Y-89894695D01*
X81242484Y-89892596D01*
X81107402Y-89757514D01*
X81105314Y-89755321D01*
X80980867Y-89618016D01*
X80857957Y-89470001D01*
X80855897Y-89467377D01*
X80745559Y-89318603D01*
X80636995Y-89160118D01*
X80634966Y-89156954D01*
X80539778Y-88998142D01*
X80512261Y-88948740D01*
X80446457Y-88830601D01*
X80444588Y-88826964D01*
X80365361Y-88659452D01*
X80288100Y-88484471D01*
X80286450Y-88480339D01*
X80223906Y-88305540D01*
X80163327Y-88124797D01*
X80161989Y-88120221D01*
X80116675Y-87939315D01*
X80111402Y-87916895D01*
X80073294Y-87754871D01*
X80072329Y-87749828D01*
X80044662Y-87563310D01*
X80018819Y-87378048D01*
X80018302Y-87372549D01*
X80008487Y-87172761D01*
X80000566Y-87001423D01*
X80000500Y-86998560D01*
X80000500Y-81000003D01*
X80994415Y-81000003D01*
X81014738Y-81348927D01*
X81014739Y-81348938D01*
X81075428Y-81693127D01*
X81075430Y-81693134D01*
X81175674Y-82027972D01*
X81314107Y-82348895D01*
X81314113Y-82348908D01*
X81488870Y-82651597D01*
X81697584Y-82931949D01*
X81697589Y-82931955D01*
X81792085Y-83032114D01*
X81937442Y-83186183D01*
X82020546Y-83255915D01*
X82205186Y-83410847D01*
X82205194Y-83410853D01*
X82497203Y-83602911D01*
X82497207Y-83602913D01*
X82809549Y-83759777D01*
X83137989Y-83879319D01*
X83478086Y-83959923D01*
X83825241Y-84000500D01*
X83825248Y-84000500D01*
X84174752Y-84000500D01*
X84174759Y-84000500D01*
X84521914Y-83959923D01*
X84862011Y-83879319D01*
X85190451Y-83759777D01*
X85502793Y-83602913D01*
X85794811Y-83410849D01*
X86062558Y-83186183D01*
X86302412Y-82931953D01*
X86511130Y-82651596D01*
X86685889Y-82348904D01*
X86824326Y-82027971D01*
X86924569Y-81693136D01*
X86936137Y-81627534D01*
X86985260Y-81348938D01*
X86985259Y-81348938D01*
X86985262Y-81348927D01*
X87002561Y-81051902D01*
X87005585Y-81000003D01*
X87005585Y-80999996D01*
X87001554Y-80930796D01*
X86985262Y-80651073D01*
X86963914Y-80530002D01*
X88912677Y-80530002D01*
X88931929Y-80750062D01*
X88931930Y-80750070D01*
X88989104Y-80963445D01*
X88989105Y-80963447D01*
X88989106Y-80963450D01*
X89006151Y-81000003D01*
X89082466Y-81163662D01*
X89082468Y-81163666D01*
X89209170Y-81344615D01*
X89209175Y-81344621D01*
X89365378Y-81500824D01*
X89365384Y-81500829D01*
X89481915Y-81582425D01*
X89525540Y-81637002D01*
X89532734Y-81706500D01*
X89501211Y-81768855D01*
X89440981Y-81804269D01*
X89410792Y-81808000D01*
X89370155Y-81808000D01*
X89310627Y-81814401D01*
X89310620Y-81814403D01*
X89175913Y-81864645D01*
X89175906Y-81864649D01*
X89060812Y-81950809D01*
X89060809Y-81950812D01*
X88974649Y-82065906D01*
X88974645Y-82065913D01*
X88924403Y-82200620D01*
X88924401Y-82200627D01*
X88918000Y-82260155D01*
X88918000Y-82820000D01*
X89685148Y-82820000D01*
X89636441Y-82957047D01*
X89626123Y-83107886D01*
X89656884Y-83255915D01*
X89690090Y-83320000D01*
X88918000Y-83320000D01*
X88918000Y-83879844D01*
X88924401Y-83939372D01*
X88924403Y-83939379D01*
X88974645Y-84074086D01*
X88974649Y-84074093D01*
X89060809Y-84189187D01*
X89060812Y-84189190D01*
X89175906Y-84275350D01*
X89175913Y-84275354D01*
X89310620Y-84325596D01*
X89310627Y-84325598D01*
X89370155Y-84331999D01*
X89370172Y-84332000D01*
X89930000Y-84332000D01*
X89930000Y-83561683D01*
X89958819Y-83579209D01*
X90104404Y-83620000D01*
X90217622Y-83620000D01*
X90329783Y-83604584D01*
X90430000Y-83561053D01*
X90430000Y-84332000D01*
X90989828Y-84332000D01*
X90989844Y-84331999D01*
X91049372Y-84325598D01*
X91049379Y-84325596D01*
X91184086Y-84275354D01*
X91184093Y-84275350D01*
X91299186Y-84189191D01*
X91350733Y-84120334D01*
X91406667Y-84078463D01*
X91476359Y-84073479D01*
X91537682Y-84106964D01*
X91549267Y-84120334D01*
X91600813Y-84189191D01*
X91715906Y-84275350D01*
X91715913Y-84275354D01*
X91850620Y-84325596D01*
X91850627Y-84325598D01*
X91910155Y-84331999D01*
X91910172Y-84332000D01*
X92470000Y-84332000D01*
X92470000Y-83561683D01*
X92498819Y-83579209D01*
X92644404Y-83620000D01*
X92757622Y-83620000D01*
X92869783Y-83604584D01*
X92970000Y-83561053D01*
X92970000Y-84332000D01*
X93529828Y-84332000D01*
X93529844Y-84331999D01*
X93589372Y-84325598D01*
X93589379Y-84325596D01*
X93724086Y-84275354D01*
X93724093Y-84275350D01*
X93839186Y-84189191D01*
X93890733Y-84120334D01*
X93946667Y-84078463D01*
X94016359Y-84073479D01*
X94077682Y-84106964D01*
X94089267Y-84120334D01*
X94140813Y-84189191D01*
X94255906Y-84275350D01*
X94255913Y-84275354D01*
X94390620Y-84325596D01*
X94390627Y-84325598D01*
X94450155Y-84331999D01*
X94450172Y-84332000D01*
X95010000Y-84332000D01*
X95010000Y-83561683D01*
X95038819Y-83579209D01*
X95184404Y-83620000D01*
X95297622Y-83620000D01*
X95409783Y-83604584D01*
X95510000Y-83561053D01*
X95510000Y-84332000D01*
X96069828Y-84332000D01*
X96069844Y-84331999D01*
X96129372Y-84325598D01*
X96129379Y-84325596D01*
X96264086Y-84275354D01*
X96264093Y-84275350D01*
X96379186Y-84189191D01*
X96430733Y-84120334D01*
X96486667Y-84078463D01*
X96556359Y-84073479D01*
X96617682Y-84106964D01*
X96629267Y-84120334D01*
X96680813Y-84189191D01*
X96795906Y-84275350D01*
X96795913Y-84275354D01*
X96930620Y-84325596D01*
X96930627Y-84325598D01*
X96990155Y-84331999D01*
X96990172Y-84332000D01*
X97550000Y-84332000D01*
X97550000Y-83561683D01*
X97578819Y-83579209D01*
X97724404Y-83620000D01*
X97837622Y-83620000D01*
X97949783Y-83604584D01*
X98050000Y-83561053D01*
X98050000Y-84332000D01*
X98609828Y-84332000D01*
X98609844Y-84331999D01*
X98669372Y-84325598D01*
X98669379Y-84325596D01*
X98804086Y-84275354D01*
X98804093Y-84275350D01*
X98919187Y-84189190D01*
X98919190Y-84189187D01*
X99005350Y-84074093D01*
X99005354Y-84074086D01*
X99055596Y-83939379D01*
X99055598Y-83939372D01*
X99061999Y-83879844D01*
X99062000Y-83879827D01*
X99062000Y-83320000D01*
X98294852Y-83320000D01*
X98343559Y-83182953D01*
X98353877Y-83032114D01*
X98323116Y-82884085D01*
X98289910Y-82820000D01*
X99062000Y-82820000D01*
X99062000Y-82260172D01*
X99061999Y-82260155D01*
X99055598Y-82200627D01*
X99055596Y-82200620D01*
X99005354Y-82065913D01*
X99005350Y-82065906D01*
X98919190Y-81950812D01*
X98919187Y-81950809D01*
X98804093Y-81864649D01*
X98804086Y-81864645D01*
X98669379Y-81814403D01*
X98669372Y-81814401D01*
X98609844Y-81808000D01*
X98569208Y-81808000D01*
X98502169Y-81788315D01*
X98456414Y-81735511D01*
X98446470Y-81666353D01*
X98475495Y-81602797D01*
X98498085Y-81582425D01*
X98550864Y-81545468D01*
X98614620Y-81500826D01*
X98770826Y-81344620D01*
X98897534Y-81163662D01*
X98973849Y-81000003D01*
X101994415Y-81000003D01*
X102014738Y-81348927D01*
X102014739Y-81348938D01*
X102075428Y-81693127D01*
X102075430Y-81693134D01*
X102175674Y-82027972D01*
X102314107Y-82348895D01*
X102314113Y-82348908D01*
X102488870Y-82651597D01*
X102697584Y-82931949D01*
X102697589Y-82931955D01*
X102792085Y-83032114D01*
X102937442Y-83186183D01*
X103020546Y-83255915D01*
X103205186Y-83410847D01*
X103205194Y-83410853D01*
X103497203Y-83602911D01*
X103497207Y-83602913D01*
X103809549Y-83759777D01*
X104137989Y-83879319D01*
X104478086Y-83959923D01*
X104825241Y-84000500D01*
X104825248Y-84000500D01*
X105174752Y-84000500D01*
X105174759Y-84000500D01*
X105521914Y-83959923D01*
X105862011Y-83879319D01*
X106190451Y-83759777D01*
X106502793Y-83602913D01*
X106794811Y-83410849D01*
X107062558Y-83186183D01*
X107302412Y-82931953D01*
X107511130Y-82651596D01*
X107685889Y-82348904D01*
X107824326Y-82027971D01*
X107924569Y-81693136D01*
X107936137Y-81627534D01*
X107985260Y-81348938D01*
X107985259Y-81348938D01*
X107985262Y-81348927D01*
X108002561Y-81051902D01*
X108005585Y-81000003D01*
X108005585Y-80999996D01*
X108001554Y-80930796D01*
X107985262Y-80651073D01*
X107925111Y-80309937D01*
X107924571Y-80306872D01*
X107924569Y-80306865D01*
X107861605Y-80096550D01*
X107824326Y-79972029D01*
X107685889Y-79651096D01*
X107511130Y-79348404D01*
X107504208Y-79339106D01*
X107302415Y-79068050D01*
X107302410Y-79068044D01*
X107186433Y-78945117D01*
X107062558Y-78813817D01*
X106914488Y-78689572D01*
X106794813Y-78589152D01*
X106794805Y-78589146D01*
X106502796Y-78397088D01*
X106190458Y-78240226D01*
X106190452Y-78240223D01*
X105862012Y-78120681D01*
X105862009Y-78120680D01*
X105521915Y-78040077D01*
X105478519Y-78035004D01*
X105174759Y-77999500D01*
X104825241Y-77999500D01*
X104521480Y-78035004D01*
X104478085Y-78040077D01*
X104478083Y-78040077D01*
X104137990Y-78120680D01*
X104137987Y-78120681D01*
X103809547Y-78240223D01*
X103809541Y-78240226D01*
X103497203Y-78397088D01*
X103205194Y-78589146D01*
X103205186Y-78589152D01*
X102937442Y-78813817D01*
X102937440Y-78813819D01*
X102697589Y-79068044D01*
X102697584Y-79068050D01*
X102488870Y-79348402D01*
X102314113Y-79651091D01*
X102314107Y-79651104D01*
X102175674Y-79972027D01*
X102075430Y-80306865D01*
X102075428Y-80306872D01*
X102014739Y-80651061D01*
X102014738Y-80651072D01*
X101994415Y-80999996D01*
X101994415Y-81000003D01*
X98973849Y-81000003D01*
X98990894Y-80963450D01*
X99048070Y-80750068D01*
X99067323Y-80530000D01*
X99048070Y-80309932D01*
X98990894Y-80096550D01*
X98897534Y-79896339D01*
X98770826Y-79715380D01*
X98614620Y-79559174D01*
X98614616Y-79559171D01*
X98614615Y-79559170D01*
X98433666Y-79432468D01*
X98433662Y-79432466D01*
X98433660Y-79432465D01*
X98233450Y-79339106D01*
X98233447Y-79339105D01*
X98233445Y-79339104D01*
X98020070Y-79281930D01*
X98020062Y-79281929D01*
X97800002Y-79262677D01*
X97799998Y-79262677D01*
X97579937Y-79281929D01*
X97579929Y-79281930D01*
X97366554Y-79339104D01*
X97366548Y-79339107D01*
X97166340Y-79432465D01*
X97166338Y-79432466D01*
X96985377Y-79559175D01*
X96829175Y-79715377D01*
X96702466Y-79896338D01*
X96702465Y-79896340D01*
X96642382Y-80025189D01*
X96596209Y-80077628D01*
X96529016Y-80096780D01*
X96462135Y-80076564D01*
X96417618Y-80025189D01*
X96357534Y-79896340D01*
X96357533Y-79896338D01*
X96230827Y-79715381D01*
X96166537Y-79651091D01*
X96074620Y-79559174D01*
X96074616Y-79559171D01*
X96074615Y-79559170D01*
X95893666Y-79432468D01*
X95893662Y-79432466D01*
X95893660Y-79432465D01*
X95693450Y-79339106D01*
X95693447Y-79339105D01*
X95693445Y-79339104D01*
X95480070Y-79281930D01*
X95480062Y-79281929D01*
X95260002Y-79262677D01*
X95259998Y-79262677D01*
X95039937Y-79281929D01*
X95039929Y-79281930D01*
X94826554Y-79339104D01*
X94826548Y-79339107D01*
X94626340Y-79432465D01*
X94626338Y-79432466D01*
X94445377Y-79559175D01*
X94289175Y-79715377D01*
X94162466Y-79896338D01*
X94162465Y-79896340D01*
X94102382Y-80025189D01*
X94056209Y-80077628D01*
X93989016Y-80096780D01*
X93922135Y-80076564D01*
X93877618Y-80025189D01*
X93817534Y-79896340D01*
X93817533Y-79896338D01*
X93690827Y-79715381D01*
X93626537Y-79651091D01*
X93534620Y-79559174D01*
X93534616Y-79559171D01*
X93534615Y-79559170D01*
X93353666Y-79432468D01*
X93353662Y-79432466D01*
X93353660Y-79432465D01*
X93153450Y-79339106D01*
X93153447Y-79339105D01*
X93153445Y-79339104D01*
X92940070Y-79281930D01*
X92940062Y-79281929D01*
X92720002Y-79262677D01*
X92719998Y-79262677D01*
X92499937Y-79281929D01*
X92499929Y-79281930D01*
X92286554Y-79339104D01*
X92286548Y-79339107D01*
X92086340Y-79432465D01*
X92086338Y-79432466D01*
X91905377Y-79559175D01*
X91749175Y-79715377D01*
X91622466Y-79896338D01*
X91622465Y-79896340D01*
X91562382Y-80025189D01*
X91516209Y-80077628D01*
X91449016Y-80096780D01*
X91382135Y-80076564D01*
X91337618Y-80025189D01*
X91277534Y-79896340D01*
X91277533Y-79896338D01*
X91150827Y-79715381D01*
X91086537Y-79651091D01*
X90994620Y-79559174D01*
X90994616Y-79559171D01*
X90994615Y-79559170D01*
X90813666Y-79432468D01*
X90813662Y-79432466D01*
X90813660Y-79432465D01*
X90613450Y-79339106D01*
X90613447Y-79339105D01*
X90613445Y-79339104D01*
X90400070Y-79281930D01*
X90400062Y-79281929D01*
X90180002Y-79262677D01*
X90179998Y-79262677D01*
X89959937Y-79281929D01*
X89959929Y-79281930D01*
X89746554Y-79339104D01*
X89746548Y-79339107D01*
X89546340Y-79432465D01*
X89546338Y-79432466D01*
X89365377Y-79559175D01*
X89209175Y-79715377D01*
X89082466Y-79896338D01*
X89082465Y-79896340D01*
X88989107Y-80096548D01*
X88989104Y-80096554D01*
X88931930Y-80309929D01*
X88931929Y-80309937D01*
X88912677Y-80529997D01*
X88912677Y-80530002D01*
X86963914Y-80530002D01*
X86925111Y-80309937D01*
X86924571Y-80306872D01*
X86924569Y-80306865D01*
X86861605Y-80096550D01*
X86824326Y-79972029D01*
X86685889Y-79651096D01*
X86511130Y-79348404D01*
X86504208Y-79339106D01*
X86302415Y-79068050D01*
X86302410Y-79068044D01*
X86186433Y-78945117D01*
X86062558Y-78813817D01*
X85914488Y-78689572D01*
X85794813Y-78589152D01*
X85794805Y-78589146D01*
X85502796Y-78397088D01*
X85190458Y-78240226D01*
X85190452Y-78240223D01*
X84862012Y-78120681D01*
X84862009Y-78120680D01*
X84521915Y-78040077D01*
X84478519Y-78035004D01*
X84174759Y-77999500D01*
X83825241Y-77999500D01*
X83521480Y-78035004D01*
X83478085Y-78040077D01*
X83478083Y-78040077D01*
X83137990Y-78120680D01*
X83137987Y-78120681D01*
X82809547Y-78240223D01*
X82809541Y-78240226D01*
X82497203Y-78397088D01*
X82205194Y-78589146D01*
X82205186Y-78589152D01*
X81937442Y-78813817D01*
X81937440Y-78813819D01*
X81697589Y-79068044D01*
X81697584Y-79068050D01*
X81488870Y-79348402D01*
X81314113Y-79651091D01*
X81314107Y-79651104D01*
X81175674Y-79972027D01*
X81075430Y-80306865D01*
X81075428Y-80306872D01*
X81014739Y-80651061D01*
X81014738Y-80651072D01*
X80994415Y-80999996D01*
X80994415Y-81000003D01*
X80000500Y-81000003D01*
X80000500Y-55740000D01*
X82294540Y-55740000D01*
X82314326Y-55928256D01*
X82314327Y-55928259D01*
X82372818Y-56108277D01*
X82372821Y-56108284D01*
X82467467Y-56272216D01*
X82592650Y-56411245D01*
X82622880Y-56474236D01*
X82624500Y-56494217D01*
X82624500Y-58417255D01*
X82622775Y-58432872D01*
X82623061Y-58432899D01*
X82622326Y-58440665D01*
X82624500Y-58509814D01*
X82624500Y-58539343D01*
X82624501Y-58539360D01*
X82625368Y-58546231D01*
X82625826Y-58552050D01*
X82627290Y-58598624D01*
X82627291Y-58598627D01*
X82632880Y-58617867D01*
X82636824Y-58636911D01*
X82639336Y-58656791D01*
X82656490Y-58700119D01*
X82658382Y-58705647D01*
X82671381Y-58750388D01*
X82681580Y-58767634D01*
X82690138Y-58785103D01*
X82697514Y-58803732D01*
X82724898Y-58841423D01*
X82728106Y-58846307D01*
X82751827Y-58886416D01*
X82751833Y-58886424D01*
X82765990Y-58900580D01*
X82778628Y-58915376D01*
X82790405Y-58931586D01*
X82790406Y-58931587D01*
X82826309Y-58961288D01*
X82830620Y-58965210D01*
X83747125Y-59881715D01*
X84499194Y-60633784D01*
X84509019Y-60646048D01*
X84509240Y-60645866D01*
X84514210Y-60651873D01*
X84514213Y-60651876D01*
X84514214Y-60651877D01*
X84564651Y-60699241D01*
X84585530Y-60720120D01*
X84591004Y-60724366D01*
X84595442Y-60728156D01*
X84629418Y-60760062D01*
X84629422Y-60760064D01*
X84646973Y-60769713D01*
X84663231Y-60780392D01*
X84679064Y-60792674D01*
X84701015Y-60802172D01*
X84721837Y-60811183D01*
X84727081Y-60813752D01*
X84767908Y-60836197D01*
X84787312Y-60841179D01*
X84805710Y-60847478D01*
X84824105Y-60855438D01*
X84870129Y-60862726D01*
X84875832Y-60863907D01*
X84920981Y-60875500D01*
X84941016Y-60875500D01*
X84960413Y-60877026D01*
X84980196Y-60880160D01*
X85026584Y-60875775D01*
X85032422Y-60875500D01*
X86296252Y-60875500D01*
X86363291Y-60895185D01*
X86388400Y-60916526D01*
X86394126Y-60922885D01*
X86394130Y-60922889D01*
X86547265Y-61034148D01*
X86547270Y-61034151D01*
X86720192Y-61111142D01*
X86720197Y-61111144D01*
X86905354Y-61150500D01*
X86905355Y-61150500D01*
X87094644Y-61150500D01*
X87094646Y-61150500D01*
X87279803Y-61111144D01*
X87452730Y-61034151D01*
X87605871Y-60922888D01*
X87608788Y-60919647D01*
X87611600Y-60916526D01*
X87671087Y-60879879D01*
X87703748Y-60875500D01*
X90998752Y-60875500D01*
X91065791Y-60895185D01*
X91090900Y-60916526D01*
X91096626Y-60922885D01*
X91096630Y-60922889D01*
X91249765Y-61034148D01*
X91249770Y-61034151D01*
X91422692Y-61111142D01*
X91422697Y-61111144D01*
X91607854Y-61150500D01*
X91607855Y-61150500D01*
X91797144Y-61150500D01*
X91797146Y-61150500D01*
X91982303Y-61111144D01*
X92155230Y-61034151D01*
X92308371Y-60922888D01*
X92311288Y-60919647D01*
X92314100Y-60916526D01*
X92373587Y-60879879D01*
X92406248Y-60875500D01*
X94796252Y-60875500D01*
X94863291Y-60895185D01*
X94888400Y-60916526D01*
X94894126Y-60922885D01*
X94894130Y-60922889D01*
X95047265Y-61034148D01*
X95047270Y-61034151D01*
X95220192Y-61111142D01*
X95220197Y-61111144D01*
X95405354Y-61150500D01*
X95405355Y-61150500D01*
X95594644Y-61150500D01*
X95594646Y-61150500D01*
X95779803Y-61111144D01*
X95952730Y-61034151D01*
X96105871Y-60922888D01*
X96108788Y-60919647D01*
X96111600Y-60916526D01*
X96171087Y-60879879D01*
X96203748Y-60875500D01*
X99296252Y-60875500D01*
X99363291Y-60895185D01*
X99388400Y-60916526D01*
X99394126Y-60922885D01*
X99394130Y-60922889D01*
X99547265Y-61034148D01*
X99547270Y-61034151D01*
X99720192Y-61111142D01*
X99720197Y-61111144D01*
X99905354Y-61150500D01*
X99905355Y-61150500D01*
X100094644Y-61150500D01*
X100094646Y-61150500D01*
X100279803Y-61111144D01*
X100452730Y-61034151D01*
X100605871Y-60922888D01*
X100732533Y-60782216D01*
X100827179Y-60618284D01*
X100885674Y-60438256D01*
X100905460Y-60250000D01*
X100885674Y-60061744D01*
X100827179Y-59881716D01*
X100732533Y-59717784D01*
X100605871Y-59577112D01*
X100605870Y-59577111D01*
X100452734Y-59465851D01*
X100452729Y-59465848D01*
X100279807Y-59388857D01*
X100279802Y-59388855D01*
X100134001Y-59357865D01*
X100094646Y-59349500D01*
X99905354Y-59349500D01*
X99872897Y-59356398D01*
X99720197Y-59388855D01*
X99720192Y-59388857D01*
X99547270Y-59465848D01*
X99547265Y-59465851D01*
X99394130Y-59577110D01*
X99394126Y-59577114D01*
X99388400Y-59583474D01*
X99328913Y-59620121D01*
X99296252Y-59624500D01*
X96203748Y-59624500D01*
X96136709Y-59604815D01*
X96111600Y-59583474D01*
X96105873Y-59577114D01*
X96105869Y-59577110D01*
X95952734Y-59465851D01*
X95952729Y-59465848D01*
X95779807Y-59388857D01*
X95779802Y-59388855D01*
X95634001Y-59357865D01*
X95594646Y-59349500D01*
X95405354Y-59349500D01*
X95372897Y-59356398D01*
X95220197Y-59388855D01*
X95220192Y-59388857D01*
X95047270Y-59465848D01*
X95047265Y-59465851D01*
X94894130Y-59577110D01*
X94894126Y-59577114D01*
X94888400Y-59583474D01*
X94828913Y-59620121D01*
X94796252Y-59624500D01*
X92406248Y-59624500D01*
X92339209Y-59604815D01*
X92314100Y-59583474D01*
X92308373Y-59577114D01*
X92308369Y-59577110D01*
X92155234Y-59465851D01*
X92155229Y-59465848D01*
X91982307Y-59388857D01*
X91982302Y-59388855D01*
X91836501Y-59357865D01*
X91797146Y-59349500D01*
X91607854Y-59349500D01*
X91575397Y-59356398D01*
X91422697Y-59388855D01*
X91422692Y-59388857D01*
X91249770Y-59465848D01*
X91249765Y-59465851D01*
X91096630Y-59577110D01*
X91096626Y-59577114D01*
X91090900Y-59583474D01*
X91031413Y-59620121D01*
X90998752Y-59624500D01*
X87703748Y-59624500D01*
X87636709Y-59604815D01*
X87611600Y-59583474D01*
X87605873Y-59577114D01*
X87605869Y-59577110D01*
X87452734Y-59465851D01*
X87452729Y-59465848D01*
X87279807Y-59388857D01*
X87279802Y-59388855D01*
X87134001Y-59357865D01*
X87094646Y-59349500D01*
X86905354Y-59349500D01*
X86872897Y-59356398D01*
X86720197Y-59388855D01*
X86720192Y-59388857D01*
X86547270Y-59465848D01*
X86547265Y-59465851D01*
X86394130Y-59577110D01*
X86394126Y-59577114D01*
X86388400Y-59583474D01*
X86328913Y-59620121D01*
X86296252Y-59624500D01*
X85310452Y-59624500D01*
X85243413Y-59604815D01*
X85222771Y-59588181D01*
X83911819Y-58277228D01*
X83878334Y-58215905D01*
X83875500Y-58189547D01*
X83875500Y-56383156D01*
X83895185Y-56316117D01*
X83907351Y-56300183D01*
X83932533Y-56272216D01*
X84027179Y-56108284D01*
X84085674Y-55928256D01*
X84105460Y-55740000D01*
X84085674Y-55551744D01*
X84027179Y-55371716D01*
X83932533Y-55207784D01*
X83805871Y-55067112D01*
X83805870Y-55067111D01*
X83652734Y-54955851D01*
X83652729Y-54955848D01*
X83479807Y-54878857D01*
X83479802Y-54878855D01*
X83334001Y-54847865D01*
X83294646Y-54839500D01*
X83105354Y-54839500D01*
X83072897Y-54846398D01*
X82920197Y-54878855D01*
X82920192Y-54878857D01*
X82747270Y-54955848D01*
X82747265Y-54955851D01*
X82594129Y-55067111D01*
X82467466Y-55207785D01*
X82372821Y-55371715D01*
X82372818Y-55371722D01*
X82314327Y-55551740D01*
X82314326Y-55551744D01*
X82294540Y-55740000D01*
X80000500Y-55740000D01*
X80000500Y-30001439D01*
X80000533Y-30000003D01*
X80994415Y-30000003D01*
X81014738Y-30348927D01*
X81014739Y-30348938D01*
X81075428Y-30693127D01*
X81075430Y-30693134D01*
X81175674Y-31027972D01*
X81314107Y-31348895D01*
X81314113Y-31348908D01*
X81488870Y-31651597D01*
X81697584Y-31931949D01*
X81697589Y-31931955D01*
X81821463Y-32063253D01*
X81937442Y-32186183D01*
X82113903Y-32334251D01*
X82205186Y-32410847D01*
X82205194Y-32410853D01*
X82497203Y-32602911D01*
X82497207Y-32602913D01*
X82809549Y-32759777D01*
X83137989Y-32879319D01*
X83478086Y-32959923D01*
X83825241Y-33000500D01*
X83825248Y-33000500D01*
X84174752Y-33000500D01*
X84174759Y-33000500D01*
X84521914Y-32959923D01*
X84862011Y-32879319D01*
X85190451Y-32759777D01*
X85502793Y-32602913D01*
X85794811Y-32410849D01*
X86062558Y-32186183D01*
X86302412Y-31931953D01*
X86511130Y-31651596D01*
X86685889Y-31348904D01*
X86824326Y-31027971D01*
X86924569Y-30693136D01*
X86985262Y-30348927D01*
X87005585Y-30000003D01*
X101994415Y-30000003D01*
X102014738Y-30348927D01*
X102014739Y-30348938D01*
X102075428Y-30693127D01*
X102075430Y-30693134D01*
X102175674Y-31027972D01*
X102314107Y-31348895D01*
X102314113Y-31348908D01*
X102488870Y-31651597D01*
X102697584Y-31931949D01*
X102697589Y-31931955D01*
X102821463Y-32063253D01*
X102937442Y-32186183D01*
X103113903Y-32334251D01*
X103205186Y-32410847D01*
X103205194Y-32410853D01*
X103497203Y-32602911D01*
X103497207Y-32602913D01*
X103809549Y-32759777D01*
X104137989Y-32879319D01*
X104478086Y-32959923D01*
X104825241Y-33000500D01*
X104825248Y-33000500D01*
X105174752Y-33000500D01*
X105174759Y-33000500D01*
X105521914Y-32959923D01*
X105862011Y-32879319D01*
X106190451Y-32759777D01*
X106502793Y-32602913D01*
X106794811Y-32410849D01*
X107062558Y-32186183D01*
X107302412Y-31931953D01*
X107511130Y-31651596D01*
X107685889Y-31348904D01*
X107824326Y-31027971D01*
X107924569Y-30693136D01*
X107985262Y-30348927D01*
X108005585Y-30000000D01*
X107985262Y-29651073D01*
X107980124Y-29621933D01*
X107924571Y-29306872D01*
X107924569Y-29306865D01*
X107912064Y-29265094D01*
X107824326Y-28972029D01*
X107685889Y-28651096D01*
X107511130Y-28348404D01*
X107511129Y-28348402D01*
X107302415Y-28068050D01*
X107302410Y-28068044D01*
X107186433Y-27945117D01*
X107062558Y-27813817D01*
X106904749Y-27681400D01*
X106794813Y-27589152D01*
X106794805Y-27589146D01*
X106502796Y-27397088D01*
X106190458Y-27240226D01*
X106190452Y-27240223D01*
X105862012Y-27120681D01*
X105862009Y-27120680D01*
X105521915Y-27040077D01*
X105478519Y-27035004D01*
X105174759Y-26999500D01*
X104825241Y-26999500D01*
X104521480Y-27035004D01*
X104478085Y-27040077D01*
X104478083Y-27040077D01*
X104137990Y-27120680D01*
X104137987Y-27120681D01*
X103809547Y-27240223D01*
X103809541Y-27240226D01*
X103497203Y-27397088D01*
X103205194Y-27589146D01*
X103205186Y-27589152D01*
X102937442Y-27813817D01*
X102937440Y-27813819D01*
X102697589Y-28068044D01*
X102697584Y-28068050D01*
X102488870Y-28348402D01*
X102314113Y-28651091D01*
X102314107Y-28651104D01*
X102175674Y-28972027D01*
X102075430Y-29306865D01*
X102075428Y-29306872D01*
X102014739Y-29651061D01*
X102014738Y-29651072D01*
X101994415Y-29999996D01*
X101994415Y-30000003D01*
X87005585Y-30000003D01*
X87005585Y-30000000D01*
X86985262Y-29651073D01*
X86980124Y-29621933D01*
X86924571Y-29306872D01*
X86924569Y-29306865D01*
X86912064Y-29265094D01*
X86824326Y-28972029D01*
X86685889Y-28651096D01*
X86511130Y-28348404D01*
X86511129Y-28348402D01*
X86302415Y-28068050D01*
X86302410Y-28068044D01*
X86186433Y-27945117D01*
X86062558Y-27813817D01*
X85904749Y-27681400D01*
X85794813Y-27589152D01*
X85794805Y-27589146D01*
X85502796Y-27397088D01*
X85190458Y-27240226D01*
X85190452Y-27240223D01*
X84862012Y-27120681D01*
X84862009Y-27120680D01*
X84521915Y-27040077D01*
X84478519Y-27035004D01*
X84174759Y-26999500D01*
X83825241Y-26999500D01*
X83521480Y-27035004D01*
X83478085Y-27040077D01*
X83478083Y-27040077D01*
X83137990Y-27120680D01*
X83137987Y-27120681D01*
X82809547Y-27240223D01*
X82809541Y-27240226D01*
X82497203Y-27397088D01*
X82205194Y-27589146D01*
X82205186Y-27589152D01*
X81937442Y-27813817D01*
X81937440Y-27813819D01*
X81697589Y-28068044D01*
X81697584Y-28068050D01*
X81488870Y-28348402D01*
X81314113Y-28651091D01*
X81314107Y-28651104D01*
X81175674Y-28972027D01*
X81075430Y-29306865D01*
X81075428Y-29306872D01*
X81014739Y-29651061D01*
X81014738Y-29651072D01*
X80994415Y-29999996D01*
X80994415Y-30000003D01*
X80000533Y-30000003D01*
X80000566Y-29998576D01*
X80008487Y-29827238D01*
X80018302Y-29627446D01*
X80018818Y-29621955D01*
X80044670Y-29436633D01*
X80072331Y-29250162D01*
X80073292Y-29245137D01*
X80116689Y-29060626D01*
X80161993Y-28879764D01*
X80163323Y-28875216D01*
X80223915Y-28694431D01*
X80286457Y-28519641D01*
X80288100Y-28515527D01*
X80365368Y-28340530D01*
X80444615Y-28172977D01*
X80446444Y-28169423D01*
X80539781Y-28001852D01*
X80634990Y-27843005D01*
X80636979Y-27839904D01*
X80745570Y-27681381D01*
X80855924Y-27532586D01*
X80857928Y-27530033D01*
X80980875Y-27381973D01*
X81105351Y-27244636D01*
X81107361Y-27242526D01*
X81242526Y-27107361D01*
X81244636Y-27105351D01*
X81381973Y-26980875D01*
X81530033Y-26857928D01*
X81532586Y-26855924D01*
X81681381Y-26745570D01*
X81839904Y-26636979D01*
X81843005Y-26634990D01*
X82001858Y-26539778D01*
X82169423Y-26446444D01*
X82172977Y-26444615D01*
X82340530Y-26365368D01*
X82515538Y-26288095D01*
X82519641Y-26286457D01*
X82694431Y-26223915D01*
X82875216Y-26163323D01*
X82879764Y-26161993D01*
X83060626Y-26116689D01*
X83245137Y-26073292D01*
X83250162Y-26072331D01*
X83436651Y-26044667D01*
X83621955Y-26018818D01*
X83627446Y-26018302D01*
X83826958Y-26008500D01*
X83968945Y-26001935D01*
X83998577Y-26000566D01*
X84001440Y-26000500D01*
X104998560Y-26000500D01*
X105001423Y-26000566D01*
G37*
%TD.AperFunction*%
%TD*%
M02*
