%TF.GenerationSoftware,KiCad,Pcbnew,7.0.9*%
%TF.CreationDate,2025-04-28T00:26:43+09:00*%
%TF.ProjectId,Rp2040_v1.1,52703230-3430-45f7-9631-2e312e6b6963,rev?*%
%TF.SameCoordinates,Original*%
%TF.FileFunction,Copper,L1,Top*%
%TF.FilePolarity,Positive*%
%FSLAX46Y46*%
G04 Gerber Fmt 4.6, Leading zero omitted, Abs format (unit mm)*
G04 Created by KiCad (PCBNEW 7.0.9) date 2025-04-28 00:26:43*
%MOMM*%
%LPD*%
G01*
G04 APERTURE LIST*
G04 Aperture macros list*
%AMRoundRect*
0 Rectangle with rounded corners*
0 $1 Rounding radius*
0 $2 $3 $4 $5 $6 $7 $8 $9 X,Y pos of 4 corners*
0 Add a 4 corners polygon primitive as box body*
4,1,4,$2,$3,$4,$5,$6,$7,$8,$9,$2,$3,0*
0 Add four circle primitives for the rounded corners*
1,1,$1+$1,$2,$3*
1,1,$1+$1,$4,$5*
1,1,$1+$1,$6,$7*
1,1,$1+$1,$8,$9*
0 Add four rect primitives between the rounded corners*
20,1,$1+$1,$2,$3,$4,$5,0*
20,1,$1+$1,$4,$5,$6,$7,0*
20,1,$1+$1,$6,$7,$8,$9,0*
20,1,$1+$1,$8,$9,$2,$3,0*%
G04 Aperture macros list end*
%TA.AperFunction,ComponentPad*%
%ADD10C,5.000000*%
%TD*%
%TA.AperFunction,SMDPad,CuDef*%
%ADD11R,1.220000X0.910000*%
%TD*%
%TA.AperFunction,SMDPad,CuDef*%
%ADD12RoundRect,0.250000X-0.262500X-0.450000X0.262500X-0.450000X0.262500X0.450000X-0.262500X0.450000X0*%
%TD*%
%TA.AperFunction,SMDPad,CuDef*%
%ADD13RoundRect,0.250000X0.262500X0.450000X-0.262500X0.450000X-0.262500X-0.450000X0.262500X-0.450000X0*%
%TD*%
%TA.AperFunction,ComponentPad*%
%ADD14R,1.524000X1.524000*%
%TD*%
%TA.AperFunction,ComponentPad*%
%ADD15O,1.524000X1.524000*%
%TD*%
%TA.AperFunction,SMDPad,CuDef*%
%ADD16RoundRect,0.375000X0.375000X-1.125000X0.375000X1.125000X-0.375000X1.125000X-0.375000X-1.125000X0*%
%TD*%
%TA.AperFunction,SMDPad,CuDef*%
%ADD17RoundRect,0.375000X1.125000X0.375000X-1.125000X0.375000X-1.125000X-0.375000X1.125000X-0.375000X0*%
%TD*%
%TA.AperFunction,SMDPad,CuDef*%
%ADD18RoundRect,0.250000X-0.450000X0.262500X-0.450000X-0.262500X0.450000X-0.262500X0.450000X0.262500X0*%
%TD*%
%TA.AperFunction,ViaPad*%
%ADD19C,0.800000*%
%TD*%
%TA.AperFunction,Conductor*%
%ADD20C,0.250000*%
%TD*%
G04 APERTURE END LIST*
D10*
%TO.P,J2,1*%
%TO.N,N/C*%
X105000000Y-81000000D03*
%TD*%
%TO.P,J2,1*%
%TO.N,N/C*%
X105000000Y-30000000D03*
%TD*%
%TO.P,J2,1*%
%TO.N,N/C*%
X84000000Y-30000000D03*
%TD*%
%TO.P,J2,1*%
%TO.N,N/C*%
X84000000Y-81000000D03*
%TD*%
D11*
%TO.P,D4,C,C*%
%TO.N,Net-(U1-5V)*%
X95500000Y-60250000D03*
%TO.P,D4,A,A*%
%TO.N,Net-(U1-ADC1)*%
X95500000Y-63520000D03*
%TD*%
D12*
%TO.P,1K1,2*%
%TO.N,Net-(U2-3_b)*%
X98000000Y-72885000D03*
%TO.P,1K1,1*%
%TO.N,Net-(U1-ADC1)*%
X96175000Y-72885000D03*
%TD*%
D13*
%TO.P,1M1,2*%
%TO.N,Net-(U1-GND)*%
X96175000Y-75885000D03*
%TO.P,1M1,1*%
%TO.N,Net-(U2-3_b)*%
X98000000Y-75885000D03*
%TD*%
D11*
%TO.P,D3,C,C*%
%TO.N,Net-(U1-ADC1)*%
X95500000Y-66000000D03*
%TO.P,D3,A,A*%
%TO.N,Net-(U1-GND)*%
X95500000Y-69270000D03*
%TD*%
D14*
%TO.P,U2,1,1*%
%TO.N,Net-(U1-GND)*%
X90180000Y-83070000D03*
%TO.P,U2,2,2*%
X92720000Y-83070000D03*
%TO.P,U2,3,3*%
X95260000Y-83070000D03*
%TO.P,U2,4,4*%
X97800000Y-83070000D03*
D15*
%TO.P,U2,5,1_b*%
%TO.N,Net-(U2-1_b)*%
X90180000Y-80530000D03*
%TO.P,U2,6,2_b*%
%TO.N,Net-(U2-2_b)*%
X92720000Y-80530000D03*
%TO.P,U2,7,3_b*%
%TO.N,Net-(U2-3_b)*%
X95260000Y-80530000D03*
%TO.P,U2,8,4_b*%
%TO.N,Net-(U2-4_b)*%
X97800000Y-80530000D03*
%TD*%
D16*
%TO.P,U1,0,0*%
%TO.N,unconnected-(U1-Pad0)*%
X83200000Y-36740000D03*
%TO.P,U1,1,1*%
%TO.N,unconnected-(U1-Pad1)*%
X85740000Y-36740000D03*
%TO.P,U1,2,2*%
%TO.N,unconnected-(U1-Pad2)*%
X88280000Y-36740000D03*
%TO.P,U1,3,3*%
%TO.N,unconnected-(U1-Pad3)*%
X90820000Y-36740000D03*
%TO.P,U1,4,4*%
%TO.N,unconnected-(U1-Pad4)*%
X93360000Y-36740000D03*
%TO.P,U1,5,5*%
%TO.N,unconnected-(U1-Pad5)*%
X95900000Y-36740000D03*
%TO.P,U1,6,6*%
%TO.N,unconnected-(U1-Pad6)*%
X98440000Y-36740000D03*
%TO.P,U1,7*%
%TO.N,N/C*%
X100980000Y-36740000D03*
%TO.P,U1,8,8*%
%TO.N,unconnected-(U1-Pad8)*%
X103520000Y-36740000D03*
D17*
%TO.P,U1,9,9*%
%TO.N,unconnected-(U1-Pad9)*%
X105500000Y-41190000D03*
%TO.P,U1,10,10*%
%TO.N,unconnected-(U1-Pad10)*%
X105500000Y-43730000D03*
%TO.P,U1,11,11*%
%TO.N,unconnected-(U1-Pad11)*%
X105500000Y-46270000D03*
%TO.P,U1,12,12*%
%TO.N,unconnected-(U1-Pad12)*%
X105500000Y-48810000D03*
%TO.P,U1,13,13*%
%TO.N,unconnected-(U1-Pad13)*%
X105500000Y-51350000D03*
D16*
%TO.P,U1,14,14*%
%TO.N,unconnected-(U1-Pad14)*%
X103520000Y-55740000D03*
%TO.P,U1,15,15*%
%TO.N,unconnected-(U1-Pad15)*%
X100980000Y-55740000D03*
%TO.P,U1,26,ADC0*%
%TO.N,Net-(U1-ADC0)*%
X98440000Y-55740000D03*
%TO.P,U1,27,ADC1*%
%TO.N,Net-(U1-ADC1)*%
X95900000Y-55740000D03*
%TO.P,U1,28,ADC2*%
%TO.N,Net-(U1-ADC2)*%
X93360000Y-55740000D03*
%TO.P,U1,29,ADC3*%
%TO.N,Net-(U1-ADC3)*%
X90820000Y-55740000D03*
%TO.P,U1,30,3V*%
%TO.N,unconnected-(U1-3V-Pad30)*%
X88280000Y-55740000D03*
%TO.P,U1,31,GND*%
%TO.N,Net-(U1-GND)*%
X85740000Y-55740000D03*
%TO.P,U1,32,5V*%
%TO.N,Net-(U1-5V)*%
X83200000Y-55740000D03*
%TD*%
D11*
%TO.P,D8,C,C*%
%TO.N,Net-(U1-5V)*%
X87000000Y-60250000D03*
%TO.P,D8,A,A*%
%TO.N,Net-(U1-ADC3)*%
X87000000Y-63520000D03*
%TD*%
%TO.P,D7,A,A*%
%TO.N,Net-(U1-GND)*%
X87000000Y-69270000D03*
%TO.P,D7,C,C*%
%TO.N,Net-(U1-ADC3)*%
X87000000Y-66000000D03*
%TD*%
%TO.P,D6,A,A*%
%TO.N,Net-(U1-ADC2)*%
X91702500Y-63520000D03*
%TO.P,D6,C,C*%
%TO.N,Net-(U1-5V)*%
X91702500Y-60250000D03*
%TD*%
%TO.P,D5,A,A*%
%TO.N,Net-(U1-GND)*%
X91750000Y-69270000D03*
%TO.P,D5,C,C*%
%TO.N,Net-(U1-ADC2)*%
X91750000Y-66000000D03*
%TD*%
%TO.P,D2,A,A*%
%TO.N,Net-(U1-GND)*%
X100000000Y-69270000D03*
%TO.P,D2,C,C*%
%TO.N,Net-(U1-ADC0)*%
X100000000Y-66000000D03*
%TD*%
%TO.P,D1,C,C*%
%TO.N,Net-(U1-5V)*%
X100000000Y-60250000D03*
%TO.P,D1,A,A*%
%TO.N,Net-(U1-ADC0)*%
X100000000Y-63520000D03*
%TD*%
D18*
%TO.P,1M4,2*%
%TO.N,Net-(U1-GND)*%
X103750000Y-69710000D03*
%TO.P,1M4,1*%
%TO.N,Net-(U2-4_b)*%
X103750000Y-67885000D03*
%TD*%
%TO.P,1M3,1*%
%TO.N,Net-(U2-1_b)*%
X83500000Y-67885000D03*
%TO.P,1M3,2*%
%TO.N,Net-(U1-GND)*%
X83500000Y-69710000D03*
%TD*%
D13*
%TO.P,1M2,2*%
%TO.N,Net-(U1-GND)*%
X89837500Y-75885000D03*
%TO.P,1M2,1*%
%TO.N,Net-(U2-2_b)*%
X91662500Y-75885000D03*
%TD*%
D18*
%TO.P,1K4,1*%
%TO.N,Net-(U1-ADC0)*%
X103750000Y-63385000D03*
%TO.P,1K4,2*%
%TO.N,Net-(U2-4_b)*%
X103750000Y-65210000D03*
%TD*%
%TO.P,1K3,1*%
%TO.N,Net-(U1-ADC3)*%
X83500000Y-63385000D03*
%TO.P,1K3,2*%
%TO.N,Net-(U2-1_b)*%
X83500000Y-65210000D03*
%TD*%
D12*
%TO.P,1K2,2*%
%TO.N,Net-(U2-2_b)*%
X91662500Y-72885000D03*
%TO.P,1K2,1*%
%TO.N,Net-(U1-ADC2)*%
X89837500Y-72885000D03*
%TD*%
D19*
%TO.N,Net-(U1-GND)*%
X92500000Y-46000000D03*
X101750000Y-52250000D03*
X95250000Y-41250000D03*
X84250000Y-40750000D03*
X84000000Y-72500000D03*
X85750000Y-55750000D03*
X91750000Y-58500000D03*
X95000000Y-58500000D03*
X86500000Y-58500000D03*
X84000000Y-61500000D03*
X85000000Y-66500000D03*
X89250000Y-78000000D03*
X94000000Y-78000000D03*
X92750000Y-71250000D03*
X93500000Y-73250000D03*
X90000000Y-61750000D03*
X89250000Y-64750000D03*
X93500000Y-64750000D03*
X88000000Y-71000000D03*
X86000000Y-76000000D03*
X106000000Y-73000000D03*
X99750000Y-58500000D03*
X104000000Y-61000000D03*
X98000000Y-65000000D03*
X98000000Y-69000000D03*
X100000000Y-74000000D03*
X85740000Y-53000000D03*
%TO.N,Net-(U1-5V)*%
X83200000Y-55740000D03*
X87000000Y-60250000D03*
X91702500Y-60250000D03*
X95500000Y-60250000D03*
X100000000Y-60250000D03*
%TD*%
D20*
%TO.N,Net-(U1-GND)*%
X85750000Y-55750000D02*
X85740000Y-57740000D01*
X85740000Y-53000000D02*
X85740000Y-55740000D01*
X85740000Y-57740000D02*
X86500000Y-58500000D01*
X85740000Y-55740000D02*
X85750000Y-55750000D01*
%TO.N,Net-(U2-1_b)*%
X85000000Y-69935000D02*
X85000000Y-68500000D01*
X88000000Y-72935000D02*
X85000000Y-69935000D01*
X85000000Y-68500000D02*
X84385000Y-67885000D01*
X89530000Y-80530000D02*
X88000000Y-79000000D01*
X88000000Y-79000000D02*
X88000000Y-72935000D01*
X90180000Y-80530000D02*
X89530000Y-80530000D01*
X84385000Y-67885000D02*
X83500000Y-67885000D01*
%TO.N,Net-(U2-4_b)*%
X102000000Y-68750000D02*
X102865000Y-67885000D01*
X102865000Y-67885000D02*
X103750000Y-67885000D01*
X97800000Y-78700000D02*
X102000000Y-74500000D01*
X102000000Y-74500000D02*
X102000000Y-68750000D01*
X97800000Y-80530000D02*
X97800000Y-78700000D01*
%TO.N,Net-(U2-3_b)*%
X98000000Y-76750000D02*
X95260000Y-79490000D01*
X98000000Y-75885000D02*
X98000000Y-76750000D01*
X95260000Y-79490000D02*
X95260000Y-80530000D01*
%TO.N,Net-(U1-ADC1)*%
X94000000Y-67250000D02*
X95250000Y-66000000D01*
X95250000Y-66000000D02*
X95500000Y-66000000D01*
X96175000Y-72885000D02*
X94000000Y-70710000D01*
X94000000Y-70710000D02*
X94000000Y-67250000D01*
%TO.N,Net-(U2-3_b)*%
X98000000Y-75885000D02*
X98000000Y-72885000D01*
%TO.N,Net-(U2-4_b)*%
X98000000Y-80330000D02*
X97800000Y-80530000D01*
%TO.N,Net-(U1-ADC1)*%
X95500000Y-66000000D02*
X95000000Y-66000000D01*
%TO.N,Net-(U1-ADC2)*%
X90250000Y-66000000D02*
X91750000Y-66000000D01*
X89837500Y-66412500D02*
X90250000Y-66000000D01*
X89837500Y-72885000D02*
X89837500Y-66412500D01*
%TO.N,Net-(U2-2_b)*%
X91662500Y-75885000D02*
X91662500Y-72885000D01*
X91662500Y-79472500D02*
X92720000Y-80530000D01*
X91662500Y-75885000D02*
X91662500Y-79472500D01*
%TO.N,Net-(U2-1_b)*%
X83500000Y-65210000D02*
X83500000Y-67885000D01*
%TO.N,Net-(U2-4_b)*%
X103750000Y-65210000D02*
X103750000Y-67885000D01*
%TO.N,Net-(U1-ADC0)*%
X100000000Y-63520000D02*
X103615000Y-63520000D01*
X103615000Y-63520000D02*
X103750000Y-63385000D01*
X99020000Y-63520000D02*
X98440000Y-62940000D01*
X100000000Y-63520000D02*
X99020000Y-63520000D01*
X98440000Y-62940000D02*
X98440000Y-55740000D01*
%TO.N,Net-(U1-ADC1)*%
X95900000Y-57400000D02*
X95900000Y-55740000D01*
X97000000Y-58500000D02*
X95900000Y-57400000D01*
X96230000Y-63520000D02*
X97000000Y-62750000D01*
X95500000Y-63520000D02*
X96230000Y-63520000D01*
X97000000Y-62750000D02*
X97000000Y-58500000D01*
%TO.N,Net-(U1-ADC2)*%
X93360000Y-62140000D02*
X93360000Y-55740000D01*
X91980000Y-63520000D02*
X93360000Y-62140000D01*
X91702500Y-63520000D02*
X91980000Y-63520000D01*
%TO.N,Net-(U1-ADC3)*%
X89750000Y-56810000D02*
X90820000Y-55740000D01*
X89750000Y-58000000D02*
X89750000Y-56810000D01*
X88750000Y-59000000D02*
X89750000Y-58000000D01*
X88750000Y-63250000D02*
X88750000Y-59000000D01*
X88480000Y-63520000D02*
X88750000Y-63250000D01*
X87000000Y-63520000D02*
X88480000Y-63520000D01*
X86865000Y-63385000D02*
X87000000Y-63520000D01*
X83500000Y-63385000D02*
X86865000Y-63385000D01*
X87000000Y-63520000D02*
X87000000Y-66000000D01*
%TO.N,Net-(U1-ADC2)*%
X91702500Y-65952500D02*
X91750000Y-66000000D01*
X91702500Y-63520000D02*
X91702500Y-65952500D01*
%TO.N,Net-(U1-ADC1)*%
X95500000Y-63520000D02*
X95500000Y-66000000D01*
%TO.N,Net-(U1-ADC0)*%
X100000000Y-63520000D02*
X100000000Y-66000000D01*
X99797500Y-63837500D02*
X100250000Y-63385000D01*
%TD*%
%TA.AperFunction,Conductor*%
%TO.N,Net-(U1-GND)*%
G36*
X92176441Y-82957047D02*
G01*
X92166123Y-83107886D01*
X92196884Y-83255915D01*
X92230090Y-83320000D01*
X90674852Y-83320000D01*
X90723559Y-83182953D01*
X90733877Y-83032114D01*
X90703116Y-82884085D01*
X90669910Y-82820000D01*
X92225148Y-82820000D01*
X92176441Y-82957047D01*
G37*
%TD.AperFunction*%
%TA.AperFunction,Conductor*%
G36*
X94716441Y-82957047D02*
G01*
X94706123Y-83107886D01*
X94736884Y-83255915D01*
X94770090Y-83320000D01*
X93214852Y-83320000D01*
X93263559Y-83182953D01*
X93273877Y-83032114D01*
X93243116Y-82884085D01*
X93209910Y-82820000D01*
X94765148Y-82820000D01*
X94716441Y-82957047D01*
G37*
%TD.AperFunction*%
%TA.AperFunction,Conductor*%
G36*
X97256441Y-82957047D02*
G01*
X97246123Y-83107886D01*
X97276884Y-83255915D01*
X97310090Y-83320000D01*
X95754852Y-83320000D01*
X95803559Y-83182953D01*
X95813877Y-83032114D01*
X95783116Y-82884085D01*
X95749910Y-82820000D01*
X97305148Y-82820000D01*
X97256441Y-82957047D01*
G37*
%TD.AperFunction*%
%TA.AperFunction,Conductor*%
G36*
X94700343Y-57207826D02*
G01*
X94741088Y-57254849D01*
X94782967Y-57339292D01*
X94782969Y-57339295D01*
X94902277Y-57487721D01*
X94902278Y-57487722D01*
X95050704Y-57607030D01*
X95050707Y-57607032D01*
X95136005Y-57649335D01*
X95221307Y-57691641D01*
X95316860Y-57715403D01*
X95377167Y-57750685D01*
X95393664Y-57772614D01*
X95401826Y-57786414D01*
X95401833Y-57786424D01*
X95415990Y-57800580D01*
X95428628Y-57815376D01*
X95440405Y-57831586D01*
X95440406Y-57831587D01*
X95476309Y-57861288D01*
X95480620Y-57865210D01*
X95912572Y-58297162D01*
X96338181Y-58722771D01*
X96371666Y-58784094D01*
X96374500Y-58810452D01*
X96374500Y-59181295D01*
X96354815Y-59248334D01*
X96302011Y-59294089D01*
X96232853Y-59304033D01*
X96221995Y-59301974D01*
X96217486Y-59300909D01*
X96157883Y-59294501D01*
X96157881Y-59294500D01*
X96157873Y-59294500D01*
X96157864Y-59294500D01*
X94842129Y-59294500D01*
X94842123Y-59294501D01*
X94782516Y-59300908D01*
X94647671Y-59351202D01*
X94647664Y-59351206D01*
X94532455Y-59437452D01*
X94532452Y-59437455D01*
X94446206Y-59552664D01*
X94446202Y-59552671D01*
X94395908Y-59687517D01*
X94389501Y-59747116D01*
X94389501Y-59747123D01*
X94389500Y-59747135D01*
X94389500Y-60752870D01*
X94389501Y-60752876D01*
X94395908Y-60812483D01*
X94446202Y-60947328D01*
X94446206Y-60947335D01*
X94532452Y-61062544D01*
X94532455Y-61062547D01*
X94647664Y-61148793D01*
X94647671Y-61148797D01*
X94782517Y-61199091D01*
X94782516Y-61199091D01*
X94789444Y-61199835D01*
X94842127Y-61205500D01*
X96157872Y-61205499D01*
X96217483Y-61199091D01*
X96217484Y-61199090D01*
X96221981Y-61198028D01*
X96291750Y-61201766D01*
X96348423Y-61242631D01*
X96374006Y-61307649D01*
X96374500Y-61318704D01*
X96374500Y-62439545D01*
X96354815Y-62506584D01*
X96338181Y-62527226D01*
X96328676Y-62536731D01*
X96267353Y-62570216D01*
X96225399Y-62569842D01*
X96225196Y-62571738D01*
X96157883Y-62564501D01*
X96157881Y-62564500D01*
X96157873Y-62564500D01*
X96157864Y-62564500D01*
X94842129Y-62564500D01*
X94842123Y-62564501D01*
X94782516Y-62570908D01*
X94647671Y-62621202D01*
X94647664Y-62621206D01*
X94532455Y-62707452D01*
X94532452Y-62707455D01*
X94446206Y-62822664D01*
X94446202Y-62822671D01*
X94395908Y-62957517D01*
X94389501Y-63017116D01*
X94389500Y-63017135D01*
X94389500Y-64022870D01*
X94389501Y-64022876D01*
X94395908Y-64082483D01*
X94446202Y-64217328D01*
X94446206Y-64217335D01*
X94532452Y-64332544D01*
X94532455Y-64332547D01*
X94647664Y-64418793D01*
X94647671Y-64418797D01*
X94789785Y-64471802D01*
X94788986Y-64473944D01*
X94839721Y-64502826D01*
X94872114Y-64564733D01*
X94874500Y-64588940D01*
X94874500Y-64931059D01*
X94854815Y-64998098D01*
X94802011Y-65043853D01*
X94789734Y-65048062D01*
X94789785Y-65048198D01*
X94647671Y-65101202D01*
X94647664Y-65101206D01*
X94532455Y-65187452D01*
X94532452Y-65187455D01*
X94446206Y-65302664D01*
X94446202Y-65302671D01*
X94395908Y-65437517D01*
X94389501Y-65497116D01*
X94389501Y-65497123D01*
X94389500Y-65497135D01*
X94389500Y-65850516D01*
X94387304Y-65873751D01*
X94369854Y-65965230D01*
X94337956Y-66027393D01*
X94335731Y-66029676D01*
X93616208Y-66749199D01*
X93603951Y-66759020D01*
X93604134Y-66759241D01*
X93598123Y-66764213D01*
X93550772Y-66814636D01*
X93529889Y-66835519D01*
X93529877Y-66835532D01*
X93525621Y-66841017D01*
X93521837Y-66845447D01*
X93489937Y-66879418D01*
X93489936Y-66879420D01*
X93480284Y-66896976D01*
X93469610Y-66913226D01*
X93457329Y-66929061D01*
X93457324Y-66929068D01*
X93438815Y-66971838D01*
X93436245Y-66977084D01*
X93413803Y-67017906D01*
X93408822Y-67037307D01*
X93402521Y-67055710D01*
X93394562Y-67074102D01*
X93394561Y-67074105D01*
X93387271Y-67120127D01*
X93386087Y-67125846D01*
X93374501Y-67170972D01*
X93374500Y-67170982D01*
X93374500Y-67191016D01*
X93372973Y-67210415D01*
X93369840Y-67230194D01*
X93369840Y-67230195D01*
X93374225Y-67276583D01*
X93374500Y-67282421D01*
X93374500Y-70627255D01*
X93372775Y-70642872D01*
X93373061Y-70642899D01*
X93372326Y-70650665D01*
X93374500Y-70719814D01*
X93374500Y-70749343D01*
X93374501Y-70749360D01*
X93375368Y-70756231D01*
X93375826Y-70762050D01*
X93377290Y-70808624D01*
X93377291Y-70808627D01*
X93382880Y-70827867D01*
X93386824Y-70846911D01*
X93389336Y-70866791D01*
X93406490Y-70910119D01*
X93408382Y-70915647D01*
X93421381Y-70960388D01*
X93431580Y-70977634D01*
X93440138Y-70995103D01*
X93447514Y-71013732D01*
X93474898Y-71051423D01*
X93478106Y-71056307D01*
X93501827Y-71096416D01*
X93501833Y-71096424D01*
X93515990Y-71110580D01*
X93528628Y-71125376D01*
X93540405Y-71141586D01*
X93540406Y-71141587D01*
X93576309Y-71171288D01*
X93580620Y-71175210D01*
X94790389Y-72384980D01*
X95125681Y-72720272D01*
X95159166Y-72781595D01*
X95162000Y-72807953D01*
X95162000Y-73385001D01*
X95162001Y-73385019D01*
X95172500Y-73487796D01*
X95172501Y-73487799D01*
X95217630Y-73623988D01*
X95227686Y-73654334D01*
X95319788Y-73803656D01*
X95443844Y-73927712D01*
X95593166Y-74019814D01*
X95759703Y-74074999D01*
X95862491Y-74085500D01*
X96487508Y-74085499D01*
X96487516Y-74085498D01*
X96487519Y-74085498D01*
X96543802Y-74079748D01*
X96590297Y-74074999D01*
X96756834Y-74019814D01*
X96906156Y-73927712D01*
X96999819Y-73834049D01*
X97061142Y-73800564D01*
X97130834Y-73805548D01*
X97175181Y-73834049D01*
X97268844Y-73927712D01*
X97315596Y-73956548D01*
X97362320Y-74008494D01*
X97374500Y-74062087D01*
X97374500Y-74707911D01*
X97354815Y-74774950D01*
X97315598Y-74813449D01*
X97268846Y-74842286D01*
X97174827Y-74936305D01*
X97113503Y-74969789D01*
X97043812Y-74964805D01*
X96999465Y-74936304D01*
X96905845Y-74842684D01*
X96756624Y-74750643D01*
X96756619Y-74750641D01*
X96590197Y-74695494D01*
X96590190Y-74695493D01*
X96487486Y-74685000D01*
X96425000Y-74685000D01*
X96425000Y-77084999D01*
X96481047Y-77084999D01*
X96548086Y-77104684D01*
X96593841Y-77157488D01*
X96603785Y-77226646D01*
X96574760Y-77290202D01*
X96568728Y-77296680D01*
X94876208Y-78989199D01*
X94863951Y-78999020D01*
X94864134Y-78999241D01*
X94858123Y-79004213D01*
X94810772Y-79054636D01*
X94789889Y-79075519D01*
X94789877Y-79075532D01*
X94785621Y-79081017D01*
X94781837Y-79085447D01*
X94749937Y-79119418D01*
X94749936Y-79119420D01*
X94740284Y-79136976D01*
X94729610Y-79153226D01*
X94717329Y-79169061D01*
X94717324Y-79169068D01*
X94698815Y-79211838D01*
X94696245Y-79217084D01*
X94673803Y-79257906D01*
X94668822Y-79277307D01*
X94662521Y-79295710D01*
X94654562Y-79314102D01*
X94654561Y-79314105D01*
X94647271Y-79360126D01*
X94646087Y-79365844D01*
X94640971Y-79385774D01*
X94605236Y-79445814D01*
X94591988Y-79456518D01*
X94445378Y-79559174D01*
X94289175Y-79715377D01*
X94162466Y-79896338D01*
X94162465Y-79896340D01*
X94102382Y-80025189D01*
X94056209Y-80077628D01*
X93989016Y-80096780D01*
X93922135Y-80076564D01*
X93877618Y-80025189D01*
X93817534Y-79896340D01*
X93817533Y-79896338D01*
X93690827Y-79715381D01*
X93622698Y-79647252D01*
X93534620Y-79559174D01*
X93534616Y-79559171D01*
X93534615Y-79559170D01*
X93353666Y-79432468D01*
X93353662Y-79432466D01*
X93303763Y-79409198D01*
X93153450Y-79339106D01*
X93153447Y-79339105D01*
X93153445Y-79339104D01*
X92940070Y-79281930D01*
X92940062Y-79281929D01*
X92720002Y-79262677D01*
X92719998Y-79262677D01*
X92573288Y-79275512D01*
X92499932Y-79281930D01*
X92499930Y-79281930D01*
X92499926Y-79281931D01*
X92455977Y-79293707D01*
X92386127Y-79292044D01*
X92336204Y-79261613D01*
X92324319Y-79249728D01*
X92290834Y-79188405D01*
X92288000Y-79162047D01*
X92288000Y-77062087D01*
X92307685Y-76995048D01*
X92346902Y-76956548D01*
X92393656Y-76927712D01*
X92517712Y-76803656D01*
X92609814Y-76654334D01*
X92664999Y-76487797D01*
X92675500Y-76385009D01*
X92675500Y-76135000D01*
X95162501Y-76135000D01*
X95162501Y-76384986D01*
X95172994Y-76487697D01*
X95228141Y-76654119D01*
X95228143Y-76654124D01*
X95320184Y-76803345D01*
X95444154Y-76927315D01*
X95593375Y-77019356D01*
X95593380Y-77019358D01*
X95759802Y-77074505D01*
X95759809Y-77074506D01*
X95862519Y-77084999D01*
X95924999Y-77084998D01*
X95925000Y-77084998D01*
X95925000Y-76135000D01*
X95162501Y-76135000D01*
X92675500Y-76135000D01*
X92675499Y-75635000D01*
X95162500Y-75635000D01*
X95925000Y-75635000D01*
X95925000Y-74685000D01*
X95924999Y-74684999D01*
X95862528Y-74685000D01*
X95862511Y-74685001D01*
X95759802Y-74695494D01*
X95593380Y-74750641D01*
X95593375Y-74750643D01*
X95444154Y-74842684D01*
X95320184Y-74966654D01*
X95228143Y-75115875D01*
X95228141Y-75115880D01*
X95172994Y-75282302D01*
X95172993Y-75282309D01*
X95162500Y-75385013D01*
X95162500Y-75635000D01*
X92675499Y-75635000D01*
X92675499Y-75384992D01*
X92664999Y-75282203D01*
X92609814Y-75115666D01*
X92517712Y-74966344D01*
X92393656Y-74842288D01*
X92393655Y-74842287D01*
X92346902Y-74813449D01*
X92300178Y-74761500D01*
X92288000Y-74707911D01*
X92288000Y-74062087D01*
X92307685Y-73995048D01*
X92346902Y-73956548D01*
X92393656Y-73927712D01*
X92517712Y-73803656D01*
X92609814Y-73654334D01*
X92664999Y-73487797D01*
X92675500Y-73385009D01*
X92675499Y-72384992D01*
X92664999Y-72282203D01*
X92609814Y-72115666D01*
X92517712Y-71966344D01*
X92393656Y-71842288D01*
X92244334Y-71750186D01*
X92077797Y-71695001D01*
X92077795Y-71695000D01*
X91975010Y-71684500D01*
X91349998Y-71684500D01*
X91349980Y-71684501D01*
X91247203Y-71695000D01*
X91247200Y-71695001D01*
X91080668Y-71750185D01*
X91080663Y-71750187D01*
X90931342Y-71842289D01*
X90837681Y-71935951D01*
X90776358Y-71969436D01*
X90706666Y-71964452D01*
X90662319Y-71935951D01*
X90568655Y-71842287D01*
X90521902Y-71813449D01*
X90475178Y-71761500D01*
X90463000Y-71707911D01*
X90463000Y-70025024D01*
X90482685Y-69957985D01*
X90535489Y-69912230D01*
X90604647Y-69902286D01*
X90668203Y-69931311D01*
X90691319Y-69959997D01*
X90691331Y-69959989D01*
X90691566Y-69960303D01*
X90695833Y-69965598D01*
X90696649Y-69967094D01*
X90782809Y-70082187D01*
X90782812Y-70082190D01*
X90897906Y-70168350D01*
X90897913Y-70168354D01*
X91032620Y-70218596D01*
X91032627Y-70218598D01*
X91092155Y-70224999D01*
X91092172Y-70225000D01*
X91500000Y-70225000D01*
X91500000Y-69520000D01*
X92000000Y-69520000D01*
X92000000Y-70225000D01*
X92407828Y-70225000D01*
X92407844Y-70224999D01*
X92467372Y-70218598D01*
X92467379Y-70218596D01*
X92602086Y-70168354D01*
X92602093Y-70168350D01*
X92717187Y-70082190D01*
X92717190Y-70082187D01*
X92803350Y-69967093D01*
X92803354Y-69967086D01*
X92853596Y-69832379D01*
X92853598Y-69832372D01*
X92859999Y-69772844D01*
X92860000Y-69772827D01*
X92860000Y-69520000D01*
X92000000Y-69520000D01*
X91500000Y-69520000D01*
X91500000Y-68315000D01*
X92000000Y-68315000D01*
X92000000Y-69020000D01*
X92860000Y-69020000D01*
X92860000Y-68767172D01*
X92859999Y-68767155D01*
X92853598Y-68707627D01*
X92853596Y-68707620D01*
X92803354Y-68572913D01*
X92803350Y-68572906D01*
X92717190Y-68457812D01*
X92717187Y-68457809D01*
X92602093Y-68371649D01*
X92602086Y-68371645D01*
X92467379Y-68321403D01*
X92467372Y-68321401D01*
X92407844Y-68315000D01*
X92000000Y-68315000D01*
X91500000Y-68315000D01*
X91092155Y-68315000D01*
X91032627Y-68321401D01*
X91032620Y-68321403D01*
X90897913Y-68371645D01*
X90897906Y-68371649D01*
X90782812Y-68457809D01*
X90782809Y-68457812D01*
X90696647Y-68572909D01*
X90695830Y-68574406D01*
X90694624Y-68575611D01*
X90691331Y-68580011D01*
X90690698Y-68579537D01*
X90646423Y-68623809D01*
X90578149Y-68638659D01*
X90512686Y-68614239D01*
X90470817Y-68558304D01*
X90463000Y-68514975D01*
X90463000Y-66756077D01*
X90482685Y-66689038D01*
X90535489Y-66643283D01*
X90604647Y-66633339D01*
X90668203Y-66662364D01*
X90690745Y-66690338D01*
X90690888Y-66690231D01*
X90693886Y-66694236D01*
X90695833Y-66696652D01*
X90696205Y-66697334D01*
X90782452Y-66812544D01*
X90782455Y-66812547D01*
X90897664Y-66898793D01*
X90897671Y-66898797D01*
X91032517Y-66949091D01*
X91032516Y-66949091D01*
X91039444Y-66949835D01*
X91092127Y-66955500D01*
X92407872Y-66955499D01*
X92467483Y-66949091D01*
X92602331Y-66898796D01*
X92717546Y-66812546D01*
X92803796Y-66697331D01*
X92854091Y-66562483D01*
X92860500Y-66502873D01*
X92860499Y-65497128D01*
X92854091Y-65437517D01*
X92851876Y-65431579D01*
X92803797Y-65302671D01*
X92803793Y-65302664D01*
X92717547Y-65187455D01*
X92717544Y-65187452D01*
X92602335Y-65101206D01*
X92602328Y-65101202D01*
X92467482Y-65050908D01*
X92467483Y-65050908D01*
X92438745Y-65047819D01*
X92374194Y-65021081D01*
X92334345Y-64963689D01*
X92328000Y-64924530D01*
X92328000Y-64588940D01*
X92347685Y-64521901D01*
X92400489Y-64476146D01*
X92412765Y-64471938D01*
X92412715Y-64471802D01*
X92554828Y-64418797D01*
X92554827Y-64418797D01*
X92554831Y-64418796D01*
X92670046Y-64332546D01*
X92756296Y-64217331D01*
X92806591Y-64082483D01*
X92813000Y-64022873D01*
X92812999Y-63622950D01*
X92832683Y-63555912D01*
X92849313Y-63535275D01*
X93743786Y-62640802D01*
X93756048Y-62630980D01*
X93755865Y-62630759D01*
X93761867Y-62625792D01*
X93761877Y-62625786D01*
X93809241Y-62575348D01*
X93830120Y-62554470D01*
X93834373Y-62548986D01*
X93838150Y-62544563D01*
X93870062Y-62510582D01*
X93879714Y-62493023D01*
X93890389Y-62476772D01*
X93902674Y-62460936D01*
X93921186Y-62418152D01*
X93923742Y-62412935D01*
X93946197Y-62372092D01*
X93951180Y-62352680D01*
X93957477Y-62334291D01*
X93965438Y-62315895D01*
X93972729Y-62269853D01*
X93973908Y-62264162D01*
X93985500Y-62219019D01*
X93985500Y-62198983D01*
X93987027Y-62179582D01*
X93990160Y-62159804D01*
X93985775Y-62113415D01*
X93985500Y-62107577D01*
X93985500Y-57794936D01*
X94005185Y-57727897D01*
X94054406Y-57683848D01*
X94209292Y-57607032D01*
X94209292Y-57607031D01*
X94209296Y-57607030D01*
X94357722Y-57487722D01*
X94477030Y-57339296D01*
X94518912Y-57254849D01*
X94566333Y-57203536D01*
X94633968Y-57186006D01*
X94700343Y-57207826D01*
G37*
%TD.AperFunction*%
%TA.AperFunction,Conductor*%
G36*
X88830703Y-73530275D02*
G01*
X88867205Y-73584982D01*
X88890186Y-73654334D01*
X88982288Y-73803656D01*
X89106344Y-73927712D01*
X89255666Y-74019814D01*
X89422203Y-74074999D01*
X89524991Y-74085500D01*
X90150008Y-74085499D01*
X90150016Y-74085498D01*
X90150019Y-74085498D01*
X90206302Y-74079748D01*
X90252797Y-74074999D01*
X90419334Y-74019814D01*
X90568656Y-73927712D01*
X90662319Y-73834049D01*
X90723642Y-73800564D01*
X90793334Y-73805548D01*
X90837681Y-73834049D01*
X90931344Y-73927712D01*
X90978096Y-73956548D01*
X91024820Y-74008494D01*
X91037000Y-74062087D01*
X91037000Y-74707911D01*
X91017315Y-74774950D01*
X90978098Y-74813449D01*
X90931346Y-74842286D01*
X90837327Y-74936305D01*
X90776003Y-74969789D01*
X90706312Y-74964805D01*
X90661965Y-74936304D01*
X90568345Y-74842684D01*
X90419124Y-74750643D01*
X90419119Y-74750641D01*
X90252697Y-74695494D01*
X90252690Y-74695493D01*
X90149986Y-74685000D01*
X90087500Y-74685000D01*
X90087500Y-77084999D01*
X90149972Y-77084999D01*
X90149986Y-77084998D01*
X90252697Y-77074505D01*
X90419119Y-77019358D01*
X90419124Y-77019356D01*
X90568342Y-76927317D01*
X90661964Y-76833695D01*
X90723287Y-76800210D01*
X90792979Y-76805194D01*
X90837327Y-76833695D01*
X90931344Y-76927712D01*
X90978096Y-76956548D01*
X91024820Y-77008494D01*
X91037000Y-77062087D01*
X91037000Y-79350647D01*
X91017315Y-79417686D01*
X90964511Y-79463441D01*
X90895353Y-79473385D01*
X90841877Y-79452222D01*
X90813666Y-79432468D01*
X90813662Y-79432466D01*
X90763763Y-79409198D01*
X90613450Y-79339106D01*
X90613447Y-79339105D01*
X90613445Y-79339104D01*
X90400070Y-79281930D01*
X90400062Y-79281929D01*
X90180002Y-79262677D01*
X90179998Y-79262677D01*
X89959937Y-79281929D01*
X89959929Y-79281930D01*
X89746554Y-79339104D01*
X89746550Y-79339106D01*
X89645094Y-79386416D01*
X89546337Y-79432467D01*
X89496711Y-79467214D01*
X89430504Y-79489540D01*
X89362737Y-79472527D01*
X89337909Y-79453318D01*
X88661819Y-78777228D01*
X88628334Y-78715905D01*
X88625500Y-78689547D01*
X88625500Y-76622400D01*
X88645185Y-76555361D01*
X88697989Y-76509606D01*
X88767147Y-76499662D01*
X88830703Y-76528687D01*
X88867206Y-76583396D01*
X88890641Y-76654119D01*
X88890643Y-76654124D01*
X88982684Y-76803345D01*
X89106654Y-76927315D01*
X89255875Y-77019356D01*
X89255880Y-77019358D01*
X89422302Y-77074505D01*
X89422309Y-77074506D01*
X89525019Y-77084999D01*
X89587499Y-77084998D01*
X89587500Y-77084998D01*
X89587500Y-74685000D01*
X89587499Y-74684999D01*
X89525028Y-74685000D01*
X89525011Y-74685001D01*
X89422302Y-74695494D01*
X89255880Y-74750641D01*
X89255875Y-74750643D01*
X89106654Y-74842684D01*
X88982684Y-74966654D01*
X88890643Y-75115875D01*
X88890641Y-75115880D01*
X88867206Y-75186604D01*
X88827433Y-75244049D01*
X88762917Y-75270872D01*
X88694142Y-75258557D01*
X88642942Y-75211014D01*
X88625500Y-75147600D01*
X88625500Y-73623988D01*
X88645185Y-73556949D01*
X88697989Y-73511194D01*
X88767147Y-73501250D01*
X88830703Y-73530275D01*
G37*
%TD.AperFunction*%
%TA.AperFunction,Conductor*%
G36*
X97768008Y-62945407D02*
G01*
X97809718Y-63001461D01*
X97815488Y-63031013D01*
X97816070Y-63030921D01*
X97817289Y-63038621D01*
X97817291Y-63038627D01*
X97822880Y-63057867D01*
X97826824Y-63076911D01*
X97828068Y-63086755D01*
X97829336Y-63096791D01*
X97846490Y-63140119D01*
X97848382Y-63145647D01*
X97861381Y-63190388D01*
X97871580Y-63207634D01*
X97880138Y-63225103D01*
X97887514Y-63243732D01*
X97914898Y-63281423D01*
X97918106Y-63286307D01*
X97941827Y-63326416D01*
X97941833Y-63326424D01*
X97955990Y-63340580D01*
X97968628Y-63355376D01*
X97980405Y-63371586D01*
X97980406Y-63371587D01*
X98016309Y-63401288D01*
X98020620Y-63405210D01*
X98415704Y-63800295D01*
X98519197Y-63903788D01*
X98529022Y-63916051D01*
X98529243Y-63915869D01*
X98534214Y-63921878D01*
X98555043Y-63941437D01*
X98584635Y-63969226D01*
X98605529Y-63990120D01*
X98611011Y-63994373D01*
X98615443Y-63998157D01*
X98649418Y-64030062D01*
X98666976Y-64039714D01*
X98683233Y-64050393D01*
X98699064Y-64062673D01*
X98718087Y-64070905D01*
X98741833Y-64081182D01*
X98747077Y-64083750D01*
X98787908Y-64106197D01*
X98800523Y-64109435D01*
X98807305Y-64111177D01*
X98825719Y-64117481D01*
X98844102Y-64125437D01*
X98844104Y-64125438D01*
X98844689Y-64125530D01*
X98845110Y-64125730D01*
X98851600Y-64127616D01*
X98851296Y-64128661D01*
X98907825Y-64155454D01*
X98941481Y-64204670D01*
X98943402Y-64209819D01*
X98946205Y-64217334D01*
X99032452Y-64332544D01*
X99032455Y-64332547D01*
X99147664Y-64418793D01*
X99147671Y-64418797D01*
X99289785Y-64471802D01*
X99288986Y-64473944D01*
X99339721Y-64502826D01*
X99372114Y-64564733D01*
X99374500Y-64588940D01*
X99374500Y-64931059D01*
X99354815Y-64998098D01*
X99302011Y-65043853D01*
X99289734Y-65048062D01*
X99289785Y-65048198D01*
X99147671Y-65101202D01*
X99147664Y-65101206D01*
X99032455Y-65187452D01*
X99032452Y-65187455D01*
X98946206Y-65302664D01*
X98946202Y-65302671D01*
X98895908Y-65437517D01*
X98889501Y-65497116D01*
X98889501Y-65497123D01*
X98889500Y-65497135D01*
X98889500Y-66502870D01*
X98889501Y-66502876D01*
X98895908Y-66562483D01*
X98946202Y-66697328D01*
X98946206Y-66697335D01*
X99032452Y-66812544D01*
X99032455Y-66812547D01*
X99147664Y-66898793D01*
X99147671Y-66898797D01*
X99282517Y-66949091D01*
X99282516Y-66949091D01*
X99289444Y-66949835D01*
X99342127Y-66955500D01*
X100657872Y-66955499D01*
X100717483Y-66949091D01*
X100852331Y-66898796D01*
X100967546Y-66812546D01*
X101053796Y-66697331D01*
X101104091Y-66562483D01*
X101110500Y-66502873D01*
X101110499Y-65497128D01*
X101104091Y-65437517D01*
X101101876Y-65431579D01*
X101053797Y-65302671D01*
X101053793Y-65302664D01*
X100967547Y-65187455D01*
X100967544Y-65187452D01*
X100852335Y-65101206D01*
X100852328Y-65101202D01*
X100710215Y-65048198D01*
X100711012Y-65046060D01*
X100660259Y-65017152D01*
X100627880Y-64955238D01*
X100625500Y-64931059D01*
X100625500Y-64588940D01*
X100645185Y-64521901D01*
X100697989Y-64476146D01*
X100710265Y-64471938D01*
X100710215Y-64471802D01*
X100852328Y-64418797D01*
X100852327Y-64418797D01*
X100852331Y-64418796D01*
X100967546Y-64332546D01*
X101053796Y-64217331D01*
X101053796Y-64217328D01*
X101057761Y-64210071D01*
X101107168Y-64160666D01*
X101166592Y-64145500D01*
X102685270Y-64145500D01*
X102752309Y-64165185D01*
X102772951Y-64181819D01*
X102800951Y-64209819D01*
X102834436Y-64271142D01*
X102829452Y-64340834D01*
X102800951Y-64385181D01*
X102707289Y-64478842D01*
X102615187Y-64628163D01*
X102615186Y-64628166D01*
X102560001Y-64794703D01*
X102560001Y-64794704D01*
X102560000Y-64794704D01*
X102549500Y-64897483D01*
X102549500Y-65522501D01*
X102549501Y-65522519D01*
X102560000Y-65625296D01*
X102560001Y-65625299D01*
X102615185Y-65791831D01*
X102615186Y-65791834D01*
X102707288Y-65941156D01*
X102831344Y-66065212D01*
X102951921Y-66139584D01*
X102980668Y-66157315D01*
X103001110Y-66164088D01*
X103039502Y-66176810D01*
X103096947Y-66216581D01*
X103123772Y-66281096D01*
X103124500Y-66294516D01*
X103124500Y-66800483D01*
X103104815Y-66867522D01*
X103052011Y-66913277D01*
X103039510Y-66918186D01*
X102980666Y-66937686D01*
X102980663Y-66937687D01*
X102831342Y-67029789D01*
X102707288Y-67153843D01*
X102707285Y-67153847D01*
X102630269Y-67278710D01*
X102578321Y-67325435D01*
X102570390Y-67328901D01*
X102561272Y-67332511D01*
X102561262Y-67332517D01*
X102523570Y-67359902D01*
X102518687Y-67363109D01*
X102478580Y-67386829D01*
X102464414Y-67400995D01*
X102449624Y-67413627D01*
X102433414Y-67425404D01*
X102433411Y-67425407D01*
X102403710Y-67461309D01*
X102399777Y-67465631D01*
X101616208Y-68249199D01*
X101603951Y-68259020D01*
X101604134Y-68259241D01*
X101598123Y-68264213D01*
X101550772Y-68314636D01*
X101529889Y-68335519D01*
X101529877Y-68335532D01*
X101525621Y-68341017D01*
X101521837Y-68345447D01*
X101489937Y-68379418D01*
X101489936Y-68379420D01*
X101480284Y-68396976D01*
X101469610Y-68413226D01*
X101457329Y-68429061D01*
X101457324Y-68429068D01*
X101438815Y-68471838D01*
X101436245Y-68477084D01*
X101413803Y-68517906D01*
X101408822Y-68537307D01*
X101402521Y-68555710D01*
X101394562Y-68574102D01*
X101394561Y-68574105D01*
X101387271Y-68620127D01*
X101386087Y-68625846D01*
X101374501Y-68670972D01*
X101374500Y-68670982D01*
X101374500Y-68691016D01*
X101372973Y-68710415D01*
X101369840Y-68730194D01*
X101369840Y-68730195D01*
X101374225Y-68776583D01*
X101374500Y-68782421D01*
X101374500Y-74189546D01*
X101354815Y-74256585D01*
X101338181Y-74277227D01*
X99224680Y-76390727D01*
X99163357Y-76424212D01*
X99093665Y-76419228D01*
X99037732Y-76377356D01*
X99013315Y-76311892D01*
X99012999Y-76303071D01*
X99012999Y-75384992D01*
X99002499Y-75282203D01*
X98947314Y-75115666D01*
X98855212Y-74966344D01*
X98731156Y-74842288D01*
X98731155Y-74842287D01*
X98684402Y-74813449D01*
X98637678Y-74761500D01*
X98625500Y-74707911D01*
X98625500Y-74062087D01*
X98645185Y-73995048D01*
X98684402Y-73956548D01*
X98731156Y-73927712D01*
X98855212Y-73803656D01*
X98947314Y-73654334D01*
X99002499Y-73487797D01*
X99013000Y-73385009D01*
X99012999Y-72384992D01*
X99002499Y-72282203D01*
X98947314Y-72115666D01*
X98855212Y-71966344D01*
X98731156Y-71842288D01*
X98581834Y-71750186D01*
X98415297Y-71695001D01*
X98415295Y-71695000D01*
X98312510Y-71684500D01*
X97687498Y-71684500D01*
X97687480Y-71684501D01*
X97584703Y-71695000D01*
X97584700Y-71695001D01*
X97418168Y-71750185D01*
X97418163Y-71750187D01*
X97268842Y-71842289D01*
X97175181Y-71935951D01*
X97113858Y-71969436D01*
X97044166Y-71964452D01*
X96999819Y-71935951D01*
X96906157Y-71842289D01*
X96906156Y-71842288D01*
X96756834Y-71750186D01*
X96590297Y-71695001D01*
X96590295Y-71695000D01*
X96487516Y-71684500D01*
X95910453Y-71684500D01*
X95843414Y-71664815D01*
X95822772Y-71648181D01*
X94661819Y-70487228D01*
X94628334Y-70425905D01*
X94625500Y-70399547D01*
X94625500Y-70338185D01*
X94645185Y-70271146D01*
X94697989Y-70225391D01*
X94767147Y-70215447D01*
X94778019Y-70217509D01*
X94782630Y-70218598D01*
X94842155Y-70224999D01*
X94842172Y-70225000D01*
X95250000Y-70225000D01*
X95250000Y-69520000D01*
X95750000Y-69520000D01*
X95750000Y-70225000D01*
X96157828Y-70225000D01*
X96157844Y-70224999D01*
X96217372Y-70218598D01*
X96217379Y-70218596D01*
X96352086Y-70168354D01*
X96352093Y-70168350D01*
X96467187Y-70082190D01*
X96467190Y-70082187D01*
X96553350Y-69967093D01*
X96553354Y-69967086D01*
X96603596Y-69832379D01*
X96603598Y-69832372D01*
X96609999Y-69772844D01*
X96610000Y-69772827D01*
X96610000Y-69520000D01*
X98890000Y-69520000D01*
X98890000Y-69772844D01*
X98896401Y-69832372D01*
X98896403Y-69832379D01*
X98946645Y-69967086D01*
X98946649Y-69967093D01*
X99032809Y-70082187D01*
X99032812Y-70082190D01*
X99147906Y-70168350D01*
X99147913Y-70168354D01*
X99282620Y-70218596D01*
X99282627Y-70218598D01*
X99342155Y-70224999D01*
X99342172Y-70225000D01*
X99750000Y-70225000D01*
X99750000Y-69520000D01*
X100250000Y-69520000D01*
X100250000Y-70225000D01*
X100657828Y-70225000D01*
X100657844Y-70224999D01*
X100717372Y-70218598D01*
X100717379Y-70218596D01*
X100852086Y-70168354D01*
X100852093Y-70168350D01*
X100967187Y-70082190D01*
X100967190Y-70082187D01*
X101053350Y-69967093D01*
X101053354Y-69967086D01*
X101103596Y-69832379D01*
X101103598Y-69832372D01*
X101109999Y-69772844D01*
X101110000Y-69772827D01*
X101110000Y-69520000D01*
X100250000Y-69520000D01*
X99750000Y-69520000D01*
X98890000Y-69520000D01*
X96610000Y-69520000D01*
X95750000Y-69520000D01*
X95250000Y-69520000D01*
X95250000Y-68315000D01*
X95750000Y-68315000D01*
X95750000Y-69020000D01*
X96610000Y-69020000D01*
X98890000Y-69020000D01*
X99750000Y-69020000D01*
X99750000Y-68315000D01*
X100250000Y-68315000D01*
X100250000Y-69020000D01*
X101110000Y-69020000D01*
X101110000Y-68767172D01*
X101109999Y-68767155D01*
X101103598Y-68707627D01*
X101103596Y-68707620D01*
X101053354Y-68572913D01*
X101053350Y-68572906D01*
X100967190Y-68457812D01*
X100967187Y-68457809D01*
X100852093Y-68371649D01*
X100852086Y-68371645D01*
X100717379Y-68321403D01*
X100717372Y-68321401D01*
X100657844Y-68315000D01*
X100250000Y-68315000D01*
X99750000Y-68315000D01*
X99342155Y-68315000D01*
X99282627Y-68321401D01*
X99282620Y-68321403D01*
X99147913Y-68371645D01*
X99147906Y-68371649D01*
X99032812Y-68457809D01*
X99032809Y-68457812D01*
X98946649Y-68572906D01*
X98946645Y-68572913D01*
X98896403Y-68707620D01*
X98896401Y-68707627D01*
X98890000Y-68767155D01*
X98890000Y-69020000D01*
X96610000Y-69020000D01*
X96610000Y-68767172D01*
X96609999Y-68767155D01*
X96603598Y-68707627D01*
X96603596Y-68707620D01*
X96553354Y-68572913D01*
X96553350Y-68572906D01*
X96467190Y-68457812D01*
X96467187Y-68457809D01*
X96352093Y-68371649D01*
X96352086Y-68371645D01*
X96217379Y-68321403D01*
X96217372Y-68321401D01*
X96157844Y-68315000D01*
X95750000Y-68315000D01*
X95250000Y-68315000D01*
X94842155Y-68315000D01*
X94782622Y-68321402D01*
X94778009Y-68322492D01*
X94708240Y-68318748D01*
X94651570Y-68277879D01*
X94625993Y-68212859D01*
X94625500Y-68201814D01*
X94625500Y-67560451D01*
X94645185Y-67493412D01*
X94661815Y-67472774D01*
X95142771Y-66991817D01*
X95204094Y-66958333D01*
X95230452Y-66955499D01*
X96157871Y-66955499D01*
X96157872Y-66955499D01*
X96217483Y-66949091D01*
X96352331Y-66898796D01*
X96467546Y-66812546D01*
X96553796Y-66697331D01*
X96604091Y-66562483D01*
X96610500Y-66502873D01*
X96610499Y-65497128D01*
X96604091Y-65437517D01*
X96601876Y-65431579D01*
X96553797Y-65302671D01*
X96553793Y-65302664D01*
X96467547Y-65187455D01*
X96467544Y-65187452D01*
X96352335Y-65101206D01*
X96352328Y-65101202D01*
X96210215Y-65048198D01*
X96211012Y-65046060D01*
X96160259Y-65017152D01*
X96127880Y-64955238D01*
X96125500Y-64931059D01*
X96125500Y-64588940D01*
X96145185Y-64521901D01*
X96197989Y-64476146D01*
X96210265Y-64471938D01*
X96210215Y-64471802D01*
X96352328Y-64418797D01*
X96352327Y-64418797D01*
X96352331Y-64418796D01*
X96467546Y-64332546D01*
X96553796Y-64217331D01*
X96604091Y-64082483D01*
X96605336Y-64070902D01*
X96632073Y-64006354D01*
X96655747Y-63983837D01*
X96657526Y-63982543D01*
X96661587Y-63979594D01*
X96691299Y-63943676D01*
X96695212Y-63939376D01*
X97383787Y-63250802D01*
X97396042Y-63240986D01*
X97395859Y-63240764D01*
X97401866Y-63235792D01*
X97401877Y-63235786D01*
X97432775Y-63202882D01*
X97449227Y-63185364D01*
X97459671Y-63174918D01*
X97470120Y-63164471D01*
X97474379Y-63158978D01*
X97478152Y-63154561D01*
X97510062Y-63120582D01*
X97519713Y-63103024D01*
X97530396Y-63086761D01*
X97542673Y-63070936D01*
X97561181Y-63028161D01*
X97563743Y-63022933D01*
X97584753Y-62984717D01*
X97634298Y-62935457D01*
X97702614Y-62920802D01*
X97768008Y-62945407D01*
G37*
%TD.AperFunction*%
%TA.AperFunction,Conductor*%
G36*
X92160343Y-57207826D02*
G01*
X92201088Y-57254849D01*
X92242967Y-57339292D01*
X92242969Y-57339295D01*
X92362277Y-57487721D01*
X92362278Y-57487722D01*
X92510704Y-57607030D01*
X92510707Y-57607032D01*
X92665594Y-57683848D01*
X92716907Y-57731269D01*
X92734500Y-57794936D01*
X92734500Y-59240319D01*
X92714815Y-59307358D01*
X92662011Y-59353113D01*
X92592853Y-59363057D01*
X92563517Y-59353293D01*
X92563141Y-59354303D01*
X92419982Y-59300908D01*
X92419983Y-59300908D01*
X92360383Y-59294501D01*
X92360381Y-59294500D01*
X92360373Y-59294500D01*
X92360364Y-59294500D01*
X91044629Y-59294500D01*
X91044623Y-59294501D01*
X90985016Y-59300908D01*
X90850171Y-59351202D01*
X90850164Y-59351206D01*
X90734955Y-59437452D01*
X90734952Y-59437455D01*
X90648706Y-59552664D01*
X90648702Y-59552671D01*
X90598408Y-59687517D01*
X90592001Y-59747116D01*
X90592001Y-59747123D01*
X90592000Y-59747135D01*
X90592000Y-60752870D01*
X90592001Y-60752876D01*
X90598408Y-60812483D01*
X90648702Y-60947328D01*
X90648706Y-60947335D01*
X90734952Y-61062544D01*
X90734955Y-61062547D01*
X90850164Y-61148793D01*
X90850171Y-61148797D01*
X90985017Y-61199091D01*
X90985016Y-61199091D01*
X90991944Y-61199835D01*
X91044627Y-61205500D01*
X92360372Y-61205499D01*
X92419983Y-61199091D01*
X92460584Y-61183948D01*
X92563141Y-61145697D01*
X92564013Y-61148035D01*
X92619331Y-61135995D01*
X92684798Y-61160404D01*
X92726676Y-61216332D01*
X92734500Y-61259680D01*
X92734500Y-61829547D01*
X92714815Y-61896586D01*
X92698181Y-61917228D01*
X92087227Y-62528181D01*
X92025904Y-62561666D01*
X91999546Y-62564500D01*
X91044629Y-62564500D01*
X91044623Y-62564501D01*
X90985016Y-62570908D01*
X90850171Y-62621202D01*
X90850164Y-62621206D01*
X90734955Y-62707452D01*
X90734952Y-62707455D01*
X90648706Y-62822664D01*
X90648702Y-62822671D01*
X90598408Y-62957517D01*
X90592001Y-63017116D01*
X90592000Y-63017135D01*
X90592000Y-64022870D01*
X90592001Y-64022876D01*
X90598408Y-64082483D01*
X90648702Y-64217328D01*
X90648706Y-64217335D01*
X90734952Y-64332544D01*
X90734955Y-64332547D01*
X90850164Y-64418793D01*
X90850171Y-64418797D01*
X90992285Y-64471802D01*
X90991486Y-64473944D01*
X91042221Y-64502826D01*
X91074614Y-64564733D01*
X91077000Y-64588940D01*
X91077000Y-64948222D01*
X91057315Y-65015261D01*
X91004511Y-65061016D01*
X90996333Y-65064404D01*
X90897671Y-65101202D01*
X90897664Y-65101206D01*
X90782455Y-65187452D01*
X90782452Y-65187455D01*
X90696204Y-65302667D01*
X90692239Y-65309929D01*
X90642832Y-65359334D01*
X90583408Y-65374500D01*
X90332738Y-65374500D01*
X90317121Y-65372776D01*
X90317094Y-65373062D01*
X90309332Y-65372327D01*
X90240204Y-65374500D01*
X90210650Y-65374500D01*
X90209929Y-65374590D01*
X90203757Y-65375369D01*
X90197945Y-65375826D01*
X90151373Y-65377290D01*
X90151372Y-65377290D01*
X90132129Y-65382881D01*
X90113079Y-65386825D01*
X90093211Y-65389334D01*
X90049884Y-65406488D01*
X90044358Y-65408379D01*
X89999614Y-65421379D01*
X89999610Y-65421381D01*
X89982366Y-65431579D01*
X89964905Y-65440133D01*
X89946274Y-65447510D01*
X89946262Y-65447517D01*
X89908570Y-65474902D01*
X89903687Y-65478109D01*
X89863580Y-65501829D01*
X89849414Y-65515995D01*
X89834624Y-65528627D01*
X89818414Y-65540404D01*
X89818411Y-65540407D01*
X89788710Y-65576309D01*
X89784777Y-65580631D01*
X89453711Y-65911697D01*
X89441448Y-65921522D01*
X89441631Y-65921744D01*
X89435621Y-65926715D01*
X89388272Y-65977136D01*
X89367389Y-65998019D01*
X89367377Y-65998032D01*
X89363121Y-66003517D01*
X89359337Y-66007947D01*
X89327437Y-66041918D01*
X89327436Y-66041920D01*
X89317784Y-66059476D01*
X89307110Y-66075726D01*
X89294829Y-66091561D01*
X89294824Y-66091568D01*
X89276315Y-66134338D01*
X89273745Y-66139584D01*
X89251303Y-66180406D01*
X89246322Y-66199807D01*
X89240021Y-66218210D01*
X89232062Y-66236602D01*
X89232061Y-66236605D01*
X89224771Y-66282627D01*
X89223587Y-66288346D01*
X89212001Y-66333472D01*
X89212000Y-66333482D01*
X89212000Y-66353516D01*
X89210473Y-66372915D01*
X89207340Y-66392694D01*
X89207340Y-66392695D01*
X89211725Y-66439083D01*
X89212000Y-66444921D01*
X89212000Y-71707911D01*
X89192315Y-71774950D01*
X89153098Y-71813449D01*
X89106344Y-71842287D01*
X88982289Y-71966342D01*
X88890187Y-72115663D01*
X88890186Y-72115666D01*
X88835001Y-72282203D01*
X88835001Y-72282204D01*
X88835000Y-72282204D01*
X88824500Y-72384983D01*
X88824500Y-72659673D01*
X88804815Y-72726712D01*
X88752011Y-72772467D01*
X88682853Y-72782411D01*
X88619297Y-72753386D01*
X88581523Y-72694608D01*
X88581423Y-72694266D01*
X88578617Y-72684607D01*
X88578616Y-72684606D01*
X88568423Y-72667371D01*
X88559861Y-72649894D01*
X88552487Y-72631270D01*
X88552486Y-72631268D01*
X88525079Y-72593545D01*
X88521888Y-72588686D01*
X88498172Y-72548583D01*
X88498165Y-72548574D01*
X88484006Y-72534415D01*
X88471368Y-72519619D01*
X88459594Y-72503413D01*
X88423688Y-72473709D01*
X88419376Y-72469786D01*
X86386272Y-70436681D01*
X86352787Y-70375358D01*
X86357771Y-70305666D01*
X86399643Y-70249733D01*
X86465107Y-70225316D01*
X86473953Y-70225000D01*
X86750000Y-70225000D01*
X86750000Y-69520000D01*
X87250000Y-69520000D01*
X87250000Y-70225000D01*
X87657828Y-70225000D01*
X87657844Y-70224999D01*
X87717372Y-70218598D01*
X87717379Y-70218596D01*
X87852086Y-70168354D01*
X87852093Y-70168350D01*
X87967187Y-70082190D01*
X87967190Y-70082187D01*
X88053350Y-69967093D01*
X88053354Y-69967086D01*
X88103596Y-69832379D01*
X88103598Y-69832372D01*
X88109999Y-69772844D01*
X88110000Y-69772827D01*
X88110000Y-69520000D01*
X87250000Y-69520000D01*
X86750000Y-69520000D01*
X85890000Y-69520000D01*
X85890000Y-69641047D01*
X85870315Y-69708086D01*
X85817511Y-69753841D01*
X85748353Y-69763785D01*
X85684797Y-69734760D01*
X85678319Y-69728728D01*
X85661819Y-69712228D01*
X85628334Y-69650905D01*
X85625500Y-69624547D01*
X85625500Y-69020000D01*
X85890000Y-69020000D01*
X86750000Y-69020000D01*
X86750000Y-68315000D01*
X87250000Y-68315000D01*
X87250000Y-69020000D01*
X88110000Y-69020000D01*
X88110000Y-68767172D01*
X88109999Y-68767155D01*
X88103598Y-68707627D01*
X88103596Y-68707620D01*
X88053354Y-68572913D01*
X88053350Y-68572906D01*
X87967190Y-68457812D01*
X87967187Y-68457809D01*
X87852093Y-68371649D01*
X87852086Y-68371645D01*
X87717379Y-68321403D01*
X87717372Y-68321401D01*
X87657844Y-68315000D01*
X87250000Y-68315000D01*
X86750000Y-68315000D01*
X86342155Y-68315000D01*
X86282627Y-68321401D01*
X86282620Y-68321403D01*
X86147913Y-68371645D01*
X86147906Y-68371649D01*
X86032812Y-68457809D01*
X86032809Y-68457812D01*
X85946649Y-68572906D01*
X85946645Y-68572913D01*
X85896403Y-68707620D01*
X85896401Y-68707627D01*
X85890000Y-68767155D01*
X85890000Y-69020000D01*
X85625500Y-69020000D01*
X85625500Y-68582737D01*
X85627224Y-68567123D01*
X85626938Y-68567096D01*
X85627672Y-68559333D01*
X85625500Y-68490203D01*
X85625500Y-68460651D01*
X85625500Y-68460650D01*
X85624629Y-68453759D01*
X85624172Y-68447945D01*
X85623579Y-68429068D01*
X85622709Y-68401373D01*
X85617121Y-68382139D01*
X85613174Y-68363081D01*
X85610664Y-68343208D01*
X85602462Y-68322492D01*
X85593507Y-68299875D01*
X85591614Y-68294346D01*
X85581351Y-68259020D01*
X85578617Y-68249610D01*
X85568420Y-68232368D01*
X85559863Y-68214902D01*
X85552486Y-68196268D01*
X85525083Y-68158550D01*
X85521900Y-68153705D01*
X85498170Y-68113579D01*
X85498165Y-68113573D01*
X85484005Y-68099413D01*
X85471370Y-68084620D01*
X85459593Y-68068412D01*
X85423693Y-68038713D01*
X85419381Y-68034790D01*
X84885803Y-67501212D01*
X84875980Y-67488950D01*
X84875759Y-67489134D01*
X84870786Y-67483123D01*
X84852159Y-67465631D01*
X84820364Y-67435773D01*
X84809919Y-67425328D01*
X84799475Y-67414883D01*
X84793986Y-67410625D01*
X84789561Y-67406847D01*
X84755582Y-67374938D01*
X84755580Y-67374936D01*
X84755577Y-67374935D01*
X84738029Y-67365288D01*
X84721763Y-67354604D01*
X84705932Y-67342324D01*
X84677673Y-67330095D01*
X84623966Y-67285404D01*
X84621383Y-67281391D01*
X84619729Y-67278710D01*
X84542712Y-67153844D01*
X84418656Y-67029788D01*
X84269334Y-66937686D01*
X84210493Y-66918188D01*
X84153051Y-66878416D01*
X84126228Y-66813900D01*
X84125500Y-66800483D01*
X84125500Y-66294516D01*
X84145185Y-66227477D01*
X84197989Y-66181722D01*
X84210488Y-66176813D01*
X84269334Y-66157314D01*
X84418656Y-66065212D01*
X84542712Y-65941156D01*
X84634814Y-65791834D01*
X84689999Y-65625297D01*
X84700500Y-65522509D01*
X84700499Y-64897492D01*
X84689999Y-64794703D01*
X84634814Y-64628166D01*
X84542712Y-64478844D01*
X84449049Y-64385181D01*
X84415564Y-64323858D01*
X84420548Y-64254166D01*
X84449049Y-64209819D01*
X84493683Y-64165185D01*
X84542712Y-64116156D01*
X84571549Y-64069402D01*
X84623497Y-64022679D01*
X84677088Y-64010500D01*
X85782966Y-64010500D01*
X85850005Y-64030185D01*
X85895760Y-64082989D01*
X85899148Y-64091167D01*
X85946202Y-64217328D01*
X85946206Y-64217335D01*
X86032452Y-64332544D01*
X86032455Y-64332547D01*
X86147664Y-64418793D01*
X86147671Y-64418797D01*
X86289785Y-64471802D01*
X86288986Y-64473944D01*
X86339721Y-64502826D01*
X86372114Y-64564733D01*
X86374500Y-64588940D01*
X86374500Y-64931059D01*
X86354815Y-64998098D01*
X86302011Y-65043853D01*
X86289734Y-65048062D01*
X86289785Y-65048198D01*
X86147671Y-65101202D01*
X86147664Y-65101206D01*
X86032455Y-65187452D01*
X86032452Y-65187455D01*
X85946206Y-65302664D01*
X85946202Y-65302671D01*
X85895908Y-65437517D01*
X85889501Y-65497116D01*
X85889501Y-65497123D01*
X85889500Y-65497135D01*
X85889500Y-66502870D01*
X85889501Y-66502876D01*
X85895908Y-66562483D01*
X85946202Y-66697328D01*
X85946206Y-66697335D01*
X86032452Y-66812544D01*
X86032455Y-66812547D01*
X86147664Y-66898793D01*
X86147671Y-66898797D01*
X86282517Y-66949091D01*
X86282516Y-66949091D01*
X86289444Y-66949835D01*
X86342127Y-66955500D01*
X87657872Y-66955499D01*
X87717483Y-66949091D01*
X87852331Y-66898796D01*
X87967546Y-66812546D01*
X88053796Y-66697331D01*
X88104091Y-66562483D01*
X88110500Y-66502873D01*
X88110499Y-65497128D01*
X88104091Y-65437517D01*
X88101876Y-65431579D01*
X88053797Y-65302671D01*
X88053793Y-65302664D01*
X87967547Y-65187455D01*
X87967544Y-65187452D01*
X87852335Y-65101206D01*
X87852328Y-65101202D01*
X87710215Y-65048198D01*
X87711012Y-65046060D01*
X87660259Y-65017152D01*
X87627880Y-64955238D01*
X87625500Y-64931059D01*
X87625500Y-64588940D01*
X87645185Y-64521901D01*
X87697989Y-64476146D01*
X87710265Y-64471938D01*
X87710215Y-64471802D01*
X87852328Y-64418797D01*
X87852327Y-64418797D01*
X87852331Y-64418796D01*
X87967546Y-64332546D01*
X88053796Y-64217331D01*
X88053796Y-64217328D01*
X88057761Y-64210071D01*
X88107168Y-64160666D01*
X88166592Y-64145500D01*
X88397257Y-64145500D01*
X88412877Y-64147224D01*
X88412904Y-64146939D01*
X88420660Y-64147671D01*
X88420667Y-64147673D01*
X88489814Y-64145500D01*
X88519350Y-64145500D01*
X88526228Y-64144630D01*
X88532041Y-64144172D01*
X88578627Y-64142709D01*
X88597869Y-64137117D01*
X88616912Y-64133174D01*
X88636792Y-64130664D01*
X88680122Y-64113507D01*
X88685646Y-64111617D01*
X88689396Y-64110527D01*
X88730390Y-64098618D01*
X88747629Y-64088422D01*
X88765103Y-64079862D01*
X88783727Y-64072488D01*
X88783727Y-64072487D01*
X88783732Y-64072486D01*
X88821449Y-64045082D01*
X88826305Y-64041892D01*
X88866420Y-64018170D01*
X88880589Y-64003999D01*
X88895379Y-63991368D01*
X88911587Y-63979594D01*
X88941299Y-63943676D01*
X88945212Y-63939376D01*
X89133786Y-63750802D01*
X89146048Y-63740980D01*
X89145865Y-63740759D01*
X89151867Y-63735792D01*
X89151877Y-63735786D01*
X89199241Y-63685348D01*
X89220120Y-63664470D01*
X89224373Y-63658986D01*
X89228150Y-63654563D01*
X89260062Y-63620582D01*
X89269714Y-63603023D01*
X89280389Y-63586772D01*
X89292674Y-63570936D01*
X89311186Y-63528152D01*
X89313742Y-63522935D01*
X89336197Y-63482092D01*
X89341180Y-63462680D01*
X89347477Y-63444291D01*
X89355438Y-63425895D01*
X89362729Y-63379853D01*
X89363908Y-63374162D01*
X89375500Y-63329019D01*
X89375500Y-63308983D01*
X89377027Y-63289582D01*
X89377546Y-63286307D01*
X89380160Y-63269804D01*
X89376207Y-63227990D01*
X89375775Y-63223415D01*
X89375500Y-63217577D01*
X89375500Y-59310451D01*
X89395185Y-59243412D01*
X89411815Y-59222774D01*
X90133786Y-58500802D01*
X90146048Y-58490980D01*
X90145865Y-58490759D01*
X90151867Y-58485792D01*
X90151877Y-58485786D01*
X90199241Y-58435348D01*
X90220120Y-58414470D01*
X90224373Y-58408986D01*
X90228150Y-58404563D01*
X90260062Y-58370582D01*
X90269714Y-58353023D01*
X90280389Y-58336772D01*
X90292674Y-58320936D01*
X90311186Y-58278152D01*
X90313742Y-58272935D01*
X90336197Y-58232092D01*
X90341180Y-58212680D01*
X90347477Y-58194291D01*
X90355438Y-58175895D01*
X90362729Y-58129853D01*
X90363908Y-58124162D01*
X90375500Y-58079019D01*
X90375500Y-58058983D01*
X90377027Y-58039582D01*
X90380160Y-58019804D01*
X90375775Y-57973415D01*
X90375500Y-57967577D01*
X90375500Y-57864499D01*
X90395185Y-57797460D01*
X90447989Y-57751705D01*
X90499500Y-57740499D01*
X91271123Y-57740499D01*
X91281813Y-57739774D01*
X91313889Y-57737600D01*
X91498693Y-57691641D01*
X91669296Y-57607030D01*
X91817722Y-57487722D01*
X91937030Y-57339296D01*
X91978912Y-57254849D01*
X92026333Y-57203536D01*
X92093968Y-57186006D01*
X92160343Y-57207826D01*
G37*
%TD.AperFunction*%
%TA.AperFunction,Conductor*%
G36*
X105001423Y-26000566D02*
G01*
X105040986Y-26002394D01*
X105172950Y-26008495D01*
X105372549Y-26018302D01*
X105378048Y-26018819D01*
X105563357Y-26044668D01*
X105749828Y-26072329D01*
X105754871Y-26073294D01*
X105939341Y-26116681D01*
X106120221Y-26161989D01*
X106124797Y-26163327D01*
X106305568Y-26223916D01*
X106480339Y-26286450D01*
X106484471Y-26288100D01*
X106542986Y-26313936D01*
X106659474Y-26365370D01*
X106826973Y-26444592D01*
X106830601Y-26446457D01*
X106998128Y-26539770D01*
X106998142Y-26539778D01*
X107156964Y-26634972D01*
X107160119Y-26636996D01*
X107318603Y-26745559D01*
X107467377Y-26855897D01*
X107470001Y-26857957D01*
X107618027Y-26980876D01*
X107755321Y-27105314D01*
X107757514Y-27107402D01*
X107892596Y-27242484D01*
X107894695Y-27244688D01*
X108019129Y-27381980D01*
X108142034Y-27529989D01*
X108144109Y-27532632D01*
X108254443Y-27681400D01*
X108363002Y-27839879D01*
X108365032Y-27843044D01*
X108460221Y-28001857D01*
X108553527Y-28169371D01*
X108555410Y-28173034D01*
X108634638Y-28340547D01*
X108711899Y-28515527D01*
X108713558Y-28519685D01*
X108776093Y-28694459D01*
X108836662Y-28875173D01*
X108838018Y-28879812D01*
X108883317Y-29060654D01*
X108926696Y-29245090D01*
X108927672Y-29250189D01*
X108955337Y-29436689D01*
X108981177Y-29621933D01*
X108981697Y-29627459D01*
X108991512Y-29827238D01*
X108999434Y-29998575D01*
X108999500Y-30001439D01*
X108999500Y-86998560D01*
X108999434Y-87001424D01*
X108991512Y-87172761D01*
X108981697Y-87372539D01*
X108981177Y-87378065D01*
X108955337Y-87563310D01*
X108927672Y-87749809D01*
X108926696Y-87754908D01*
X108883317Y-87939345D01*
X108838018Y-88120186D01*
X108836662Y-88124825D01*
X108776093Y-88305540D01*
X108713557Y-88480314D01*
X108711899Y-88484470D01*
X108634638Y-88659452D01*
X108555410Y-88826964D01*
X108553527Y-88830627D01*
X108460221Y-88998142D01*
X108365032Y-89156954D01*
X108363002Y-89160118D01*
X108254437Y-89318608D01*
X108144121Y-89467350D01*
X108142021Y-89470025D01*
X108019132Y-89618016D01*
X107894695Y-89755310D01*
X107892596Y-89757514D01*
X107757514Y-89892596D01*
X107755310Y-89894695D01*
X107618016Y-90019132D01*
X107470025Y-90142021D01*
X107467350Y-90144121D01*
X107318608Y-90254437D01*
X107160118Y-90363002D01*
X107156954Y-90365032D01*
X106998142Y-90460221D01*
X106830627Y-90553527D01*
X106826964Y-90555410D01*
X106659452Y-90634638D01*
X106484470Y-90711899D01*
X106480314Y-90713557D01*
X106305540Y-90776093D01*
X106124825Y-90836662D01*
X106120186Y-90838018D01*
X105939345Y-90883317D01*
X105754908Y-90926696D01*
X105749809Y-90927672D01*
X105563310Y-90955337D01*
X105378065Y-90981177D01*
X105372539Y-90981697D01*
X105172761Y-90991512D01*
X105001424Y-90999434D01*
X104998560Y-90999500D01*
X84001440Y-90999500D01*
X83998576Y-90999434D01*
X83827238Y-90991512D01*
X83627459Y-90981697D01*
X83621933Y-90981177D01*
X83436689Y-90955337D01*
X83250189Y-90927672D01*
X83245090Y-90926696D01*
X83060654Y-90883317D01*
X82879812Y-90838018D01*
X82875173Y-90836662D01*
X82694459Y-90776093D01*
X82519685Y-90713558D01*
X82515527Y-90711899D01*
X82340547Y-90634638D01*
X82173034Y-90555410D01*
X82169371Y-90553527D01*
X82001857Y-90460221D01*
X81843044Y-90365032D01*
X81839879Y-90363002D01*
X81730371Y-90287989D01*
X81681392Y-90254437D01*
X81532632Y-90144109D01*
X81529989Y-90142034D01*
X81381980Y-90019129D01*
X81244688Y-89894695D01*
X81242484Y-89892596D01*
X81107402Y-89757514D01*
X81105314Y-89755321D01*
X80980867Y-89618016D01*
X80857957Y-89470001D01*
X80855897Y-89467377D01*
X80745559Y-89318603D01*
X80636995Y-89160118D01*
X80634966Y-89156954D01*
X80539778Y-88998142D01*
X80512261Y-88948740D01*
X80446457Y-88830601D01*
X80444588Y-88826964D01*
X80365361Y-88659452D01*
X80288100Y-88484471D01*
X80286450Y-88480339D01*
X80223906Y-88305540D01*
X80163327Y-88124797D01*
X80161989Y-88120221D01*
X80116675Y-87939315D01*
X80111402Y-87916895D01*
X80073294Y-87754871D01*
X80072329Y-87749828D01*
X80044662Y-87563310D01*
X80018819Y-87378048D01*
X80018302Y-87372549D01*
X80008487Y-87172761D01*
X80000566Y-87001423D01*
X80000500Y-86998560D01*
X80000500Y-81000003D01*
X80994415Y-81000003D01*
X81014738Y-81348927D01*
X81014739Y-81348938D01*
X81075428Y-81693127D01*
X81075430Y-81693134D01*
X81175674Y-82027972D01*
X81314107Y-82348895D01*
X81314113Y-82348908D01*
X81488870Y-82651597D01*
X81697584Y-82931949D01*
X81697589Y-82931955D01*
X81792085Y-83032114D01*
X81937442Y-83186183D01*
X82020546Y-83255915D01*
X82205186Y-83410847D01*
X82205194Y-83410853D01*
X82497203Y-83602911D01*
X82497207Y-83602913D01*
X82809549Y-83759777D01*
X83137989Y-83879319D01*
X83478086Y-83959923D01*
X83825241Y-84000500D01*
X83825248Y-84000500D01*
X84174752Y-84000500D01*
X84174759Y-84000500D01*
X84521914Y-83959923D01*
X84862011Y-83879319D01*
X85190451Y-83759777D01*
X85502793Y-83602913D01*
X85794811Y-83410849D01*
X86062558Y-83186183D01*
X86302412Y-82931953D01*
X86511130Y-82651596D01*
X86685889Y-82348904D01*
X86824326Y-82027971D01*
X86924569Y-81693136D01*
X86936137Y-81627534D01*
X86985260Y-81348938D01*
X86985259Y-81348938D01*
X86985262Y-81348927D01*
X87002561Y-81051902D01*
X87005585Y-81000003D01*
X87005585Y-80999996D01*
X86996315Y-80840843D01*
X86985262Y-80651073D01*
X86925111Y-80309937D01*
X86924571Y-80306872D01*
X86924569Y-80306865D01*
X86924569Y-80306864D01*
X86824326Y-79972029D01*
X86685889Y-79651096D01*
X86577380Y-79463152D01*
X86511129Y-79348402D01*
X86302415Y-79068050D01*
X86302410Y-79068044D01*
X86160147Y-78917255D01*
X86062558Y-78813817D01*
X85893273Y-78671770D01*
X85794813Y-78589152D01*
X85794805Y-78589146D01*
X85502796Y-78397088D01*
X85190458Y-78240226D01*
X85190452Y-78240223D01*
X84862012Y-78120681D01*
X84862009Y-78120680D01*
X84521915Y-78040077D01*
X84478519Y-78035004D01*
X84174759Y-77999500D01*
X83825241Y-77999500D01*
X83521480Y-78035004D01*
X83478085Y-78040077D01*
X83478083Y-78040077D01*
X83137990Y-78120680D01*
X83137987Y-78120681D01*
X82809547Y-78240223D01*
X82809541Y-78240226D01*
X82497203Y-78397088D01*
X82205194Y-78589146D01*
X82205186Y-78589152D01*
X81937442Y-78813817D01*
X81937440Y-78813819D01*
X81697589Y-79068044D01*
X81697584Y-79068050D01*
X81488870Y-79348402D01*
X81314113Y-79651091D01*
X81314107Y-79651104D01*
X81175674Y-79972027D01*
X81075430Y-80306865D01*
X81075428Y-80306872D01*
X81014739Y-80651061D01*
X81014738Y-80651072D01*
X80994415Y-80999996D01*
X80994415Y-81000003D01*
X80000500Y-81000003D01*
X80000500Y-69960000D01*
X82300001Y-69960000D01*
X82300001Y-70022486D01*
X82310494Y-70125197D01*
X82365641Y-70291619D01*
X82365643Y-70291624D01*
X82457684Y-70440845D01*
X82581654Y-70564815D01*
X82730875Y-70656856D01*
X82730880Y-70656858D01*
X82897302Y-70712005D01*
X82897309Y-70712006D01*
X83000019Y-70722499D01*
X83249999Y-70722499D01*
X83250000Y-70722498D01*
X83250000Y-69960000D01*
X82300001Y-69960000D01*
X80000500Y-69960000D01*
X80000500Y-54538876D01*
X81949500Y-54538876D01*
X81949501Y-56941122D01*
X81949501Y-56941123D01*
X81952399Y-56983886D01*
X81952399Y-56983887D01*
X81998360Y-57168696D01*
X82082967Y-57339292D01*
X82082969Y-57339295D01*
X82202277Y-57487721D01*
X82202278Y-57487722D01*
X82350704Y-57607030D01*
X82350707Y-57607032D01*
X82521302Y-57691639D01*
X82521303Y-57691639D01*
X82521307Y-57691641D01*
X82706111Y-57737600D01*
X82745520Y-57740272D01*
X82748876Y-57740500D01*
X82748876Y-57740499D01*
X82748877Y-57740500D01*
X83651122Y-57740499D01*
X83651123Y-57740499D01*
X83661813Y-57739774D01*
X83693889Y-57737600D01*
X83878693Y-57691641D01*
X84049296Y-57607030D01*
X84197722Y-57487722D01*
X84317030Y-57339296D01*
X84359191Y-57254285D01*
X84406610Y-57202975D01*
X84474245Y-57185445D01*
X84540621Y-57207265D01*
X84581366Y-57254287D01*
X84623392Y-57339025D01*
X84742632Y-57487366D01*
X84742633Y-57487367D01*
X84890974Y-57606607D01*
X84890977Y-57606609D01*
X85061476Y-57691168D01*
X85246175Y-57737102D01*
X85288901Y-57740000D01*
X86191099Y-57740000D01*
X86233824Y-57737102D01*
X86418523Y-57691168D01*
X86589022Y-57606609D01*
X86589025Y-57606607D01*
X86737366Y-57487367D01*
X86737367Y-57487366D01*
X86856605Y-57339027D01*
X86898632Y-57254288D01*
X86946053Y-57202975D01*
X87013688Y-57185445D01*
X87080064Y-57207265D01*
X87120809Y-57254287D01*
X87162969Y-57339295D01*
X87282277Y-57487721D01*
X87282278Y-57487722D01*
X87430704Y-57607030D01*
X87430707Y-57607032D01*
X87601302Y-57691639D01*
X87601303Y-57691639D01*
X87601307Y-57691641D01*
X87786111Y-57737600D01*
X87825520Y-57740272D01*
X87828876Y-57740500D01*
X87828876Y-57740499D01*
X87828877Y-57740500D01*
X88731122Y-57740499D01*
X88731123Y-57740499D01*
X88741813Y-57739774D01*
X88773889Y-57737600D01*
X88773892Y-57737599D01*
X88773894Y-57737599D01*
X88811551Y-57728234D01*
X88881359Y-57731156D01*
X88938506Y-57771356D01*
X88964847Y-57836071D01*
X88952019Y-57904753D01*
X88929159Y-57936249D01*
X88366208Y-58499199D01*
X88353951Y-58509020D01*
X88354134Y-58509241D01*
X88348123Y-58514213D01*
X88300772Y-58564636D01*
X88279889Y-58585519D01*
X88279877Y-58585532D01*
X88275621Y-58591017D01*
X88271837Y-58595447D01*
X88239937Y-58629418D01*
X88239936Y-58629420D01*
X88230284Y-58646976D01*
X88219610Y-58663226D01*
X88207329Y-58679061D01*
X88207324Y-58679068D01*
X88188815Y-58721838D01*
X88186245Y-58727084D01*
X88163803Y-58767906D01*
X88158822Y-58787307D01*
X88152521Y-58805710D01*
X88144562Y-58824102D01*
X88144561Y-58824105D01*
X88137271Y-58870127D01*
X88136087Y-58875846D01*
X88124501Y-58920972D01*
X88124500Y-58920982D01*
X88124500Y-58941016D01*
X88122973Y-58960415D01*
X88119840Y-58980194D01*
X88119840Y-58980195D01*
X88124225Y-59026583D01*
X88124500Y-59032421D01*
X88124500Y-59307227D01*
X88104815Y-59374266D01*
X88052011Y-59420021D01*
X87982853Y-59429965D01*
X87926189Y-59406494D01*
X87915153Y-59398233D01*
X87852331Y-59351204D01*
X87852329Y-59351203D01*
X87852328Y-59351202D01*
X87717482Y-59300908D01*
X87717483Y-59300908D01*
X87657883Y-59294501D01*
X87657881Y-59294500D01*
X87657873Y-59294500D01*
X87657864Y-59294500D01*
X86342129Y-59294500D01*
X86342123Y-59294501D01*
X86282516Y-59300908D01*
X86147671Y-59351202D01*
X86147664Y-59351206D01*
X86032455Y-59437452D01*
X86032452Y-59437455D01*
X85946206Y-59552664D01*
X85946202Y-59552671D01*
X85895908Y-59687517D01*
X85889501Y-59747116D01*
X85889501Y-59747123D01*
X85889500Y-59747135D01*
X85889500Y-60752870D01*
X85889501Y-60752876D01*
X85895908Y-60812483D01*
X85946202Y-60947328D01*
X85946206Y-60947335D01*
X86032452Y-61062544D01*
X86032455Y-61062547D01*
X86147664Y-61148793D01*
X86147671Y-61148797D01*
X86282517Y-61199091D01*
X86282516Y-61199091D01*
X86289444Y-61199835D01*
X86342127Y-61205500D01*
X87657872Y-61205499D01*
X87717483Y-61199091D01*
X87852331Y-61148796D01*
X87926189Y-61093505D01*
X87991652Y-61069088D01*
X88059925Y-61083939D01*
X88109331Y-61133344D01*
X88124500Y-61192772D01*
X88124500Y-62577227D01*
X88104815Y-62644266D01*
X88052011Y-62690021D01*
X87982853Y-62699965D01*
X87926189Y-62676494D01*
X87895932Y-62653844D01*
X87852331Y-62621204D01*
X87852329Y-62621203D01*
X87852328Y-62621202D01*
X87717482Y-62570908D01*
X87717483Y-62570908D01*
X87657883Y-62564501D01*
X87657881Y-62564500D01*
X87657873Y-62564500D01*
X87657864Y-62564500D01*
X86342129Y-62564500D01*
X86342123Y-62564501D01*
X86282516Y-62570908D01*
X86147671Y-62621202D01*
X86147664Y-62621206D01*
X86032457Y-62707451D01*
X86032452Y-62707455D01*
X86030692Y-62709808D01*
X86028337Y-62711570D01*
X86026180Y-62713728D01*
X86025869Y-62713417D01*
X85974760Y-62751681D01*
X85931423Y-62759500D01*
X84677088Y-62759500D01*
X84610049Y-62739815D01*
X84571549Y-62700597D01*
X84542712Y-62653844D01*
X84418656Y-62529788D01*
X84325888Y-62472569D01*
X84269336Y-62437687D01*
X84269331Y-62437685D01*
X84267862Y-62437198D01*
X84102797Y-62382501D01*
X84102795Y-62382500D01*
X84000010Y-62372000D01*
X82999998Y-62372000D01*
X82999980Y-62372001D01*
X82897203Y-62382500D01*
X82897200Y-62382501D01*
X82730668Y-62437685D01*
X82730663Y-62437687D01*
X82581342Y-62529789D01*
X82457289Y-62653842D01*
X82365187Y-62803163D01*
X82365185Y-62803168D01*
X82344050Y-62866950D01*
X82310001Y-62969703D01*
X82310001Y-62969704D01*
X82310000Y-62969704D01*
X82299500Y-63072483D01*
X82299500Y-63697501D01*
X82299501Y-63697519D01*
X82310000Y-63800296D01*
X82310001Y-63800299D01*
X82365185Y-63966831D01*
X82365187Y-63966836D01*
X82388118Y-64004013D01*
X82454488Y-64111617D01*
X82457289Y-64116157D01*
X82550951Y-64209819D01*
X82584436Y-64271142D01*
X82579452Y-64340834D01*
X82550951Y-64385181D01*
X82457289Y-64478842D01*
X82365187Y-64628163D01*
X82365186Y-64628166D01*
X82310001Y-64794703D01*
X82310001Y-64794704D01*
X82310000Y-64794704D01*
X82299500Y-64897483D01*
X82299500Y-65522501D01*
X82299501Y-65522519D01*
X82310000Y-65625296D01*
X82310001Y-65625299D01*
X82365185Y-65791831D01*
X82365186Y-65791834D01*
X82457288Y-65941156D01*
X82581344Y-66065212D01*
X82701921Y-66139584D01*
X82730668Y-66157315D01*
X82751110Y-66164088D01*
X82789502Y-66176810D01*
X82846947Y-66216581D01*
X82873772Y-66281096D01*
X82874500Y-66294516D01*
X82874500Y-66800483D01*
X82854815Y-66867522D01*
X82802011Y-66913277D01*
X82789510Y-66918186D01*
X82730666Y-66937686D01*
X82730663Y-66937687D01*
X82581342Y-67029789D01*
X82457289Y-67153842D01*
X82365187Y-67303163D01*
X82365185Y-67303168D01*
X82345323Y-67363109D01*
X82310001Y-67469703D01*
X82310001Y-67469704D01*
X82310000Y-67469704D01*
X82299500Y-67572483D01*
X82299500Y-68197501D01*
X82299501Y-68197519D01*
X82310000Y-68300296D01*
X82310001Y-68300299D01*
X82365185Y-68466831D01*
X82365187Y-68466836D01*
X82400069Y-68523388D01*
X82434701Y-68579537D01*
X82457289Y-68616157D01*
X82551304Y-68710172D01*
X82584789Y-68771495D01*
X82579805Y-68841187D01*
X82551305Y-68885534D01*
X82457682Y-68979157D01*
X82365643Y-69128375D01*
X82365641Y-69128380D01*
X82310494Y-69294802D01*
X82310493Y-69294809D01*
X82300000Y-69397513D01*
X82300000Y-69460000D01*
X83626000Y-69460000D01*
X83693039Y-69479685D01*
X83738794Y-69532489D01*
X83750000Y-69584000D01*
X83750000Y-70722499D01*
X83999972Y-70722499D01*
X83999986Y-70722498D01*
X84102697Y-70712005D01*
X84269119Y-70656858D01*
X84269124Y-70656856D01*
X84418342Y-70564817D01*
X84494103Y-70489056D01*
X84555426Y-70455571D01*
X84625118Y-70460555D01*
X84669466Y-70489056D01*
X87338181Y-73157771D01*
X87371666Y-73219094D01*
X87374500Y-73245452D01*
X87374500Y-78917255D01*
X87372775Y-78932872D01*
X87373061Y-78932899D01*
X87372326Y-78940665D01*
X87374500Y-79009814D01*
X87374500Y-79039343D01*
X87374501Y-79039360D01*
X87375368Y-79046231D01*
X87375826Y-79052050D01*
X87377290Y-79098624D01*
X87377291Y-79098627D01*
X87382880Y-79117867D01*
X87386824Y-79136911D01*
X87389336Y-79156792D01*
X87401852Y-79188405D01*
X87406490Y-79200119D01*
X87408382Y-79205647D01*
X87421189Y-79249728D01*
X87421382Y-79250390D01*
X87428648Y-79262677D01*
X87431580Y-79267634D01*
X87440136Y-79285100D01*
X87442886Y-79292044D01*
X87447514Y-79303732D01*
X87474898Y-79341423D01*
X87478106Y-79346307D01*
X87501827Y-79386416D01*
X87501833Y-79386424D01*
X87515990Y-79400580D01*
X87528628Y-79415376D01*
X87540405Y-79431586D01*
X87540406Y-79431587D01*
X87576309Y-79461288D01*
X87580620Y-79465210D01*
X88312236Y-80196826D01*
X88932758Y-80817348D01*
X88964851Y-80872934D01*
X88989105Y-80963449D01*
X89082466Y-81163662D01*
X89082468Y-81163666D01*
X89209170Y-81344615D01*
X89209175Y-81344621D01*
X89365378Y-81500824D01*
X89365384Y-81500829D01*
X89481915Y-81582425D01*
X89525540Y-81637002D01*
X89532734Y-81706500D01*
X89501211Y-81768855D01*
X89440981Y-81804269D01*
X89410792Y-81808000D01*
X89370155Y-81808000D01*
X89310627Y-81814401D01*
X89310620Y-81814403D01*
X89175913Y-81864645D01*
X89175906Y-81864649D01*
X89060812Y-81950809D01*
X89060809Y-81950812D01*
X88974649Y-82065906D01*
X88974645Y-82065913D01*
X88924403Y-82200620D01*
X88924401Y-82200627D01*
X88918000Y-82260155D01*
X88918000Y-82820000D01*
X89685148Y-82820000D01*
X89636441Y-82957047D01*
X89626123Y-83107886D01*
X89656884Y-83255915D01*
X89690090Y-83320000D01*
X88918000Y-83320000D01*
X88918000Y-83879844D01*
X88924401Y-83939372D01*
X88924403Y-83939379D01*
X88974645Y-84074086D01*
X88974649Y-84074093D01*
X89060809Y-84189187D01*
X89060812Y-84189190D01*
X89175906Y-84275350D01*
X89175913Y-84275354D01*
X89310620Y-84325596D01*
X89310627Y-84325598D01*
X89370155Y-84331999D01*
X89370172Y-84332000D01*
X89930000Y-84332000D01*
X89930000Y-83561683D01*
X89958819Y-83579209D01*
X90104404Y-83620000D01*
X90217622Y-83620000D01*
X90329783Y-83604584D01*
X90430000Y-83561053D01*
X90430000Y-84332000D01*
X90989828Y-84332000D01*
X90989844Y-84331999D01*
X91049372Y-84325598D01*
X91049379Y-84325596D01*
X91184086Y-84275354D01*
X91184093Y-84275350D01*
X91299186Y-84189191D01*
X91350733Y-84120334D01*
X91406667Y-84078463D01*
X91476359Y-84073479D01*
X91537682Y-84106964D01*
X91549267Y-84120334D01*
X91600813Y-84189191D01*
X91715906Y-84275350D01*
X91715913Y-84275354D01*
X91850620Y-84325596D01*
X91850627Y-84325598D01*
X91910155Y-84331999D01*
X91910172Y-84332000D01*
X92470000Y-84332000D01*
X92470000Y-83561683D01*
X92498819Y-83579209D01*
X92644404Y-83620000D01*
X92757622Y-83620000D01*
X92869783Y-83604584D01*
X92970000Y-83561053D01*
X92970000Y-84332000D01*
X93529828Y-84332000D01*
X93529844Y-84331999D01*
X93589372Y-84325598D01*
X93589379Y-84325596D01*
X93724086Y-84275354D01*
X93724093Y-84275350D01*
X93839186Y-84189191D01*
X93890733Y-84120334D01*
X93946667Y-84078463D01*
X94016359Y-84073479D01*
X94077682Y-84106964D01*
X94089267Y-84120334D01*
X94140813Y-84189191D01*
X94255906Y-84275350D01*
X94255913Y-84275354D01*
X94390620Y-84325596D01*
X94390627Y-84325598D01*
X94450155Y-84331999D01*
X94450172Y-84332000D01*
X95010000Y-84332000D01*
X95010000Y-83561683D01*
X95038819Y-83579209D01*
X95184404Y-83620000D01*
X95297622Y-83620000D01*
X95409783Y-83604584D01*
X95510000Y-83561053D01*
X95510000Y-84332000D01*
X96069828Y-84332000D01*
X96069844Y-84331999D01*
X96129372Y-84325598D01*
X96129379Y-84325596D01*
X96264086Y-84275354D01*
X96264093Y-84275350D01*
X96379186Y-84189191D01*
X96430733Y-84120334D01*
X96486667Y-84078463D01*
X96556359Y-84073479D01*
X96617682Y-84106964D01*
X96629267Y-84120334D01*
X96680813Y-84189191D01*
X96795906Y-84275350D01*
X96795913Y-84275354D01*
X96930620Y-84325596D01*
X96930627Y-84325598D01*
X96990155Y-84331999D01*
X96990172Y-84332000D01*
X97550000Y-84332000D01*
X97550000Y-83561683D01*
X97578819Y-83579209D01*
X97724404Y-83620000D01*
X97837622Y-83620000D01*
X97949783Y-83604584D01*
X98050000Y-83561053D01*
X98050000Y-84332000D01*
X98609828Y-84332000D01*
X98609844Y-84331999D01*
X98669372Y-84325598D01*
X98669379Y-84325596D01*
X98804086Y-84275354D01*
X98804093Y-84275350D01*
X98919187Y-84189190D01*
X98919190Y-84189187D01*
X99005350Y-84074093D01*
X99005354Y-84074086D01*
X99055596Y-83939379D01*
X99055598Y-83939372D01*
X99061999Y-83879844D01*
X99062000Y-83879827D01*
X99062000Y-83320000D01*
X98294852Y-83320000D01*
X98343559Y-83182953D01*
X98353877Y-83032114D01*
X98323116Y-82884085D01*
X98289910Y-82820000D01*
X99062000Y-82820000D01*
X99062000Y-82260172D01*
X99061999Y-82260155D01*
X99055598Y-82200627D01*
X99055596Y-82200620D01*
X99005354Y-82065913D01*
X99005350Y-82065906D01*
X98919190Y-81950812D01*
X98919187Y-81950809D01*
X98804093Y-81864649D01*
X98804086Y-81864645D01*
X98669379Y-81814403D01*
X98669372Y-81814401D01*
X98609844Y-81808000D01*
X98569208Y-81808000D01*
X98502169Y-81788315D01*
X98456414Y-81735511D01*
X98446470Y-81666353D01*
X98475495Y-81602797D01*
X98498085Y-81582425D01*
X98550864Y-81545468D01*
X98614620Y-81500826D01*
X98770826Y-81344620D01*
X98897534Y-81163662D01*
X98973849Y-81000003D01*
X101994415Y-81000003D01*
X102014738Y-81348927D01*
X102014739Y-81348938D01*
X102075428Y-81693127D01*
X102075430Y-81693134D01*
X102175674Y-82027972D01*
X102314107Y-82348895D01*
X102314113Y-82348908D01*
X102488870Y-82651597D01*
X102697584Y-82931949D01*
X102697589Y-82931955D01*
X102792085Y-83032114D01*
X102937442Y-83186183D01*
X103020546Y-83255915D01*
X103205186Y-83410847D01*
X103205194Y-83410853D01*
X103497203Y-83602911D01*
X103497207Y-83602913D01*
X103809549Y-83759777D01*
X104137989Y-83879319D01*
X104478086Y-83959923D01*
X104825241Y-84000500D01*
X104825248Y-84000500D01*
X105174752Y-84000500D01*
X105174759Y-84000500D01*
X105521914Y-83959923D01*
X105862011Y-83879319D01*
X106190451Y-83759777D01*
X106502793Y-83602913D01*
X106794811Y-83410849D01*
X107062558Y-83186183D01*
X107302412Y-82931953D01*
X107511130Y-82651596D01*
X107685889Y-82348904D01*
X107824326Y-82027971D01*
X107924569Y-81693136D01*
X107936137Y-81627534D01*
X107985260Y-81348938D01*
X107985259Y-81348938D01*
X107985262Y-81348927D01*
X108002561Y-81051902D01*
X108005585Y-81000003D01*
X108005585Y-80999996D01*
X107996315Y-80840843D01*
X107985262Y-80651073D01*
X107925111Y-80309937D01*
X107924571Y-80306872D01*
X107924569Y-80306865D01*
X107924569Y-80306864D01*
X107824326Y-79972029D01*
X107685889Y-79651096D01*
X107577380Y-79463152D01*
X107511129Y-79348402D01*
X107302415Y-79068050D01*
X107302410Y-79068044D01*
X107160147Y-78917255D01*
X107062558Y-78813817D01*
X106893273Y-78671770D01*
X106794813Y-78589152D01*
X106794805Y-78589146D01*
X106502796Y-78397088D01*
X106190458Y-78240226D01*
X106190452Y-78240223D01*
X105862012Y-78120681D01*
X105862009Y-78120680D01*
X105521915Y-78040077D01*
X105478519Y-78035004D01*
X105174759Y-77999500D01*
X104825241Y-77999500D01*
X104521480Y-78035004D01*
X104478085Y-78040077D01*
X104478083Y-78040077D01*
X104137990Y-78120680D01*
X104137987Y-78120681D01*
X103809547Y-78240223D01*
X103809541Y-78240226D01*
X103497203Y-78397088D01*
X103205194Y-78589146D01*
X103205186Y-78589152D01*
X102937442Y-78813817D01*
X102937440Y-78813819D01*
X102697589Y-79068044D01*
X102697584Y-79068050D01*
X102488870Y-79348402D01*
X102314113Y-79651091D01*
X102314107Y-79651104D01*
X102175674Y-79972027D01*
X102075430Y-80306865D01*
X102075428Y-80306872D01*
X102014739Y-80651061D01*
X102014738Y-80651072D01*
X101994415Y-80999996D01*
X101994415Y-81000003D01*
X98973849Y-81000003D01*
X98990894Y-80963450D01*
X99048070Y-80750068D01*
X99067323Y-80530000D01*
X99048070Y-80309932D01*
X98990894Y-80096550D01*
X98897534Y-79896339D01*
X98770826Y-79715380D01*
X98614620Y-79559174D01*
X98478376Y-79463775D01*
X98434752Y-79409198D01*
X98425500Y-79362200D01*
X98425500Y-79010452D01*
X98445185Y-78943413D01*
X98461819Y-78922771D01*
X100391710Y-76992880D01*
X102383788Y-75000801D01*
X102396042Y-74990986D01*
X102395859Y-74990764D01*
X102401866Y-74985792D01*
X102401877Y-74985786D01*
X102432775Y-74952882D01*
X102449227Y-74935364D01*
X102459671Y-74924918D01*
X102470120Y-74914471D01*
X102474379Y-74908978D01*
X102478152Y-74904561D01*
X102510062Y-74870582D01*
X102519715Y-74853020D01*
X102530389Y-74836770D01*
X102542673Y-74820936D01*
X102561180Y-74778167D01*
X102563749Y-74772924D01*
X102586196Y-74732093D01*
X102586197Y-74732092D01*
X102591177Y-74712691D01*
X102597478Y-74694288D01*
X102605438Y-74675896D01*
X102612730Y-74629849D01*
X102613911Y-74624152D01*
X102625500Y-74579019D01*
X102625500Y-74558983D01*
X102627027Y-74539582D01*
X102630160Y-74519804D01*
X102625775Y-74473415D01*
X102625500Y-74467577D01*
X102625500Y-70657935D01*
X102645185Y-70590896D01*
X102697989Y-70545141D01*
X102767147Y-70535197D01*
X102826414Y-70560671D01*
X102831657Y-70564817D01*
X102980875Y-70656856D01*
X102980880Y-70656858D01*
X103147302Y-70712005D01*
X103147309Y-70712006D01*
X103250019Y-70722499D01*
X103499999Y-70722499D01*
X103500000Y-70722498D01*
X103500000Y-69960000D01*
X104000000Y-69960000D01*
X104000000Y-70722499D01*
X104249972Y-70722499D01*
X104249986Y-70722498D01*
X104352697Y-70712005D01*
X104519119Y-70656858D01*
X104519124Y-70656856D01*
X104668345Y-70564815D01*
X104792315Y-70440845D01*
X104884356Y-70291624D01*
X104884358Y-70291619D01*
X104939505Y-70125197D01*
X104939506Y-70125190D01*
X104949999Y-70022486D01*
X104950000Y-70022473D01*
X104950000Y-69960000D01*
X104000000Y-69960000D01*
X103500000Y-69960000D01*
X103500000Y-69584000D01*
X103519685Y-69516961D01*
X103572489Y-69471206D01*
X103624000Y-69460000D01*
X104949999Y-69460000D01*
X104949999Y-69397528D01*
X104949998Y-69397513D01*
X104939505Y-69294802D01*
X104884358Y-69128380D01*
X104884356Y-69128375D01*
X104792315Y-68979154D01*
X104698695Y-68885534D01*
X104665210Y-68824211D01*
X104670194Y-68754519D01*
X104698691Y-68710176D01*
X104792712Y-68616156D01*
X104884814Y-68466834D01*
X104939999Y-68300297D01*
X104950500Y-68197509D01*
X104950499Y-67572492D01*
X104944022Y-67509090D01*
X104939999Y-67469703D01*
X104939998Y-67469700D01*
X104920422Y-67410625D01*
X104884814Y-67303166D01*
X104792712Y-67153844D01*
X104668656Y-67029788D01*
X104519334Y-66937686D01*
X104460493Y-66918188D01*
X104403051Y-66878416D01*
X104376228Y-66813900D01*
X104375500Y-66800483D01*
X104375500Y-66294516D01*
X104395185Y-66227477D01*
X104447989Y-66181722D01*
X104460488Y-66176813D01*
X104519334Y-66157314D01*
X104668656Y-66065212D01*
X104792712Y-65941156D01*
X104884814Y-65791834D01*
X104939999Y-65625297D01*
X104950500Y-65522509D01*
X104950499Y-64897492D01*
X104939999Y-64794703D01*
X104884814Y-64628166D01*
X104792712Y-64478844D01*
X104699049Y-64385181D01*
X104665564Y-64323858D01*
X104670548Y-64254166D01*
X104699049Y-64209819D01*
X104743683Y-64165185D01*
X104792712Y-64116156D01*
X104884814Y-63966834D01*
X104939999Y-63800297D01*
X104950500Y-63697509D01*
X104950499Y-63072492D01*
X104946252Y-63030921D01*
X104939999Y-62969703D01*
X104939998Y-62969700D01*
X104908556Y-62874815D01*
X104884814Y-62803166D01*
X104792712Y-62653844D01*
X104668656Y-62529788D01*
X104575888Y-62472569D01*
X104519336Y-62437687D01*
X104519331Y-62437685D01*
X104517862Y-62437198D01*
X104352797Y-62382501D01*
X104352795Y-62382500D01*
X104250010Y-62372000D01*
X103249998Y-62372000D01*
X103249980Y-62372001D01*
X103147203Y-62382500D01*
X103147200Y-62382501D01*
X102980668Y-62437685D01*
X102980663Y-62437687D01*
X102831342Y-62529789D01*
X102707289Y-62653842D01*
X102615187Y-62803163D01*
X102615183Y-62803172D01*
X102613085Y-62809506D01*
X102573312Y-62866950D01*
X102508795Y-62893772D01*
X102495380Y-62894500D01*
X101166592Y-62894500D01*
X101099553Y-62874815D01*
X101057761Y-62829929D01*
X101053795Y-62822667D01*
X100967547Y-62707455D01*
X100967544Y-62707452D01*
X100852335Y-62621206D01*
X100852328Y-62621202D01*
X100717482Y-62570908D01*
X100717483Y-62570908D01*
X100657883Y-62564501D01*
X100657881Y-62564500D01*
X100657873Y-62564500D01*
X100657864Y-62564500D01*
X99342129Y-62564500D01*
X99342123Y-62564501D01*
X99282514Y-62570909D01*
X99232832Y-62589439D01*
X99163140Y-62594423D01*
X99101817Y-62560937D01*
X99068333Y-62499613D01*
X99065500Y-62473257D01*
X99065500Y-61296742D01*
X99085185Y-61229703D01*
X99137989Y-61183948D01*
X99207147Y-61174004D01*
X99232830Y-61180559D01*
X99282517Y-61199091D01*
X99342127Y-61205500D01*
X100657872Y-61205499D01*
X100717483Y-61199091D01*
X100852331Y-61148796D01*
X100967546Y-61062546D01*
X101053796Y-60947331D01*
X101104091Y-60812483D01*
X101110500Y-60752873D01*
X101110499Y-59747128D01*
X101104091Y-59687517D01*
X101053796Y-59552669D01*
X101053795Y-59552668D01*
X101053793Y-59552664D01*
X100967547Y-59437455D01*
X100967544Y-59437452D01*
X100852335Y-59351206D01*
X100852328Y-59351202D01*
X100717482Y-59300908D01*
X100717483Y-59300908D01*
X100657883Y-59294501D01*
X100657881Y-59294500D01*
X100657873Y-59294500D01*
X100657864Y-59294500D01*
X99342129Y-59294500D01*
X99342123Y-59294501D01*
X99282514Y-59300909D01*
X99232832Y-59319439D01*
X99163140Y-59324423D01*
X99101817Y-59290937D01*
X99068333Y-59229613D01*
X99065500Y-59203257D01*
X99065500Y-57794936D01*
X99085185Y-57727897D01*
X99134406Y-57683848D01*
X99289292Y-57607032D01*
X99289292Y-57607031D01*
X99289296Y-57607030D01*
X99437722Y-57487722D01*
X99557030Y-57339296D01*
X99598912Y-57254849D01*
X99646333Y-57203536D01*
X99713968Y-57186006D01*
X99780343Y-57207826D01*
X99821088Y-57254849D01*
X99862967Y-57339292D01*
X99862969Y-57339295D01*
X99982277Y-57487721D01*
X99982278Y-57487722D01*
X100130704Y-57607030D01*
X100130707Y-57607032D01*
X100301302Y-57691639D01*
X100301303Y-57691639D01*
X100301307Y-57691641D01*
X100486111Y-57737600D01*
X100525520Y-57740272D01*
X100528876Y-57740500D01*
X100528876Y-57740499D01*
X100528877Y-57740500D01*
X101431122Y-57740499D01*
X101431123Y-57740499D01*
X101441813Y-57739774D01*
X101473889Y-57737600D01*
X101658693Y-57691641D01*
X101829296Y-57607030D01*
X101977722Y-57487722D01*
X102097030Y-57339296D01*
X102138912Y-57254849D01*
X102186333Y-57203536D01*
X102253968Y-57186006D01*
X102320343Y-57207826D01*
X102361088Y-57254849D01*
X102402967Y-57339292D01*
X102402969Y-57339295D01*
X102522277Y-57487721D01*
X102522278Y-57487722D01*
X102670704Y-57607030D01*
X102670707Y-57607032D01*
X102841302Y-57691639D01*
X102841303Y-57691639D01*
X102841307Y-57691641D01*
X103026111Y-57737600D01*
X103065520Y-57740272D01*
X103068876Y-57740500D01*
X103068876Y-57740499D01*
X103068877Y-57740500D01*
X103971122Y-57740499D01*
X103971123Y-57740499D01*
X103981813Y-57739774D01*
X104013889Y-57737600D01*
X104198693Y-57691641D01*
X104369296Y-57607030D01*
X104517722Y-57487722D01*
X104637030Y-57339296D01*
X104721641Y-57168693D01*
X104767600Y-56983889D01*
X104770500Y-56941123D01*
X104770499Y-54538878D01*
X104767600Y-54496111D01*
X104721641Y-54311307D01*
X104679190Y-54225712D01*
X104637032Y-54140707D01*
X104637030Y-54140704D01*
X104517722Y-53992278D01*
X104517721Y-53992277D01*
X104369295Y-53872969D01*
X104369292Y-53872967D01*
X104198697Y-53788360D01*
X104013891Y-53742400D01*
X103971124Y-53739500D01*
X103971123Y-53739500D01*
X103068878Y-53739501D01*
X103068877Y-53739501D01*
X103026113Y-53742399D01*
X103026112Y-53742399D01*
X102841303Y-53788360D01*
X102670707Y-53872967D01*
X102670704Y-53872969D01*
X102522278Y-53992277D01*
X102522277Y-53992278D01*
X102402969Y-54140704D01*
X102361088Y-54225151D01*
X102313667Y-54276463D01*
X102246032Y-54293992D01*
X102179657Y-54272173D01*
X102138912Y-54225151D01*
X102097030Y-54140704D01*
X101977722Y-53992278D01*
X101977721Y-53992277D01*
X101829295Y-53872969D01*
X101829292Y-53872967D01*
X101658697Y-53788360D01*
X101473891Y-53742400D01*
X101431124Y-53739500D01*
X101431123Y-53739500D01*
X100528878Y-53739501D01*
X100528877Y-53739501D01*
X100486113Y-53742399D01*
X100486112Y-53742399D01*
X100301303Y-53788360D01*
X100130707Y-53872967D01*
X100130704Y-53872969D01*
X99982278Y-53992277D01*
X99982277Y-53992278D01*
X99862969Y-54140704D01*
X99821088Y-54225151D01*
X99773667Y-54276463D01*
X99706032Y-54293992D01*
X99639657Y-54272173D01*
X99598912Y-54225151D01*
X99557030Y-54140704D01*
X99437722Y-53992278D01*
X99437721Y-53992277D01*
X99289295Y-53872969D01*
X99289292Y-53872967D01*
X99118697Y-53788360D01*
X98933891Y-53742400D01*
X98891124Y-53739500D01*
X98891123Y-53739500D01*
X97988878Y-53739501D01*
X97988877Y-53739501D01*
X97946113Y-53742399D01*
X97946112Y-53742399D01*
X97761303Y-53788360D01*
X97590707Y-53872967D01*
X97590704Y-53872969D01*
X97442278Y-53992277D01*
X97442277Y-53992278D01*
X97322969Y-54140704D01*
X97281088Y-54225151D01*
X97233667Y-54276463D01*
X97166032Y-54293992D01*
X97099657Y-54272173D01*
X97058912Y-54225151D01*
X97017030Y-54140704D01*
X96897722Y-53992278D01*
X96897721Y-53992277D01*
X96749295Y-53872969D01*
X96749292Y-53872967D01*
X96578697Y-53788360D01*
X96393891Y-53742400D01*
X96351124Y-53739500D01*
X96351123Y-53739500D01*
X95448878Y-53739501D01*
X95448877Y-53739501D01*
X95406113Y-53742399D01*
X95406112Y-53742399D01*
X95221303Y-53788360D01*
X95050707Y-53872967D01*
X95050704Y-53872969D01*
X94902278Y-53992277D01*
X94902277Y-53992278D01*
X94782969Y-54140704D01*
X94741088Y-54225151D01*
X94693667Y-54276463D01*
X94626032Y-54293992D01*
X94559657Y-54272173D01*
X94518912Y-54225151D01*
X94477030Y-54140704D01*
X94357722Y-53992278D01*
X94357721Y-53992277D01*
X94209295Y-53872969D01*
X94209292Y-53872967D01*
X94038697Y-53788360D01*
X93853891Y-53742400D01*
X93811124Y-53739500D01*
X93811123Y-53739500D01*
X92908878Y-53739501D01*
X92908877Y-53739501D01*
X92866113Y-53742399D01*
X92866112Y-53742399D01*
X92681303Y-53788360D01*
X92510707Y-53872967D01*
X92510704Y-53872969D01*
X92362278Y-53992277D01*
X92362277Y-53992278D01*
X92242969Y-54140704D01*
X92201088Y-54225151D01*
X92153667Y-54276463D01*
X92086032Y-54293992D01*
X92019657Y-54272173D01*
X91978912Y-54225151D01*
X91937030Y-54140704D01*
X91817722Y-53992278D01*
X91817721Y-53992277D01*
X91669295Y-53872969D01*
X91669292Y-53872967D01*
X91498697Y-53788360D01*
X91313891Y-53742400D01*
X91271124Y-53739500D01*
X91271123Y-53739500D01*
X90368878Y-53739501D01*
X90368877Y-53739501D01*
X90326113Y-53742399D01*
X90326112Y-53742399D01*
X90141303Y-53788360D01*
X89970707Y-53872967D01*
X89970704Y-53872969D01*
X89822278Y-53992277D01*
X89822277Y-53992278D01*
X89702969Y-54140704D01*
X89661088Y-54225151D01*
X89613667Y-54276463D01*
X89546032Y-54293992D01*
X89479657Y-54272173D01*
X89438912Y-54225151D01*
X89397030Y-54140704D01*
X89277722Y-53992278D01*
X89277721Y-53992277D01*
X89129295Y-53872969D01*
X89129292Y-53872967D01*
X88958697Y-53788360D01*
X88773891Y-53742400D01*
X88731124Y-53739500D01*
X88731123Y-53739500D01*
X87828878Y-53739501D01*
X87828877Y-53739501D01*
X87786113Y-53742399D01*
X87786112Y-53742399D01*
X87601303Y-53788360D01*
X87430707Y-53872967D01*
X87430704Y-53872969D01*
X87282278Y-53992277D01*
X87282277Y-53992278D01*
X87162969Y-54140704D01*
X87120809Y-54225712D01*
X87073387Y-54277025D01*
X87005752Y-54294553D01*
X86939377Y-54272733D01*
X86898633Y-54225711D01*
X86856609Y-54140977D01*
X86856607Y-54140974D01*
X86737367Y-53992633D01*
X86737366Y-53992632D01*
X86589025Y-53873392D01*
X86589022Y-53873390D01*
X86418523Y-53788831D01*
X86233824Y-53742897D01*
X86191099Y-53740000D01*
X85288901Y-53740000D01*
X85246175Y-53742897D01*
X85061476Y-53788831D01*
X84890977Y-53873390D01*
X84890974Y-53873392D01*
X84742633Y-53992632D01*
X84742632Y-53992633D01*
X84623392Y-54140974D01*
X84581366Y-54225712D01*
X84533944Y-54277025D01*
X84466309Y-54294553D01*
X84399934Y-54272733D01*
X84359190Y-54225711D01*
X84317032Y-54140707D01*
X84317030Y-54140704D01*
X84197722Y-53992278D01*
X84197721Y-53992277D01*
X84049295Y-53872969D01*
X84049292Y-53872967D01*
X83878697Y-53788360D01*
X83693891Y-53742400D01*
X83651124Y-53739500D01*
X83651123Y-53739500D01*
X82748878Y-53739501D01*
X82748877Y-53739501D01*
X82706113Y-53742399D01*
X82706112Y-53742399D01*
X82521303Y-53788360D01*
X82350707Y-53872967D01*
X82350704Y-53872969D01*
X82202278Y-53992277D01*
X82202277Y-53992278D01*
X82082969Y-54140704D01*
X82082967Y-54140707D01*
X81998360Y-54311302D01*
X81952400Y-54496108D01*
X81949500Y-54538876D01*
X80000500Y-54538876D01*
X80000500Y-50898876D01*
X103499500Y-50898876D01*
X103499501Y-51801122D01*
X103499501Y-51801123D01*
X103502399Y-51843886D01*
X103502399Y-51843887D01*
X103548360Y-52028696D01*
X103632967Y-52199292D01*
X103632969Y-52199295D01*
X103752277Y-52347721D01*
X103752278Y-52347722D01*
X103900704Y-52467030D01*
X103900707Y-52467032D01*
X104071302Y-52551639D01*
X104071303Y-52551639D01*
X104071307Y-52551641D01*
X104256111Y-52597600D01*
X104295520Y-52600272D01*
X104298876Y-52600500D01*
X104298876Y-52600499D01*
X104298877Y-52600500D01*
X106701122Y-52600499D01*
X106701123Y-52600499D01*
X106711813Y-52599774D01*
X106743889Y-52597600D01*
X106928693Y-52551641D01*
X107099296Y-52467030D01*
X107247722Y-52347722D01*
X107367030Y-52199296D01*
X107451641Y-52028693D01*
X107497600Y-51843889D01*
X107500500Y-51801123D01*
X107500499Y-50898878D01*
X107497600Y-50856111D01*
X107451641Y-50671307D01*
X107449046Y-50666075D01*
X107367032Y-50500707D01*
X107367030Y-50500704D01*
X107247722Y-50352278D01*
X107247721Y-50352277D01*
X107099295Y-50232969D01*
X107099292Y-50232967D01*
X107014849Y-50191088D01*
X106963536Y-50143667D01*
X106946006Y-50076032D01*
X106967826Y-50009657D01*
X107014849Y-49968912D01*
X107099292Y-49927032D01*
X107099292Y-49927031D01*
X107099296Y-49927030D01*
X107247722Y-49807722D01*
X107367030Y-49659296D01*
X107451641Y-49488693D01*
X107497600Y-49303889D01*
X107500500Y-49261123D01*
X107500499Y-48358878D01*
X107497600Y-48316111D01*
X107451641Y-48131307D01*
X107449046Y-48126075D01*
X107367032Y-47960707D01*
X107367030Y-47960704D01*
X107247722Y-47812278D01*
X107247721Y-47812277D01*
X107099295Y-47692969D01*
X107099292Y-47692967D01*
X107014849Y-47651088D01*
X106963536Y-47603667D01*
X106946006Y-47536032D01*
X106967826Y-47469657D01*
X107014849Y-47428912D01*
X107099292Y-47387032D01*
X107099292Y-47387031D01*
X107099296Y-47387030D01*
X107247722Y-47267722D01*
X107367030Y-47119296D01*
X107451641Y-46948693D01*
X107497600Y-46763889D01*
X107500500Y-46721123D01*
X107500499Y-45818878D01*
X107497600Y-45776111D01*
X107451641Y-45591307D01*
X107449046Y-45586075D01*
X107367032Y-45420707D01*
X107367030Y-45420704D01*
X107247722Y-45272278D01*
X107247721Y-45272277D01*
X107099295Y-45152969D01*
X107099292Y-45152967D01*
X107014849Y-45111088D01*
X106963536Y-45063667D01*
X106946006Y-44996032D01*
X106967826Y-44929657D01*
X107014849Y-44888912D01*
X107099292Y-44847032D01*
X107099292Y-44847031D01*
X107099296Y-44847030D01*
X107247722Y-44727722D01*
X107367030Y-44579296D01*
X107451641Y-44408693D01*
X107497600Y-44223889D01*
X107500500Y-44181123D01*
X107500499Y-43278878D01*
X107497600Y-43236111D01*
X107451641Y-43051307D01*
X107449046Y-43046075D01*
X107367032Y-42880707D01*
X107367030Y-42880704D01*
X107247722Y-42732278D01*
X107247721Y-42732277D01*
X107099295Y-42612969D01*
X107099292Y-42612967D01*
X107014849Y-42571088D01*
X106963536Y-42523667D01*
X106946006Y-42456032D01*
X106967826Y-42389657D01*
X107014849Y-42348912D01*
X107099292Y-42307032D01*
X107099292Y-42307031D01*
X107099296Y-42307030D01*
X107247722Y-42187722D01*
X107367030Y-42039296D01*
X107451641Y-41868693D01*
X107497600Y-41683889D01*
X107500500Y-41641123D01*
X107500499Y-40738878D01*
X107497600Y-40696111D01*
X107451641Y-40511307D01*
X107449046Y-40506075D01*
X107367032Y-40340707D01*
X107367030Y-40340704D01*
X107247722Y-40192278D01*
X107247721Y-40192277D01*
X107099295Y-40072969D01*
X107099292Y-40072967D01*
X106928697Y-39988360D01*
X106743891Y-39942400D01*
X106701124Y-39939500D01*
X106701123Y-39939500D01*
X104298878Y-39939501D01*
X104298877Y-39939501D01*
X104256113Y-39942399D01*
X104256112Y-39942399D01*
X104071303Y-39988360D01*
X103900707Y-40072967D01*
X103900704Y-40072969D01*
X103752278Y-40192277D01*
X103752277Y-40192278D01*
X103632969Y-40340704D01*
X103632967Y-40340707D01*
X103548360Y-40511302D01*
X103502400Y-40696108D01*
X103499500Y-40738876D01*
X103499501Y-41641122D01*
X103499501Y-41641123D01*
X103502399Y-41683886D01*
X103502399Y-41683887D01*
X103548360Y-41868696D01*
X103632967Y-42039292D01*
X103632969Y-42039295D01*
X103752277Y-42187721D01*
X103752278Y-42187722D01*
X103900704Y-42307030D01*
X103985151Y-42348912D01*
X104036463Y-42396333D01*
X104053992Y-42463968D01*
X104032173Y-42530343D01*
X103985151Y-42571088D01*
X103900704Y-42612969D01*
X103752278Y-42732277D01*
X103752277Y-42732278D01*
X103632969Y-42880704D01*
X103632967Y-42880707D01*
X103548360Y-43051302D01*
X103502400Y-43236108D01*
X103499500Y-43278876D01*
X103499501Y-44181122D01*
X103499501Y-44181123D01*
X103502399Y-44223886D01*
X103502399Y-44223887D01*
X103548360Y-44408696D01*
X103632967Y-44579292D01*
X103632969Y-44579295D01*
X103752277Y-44727721D01*
X103752278Y-44727722D01*
X103900704Y-44847030D01*
X103985151Y-44888912D01*
X104036463Y-44936333D01*
X104053992Y-45003968D01*
X104032173Y-45070343D01*
X103985151Y-45111088D01*
X103900704Y-45152969D01*
X103752278Y-45272277D01*
X103752277Y-45272278D01*
X103632969Y-45420704D01*
X103632967Y-45420707D01*
X103548360Y-45591302D01*
X103502400Y-45776108D01*
X103499500Y-45818876D01*
X103499501Y-46721122D01*
X103499501Y-46721123D01*
X103502399Y-46763886D01*
X103502399Y-46763887D01*
X103548360Y-46948696D01*
X103632967Y-47119292D01*
X103632969Y-47119295D01*
X103752277Y-47267721D01*
X103752278Y-47267722D01*
X103900704Y-47387030D01*
X103985151Y-47428912D01*
X104036463Y-47476333D01*
X104053992Y-47543968D01*
X104032173Y-47610343D01*
X103985151Y-47651088D01*
X103900704Y-47692969D01*
X103752278Y-47812277D01*
X103752277Y-47812278D01*
X103632969Y-47960704D01*
X103632967Y-47960707D01*
X103548360Y-48131302D01*
X103502400Y-48316108D01*
X103499500Y-48358876D01*
X103499501Y-49261122D01*
X103499501Y-49261123D01*
X103502399Y-49303886D01*
X103502399Y-49303887D01*
X103548360Y-49488696D01*
X103632967Y-49659292D01*
X103632969Y-49659295D01*
X103752277Y-49807721D01*
X103752278Y-49807722D01*
X103900704Y-49927030D01*
X103985151Y-49968912D01*
X104036463Y-50016333D01*
X104053992Y-50083968D01*
X104032173Y-50150343D01*
X103985151Y-50191088D01*
X103900704Y-50232969D01*
X103752278Y-50352277D01*
X103752277Y-50352278D01*
X103632969Y-50500704D01*
X103632967Y-50500707D01*
X103548360Y-50671302D01*
X103502400Y-50856108D01*
X103499500Y-50898876D01*
X80000500Y-50898876D01*
X80000500Y-35538876D01*
X81949500Y-35538876D01*
X81949501Y-37941122D01*
X81949501Y-37941123D01*
X81952399Y-37983886D01*
X81952399Y-37983887D01*
X81998360Y-38168696D01*
X82082967Y-38339292D01*
X82082969Y-38339295D01*
X82202277Y-38487721D01*
X82202278Y-38487722D01*
X82350704Y-38607030D01*
X82350707Y-38607032D01*
X82521302Y-38691639D01*
X82521303Y-38691639D01*
X82521307Y-38691641D01*
X82706111Y-38737600D01*
X82745520Y-38740272D01*
X82748876Y-38740500D01*
X82748876Y-38740499D01*
X82748877Y-38740500D01*
X83651122Y-38740499D01*
X83651123Y-38740499D01*
X83661813Y-38739774D01*
X83693889Y-38737600D01*
X83878693Y-38691641D01*
X84049296Y-38607030D01*
X84197722Y-38487722D01*
X84317030Y-38339296D01*
X84358912Y-38254849D01*
X84406333Y-38203536D01*
X84473968Y-38186006D01*
X84540343Y-38207826D01*
X84581088Y-38254849D01*
X84622967Y-38339292D01*
X84622969Y-38339295D01*
X84742277Y-38487721D01*
X84742278Y-38487722D01*
X84890704Y-38607030D01*
X84890707Y-38607032D01*
X85061302Y-38691639D01*
X85061303Y-38691639D01*
X85061307Y-38691641D01*
X85246111Y-38737600D01*
X85285520Y-38740272D01*
X85288876Y-38740500D01*
X85288876Y-38740499D01*
X85288877Y-38740500D01*
X86191122Y-38740499D01*
X86191123Y-38740499D01*
X86201813Y-38739774D01*
X86233889Y-38737600D01*
X86418693Y-38691641D01*
X86589296Y-38607030D01*
X86737722Y-38487722D01*
X86857030Y-38339296D01*
X86898912Y-38254849D01*
X86946333Y-38203536D01*
X87013968Y-38186006D01*
X87080343Y-38207826D01*
X87121088Y-38254849D01*
X87162967Y-38339292D01*
X87162969Y-38339295D01*
X87282277Y-38487721D01*
X87282278Y-38487722D01*
X87430704Y-38607030D01*
X87430707Y-38607032D01*
X87601302Y-38691639D01*
X87601303Y-38691639D01*
X87601307Y-38691641D01*
X87786111Y-38737600D01*
X87825520Y-38740272D01*
X87828876Y-38740500D01*
X87828876Y-38740499D01*
X87828877Y-38740500D01*
X88731122Y-38740499D01*
X88731123Y-38740499D01*
X88741813Y-38739774D01*
X88773889Y-38737600D01*
X88958693Y-38691641D01*
X89129296Y-38607030D01*
X89277722Y-38487722D01*
X89397030Y-38339296D01*
X89438912Y-38254849D01*
X89486333Y-38203536D01*
X89553968Y-38186006D01*
X89620343Y-38207826D01*
X89661088Y-38254849D01*
X89702967Y-38339292D01*
X89702969Y-38339295D01*
X89822277Y-38487721D01*
X89822278Y-38487722D01*
X89970704Y-38607030D01*
X89970707Y-38607032D01*
X90141302Y-38691639D01*
X90141303Y-38691639D01*
X90141307Y-38691641D01*
X90326111Y-38737600D01*
X90365520Y-38740272D01*
X90368876Y-38740500D01*
X90368876Y-38740499D01*
X90368877Y-38740500D01*
X91271122Y-38740499D01*
X91271123Y-38740499D01*
X91281813Y-38739774D01*
X91313889Y-38737600D01*
X91498693Y-38691641D01*
X91669296Y-38607030D01*
X91817722Y-38487722D01*
X91937030Y-38339296D01*
X91978912Y-38254849D01*
X92026333Y-38203536D01*
X92093968Y-38186006D01*
X92160343Y-38207826D01*
X92201088Y-38254849D01*
X92242967Y-38339292D01*
X92242969Y-38339295D01*
X92362277Y-38487721D01*
X92362278Y-38487722D01*
X92510704Y-38607030D01*
X92510707Y-38607032D01*
X92681302Y-38691639D01*
X92681303Y-38691639D01*
X92681307Y-38691641D01*
X92866111Y-38737600D01*
X92905520Y-38740272D01*
X92908876Y-38740500D01*
X92908876Y-38740499D01*
X92908877Y-38740500D01*
X93811122Y-38740499D01*
X93811123Y-38740499D01*
X93821813Y-38739774D01*
X93853889Y-38737600D01*
X94038693Y-38691641D01*
X94209296Y-38607030D01*
X94357722Y-38487722D01*
X94477030Y-38339296D01*
X94518912Y-38254849D01*
X94566333Y-38203536D01*
X94633968Y-38186006D01*
X94700343Y-38207826D01*
X94741088Y-38254849D01*
X94782967Y-38339292D01*
X94782969Y-38339295D01*
X94902277Y-38487721D01*
X94902278Y-38487722D01*
X95050704Y-38607030D01*
X95050707Y-38607032D01*
X95221302Y-38691639D01*
X95221303Y-38691639D01*
X95221307Y-38691641D01*
X95406111Y-38737600D01*
X95445520Y-38740272D01*
X95448876Y-38740500D01*
X95448876Y-38740499D01*
X95448877Y-38740500D01*
X96351122Y-38740499D01*
X96351123Y-38740499D01*
X96361813Y-38739774D01*
X96393889Y-38737600D01*
X96578693Y-38691641D01*
X96749296Y-38607030D01*
X96897722Y-38487722D01*
X97017030Y-38339296D01*
X97058912Y-38254849D01*
X97106333Y-38203536D01*
X97173968Y-38186006D01*
X97240343Y-38207826D01*
X97281088Y-38254849D01*
X97322967Y-38339292D01*
X97322969Y-38339295D01*
X97442277Y-38487721D01*
X97442278Y-38487722D01*
X97590704Y-38607030D01*
X97590707Y-38607032D01*
X97761302Y-38691639D01*
X97761303Y-38691639D01*
X97761307Y-38691641D01*
X97946111Y-38737600D01*
X97985520Y-38740272D01*
X97988876Y-38740500D01*
X97988876Y-38740499D01*
X97988877Y-38740500D01*
X98891122Y-38740499D01*
X98891123Y-38740499D01*
X98901813Y-38739774D01*
X98933889Y-38737600D01*
X99118693Y-38691641D01*
X99289296Y-38607030D01*
X99437722Y-38487722D01*
X99557030Y-38339296D01*
X99598912Y-38254849D01*
X99646333Y-38203536D01*
X99713968Y-38186006D01*
X99780343Y-38207826D01*
X99821088Y-38254849D01*
X99862967Y-38339292D01*
X99862969Y-38339295D01*
X99982277Y-38487721D01*
X99982278Y-38487722D01*
X100130704Y-38607030D01*
X100130707Y-38607032D01*
X100301302Y-38691639D01*
X100301303Y-38691639D01*
X100301307Y-38691641D01*
X100486111Y-38737600D01*
X100525520Y-38740272D01*
X100528876Y-38740500D01*
X100528876Y-38740499D01*
X100528877Y-38740500D01*
X101431122Y-38740499D01*
X101431123Y-38740499D01*
X101441813Y-38739774D01*
X101473889Y-38737600D01*
X101658693Y-38691641D01*
X101829296Y-38607030D01*
X101977722Y-38487722D01*
X102097030Y-38339296D01*
X102138912Y-38254849D01*
X102186333Y-38203536D01*
X102253968Y-38186006D01*
X102320343Y-38207826D01*
X102361088Y-38254849D01*
X102402967Y-38339292D01*
X102402969Y-38339295D01*
X102522277Y-38487721D01*
X102522278Y-38487722D01*
X102670704Y-38607030D01*
X102670707Y-38607032D01*
X102841302Y-38691639D01*
X102841303Y-38691639D01*
X102841307Y-38691641D01*
X103026111Y-38737600D01*
X103065520Y-38740272D01*
X103068876Y-38740500D01*
X103068876Y-38740499D01*
X103068877Y-38740500D01*
X103971122Y-38740499D01*
X103971123Y-38740499D01*
X103981813Y-38739774D01*
X104013889Y-38737600D01*
X104198693Y-38691641D01*
X104369296Y-38607030D01*
X104517722Y-38487722D01*
X104637030Y-38339296D01*
X104721641Y-38168693D01*
X104767600Y-37983889D01*
X104770500Y-37941123D01*
X104770499Y-35538878D01*
X104767600Y-35496111D01*
X104721641Y-35311307D01*
X104678912Y-35225151D01*
X104637032Y-35140707D01*
X104637030Y-35140704D01*
X104517722Y-34992278D01*
X104517721Y-34992277D01*
X104369295Y-34872969D01*
X104369292Y-34872967D01*
X104198697Y-34788360D01*
X104013891Y-34742400D01*
X103971124Y-34739500D01*
X103971123Y-34739500D01*
X103068878Y-34739501D01*
X103068877Y-34739501D01*
X103026113Y-34742399D01*
X103026112Y-34742399D01*
X102841303Y-34788360D01*
X102670707Y-34872967D01*
X102670704Y-34872969D01*
X102522278Y-34992277D01*
X102522277Y-34992278D01*
X102402969Y-35140704D01*
X102361088Y-35225151D01*
X102313667Y-35276463D01*
X102246032Y-35293992D01*
X102179657Y-35272173D01*
X102138912Y-35225151D01*
X102097030Y-35140704D01*
X101977722Y-34992278D01*
X101977721Y-34992277D01*
X101829295Y-34872969D01*
X101829292Y-34872967D01*
X101658697Y-34788360D01*
X101473891Y-34742400D01*
X101431124Y-34739500D01*
X101431123Y-34739500D01*
X100528878Y-34739501D01*
X100528877Y-34739501D01*
X100486113Y-34742399D01*
X100486112Y-34742399D01*
X100301303Y-34788360D01*
X100130707Y-34872967D01*
X100130704Y-34872969D01*
X99982278Y-34992277D01*
X99982277Y-34992278D01*
X99862969Y-35140704D01*
X99821088Y-35225151D01*
X99773667Y-35276463D01*
X99706032Y-35293992D01*
X99639657Y-35272173D01*
X99598912Y-35225151D01*
X99557030Y-35140704D01*
X99437722Y-34992278D01*
X99437721Y-34992277D01*
X99289295Y-34872969D01*
X99289292Y-34872967D01*
X99118697Y-34788360D01*
X98933891Y-34742400D01*
X98891124Y-34739500D01*
X98891123Y-34739500D01*
X97988878Y-34739501D01*
X97988877Y-34739501D01*
X97946113Y-34742399D01*
X97946112Y-34742399D01*
X97761303Y-34788360D01*
X97590707Y-34872967D01*
X97590704Y-34872969D01*
X97442278Y-34992277D01*
X97442277Y-34992278D01*
X97322969Y-35140704D01*
X97281088Y-35225151D01*
X97233667Y-35276463D01*
X97166032Y-35293992D01*
X97099657Y-35272173D01*
X97058912Y-35225151D01*
X97017030Y-35140704D01*
X96897722Y-34992278D01*
X96897721Y-34992277D01*
X96749295Y-34872969D01*
X96749292Y-34872967D01*
X96578697Y-34788360D01*
X96393891Y-34742400D01*
X96351124Y-34739500D01*
X96351123Y-34739500D01*
X95448878Y-34739501D01*
X95448877Y-34739501D01*
X95406113Y-34742399D01*
X95406112Y-34742399D01*
X95221303Y-34788360D01*
X95050707Y-34872967D01*
X95050704Y-34872969D01*
X94902278Y-34992277D01*
X94902277Y-34992278D01*
X94782969Y-35140704D01*
X94741088Y-35225151D01*
X94693667Y-35276463D01*
X94626032Y-35293992D01*
X94559657Y-35272173D01*
X94518912Y-35225151D01*
X94477030Y-35140704D01*
X94357722Y-34992278D01*
X94357721Y-34992277D01*
X94209295Y-34872969D01*
X94209292Y-34872967D01*
X94038697Y-34788360D01*
X93853891Y-34742400D01*
X93811124Y-34739500D01*
X93811123Y-34739500D01*
X92908878Y-34739501D01*
X92908877Y-34739501D01*
X92866113Y-34742399D01*
X92866112Y-34742399D01*
X92681303Y-34788360D01*
X92510707Y-34872967D01*
X92510704Y-34872969D01*
X92362278Y-34992277D01*
X92362277Y-34992278D01*
X92242969Y-35140704D01*
X92201088Y-35225151D01*
X92153667Y-35276463D01*
X92086032Y-35293992D01*
X92019657Y-35272173D01*
X91978912Y-35225151D01*
X91937030Y-35140704D01*
X91817722Y-34992278D01*
X91817721Y-34992277D01*
X91669295Y-34872969D01*
X91669292Y-34872967D01*
X91498697Y-34788360D01*
X91313891Y-34742400D01*
X91271124Y-34739500D01*
X91271123Y-34739500D01*
X90368878Y-34739501D01*
X90368877Y-34739501D01*
X90326113Y-34742399D01*
X90326112Y-34742399D01*
X90141303Y-34788360D01*
X89970707Y-34872967D01*
X89970704Y-34872969D01*
X89822278Y-34992277D01*
X89822277Y-34992278D01*
X89702969Y-35140704D01*
X89661088Y-35225151D01*
X89613667Y-35276463D01*
X89546032Y-35293992D01*
X89479657Y-35272173D01*
X89438912Y-35225151D01*
X89397030Y-35140704D01*
X89277722Y-34992278D01*
X89277721Y-34992277D01*
X89129295Y-34872969D01*
X89129292Y-34872967D01*
X88958697Y-34788360D01*
X88773891Y-34742400D01*
X88731124Y-34739500D01*
X88731123Y-34739500D01*
X87828878Y-34739501D01*
X87828877Y-34739501D01*
X87786113Y-34742399D01*
X87786112Y-34742399D01*
X87601303Y-34788360D01*
X87430707Y-34872967D01*
X87430704Y-34872969D01*
X87282278Y-34992277D01*
X87282277Y-34992278D01*
X87162969Y-35140704D01*
X87121088Y-35225151D01*
X87073667Y-35276463D01*
X87006032Y-35293992D01*
X86939657Y-35272173D01*
X86898912Y-35225151D01*
X86857030Y-35140704D01*
X86737722Y-34992278D01*
X86737721Y-34992277D01*
X86589295Y-34872969D01*
X86589292Y-34872967D01*
X86418697Y-34788360D01*
X86233891Y-34742400D01*
X86191124Y-34739500D01*
X86191123Y-34739500D01*
X85288878Y-34739501D01*
X85288877Y-34739501D01*
X85246113Y-34742399D01*
X85246112Y-34742399D01*
X85061303Y-34788360D01*
X84890707Y-34872967D01*
X84890704Y-34872969D01*
X84742278Y-34992277D01*
X84742277Y-34992278D01*
X84622969Y-35140704D01*
X84581088Y-35225151D01*
X84533667Y-35276463D01*
X84466032Y-35293992D01*
X84399657Y-35272173D01*
X84358912Y-35225151D01*
X84317030Y-35140704D01*
X84197722Y-34992278D01*
X84197721Y-34992277D01*
X84049295Y-34872969D01*
X84049292Y-34872967D01*
X83878697Y-34788360D01*
X83693891Y-34742400D01*
X83651124Y-34739500D01*
X83651123Y-34739500D01*
X82748878Y-34739501D01*
X82748877Y-34739501D01*
X82706113Y-34742399D01*
X82706112Y-34742399D01*
X82521303Y-34788360D01*
X82350707Y-34872967D01*
X82350704Y-34872969D01*
X82202278Y-34992277D01*
X82202277Y-34992278D01*
X82082969Y-35140704D01*
X82082967Y-35140707D01*
X81998360Y-35311302D01*
X81952400Y-35496108D01*
X81949500Y-35538876D01*
X80000500Y-35538876D01*
X80000500Y-30001439D01*
X80000533Y-30000003D01*
X80994415Y-30000003D01*
X81014738Y-30348927D01*
X81014739Y-30348938D01*
X81075428Y-30693127D01*
X81075430Y-30693134D01*
X81175674Y-31027972D01*
X81314107Y-31348895D01*
X81314113Y-31348908D01*
X81488870Y-31651597D01*
X81697584Y-31931949D01*
X81697589Y-31931955D01*
X81821463Y-32063253D01*
X81937442Y-32186183D01*
X82113903Y-32334251D01*
X82205186Y-32410847D01*
X82205194Y-32410853D01*
X82497203Y-32602911D01*
X82497207Y-32602913D01*
X82809549Y-32759777D01*
X83137989Y-32879319D01*
X83478086Y-32959923D01*
X83825241Y-33000500D01*
X83825248Y-33000500D01*
X84174752Y-33000500D01*
X84174759Y-33000500D01*
X84521914Y-32959923D01*
X84862011Y-32879319D01*
X85190451Y-32759777D01*
X85502793Y-32602913D01*
X85794811Y-32410849D01*
X86062558Y-32186183D01*
X86302412Y-31931953D01*
X86511130Y-31651596D01*
X86685889Y-31348904D01*
X86824326Y-31027971D01*
X86924569Y-30693136D01*
X86985262Y-30348927D01*
X87005585Y-30000003D01*
X101994415Y-30000003D01*
X102014738Y-30348927D01*
X102014739Y-30348938D01*
X102075428Y-30693127D01*
X102075430Y-30693134D01*
X102175674Y-31027972D01*
X102314107Y-31348895D01*
X102314113Y-31348908D01*
X102488870Y-31651597D01*
X102697584Y-31931949D01*
X102697589Y-31931955D01*
X102821463Y-32063253D01*
X102937442Y-32186183D01*
X103113903Y-32334251D01*
X103205186Y-32410847D01*
X103205194Y-32410853D01*
X103497203Y-32602911D01*
X103497207Y-32602913D01*
X103809549Y-32759777D01*
X104137989Y-32879319D01*
X104478086Y-32959923D01*
X104825241Y-33000500D01*
X104825248Y-33000500D01*
X105174752Y-33000500D01*
X105174759Y-33000500D01*
X105521914Y-32959923D01*
X105862011Y-32879319D01*
X106190451Y-32759777D01*
X106502793Y-32602913D01*
X106794811Y-32410849D01*
X107062558Y-32186183D01*
X107302412Y-31931953D01*
X107511130Y-31651596D01*
X107685889Y-31348904D01*
X107824326Y-31027971D01*
X107924569Y-30693136D01*
X107985262Y-30348927D01*
X108005585Y-30000000D01*
X107985262Y-29651073D01*
X107980124Y-29621933D01*
X107924571Y-29306872D01*
X107924569Y-29306865D01*
X107912064Y-29265094D01*
X107824326Y-28972029D01*
X107685889Y-28651096D01*
X107511130Y-28348404D01*
X107511129Y-28348402D01*
X107302415Y-28068050D01*
X107302410Y-28068044D01*
X107186433Y-27945117D01*
X107062558Y-27813817D01*
X106904749Y-27681400D01*
X106794813Y-27589152D01*
X106794805Y-27589146D01*
X106502796Y-27397088D01*
X106190458Y-27240226D01*
X106190452Y-27240223D01*
X105862012Y-27120681D01*
X105862009Y-27120680D01*
X105521915Y-27040077D01*
X105478519Y-27035004D01*
X105174759Y-26999500D01*
X104825241Y-26999500D01*
X104521480Y-27035004D01*
X104478085Y-27040077D01*
X104478083Y-27040077D01*
X104137990Y-27120680D01*
X104137987Y-27120681D01*
X103809547Y-27240223D01*
X103809541Y-27240226D01*
X103497203Y-27397088D01*
X103205194Y-27589146D01*
X103205186Y-27589152D01*
X102937442Y-27813817D01*
X102937440Y-27813819D01*
X102697589Y-28068044D01*
X102697584Y-28068050D01*
X102488870Y-28348402D01*
X102314113Y-28651091D01*
X102314107Y-28651104D01*
X102175674Y-28972027D01*
X102075430Y-29306865D01*
X102075428Y-29306872D01*
X102014739Y-29651061D01*
X102014738Y-29651072D01*
X101994415Y-29999996D01*
X101994415Y-30000003D01*
X87005585Y-30000003D01*
X87005585Y-30000000D01*
X86985262Y-29651073D01*
X86980124Y-29621933D01*
X86924571Y-29306872D01*
X86924569Y-29306865D01*
X86912064Y-29265094D01*
X86824326Y-28972029D01*
X86685889Y-28651096D01*
X86511130Y-28348404D01*
X86511129Y-28348402D01*
X86302415Y-28068050D01*
X86302410Y-28068044D01*
X86186433Y-27945117D01*
X86062558Y-27813817D01*
X85904749Y-27681400D01*
X85794813Y-27589152D01*
X85794805Y-27589146D01*
X85502796Y-27397088D01*
X85190458Y-27240226D01*
X85190452Y-27240223D01*
X84862012Y-27120681D01*
X84862009Y-27120680D01*
X84521915Y-27040077D01*
X84478519Y-27035004D01*
X84174759Y-26999500D01*
X83825241Y-26999500D01*
X83521480Y-27035004D01*
X83478085Y-27040077D01*
X83478083Y-27040077D01*
X83137990Y-27120680D01*
X83137987Y-27120681D01*
X82809547Y-27240223D01*
X82809541Y-27240226D01*
X82497203Y-27397088D01*
X82205194Y-27589146D01*
X82205186Y-27589152D01*
X81937442Y-27813817D01*
X81937440Y-27813819D01*
X81697589Y-28068044D01*
X81697584Y-28068050D01*
X81488870Y-28348402D01*
X81314113Y-28651091D01*
X81314107Y-28651104D01*
X81175674Y-28972027D01*
X81075430Y-29306865D01*
X81075428Y-29306872D01*
X81014739Y-29651061D01*
X81014738Y-29651072D01*
X80994415Y-29999996D01*
X80994415Y-30000003D01*
X80000533Y-30000003D01*
X80000566Y-29998576D01*
X80008487Y-29827238D01*
X80018302Y-29627446D01*
X80018818Y-29621955D01*
X80044670Y-29436633D01*
X80072331Y-29250162D01*
X80073292Y-29245137D01*
X80116689Y-29060626D01*
X80161993Y-28879764D01*
X80163323Y-28875216D01*
X80223915Y-28694431D01*
X80286457Y-28519641D01*
X80288100Y-28515527D01*
X80365368Y-28340530D01*
X80444615Y-28172977D01*
X80446444Y-28169423D01*
X80539781Y-28001852D01*
X80634990Y-27843005D01*
X80636979Y-27839904D01*
X80745570Y-27681381D01*
X80855924Y-27532586D01*
X80857928Y-27530033D01*
X80980875Y-27381973D01*
X81105351Y-27244636D01*
X81107361Y-27242526D01*
X81242526Y-27107361D01*
X81244636Y-27105351D01*
X81381973Y-26980875D01*
X81530033Y-26857928D01*
X81532586Y-26855924D01*
X81681381Y-26745570D01*
X81839904Y-26636979D01*
X81843005Y-26634990D01*
X82001858Y-26539778D01*
X82169423Y-26446444D01*
X82172977Y-26444615D01*
X82340530Y-26365368D01*
X82515538Y-26288095D01*
X82519641Y-26286457D01*
X82694431Y-26223915D01*
X82875216Y-26163323D01*
X82879764Y-26161993D01*
X83060626Y-26116689D01*
X83245137Y-26073292D01*
X83250162Y-26072331D01*
X83436651Y-26044667D01*
X83621955Y-26018818D01*
X83627446Y-26018302D01*
X83826958Y-26008500D01*
X83968945Y-26001935D01*
X83998577Y-26000566D01*
X84001440Y-26000500D01*
X104998560Y-26000500D01*
X105001423Y-26000566D01*
G37*
%TD.AperFunction*%
%TD*%
M02*
