%TF.GenerationSoftware,KiCad,Pcbnew,7.0.9*%
%TF.CreationDate,2025-04-28T00:26:43+09:00*%
%TF.ProjectId,Rp2040_v1.1,52703230-3430-45f7-9631-2e312e6b6963,rev?*%
%TF.SameCoordinates,Original*%
%TF.FileFunction,Paste,Top*%
%TF.FilePolarity,Positive*%
%FSLAX46Y46*%
G04 Gerber Fmt 4.6, Leading zero omitted, Abs format (unit mm)*
G04 Created by KiCad (PCBNEW 7.0.9) date 2025-04-28 00:26:43*
%MOMM*%
%LPD*%
G01*
G04 APERTURE LIST*
G04 Aperture macros list*
%AMRoundRect*
0 Rectangle with rounded corners*
0 $1 Rounding radius*
0 $2 $3 $4 $5 $6 $7 $8 $9 X,Y pos of 4 corners*
0 Add a 4 corners polygon primitive as box body*
4,1,4,$2,$3,$4,$5,$6,$7,$8,$9,$2,$3,0*
0 Add four circle primitives for the rounded corners*
1,1,$1+$1,$2,$3*
1,1,$1+$1,$4,$5*
1,1,$1+$1,$6,$7*
1,1,$1+$1,$8,$9*
0 Add four rect primitives between the rounded corners*
20,1,$1+$1,$2,$3,$4,$5,0*
20,1,$1+$1,$4,$5,$6,$7,0*
20,1,$1+$1,$6,$7,$8,$9,0*
20,1,$1+$1,$8,$9,$2,$3,0*%
G04 Aperture macros list end*
%ADD10R,1.220000X0.910000*%
%ADD11RoundRect,0.250000X-0.262500X-0.450000X0.262500X-0.450000X0.262500X0.450000X-0.262500X0.450000X0*%
%ADD12RoundRect,0.250000X0.262500X0.450000X-0.262500X0.450000X-0.262500X-0.450000X0.262500X-0.450000X0*%
%ADD13RoundRect,0.375000X0.375000X-1.125000X0.375000X1.125000X-0.375000X1.125000X-0.375000X-1.125000X0*%
%ADD14RoundRect,0.375000X1.125000X0.375000X-1.125000X0.375000X-1.125000X-0.375000X1.125000X-0.375000X0*%
%ADD15RoundRect,0.250000X-0.450000X0.262500X-0.450000X-0.262500X0.450000X-0.262500X0.450000X0.262500X0*%
G04 APERTURE END LIST*
D10*
%TO.C,D4*%
X95500000Y-60250000D03*
X95500000Y-63520000D03*
%TD*%
D11*
%TO.C,1K1*%
X98000000Y-72885000D03*
X96175000Y-72885000D03*
%TD*%
D12*
%TO.C,1M1*%
X96175000Y-75885000D03*
X98000000Y-75885000D03*
%TD*%
D10*
%TO.C,D3*%
X95500000Y-66000000D03*
X95500000Y-69270000D03*
%TD*%
D13*
%TO.C,U1*%
X83200000Y-36740000D03*
X85740000Y-36740000D03*
X88280000Y-36740000D03*
X90820000Y-36740000D03*
X93360000Y-36740000D03*
X95900000Y-36740000D03*
X98440000Y-36740000D03*
X100980000Y-36740000D03*
X103520000Y-36740000D03*
D14*
X105500000Y-41190000D03*
X105500000Y-43730000D03*
X105500000Y-46270000D03*
X105500000Y-48810000D03*
X105500000Y-51350000D03*
D13*
X103520000Y-55740000D03*
X100980000Y-55740000D03*
X98440000Y-55740000D03*
X95900000Y-55740000D03*
X93360000Y-55740000D03*
X90820000Y-55740000D03*
X88280000Y-55740000D03*
X85740000Y-55740000D03*
X83200000Y-55740000D03*
%TD*%
D10*
%TO.C,D8*%
X87000000Y-60250000D03*
X87000000Y-63520000D03*
%TD*%
%TO.C,D7*%
X87000000Y-69270000D03*
X87000000Y-66000000D03*
%TD*%
%TO.C,D6*%
X91702500Y-63520000D03*
X91702500Y-60250000D03*
%TD*%
%TO.C,D5*%
X91750000Y-69270000D03*
X91750000Y-66000000D03*
%TD*%
%TO.C,D2*%
X100000000Y-69270000D03*
X100000000Y-66000000D03*
%TD*%
%TO.C,D1*%
X100000000Y-60250000D03*
X100000000Y-63520000D03*
%TD*%
D15*
%TO.C,1M4*%
X103750000Y-69710000D03*
X103750000Y-67885000D03*
%TD*%
%TO.C,1M3*%
X83500000Y-67885000D03*
X83500000Y-69710000D03*
%TD*%
D12*
%TO.C,1M2*%
X89837500Y-75885000D03*
X91662500Y-75885000D03*
%TD*%
D15*
%TO.C,1K4*%
X103750000Y-63385000D03*
X103750000Y-65210000D03*
%TD*%
%TO.C,1K3*%
X83500000Y-63385000D03*
X83500000Y-65210000D03*
%TD*%
D11*
%TO.C,1K2*%
X91662500Y-72885000D03*
X89837500Y-72885000D03*
%TD*%
M02*
