%TF.GenerationSoftware,KiCad,Pcbnew,7.0.9*%
%TF.CreationDate,2025-02-12T23:41:43+09:00*%
%TF.ProjectId,hid_taiko_rp2040_lite,6869645f-7461-4696-9b6f-5f7270323034,rev?*%
%TF.SameCoordinates,Original*%
%TF.FileFunction,Copper,L1,Top*%
%TF.FilePolarity,Positive*%
%FSLAX46Y46*%
G04 Gerber Fmt 4.6, Leading zero omitted, Abs format (unit mm)*
G04 Created by KiCad (PCBNEW 7.0.9) date 2025-02-12 23:41:43*
%MOMM*%
%LPD*%
G01*
G04 APERTURE LIST*
G04 Aperture macros list*
%AMRoundRect*
0 Rectangle with rounded corners*
0 $1 Rounding radius*
0 $2 $3 $4 $5 $6 $7 $8 $9 X,Y pos of 4 corners*
0 Add a 4 corners polygon primitive as box body*
4,1,4,$2,$3,$4,$5,$6,$7,$8,$9,$2,$3,0*
0 Add four circle primitives for the rounded corners*
1,1,$1+$1,$2,$3*
1,1,$1+$1,$4,$5*
1,1,$1+$1,$6,$7*
1,1,$1+$1,$8,$9*
0 Add four rect primitives between the rounded corners*
20,1,$1+$1,$2,$3,$4,$5,0*
20,1,$1+$1,$4,$5,$6,$7,0*
20,1,$1+$1,$6,$7,$8,$9,0*
20,1,$1+$1,$8,$9,$2,$3,0*%
G04 Aperture macros list end*
%TA.AperFunction,ComponentPad*%
%ADD10C,1.524000*%
%TD*%
%TA.AperFunction,ComponentPad*%
%ADD11C,5.000000*%
%TD*%
%TA.AperFunction,ComponentPad*%
%ADD12R,1.524000X1.524000*%
%TD*%
%TA.AperFunction,ComponentPad*%
%ADD13O,1.524000X1.524000*%
%TD*%
%TA.AperFunction,SMDPad,CuDef*%
%ADD14RoundRect,0.375000X-1.125000X-0.375000X1.125000X-0.375000X1.125000X0.375000X-1.125000X0.375000X0*%
%TD*%
%TA.AperFunction,SMDPad,CuDef*%
%ADD15RoundRect,0.375000X0.375000X-1.125000X0.375000X1.125000X-0.375000X1.125000X-0.375000X-1.125000X0*%
%TD*%
%TA.AperFunction,ViaPad*%
%ADD16C,0.800000*%
%TD*%
%TA.AperFunction,Conductor*%
%ADD17C,0.250000*%
%TD*%
G04 APERTURE END LIST*
D10*
%TO.P,U6,1,1*%
%TO.N,Net-(U2-3_b)*%
X149500000Y-77400000D03*
%TO.P,U6,2,2*%
%TO.N,Net-(U3-GND)*%
X149500000Y-68650000D03*
%TD*%
D11*
%TO.P,J2,1*%
%TO.N,N/C*%
X131000000Y-44000000D03*
%TD*%
%TO.P,J2,1*%
%TO.N,N/C*%
X161000000Y-44000000D03*
%TD*%
%TO.P,J2,1*%
%TO.N,N/C*%
X161000000Y-82000000D03*
%TD*%
D12*
%TO.P,U2,1,1*%
%TO.N,Net-(U3-GND)*%
X141930000Y-83320000D03*
%TO.P,U2,2,2*%
X144470000Y-83320000D03*
%TO.P,U2,3,3*%
X147010000Y-83320000D03*
%TO.P,U2,4,4*%
X149550000Y-83320000D03*
D13*
%TO.P,U2,5,1_b*%
%TO.N,Net-(U2-1_b)*%
X141930000Y-80780000D03*
%TO.P,U2,6,2_b*%
%TO.N,Net-(U2-2_b)*%
X144470000Y-80780000D03*
%TO.P,U2,7,3_b*%
%TO.N,Net-(U2-3_b)*%
X147010000Y-80780000D03*
%TO.P,U2,8,4_b*%
%TO.N,Net-(U2-4_b)*%
X149550000Y-80780000D03*
%TD*%
D14*
%TO.P,U3,0,0*%
%TO.N,unconnected-(U3-Pad0)*%
X155510000Y-42320000D03*
%TO.P,U3,1,1*%
%TO.N,unconnected-(U3-Pad1)*%
X155510000Y-44860000D03*
%TO.P,U3,2,2*%
%TO.N,unconnected-(U3-Pad2)*%
X155510000Y-47400000D03*
%TO.P,U3,3,3*%
%TO.N,unconnected-(U3-Pad3)*%
X155510000Y-49940000D03*
%TO.P,U3,4,4*%
%TO.N,unconnected-(U3-Pad4)*%
X155510000Y-52480000D03*
%TO.P,U3,5,5*%
%TO.N,unconnected-(U3-Pad5)*%
X155510000Y-55020000D03*
%TO.P,U3,6,6*%
%TO.N,unconnected-(U3-Pad6)*%
X155510000Y-57560000D03*
%TO.P,U3,7*%
%TO.N,N/C*%
X155510000Y-60100000D03*
%TO.P,U3,8,8*%
%TO.N,unconnected-(U3-Pad8)*%
X155510000Y-62640000D03*
D15*
%TO.P,U3,9,9*%
%TO.N,unconnected-(U3-Pad9)*%
X151060000Y-64620000D03*
%TO.P,U3,10,10*%
%TO.N,unconnected-(U3-Pad10)*%
X148520000Y-64620000D03*
%TO.P,U3,11,11*%
%TO.N,unconnected-(U3-Pad11)*%
X145980000Y-64620000D03*
%TO.P,U3,12,12*%
%TO.N,unconnected-(U3-Pad12)*%
X143440000Y-64620000D03*
%TO.P,U3,13,13*%
%TO.N,unconnected-(U3-Pad13)*%
X140900000Y-64620000D03*
D14*
%TO.P,U3,14,14*%
%TO.N,unconnected-(U3-Pad14)*%
X136510000Y-62640000D03*
%TO.P,U3,15,15*%
%TO.N,unconnected-(U3-Pad15)*%
X136510000Y-60100000D03*
%TO.P,U3,26,ADC0*%
%TO.N,Net-(U2-2_b)*%
X136510000Y-57560000D03*
%TO.P,U3,27,ADC1*%
%TO.N,Net-(U2-1_b)*%
X136510000Y-55020000D03*
%TO.P,U3,28,ADC2*%
%TO.N,Net-(U2-3_b)*%
X136510000Y-52480000D03*
%TO.P,U3,29,ADC3*%
%TO.N,Net-(U2-4_b)*%
X136510000Y-49940000D03*
%TO.P,U3,30,3V*%
%TO.N,unconnected-(U3-3V-Pad30)*%
X136510000Y-47400000D03*
%TO.P,U3,31,GND*%
%TO.N,Net-(U3-GND)*%
X136510000Y-44860000D03*
%TO.P,U3,32,5V*%
%TO.N,unconnected-(U3-5V-Pad32)*%
X136510000Y-42320000D03*
%TD*%
D10*
%TO.P,U8,1,1*%
%TO.N,Net-(U2-1_b)*%
X137500000Y-77400000D03*
%TO.P,U8,2,2*%
%TO.N,Net-(U3-GND)*%
X137500000Y-68650000D03*
%TD*%
%TO.P,U7,1,1*%
%TO.N,Net-(U2-2_b)*%
X143500000Y-77400000D03*
%TO.P,U7,2,2*%
%TO.N,Net-(U3-GND)*%
X143500000Y-68650000D03*
%TD*%
D11*
%TO.P,J2,1*%
%TO.N,N/C*%
X131000000Y-82000000D03*
%TD*%
D10*
%TO.P,U5,1,1*%
%TO.N,Net-(U2-4_b)*%
X155500000Y-77400000D03*
%TO.P,U5,2,2*%
%TO.N,Net-(U3-GND)*%
X155500000Y-68650000D03*
%TD*%
D16*
%TO.N,Net-(U3-GND)*%
X143000000Y-85000000D03*
X152000000Y-75000000D03*
X136500000Y-45000000D03*
X137000000Y-80000000D03*
X158000000Y-41000000D03*
X157000000Y-79000000D03*
X137000000Y-71000000D03*
X154000000Y-79000000D03*
X143000000Y-74000000D03*
X164000000Y-41000000D03*
X135000000Y-75000000D03*
X135000000Y-85000000D03*
X156000000Y-85000000D03*
X152000000Y-85000000D03*
X157000000Y-75000000D03*
X133000000Y-63000000D03*
X128000000Y-63000000D03*
X141000000Y-71000000D03*
X140000000Y-74000000D03*
X148000000Y-72000000D03*
X152000000Y-81000000D03*
X162000000Y-57000000D03*
X154000000Y-66000000D03*
X146000000Y-76000000D03*
X162000000Y-71000000D03*
X135000000Y-65000000D03*
X128000000Y-69000000D03*
X133000000Y-51000000D03*
X128000000Y-61000000D03*
X130000000Y-48000000D03*
X162000000Y-51000000D03*
X162000000Y-64000000D03*
X140000000Y-85000000D03*
X156000000Y-72000000D03*
X157000000Y-71000000D03*
X133000000Y-70000000D03*
X133000000Y-65000000D03*
X128000000Y-65000000D03*
X128000000Y-53000000D03*
X150000000Y-72000000D03*
X138000000Y-84000000D03*
X128000000Y-41000000D03*
X162000000Y-77000000D03*
X128000000Y-75000000D03*
X149000000Y-85000000D03*
X128000000Y-55000000D03*
X133000000Y-61000000D03*
X128000000Y-51000000D03*
X146000000Y-85000000D03*
X157000000Y-66000000D03*
X128000000Y-49000000D03*
X128000000Y-77000000D03*
X147000000Y-70000000D03*
X137000000Y-66000000D03*
X134000000Y-41000000D03*
X164000000Y-48000000D03*
X128000000Y-57000000D03*
X139000000Y-82000000D03*
X131000000Y-78000000D03*
X136000000Y-82000000D03*
X128000000Y-71000000D03*
X154000000Y-82000000D03*
X128000000Y-67000000D03*
X134000000Y-73000000D03*
X128000000Y-73000000D03*
X128000000Y-59000000D03*
X133000000Y-59000000D03*
%TD*%
D17*
%TO.N,Net-(U2-1_b)*%
X135400000Y-77400000D02*
X131500000Y-73500000D01*
X133480000Y-55020000D02*
X136510000Y-55020000D01*
X137500000Y-77400000D02*
X135400000Y-77400000D01*
X140880000Y-80780000D02*
X141930000Y-80780000D01*
X131500000Y-57000000D02*
X133480000Y-55020000D01*
X131500000Y-73500000D02*
X131500000Y-57000000D01*
X137500000Y-77400000D02*
X140880000Y-80780000D01*
%TO.N,Net-(U2-3_b)*%
X149500000Y-77400000D02*
X149500000Y-77000000D01*
X149500000Y-77400000D02*
X147010000Y-79890000D01*
X138550000Y-54520000D02*
X136510000Y-52480000D01*
X149500000Y-77000000D02*
X138550000Y-66050000D01*
X138550000Y-66050000D02*
X138550000Y-54520000D01*
X147010000Y-79890000D02*
X147010000Y-80780000D01*
%TO.N,Net-(U2-4_b)*%
X151500000Y-62000000D02*
X139500000Y-62000000D01*
X137940000Y-49940000D02*
X136510000Y-49940000D01*
X139500000Y-62000000D02*
X139000000Y-61500000D01*
X152500000Y-63000000D02*
X151500000Y-62000000D01*
X152930000Y-77400000D02*
X149550000Y-80780000D01*
X155500000Y-77400000D02*
X155500000Y-75500000D01*
X155500000Y-77400000D02*
X152930000Y-77400000D01*
X139000000Y-51000000D02*
X137940000Y-49940000D01*
X139000000Y-61500000D02*
X139000000Y-51000000D01*
X152500000Y-72500000D02*
X152500000Y-63000000D01*
X155500000Y-75500000D02*
X152500000Y-72500000D01*
%TO.N,Net-(U2-2_b)*%
X143500000Y-77400000D02*
X140400000Y-77400000D01*
X140400000Y-77400000D02*
X134000000Y-71000000D01*
X134000000Y-71000000D02*
X134000000Y-60070000D01*
X143500000Y-79810000D02*
X144470000Y-80780000D01*
X134000000Y-60070000D02*
X136510000Y-57560000D01*
X143500000Y-77400000D02*
X143500000Y-79810000D01*
%TD*%
%TA.AperFunction,Conductor*%
%TO.N,Net-(U3-GND)*%
G36*
X138002207Y-39500657D02*
G01*
X138069755Y-39505489D01*
X138216644Y-39517049D01*
X138224947Y-39518274D01*
X138319760Y-39538899D01*
X138436225Y-39566860D01*
X138443401Y-39569051D01*
X138539737Y-39604983D01*
X138617922Y-39637368D01*
X138645856Y-39648939D01*
X138651847Y-39651805D01*
X138742937Y-39701543D01*
X138745580Y-39703073D01*
X138840903Y-39761488D01*
X138845643Y-39764705D01*
X138929440Y-39827435D01*
X138932520Y-39829898D01*
X139016937Y-39901997D01*
X139020513Y-39905303D01*
X139094695Y-39979485D01*
X139098001Y-39983061D01*
X139170094Y-40067471D01*
X139172576Y-40070574D01*
X139235289Y-40154349D01*
X139238521Y-40159111D01*
X139296910Y-40254393D01*
X139298463Y-40257076D01*
X139348193Y-40348151D01*
X139351059Y-40354141D01*
X139395016Y-40460260D01*
X139430942Y-40556582D01*
X139433140Y-40563781D01*
X139461098Y-40680231D01*
X139481723Y-40775044D01*
X139482950Y-40783367D01*
X139494517Y-40930331D01*
X139499342Y-40997789D01*
X139499500Y-41002213D01*
X139499500Y-50315547D01*
X139479815Y-50382586D01*
X139427011Y-50428341D01*
X139357853Y-50438285D01*
X139294297Y-50409260D01*
X139287819Y-50403228D01*
X138546818Y-49662227D01*
X138513333Y-49600904D01*
X138510499Y-49574546D01*
X138510499Y-49488877D01*
X138507600Y-49446113D01*
X138507600Y-49446112D01*
X138507599Y-49446108D01*
X138461641Y-49261307D01*
X138459046Y-49256075D01*
X138377032Y-49090707D01*
X138377030Y-49090704D01*
X138257722Y-48942278D01*
X138257721Y-48942277D01*
X138109295Y-48822969D01*
X138109292Y-48822967D01*
X138024849Y-48781088D01*
X137973536Y-48733667D01*
X137956006Y-48666032D01*
X137977826Y-48599657D01*
X138024849Y-48558912D01*
X138109292Y-48517032D01*
X138109292Y-48517031D01*
X138109296Y-48517030D01*
X138257722Y-48397722D01*
X138377030Y-48249296D01*
X138461641Y-48078693D01*
X138507600Y-47893889D01*
X138510500Y-47851123D01*
X138510499Y-46948878D01*
X138507600Y-46906111D01*
X138461641Y-46721307D01*
X138459046Y-46716075D01*
X138377032Y-46550707D01*
X138377030Y-46550704D01*
X138257722Y-46402278D01*
X138257721Y-46402277D01*
X138109295Y-46282969D01*
X138024287Y-46240809D01*
X137972974Y-46193388D01*
X137955446Y-46125753D01*
X137977266Y-46059377D01*
X138024288Y-46018632D01*
X138109027Y-45976605D01*
X138257366Y-45857367D01*
X138257367Y-45857366D01*
X138376607Y-45709025D01*
X138376609Y-45709022D01*
X138461168Y-45538523D01*
X138507102Y-45353824D01*
X138510000Y-45311099D01*
X138510000Y-44408901D01*
X138507102Y-44366175D01*
X138461168Y-44181476D01*
X138376609Y-44010977D01*
X138376607Y-44010974D01*
X138257367Y-43862633D01*
X138257366Y-43862632D01*
X138109025Y-43743392D01*
X138024287Y-43701366D01*
X137972975Y-43653945D01*
X137955446Y-43586310D01*
X137977265Y-43519934D01*
X138024285Y-43479191D01*
X138109296Y-43437030D01*
X138257722Y-43317722D01*
X138377030Y-43169296D01*
X138461641Y-42998693D01*
X138507600Y-42813889D01*
X138510500Y-42771123D01*
X138510499Y-41868878D01*
X138507600Y-41826111D01*
X138461641Y-41641307D01*
X138435772Y-41589146D01*
X138377032Y-41470707D01*
X138377030Y-41470704D01*
X138257722Y-41322278D01*
X138257721Y-41322277D01*
X138109295Y-41202969D01*
X138109292Y-41202967D01*
X137938697Y-41118360D01*
X137753891Y-41072400D01*
X137711124Y-41069500D01*
X137711123Y-41069500D01*
X135308878Y-41069501D01*
X135308877Y-41069501D01*
X135266113Y-41072399D01*
X135266112Y-41072399D01*
X135081303Y-41118360D01*
X134910707Y-41202967D01*
X134910704Y-41202969D01*
X134762278Y-41322277D01*
X134762277Y-41322278D01*
X134642969Y-41470704D01*
X134642967Y-41470707D01*
X134558360Y-41641302D01*
X134512400Y-41826108D01*
X134509500Y-41868876D01*
X134509501Y-42771122D01*
X134509501Y-42771123D01*
X134512399Y-42813886D01*
X134512399Y-42813887D01*
X134512400Y-42813891D01*
X134551727Y-42972027D01*
X134558360Y-42998696D01*
X134642967Y-43169292D01*
X134642969Y-43169295D01*
X134762277Y-43317721D01*
X134762278Y-43317722D01*
X134910704Y-43437030D01*
X134910707Y-43437032D01*
X134995711Y-43479190D01*
X135047024Y-43526611D01*
X135064553Y-43594246D01*
X135042734Y-43660621D01*
X134995712Y-43701366D01*
X134910974Y-43743392D01*
X134762633Y-43862632D01*
X134762632Y-43862633D01*
X134643392Y-44010974D01*
X134643390Y-44010977D01*
X134558831Y-44181476D01*
X134512897Y-44366175D01*
X134510000Y-44408901D01*
X134510000Y-45311099D01*
X134512897Y-45353824D01*
X134558831Y-45538523D01*
X134643390Y-45709022D01*
X134643392Y-45709025D01*
X134762632Y-45857366D01*
X134762633Y-45857367D01*
X134910974Y-45976607D01*
X134910977Y-45976609D01*
X134995711Y-46018633D01*
X135047024Y-46066054D01*
X135064554Y-46133689D01*
X135042734Y-46200064D01*
X134995712Y-46240809D01*
X134910704Y-46282969D01*
X134762278Y-46402277D01*
X134762277Y-46402278D01*
X134642969Y-46550704D01*
X134642967Y-46550707D01*
X134558360Y-46721302D01*
X134512400Y-46906108D01*
X134509500Y-46948876D01*
X134509501Y-47851122D01*
X134509501Y-47851123D01*
X134512399Y-47893886D01*
X134512399Y-47893887D01*
X134558360Y-48078696D01*
X134642967Y-48249292D01*
X134642969Y-48249295D01*
X134762277Y-48397721D01*
X134762278Y-48397722D01*
X134910704Y-48517030D01*
X134995151Y-48558912D01*
X135046463Y-48606333D01*
X135063992Y-48673968D01*
X135042173Y-48740343D01*
X134995151Y-48781088D01*
X134910704Y-48822969D01*
X134762278Y-48942277D01*
X134762277Y-48942278D01*
X134642969Y-49090704D01*
X134642967Y-49090707D01*
X134558360Y-49261302D01*
X134512400Y-49446108D01*
X134509500Y-49488876D01*
X134509501Y-50391122D01*
X134509501Y-50391123D01*
X134512399Y-50433886D01*
X134512399Y-50433887D01*
X134558360Y-50618696D01*
X134642967Y-50789292D01*
X134642969Y-50789295D01*
X134762277Y-50937721D01*
X134762278Y-50937722D01*
X134910704Y-51057030D01*
X134995151Y-51098912D01*
X135046463Y-51146333D01*
X135063992Y-51213968D01*
X135042173Y-51280343D01*
X134995151Y-51321088D01*
X134910704Y-51362969D01*
X134762278Y-51482277D01*
X134762277Y-51482278D01*
X134642969Y-51630704D01*
X134642967Y-51630707D01*
X134558360Y-51801302D01*
X134512400Y-51986108D01*
X134509500Y-52028876D01*
X134509501Y-52931122D01*
X134509501Y-52931123D01*
X134512399Y-52973886D01*
X134512399Y-52973887D01*
X134558360Y-53158696D01*
X134642967Y-53329292D01*
X134642969Y-53329295D01*
X134762277Y-53477721D01*
X134762278Y-53477722D01*
X134910704Y-53597030D01*
X134995151Y-53638912D01*
X135046463Y-53686333D01*
X135063992Y-53753968D01*
X135042173Y-53820343D01*
X134995151Y-53861088D01*
X134910704Y-53902969D01*
X134762278Y-54022277D01*
X134762277Y-54022278D01*
X134642969Y-54170704D01*
X134642967Y-54170707D01*
X134566152Y-54325594D01*
X134518731Y-54376907D01*
X134455064Y-54394500D01*
X133562743Y-54394500D01*
X133547122Y-54392775D01*
X133547096Y-54393061D01*
X133539334Y-54392327D01*
X133539333Y-54392327D01*
X133470186Y-54394500D01*
X133440649Y-54394500D01*
X133433766Y-54395369D01*
X133427949Y-54395826D01*
X133381373Y-54397290D01*
X133362129Y-54402881D01*
X133343079Y-54406825D01*
X133323211Y-54409334D01*
X133279884Y-54426488D01*
X133274358Y-54428379D01*
X133229614Y-54441379D01*
X133229610Y-54441381D01*
X133212366Y-54451579D01*
X133194905Y-54460133D01*
X133176274Y-54467510D01*
X133176262Y-54467517D01*
X133138570Y-54494902D01*
X133133687Y-54498109D01*
X133093580Y-54521829D01*
X133079414Y-54535995D01*
X133064624Y-54548627D01*
X133048414Y-54560404D01*
X133048411Y-54560407D01*
X133018710Y-54596309D01*
X133014777Y-54600631D01*
X131116208Y-56499199D01*
X131103951Y-56509020D01*
X131104134Y-56509241D01*
X131098123Y-56514213D01*
X131050772Y-56564636D01*
X131029889Y-56585519D01*
X131029877Y-56585532D01*
X131025621Y-56591017D01*
X131021837Y-56595447D01*
X130989937Y-56629418D01*
X130989936Y-56629420D01*
X130980284Y-56646976D01*
X130969610Y-56663226D01*
X130957329Y-56679061D01*
X130957324Y-56679068D01*
X130938815Y-56721838D01*
X130936245Y-56727084D01*
X130913803Y-56767906D01*
X130908822Y-56787307D01*
X130902521Y-56805710D01*
X130894562Y-56824102D01*
X130894561Y-56824105D01*
X130887271Y-56870127D01*
X130886087Y-56875846D01*
X130874501Y-56920972D01*
X130874500Y-56920982D01*
X130874500Y-56941016D01*
X130872973Y-56960415D01*
X130869840Y-56980194D01*
X130869840Y-56980195D01*
X130874225Y-57026583D01*
X130874500Y-57032421D01*
X130874500Y-73417255D01*
X130872775Y-73432872D01*
X130873061Y-73432899D01*
X130872326Y-73440665D01*
X130874500Y-73509814D01*
X130874500Y-73539343D01*
X130874501Y-73539360D01*
X130875368Y-73546231D01*
X130875826Y-73552050D01*
X130877290Y-73598624D01*
X130877291Y-73598627D01*
X130882880Y-73617867D01*
X130886824Y-73636911D01*
X130889336Y-73656791D01*
X130906490Y-73700119D01*
X130908382Y-73705647D01*
X130921381Y-73750388D01*
X130931580Y-73767634D01*
X130940138Y-73785103D01*
X130947514Y-73803732D01*
X130974898Y-73841423D01*
X130978106Y-73846307D01*
X131001827Y-73886416D01*
X131001833Y-73886424D01*
X131015990Y-73900580D01*
X131028628Y-73915376D01*
X131040405Y-73931586D01*
X131040406Y-73931587D01*
X131076309Y-73961288D01*
X131080620Y-73965210D01*
X133946988Y-76831579D01*
X134899197Y-77783788D01*
X134909022Y-77796051D01*
X134909243Y-77795869D01*
X134914214Y-77801878D01*
X134940217Y-77826295D01*
X134964635Y-77849226D01*
X134985529Y-77870120D01*
X134991011Y-77874373D01*
X134995443Y-77878157D01*
X135029418Y-77910062D01*
X135046976Y-77919714D01*
X135063233Y-77930393D01*
X135079064Y-77942673D01*
X135098737Y-77951186D01*
X135121833Y-77961182D01*
X135127073Y-77963748D01*
X135167908Y-77986197D01*
X135180523Y-77989435D01*
X135187305Y-77991177D01*
X135205719Y-77997481D01*
X135224104Y-78005438D01*
X135270157Y-78012732D01*
X135275826Y-78013906D01*
X135320981Y-78025500D01*
X135341016Y-78025500D01*
X135360413Y-78027026D01*
X135380196Y-78030160D01*
X135426584Y-78025775D01*
X135432422Y-78025500D01*
X136332200Y-78025500D01*
X136399239Y-78045185D01*
X136433775Y-78078376D01*
X136529174Y-78214620D01*
X136529175Y-78214621D01*
X136685378Y-78370824D01*
X136685384Y-78370829D01*
X136866333Y-78497531D01*
X136866335Y-78497532D01*
X136866338Y-78497534D01*
X137066550Y-78590894D01*
X137279932Y-78648070D01*
X137437123Y-78661822D01*
X137499998Y-78667323D01*
X137500000Y-78667323D01*
X137500002Y-78667323D01*
X137555017Y-78662509D01*
X137720068Y-78648070D01*
X137764022Y-78636292D01*
X137833870Y-78637955D01*
X137883795Y-78668385D01*
X139152642Y-79937233D01*
X140379197Y-81163788D01*
X140389022Y-81176051D01*
X140389243Y-81175869D01*
X140394214Y-81181878D01*
X140420217Y-81206295D01*
X140444635Y-81229226D01*
X140465529Y-81250120D01*
X140471011Y-81254373D01*
X140475443Y-81258157D01*
X140509418Y-81290062D01*
X140526976Y-81299714D01*
X140543233Y-81310393D01*
X140559064Y-81322673D01*
X140578737Y-81331186D01*
X140601833Y-81341182D01*
X140607077Y-81343750D01*
X140647908Y-81366197D01*
X140660523Y-81369435D01*
X140667305Y-81371177D01*
X140685719Y-81377481D01*
X140704104Y-81385438D01*
X140750157Y-81392731D01*
X140755831Y-81393907D01*
X140787974Y-81402160D01*
X140848009Y-81437898D01*
X140858708Y-81451140D01*
X140959170Y-81594615D01*
X140959175Y-81594621D01*
X141115378Y-81750824D01*
X141115384Y-81750829D01*
X141231915Y-81832425D01*
X141275540Y-81887002D01*
X141282734Y-81956500D01*
X141251211Y-82018855D01*
X141190981Y-82054269D01*
X141160792Y-82058000D01*
X141120155Y-82058000D01*
X141060627Y-82064401D01*
X141060620Y-82064403D01*
X140925913Y-82114645D01*
X140925906Y-82114649D01*
X140810812Y-82200809D01*
X140810809Y-82200812D01*
X140724649Y-82315906D01*
X140724645Y-82315913D01*
X140674403Y-82450620D01*
X140674401Y-82450627D01*
X140668000Y-82510155D01*
X140668000Y-83070000D01*
X141435148Y-83070000D01*
X141386441Y-83207047D01*
X141376123Y-83357886D01*
X141406884Y-83505915D01*
X141440090Y-83570000D01*
X140668000Y-83570000D01*
X140668000Y-84129844D01*
X140674401Y-84189372D01*
X140674403Y-84189379D01*
X140724645Y-84324086D01*
X140724649Y-84324093D01*
X140810809Y-84439187D01*
X140810812Y-84439190D01*
X140925906Y-84525350D01*
X140925913Y-84525354D01*
X141060620Y-84575596D01*
X141060627Y-84575598D01*
X141120155Y-84581999D01*
X141120172Y-84582000D01*
X141680000Y-84582000D01*
X141680000Y-83811683D01*
X141708819Y-83829209D01*
X141854404Y-83870000D01*
X141967622Y-83870000D01*
X142079783Y-83854584D01*
X142180000Y-83811053D01*
X142180000Y-84582000D01*
X142739828Y-84582000D01*
X142739844Y-84581999D01*
X142799372Y-84575598D01*
X142799379Y-84575596D01*
X142934086Y-84525354D01*
X142934093Y-84525350D01*
X143049186Y-84439191D01*
X143100733Y-84370334D01*
X143156667Y-84328463D01*
X143226359Y-84323479D01*
X143287682Y-84356964D01*
X143299267Y-84370334D01*
X143350813Y-84439191D01*
X143465906Y-84525350D01*
X143465913Y-84525354D01*
X143600620Y-84575596D01*
X143600627Y-84575598D01*
X143660155Y-84581999D01*
X143660172Y-84582000D01*
X144220000Y-84582000D01*
X144220000Y-83811683D01*
X144248819Y-83829209D01*
X144394404Y-83870000D01*
X144507622Y-83870000D01*
X144619783Y-83854584D01*
X144720000Y-83811053D01*
X144720000Y-84582000D01*
X145279828Y-84582000D01*
X145279844Y-84581999D01*
X145339372Y-84575598D01*
X145339379Y-84575596D01*
X145474086Y-84525354D01*
X145474093Y-84525350D01*
X145589186Y-84439191D01*
X145640733Y-84370334D01*
X145696667Y-84328463D01*
X145766359Y-84323479D01*
X145827682Y-84356964D01*
X145839267Y-84370334D01*
X145890813Y-84439191D01*
X146005906Y-84525350D01*
X146005913Y-84525354D01*
X146140620Y-84575596D01*
X146140627Y-84575598D01*
X146200155Y-84581999D01*
X146200172Y-84582000D01*
X146760000Y-84582000D01*
X146760000Y-83811683D01*
X146788819Y-83829209D01*
X146934404Y-83870000D01*
X147047622Y-83870000D01*
X147159783Y-83854584D01*
X147260000Y-83811053D01*
X147260000Y-84582000D01*
X147819828Y-84582000D01*
X147819844Y-84581999D01*
X147879372Y-84575598D01*
X147879379Y-84575596D01*
X148014086Y-84525354D01*
X148014093Y-84525350D01*
X148129186Y-84439191D01*
X148180733Y-84370334D01*
X148236667Y-84328463D01*
X148306359Y-84323479D01*
X148367682Y-84356964D01*
X148379267Y-84370334D01*
X148430813Y-84439191D01*
X148545906Y-84525350D01*
X148545913Y-84525354D01*
X148680620Y-84575596D01*
X148680627Y-84575598D01*
X148740155Y-84581999D01*
X148740172Y-84582000D01*
X149300000Y-84582000D01*
X149300000Y-83811683D01*
X149328819Y-83829209D01*
X149474404Y-83870000D01*
X149587622Y-83870000D01*
X149699783Y-83854584D01*
X149800000Y-83811053D01*
X149800000Y-84582000D01*
X150359828Y-84582000D01*
X150359844Y-84581999D01*
X150419372Y-84575598D01*
X150419379Y-84575596D01*
X150554086Y-84525354D01*
X150554093Y-84525350D01*
X150669187Y-84439190D01*
X150669190Y-84439187D01*
X150755350Y-84324093D01*
X150755354Y-84324086D01*
X150805596Y-84189379D01*
X150805598Y-84189372D01*
X150811999Y-84129844D01*
X150812000Y-84129827D01*
X150812000Y-83570000D01*
X150044852Y-83570000D01*
X150093559Y-83432953D01*
X150103877Y-83282114D01*
X150073116Y-83134085D01*
X150039910Y-83070000D01*
X150812000Y-83070000D01*
X150812000Y-82510172D01*
X150811999Y-82510155D01*
X150805598Y-82450627D01*
X150805596Y-82450620D01*
X150755354Y-82315913D01*
X150755350Y-82315906D01*
X150669190Y-82200812D01*
X150669187Y-82200809D01*
X150554093Y-82114649D01*
X150554086Y-82114645D01*
X150419379Y-82064403D01*
X150419372Y-82064401D01*
X150359844Y-82058000D01*
X150319208Y-82058000D01*
X150252169Y-82038315D01*
X150218971Y-82000003D01*
X157994415Y-82000003D01*
X158014738Y-82348927D01*
X158014739Y-82348938D01*
X158075428Y-82693127D01*
X158075430Y-82693134D01*
X158175674Y-83027972D01*
X158314107Y-83348895D01*
X158314113Y-83348908D01*
X158488870Y-83651597D01*
X158697584Y-83931949D01*
X158697589Y-83931955D01*
X158821463Y-84063253D01*
X158937442Y-84186183D01*
X159101065Y-84323479D01*
X159205186Y-84410847D01*
X159205194Y-84410853D01*
X159497203Y-84602911D01*
X159497207Y-84602913D01*
X159809549Y-84759777D01*
X160137989Y-84879319D01*
X160478086Y-84959923D01*
X160825241Y-85000500D01*
X160825248Y-85000500D01*
X161174752Y-85000500D01*
X161174759Y-85000500D01*
X161521914Y-84959923D01*
X161862011Y-84879319D01*
X162190451Y-84759777D01*
X162502793Y-84602913D01*
X162794811Y-84410849D01*
X163062558Y-84186183D01*
X163302412Y-83931953D01*
X163511130Y-83651596D01*
X163685889Y-83348904D01*
X163824326Y-83027971D01*
X163924569Y-82693136D01*
X163985262Y-82348927D01*
X164005585Y-82000000D01*
X163985262Y-81651073D01*
X163943401Y-81413666D01*
X163924571Y-81306872D01*
X163924569Y-81306865D01*
X163924569Y-81306864D01*
X163824326Y-80972029D01*
X163685889Y-80651096D01*
X163511130Y-80348404D01*
X163494871Y-80326564D01*
X163302415Y-80068050D01*
X163302410Y-80068044D01*
X163127168Y-79882300D01*
X163062558Y-79813817D01*
X162906020Y-79682466D01*
X162794813Y-79589152D01*
X162794805Y-79589146D01*
X162502796Y-79397088D01*
X162190458Y-79240226D01*
X162190452Y-79240223D01*
X161862012Y-79120681D01*
X161862009Y-79120680D01*
X161521915Y-79040077D01*
X161478519Y-79035004D01*
X161174759Y-78999500D01*
X160825241Y-78999500D01*
X160521480Y-79035004D01*
X160478085Y-79040077D01*
X160478083Y-79040077D01*
X160137990Y-79120680D01*
X160137987Y-79120681D01*
X159809547Y-79240223D01*
X159809541Y-79240226D01*
X159497203Y-79397088D01*
X159205194Y-79589146D01*
X159205186Y-79589152D01*
X158937442Y-79813817D01*
X158937440Y-79813819D01*
X158697589Y-80068044D01*
X158697584Y-80068050D01*
X158488870Y-80348402D01*
X158314113Y-80651091D01*
X158314107Y-80651104D01*
X158175674Y-80972027D01*
X158075430Y-81306865D01*
X158075428Y-81306872D01*
X158014739Y-81651061D01*
X158014738Y-81651072D01*
X157994415Y-81999996D01*
X157994415Y-82000003D01*
X150218971Y-82000003D01*
X150206414Y-81985511D01*
X150196470Y-81916353D01*
X150225495Y-81852797D01*
X150248085Y-81832425D01*
X150300864Y-81795468D01*
X150364620Y-81750826D01*
X150520826Y-81594620D01*
X150647534Y-81413662D01*
X150740894Y-81213450D01*
X150798070Y-81000068D01*
X150817323Y-80780000D01*
X150798070Y-80559932D01*
X150786292Y-80515976D01*
X150787955Y-80446126D01*
X150818384Y-80396204D01*
X153152772Y-78061819D01*
X153214095Y-78028334D01*
X153240453Y-78025500D01*
X154332200Y-78025500D01*
X154399239Y-78045185D01*
X154433775Y-78078376D01*
X154529174Y-78214620D01*
X154529175Y-78214621D01*
X154685378Y-78370824D01*
X154685384Y-78370829D01*
X154866333Y-78497531D01*
X154866335Y-78497532D01*
X154866338Y-78497534D01*
X155066550Y-78590894D01*
X155279932Y-78648070D01*
X155437123Y-78661822D01*
X155499998Y-78667323D01*
X155500000Y-78667323D01*
X155500002Y-78667323D01*
X155555017Y-78662509D01*
X155720068Y-78648070D01*
X155933450Y-78590894D01*
X156133662Y-78497534D01*
X156314620Y-78370826D01*
X156470826Y-78214620D01*
X156597534Y-78033662D01*
X156690894Y-77833450D01*
X156748070Y-77620068D01*
X156767323Y-77400000D01*
X156748070Y-77179932D01*
X156690894Y-76966550D01*
X156597534Y-76766339D01*
X156470826Y-76585380D01*
X156314620Y-76429174D01*
X156178376Y-76333775D01*
X156134752Y-76279198D01*
X156125500Y-76232200D01*
X156125500Y-75582742D01*
X156127224Y-75567122D01*
X156126939Y-75567095D01*
X156127673Y-75559333D01*
X156125500Y-75490172D01*
X156125500Y-75460656D01*
X156125500Y-75460650D01*
X156124631Y-75453779D01*
X156124173Y-75447952D01*
X156122710Y-75401373D01*
X156117119Y-75382130D01*
X156113173Y-75363078D01*
X156110664Y-75343208D01*
X156093504Y-75299867D01*
X156091624Y-75294379D01*
X156078618Y-75249610D01*
X156068422Y-75232370D01*
X156059861Y-75214894D01*
X156052487Y-75196270D01*
X156052486Y-75196268D01*
X156025079Y-75158545D01*
X156021888Y-75153686D01*
X155998172Y-75113583D01*
X155998165Y-75113574D01*
X155984006Y-75099415D01*
X155971368Y-75084619D01*
X155959594Y-75068413D01*
X155923688Y-75038709D01*
X155919376Y-75034786D01*
X153161819Y-72277228D01*
X153128334Y-72215905D01*
X153125500Y-72189547D01*
X153125500Y-68650000D01*
X154233179Y-68650000D01*
X154252424Y-68869976D01*
X154252426Y-68869986D01*
X154309575Y-69083270D01*
X154309580Y-69083284D01*
X154402899Y-69283407D01*
X154402900Y-69283409D01*
X154448258Y-69348187D01*
X155115096Y-68681349D01*
X155115051Y-68681898D01*
X155146266Y-68805162D01*
X155215813Y-68911612D01*
X155316157Y-68989713D01*
X155436422Y-69031000D01*
X155472553Y-69031000D01*
X154801811Y-69701741D01*
X154866582Y-69747094D01*
X154866592Y-69747100D01*
X155066715Y-69840419D01*
X155066729Y-69840424D01*
X155280013Y-69897573D01*
X155280023Y-69897575D01*
X155499999Y-69916821D01*
X155500001Y-69916821D01*
X155719976Y-69897575D01*
X155719986Y-69897573D01*
X155933270Y-69840424D01*
X155933284Y-69840419D01*
X156133408Y-69747100D01*
X156133420Y-69747093D01*
X156198186Y-69701742D01*
X156198187Y-69701740D01*
X155527448Y-69031000D01*
X155531569Y-69031000D01*
X155625421Y-69015339D01*
X155737251Y-68954820D01*
X155823371Y-68861269D01*
X155874448Y-68744823D01*
X155880105Y-68676552D01*
X156551740Y-69348187D01*
X156551742Y-69348186D01*
X156597093Y-69283420D01*
X156597100Y-69283408D01*
X156690419Y-69083284D01*
X156690424Y-69083270D01*
X156747573Y-68869986D01*
X156747575Y-68869976D01*
X156766821Y-68650000D01*
X156766821Y-68649999D01*
X156747575Y-68430023D01*
X156747573Y-68430013D01*
X156690424Y-68216729D01*
X156690420Y-68216720D01*
X156597098Y-68016590D01*
X156551740Y-67951811D01*
X155884903Y-68618648D01*
X155884949Y-68618102D01*
X155853734Y-68494838D01*
X155784187Y-68388388D01*
X155683843Y-68310287D01*
X155563578Y-68269000D01*
X155527447Y-68269000D01*
X156198187Y-67598258D01*
X156133409Y-67552900D01*
X156133407Y-67552899D01*
X155933284Y-67459580D01*
X155933270Y-67459575D01*
X155719986Y-67402426D01*
X155719976Y-67402424D01*
X155500001Y-67383179D01*
X155499999Y-67383179D01*
X155280023Y-67402424D01*
X155280013Y-67402426D01*
X155066729Y-67459575D01*
X155066720Y-67459579D01*
X154866586Y-67552903D01*
X154801812Y-67598257D01*
X154801811Y-67598258D01*
X155472554Y-68269000D01*
X155468431Y-68269000D01*
X155374579Y-68284661D01*
X155262749Y-68345180D01*
X155176629Y-68438731D01*
X155125552Y-68555177D01*
X155119894Y-68623447D01*
X154448258Y-67951811D01*
X154448257Y-67951812D01*
X154402903Y-68016586D01*
X154309579Y-68216720D01*
X154309575Y-68216729D01*
X154252426Y-68430013D01*
X154252424Y-68430023D01*
X154233179Y-68649999D01*
X154233179Y-68650000D01*
X153125500Y-68650000D01*
X153125500Y-63082742D01*
X153127224Y-63067122D01*
X153126939Y-63067095D01*
X153127673Y-63059333D01*
X153125500Y-62990172D01*
X153125500Y-62960656D01*
X153125500Y-62960650D01*
X153124631Y-62953779D01*
X153124173Y-62947952D01*
X153122710Y-62901373D01*
X153117119Y-62882130D01*
X153113173Y-62863078D01*
X153110664Y-62843208D01*
X153093504Y-62799867D01*
X153091624Y-62794379D01*
X153078618Y-62749610D01*
X153068422Y-62732370D01*
X153059861Y-62714894D01*
X153052487Y-62696270D01*
X153052486Y-62696268D01*
X153025079Y-62658545D01*
X153021888Y-62653686D01*
X152998172Y-62613583D01*
X152998165Y-62613574D01*
X152984006Y-62599415D01*
X152971368Y-62584619D01*
X152959594Y-62568413D01*
X152928479Y-62542673D01*
X152923688Y-62538709D01*
X152919376Y-62534786D01*
X152573466Y-62188876D01*
X153509500Y-62188876D01*
X153509501Y-63091122D01*
X153509501Y-63091123D01*
X153512399Y-63133886D01*
X153512399Y-63133887D01*
X153558360Y-63318696D01*
X153642967Y-63489292D01*
X153642969Y-63489295D01*
X153762277Y-63637721D01*
X153762278Y-63637722D01*
X153910704Y-63757030D01*
X153910707Y-63757032D01*
X154081302Y-63841639D01*
X154081303Y-63841639D01*
X154081307Y-63841641D01*
X154266111Y-63887600D01*
X154305520Y-63890272D01*
X154308876Y-63890500D01*
X154308876Y-63890499D01*
X154308877Y-63890500D01*
X156711122Y-63890499D01*
X156711123Y-63890499D01*
X156721813Y-63889774D01*
X156753889Y-63887600D01*
X156938693Y-63841641D01*
X157109296Y-63757030D01*
X157257722Y-63637722D01*
X157377030Y-63489296D01*
X157461641Y-63318693D01*
X157507600Y-63133889D01*
X157510500Y-63091123D01*
X157510499Y-62188878D01*
X157507600Y-62146111D01*
X157461641Y-61961307D01*
X157394500Y-61825929D01*
X157377032Y-61790707D01*
X157377030Y-61790704D01*
X157257722Y-61642278D01*
X157257721Y-61642277D01*
X157109295Y-61522969D01*
X157109292Y-61522967D01*
X157024849Y-61481088D01*
X156973536Y-61433667D01*
X156956006Y-61366032D01*
X156977826Y-61299657D01*
X157024849Y-61258912D01*
X157109292Y-61217032D01*
X157109292Y-61217031D01*
X157109296Y-61217030D01*
X157257722Y-61097722D01*
X157377030Y-60949296D01*
X157461641Y-60778693D01*
X157507600Y-60593889D01*
X157510500Y-60551123D01*
X157510499Y-59648878D01*
X157507600Y-59606111D01*
X157461641Y-59421307D01*
X157459046Y-59416075D01*
X157377032Y-59250707D01*
X157377030Y-59250704D01*
X157257722Y-59102278D01*
X157257721Y-59102277D01*
X157109295Y-58982969D01*
X157109292Y-58982967D01*
X157024849Y-58941088D01*
X156973536Y-58893667D01*
X156956006Y-58826032D01*
X156977826Y-58759657D01*
X157024849Y-58718912D01*
X157109292Y-58677032D01*
X157109292Y-58677031D01*
X157109296Y-58677030D01*
X157257722Y-58557722D01*
X157377030Y-58409296D01*
X157461641Y-58238693D01*
X157507600Y-58053889D01*
X157510500Y-58011123D01*
X157510499Y-57108878D01*
X157507600Y-57066111D01*
X157461641Y-56881307D01*
X157433270Y-56824102D01*
X157377032Y-56710707D01*
X157377030Y-56710704D01*
X157257722Y-56562278D01*
X157257721Y-56562277D01*
X157109295Y-56442969D01*
X157109292Y-56442967D01*
X157024849Y-56401088D01*
X156973536Y-56353667D01*
X156956006Y-56286032D01*
X156977826Y-56219657D01*
X157024849Y-56178912D01*
X157109292Y-56137032D01*
X157109292Y-56137031D01*
X157109296Y-56137030D01*
X157257722Y-56017722D01*
X157377030Y-55869296D01*
X157461641Y-55698693D01*
X157507600Y-55513889D01*
X157510500Y-55471123D01*
X157510499Y-54568878D01*
X157507600Y-54526111D01*
X157461641Y-54341307D01*
X157453848Y-54325594D01*
X157377032Y-54170707D01*
X157377030Y-54170704D01*
X157257722Y-54022278D01*
X157257721Y-54022277D01*
X157109295Y-53902969D01*
X157109292Y-53902967D01*
X157024849Y-53861088D01*
X156973536Y-53813667D01*
X156956006Y-53746032D01*
X156977826Y-53679657D01*
X157024849Y-53638912D01*
X157109292Y-53597032D01*
X157109292Y-53597031D01*
X157109296Y-53597030D01*
X157257722Y-53477722D01*
X157377030Y-53329296D01*
X157461641Y-53158693D01*
X157507600Y-52973889D01*
X157510500Y-52931123D01*
X157510499Y-52028878D01*
X157507600Y-51986111D01*
X157461641Y-51801307D01*
X157459046Y-51796075D01*
X157377032Y-51630707D01*
X157377030Y-51630704D01*
X157257722Y-51482278D01*
X157257721Y-51482277D01*
X157109295Y-51362969D01*
X157109292Y-51362967D01*
X157024849Y-51321088D01*
X156973536Y-51273667D01*
X156956006Y-51206032D01*
X156977826Y-51139657D01*
X157024849Y-51098912D01*
X157109292Y-51057032D01*
X157109292Y-51057031D01*
X157109296Y-51057030D01*
X157257722Y-50937722D01*
X157377030Y-50789296D01*
X157461641Y-50618693D01*
X157507600Y-50433889D01*
X157510500Y-50391123D01*
X157510499Y-49488878D01*
X157507600Y-49446111D01*
X157461641Y-49261307D01*
X157459046Y-49256075D01*
X157377032Y-49090707D01*
X157377030Y-49090704D01*
X157257722Y-48942278D01*
X157257721Y-48942277D01*
X157109295Y-48822969D01*
X157109292Y-48822967D01*
X157024849Y-48781088D01*
X156973536Y-48733667D01*
X156956006Y-48666032D01*
X156977826Y-48599657D01*
X157024849Y-48558912D01*
X157109292Y-48517032D01*
X157109292Y-48517031D01*
X157109296Y-48517030D01*
X157257722Y-48397722D01*
X157377030Y-48249296D01*
X157461641Y-48078693D01*
X157507600Y-47893889D01*
X157510500Y-47851123D01*
X157510499Y-46948878D01*
X157507600Y-46906111D01*
X157461641Y-46721307D01*
X157459046Y-46716075D01*
X157377032Y-46550707D01*
X157377030Y-46550704D01*
X157257722Y-46402278D01*
X157257721Y-46402277D01*
X157109295Y-46282969D01*
X157109292Y-46282967D01*
X157024849Y-46241088D01*
X156973536Y-46193667D01*
X156956006Y-46126032D01*
X156977826Y-46059657D01*
X157024849Y-46018912D01*
X157109292Y-45977032D01*
X157109292Y-45977031D01*
X157109296Y-45977030D01*
X157257722Y-45857722D01*
X157377030Y-45709296D01*
X157461641Y-45538693D01*
X157507600Y-45353889D01*
X157510500Y-45311123D01*
X157510499Y-44408878D01*
X157507600Y-44366111D01*
X157461641Y-44181307D01*
X157459046Y-44176075D01*
X157377032Y-44010707D01*
X157377030Y-44010704D01*
X157368428Y-44000003D01*
X157994415Y-44000003D01*
X158014738Y-44348927D01*
X158014739Y-44348938D01*
X158075428Y-44693127D01*
X158075430Y-44693134D01*
X158175674Y-45027972D01*
X158314107Y-45348895D01*
X158314113Y-45348908D01*
X158488870Y-45651597D01*
X158697584Y-45931949D01*
X158697589Y-45931955D01*
X158821463Y-46063253D01*
X158937442Y-46186183D01*
X159113903Y-46334251D01*
X159205186Y-46410847D01*
X159205194Y-46410853D01*
X159497203Y-46602911D01*
X159497207Y-46602913D01*
X159809549Y-46759777D01*
X160137989Y-46879319D01*
X160478086Y-46959923D01*
X160825241Y-47000500D01*
X160825248Y-47000500D01*
X161174752Y-47000500D01*
X161174759Y-47000500D01*
X161521914Y-46959923D01*
X161862011Y-46879319D01*
X162190451Y-46759777D01*
X162502793Y-46602913D01*
X162794811Y-46410849D01*
X163062558Y-46186183D01*
X163302412Y-45931953D01*
X163511130Y-45651596D01*
X163685889Y-45348904D01*
X163824326Y-45027971D01*
X163924569Y-44693136D01*
X163985262Y-44348927D01*
X164004946Y-44010974D01*
X164005585Y-44000003D01*
X164005585Y-43999996D01*
X163997563Y-43862277D01*
X163985262Y-43651073D01*
X163954955Y-43479190D01*
X163924571Y-43306872D01*
X163924569Y-43306865D01*
X163883384Y-43169296D01*
X163824326Y-42972029D01*
X163685889Y-42651096D01*
X163511130Y-42348404D01*
X163511129Y-42348402D01*
X163302415Y-42068050D01*
X163302410Y-42068044D01*
X163114505Y-41868878D01*
X163062558Y-41813817D01*
X162914488Y-41689572D01*
X162794813Y-41589152D01*
X162794805Y-41589146D01*
X162502796Y-41397088D01*
X162190458Y-41240226D01*
X162190452Y-41240223D01*
X161862012Y-41120681D01*
X161862009Y-41120680D01*
X161521915Y-41040077D01*
X161478519Y-41035004D01*
X161174759Y-40999500D01*
X160825241Y-40999500D01*
X160521480Y-41035004D01*
X160478085Y-41040077D01*
X160478083Y-41040077D01*
X160137990Y-41120680D01*
X160137987Y-41120681D01*
X159809547Y-41240223D01*
X159809541Y-41240226D01*
X159497203Y-41397088D01*
X159205194Y-41589146D01*
X159205186Y-41589152D01*
X158937442Y-41813817D01*
X158937440Y-41813819D01*
X158697589Y-42068044D01*
X158697584Y-42068050D01*
X158488870Y-42348402D01*
X158314113Y-42651091D01*
X158314107Y-42651104D01*
X158175674Y-42972027D01*
X158075430Y-43306865D01*
X158075428Y-43306872D01*
X158014739Y-43651061D01*
X158014738Y-43651072D01*
X157994415Y-43999996D01*
X157994415Y-44000003D01*
X157368428Y-44000003D01*
X157257722Y-43862278D01*
X157257721Y-43862277D01*
X157109295Y-43742969D01*
X157109292Y-43742967D01*
X157024849Y-43701088D01*
X156973536Y-43653667D01*
X156956006Y-43586032D01*
X156977826Y-43519657D01*
X157024849Y-43478912D01*
X157109292Y-43437032D01*
X157109292Y-43437031D01*
X157109296Y-43437030D01*
X157257722Y-43317722D01*
X157377030Y-43169296D01*
X157461641Y-42998693D01*
X157507600Y-42813889D01*
X157510500Y-42771123D01*
X157510499Y-41868878D01*
X157507600Y-41826111D01*
X157461641Y-41641307D01*
X157435772Y-41589146D01*
X157377032Y-41470707D01*
X157377030Y-41470704D01*
X157257722Y-41322278D01*
X157257721Y-41322277D01*
X157109295Y-41202969D01*
X157109292Y-41202967D01*
X156938697Y-41118360D01*
X156753891Y-41072400D01*
X156711124Y-41069500D01*
X156711123Y-41069500D01*
X154308878Y-41069501D01*
X154308877Y-41069501D01*
X154266113Y-41072399D01*
X154266112Y-41072399D01*
X154081303Y-41118360D01*
X153910707Y-41202967D01*
X153910704Y-41202969D01*
X153762278Y-41322277D01*
X153762277Y-41322278D01*
X153642969Y-41470704D01*
X153642967Y-41470707D01*
X153558360Y-41641302D01*
X153512400Y-41826108D01*
X153509500Y-41868876D01*
X153509501Y-42771122D01*
X153509501Y-42771123D01*
X153512399Y-42813886D01*
X153512399Y-42813887D01*
X153512400Y-42813891D01*
X153551727Y-42972027D01*
X153558360Y-42998696D01*
X153642967Y-43169292D01*
X153642969Y-43169295D01*
X153762277Y-43317721D01*
X153762278Y-43317722D01*
X153910704Y-43437030D01*
X153995151Y-43478912D01*
X154046463Y-43526333D01*
X154063992Y-43593968D01*
X154042173Y-43660343D01*
X153995151Y-43701088D01*
X153910704Y-43742969D01*
X153762278Y-43862277D01*
X153762277Y-43862278D01*
X153642969Y-44010704D01*
X153642967Y-44010707D01*
X153558360Y-44181302D01*
X153512400Y-44366108D01*
X153509500Y-44408876D01*
X153509501Y-45311122D01*
X153509501Y-45311123D01*
X153512399Y-45353886D01*
X153512399Y-45353887D01*
X153558360Y-45538696D01*
X153642967Y-45709292D01*
X153642969Y-45709295D01*
X153762277Y-45857721D01*
X153762278Y-45857722D01*
X153910704Y-45977030D01*
X153995151Y-46018912D01*
X154046463Y-46066333D01*
X154063992Y-46133968D01*
X154042173Y-46200343D01*
X153995151Y-46241088D01*
X153910704Y-46282969D01*
X153762278Y-46402277D01*
X153762277Y-46402278D01*
X153642969Y-46550704D01*
X153642967Y-46550707D01*
X153558360Y-46721302D01*
X153512400Y-46906108D01*
X153509500Y-46948876D01*
X153509501Y-47851122D01*
X153509501Y-47851123D01*
X153512399Y-47893886D01*
X153512399Y-47893887D01*
X153558360Y-48078696D01*
X153642967Y-48249292D01*
X153642969Y-48249295D01*
X153762277Y-48397721D01*
X153762278Y-48397722D01*
X153910704Y-48517030D01*
X153995151Y-48558912D01*
X154046463Y-48606333D01*
X154063992Y-48673968D01*
X154042173Y-48740343D01*
X153995151Y-48781088D01*
X153910704Y-48822969D01*
X153762278Y-48942277D01*
X153762277Y-48942278D01*
X153642969Y-49090704D01*
X153642967Y-49090707D01*
X153558360Y-49261302D01*
X153512400Y-49446108D01*
X153509500Y-49488876D01*
X153509501Y-50391122D01*
X153509501Y-50391123D01*
X153512399Y-50433886D01*
X153512399Y-50433887D01*
X153558360Y-50618696D01*
X153642967Y-50789292D01*
X153642969Y-50789295D01*
X153762277Y-50937721D01*
X153762278Y-50937722D01*
X153910704Y-51057030D01*
X153995151Y-51098912D01*
X154046463Y-51146333D01*
X154063992Y-51213968D01*
X154042173Y-51280343D01*
X153995151Y-51321088D01*
X153910704Y-51362969D01*
X153762278Y-51482277D01*
X153762277Y-51482278D01*
X153642969Y-51630704D01*
X153642967Y-51630707D01*
X153558360Y-51801302D01*
X153512400Y-51986108D01*
X153509500Y-52028876D01*
X153509501Y-52931122D01*
X153509501Y-52931123D01*
X153512399Y-52973886D01*
X153512399Y-52973887D01*
X153558360Y-53158696D01*
X153642967Y-53329292D01*
X153642969Y-53329295D01*
X153762277Y-53477721D01*
X153762278Y-53477722D01*
X153910704Y-53597030D01*
X153995151Y-53638912D01*
X154046463Y-53686333D01*
X154063992Y-53753968D01*
X154042173Y-53820343D01*
X153995151Y-53861088D01*
X153910704Y-53902969D01*
X153762278Y-54022277D01*
X153762277Y-54022278D01*
X153642969Y-54170704D01*
X153642967Y-54170707D01*
X153558360Y-54341302D01*
X153512400Y-54526108D01*
X153509500Y-54568876D01*
X153509501Y-55471122D01*
X153509501Y-55471123D01*
X153512399Y-55513886D01*
X153512399Y-55513887D01*
X153558360Y-55698696D01*
X153642967Y-55869292D01*
X153642969Y-55869295D01*
X153762277Y-56017721D01*
X153762278Y-56017722D01*
X153910704Y-56137030D01*
X153995151Y-56178912D01*
X154046463Y-56226333D01*
X154063992Y-56293968D01*
X154042173Y-56360343D01*
X153995151Y-56401088D01*
X153910704Y-56442969D01*
X153762278Y-56562277D01*
X153762277Y-56562278D01*
X153642969Y-56710704D01*
X153642967Y-56710707D01*
X153558360Y-56881302D01*
X153512400Y-57066108D01*
X153509500Y-57108876D01*
X153509501Y-58011122D01*
X153509501Y-58011123D01*
X153512399Y-58053886D01*
X153512399Y-58053887D01*
X153558360Y-58238696D01*
X153642967Y-58409292D01*
X153642969Y-58409295D01*
X153762277Y-58557721D01*
X153762278Y-58557722D01*
X153910704Y-58677030D01*
X153995151Y-58718912D01*
X154046463Y-58766333D01*
X154063992Y-58833968D01*
X154042173Y-58900343D01*
X153995151Y-58941088D01*
X153910704Y-58982969D01*
X153762278Y-59102277D01*
X153762277Y-59102278D01*
X153642969Y-59250704D01*
X153642967Y-59250707D01*
X153558360Y-59421302D01*
X153512400Y-59606108D01*
X153509500Y-59648876D01*
X153509501Y-60551122D01*
X153509501Y-60551123D01*
X153512399Y-60593886D01*
X153512399Y-60593887D01*
X153558360Y-60778696D01*
X153642967Y-60949292D01*
X153642969Y-60949295D01*
X153762277Y-61097721D01*
X153762278Y-61097722D01*
X153910704Y-61217030D01*
X153995151Y-61258912D01*
X154046463Y-61306333D01*
X154063992Y-61373968D01*
X154042173Y-61440343D01*
X153995151Y-61481088D01*
X153910704Y-61522969D01*
X153762278Y-61642277D01*
X153762277Y-61642278D01*
X153642969Y-61790704D01*
X153642967Y-61790707D01*
X153558360Y-61961302D01*
X153512400Y-62146108D01*
X153509500Y-62188876D01*
X152573466Y-62188876D01*
X152000803Y-61616212D01*
X151990980Y-61603950D01*
X151990759Y-61604134D01*
X151985786Y-61598123D01*
X151977246Y-61590103D01*
X151935364Y-61550773D01*
X151924919Y-61540328D01*
X151914475Y-61529883D01*
X151908986Y-61525625D01*
X151904561Y-61521847D01*
X151870582Y-61489938D01*
X151870580Y-61489936D01*
X151870577Y-61489935D01*
X151853029Y-61480288D01*
X151836763Y-61469604D01*
X151817602Y-61454741D01*
X151776695Y-61398098D01*
X151772906Y-61328331D01*
X151807438Y-61267591D01*
X151826559Y-61252450D01*
X151901513Y-61204281D01*
X152063724Y-61063724D01*
X152204281Y-60901513D01*
X152320321Y-60720950D01*
X152320323Y-60720944D01*
X152320327Y-60720938D01*
X152409482Y-60525715D01*
X152409482Y-60525713D01*
X152409484Y-60525710D01*
X152469954Y-60319769D01*
X152500500Y-60107318D01*
X152500500Y-60000000D01*
X152500500Y-59999500D01*
X152500500Y-41002212D01*
X152500658Y-40997788D01*
X152505492Y-40930203D01*
X152517049Y-40783360D01*
X152518276Y-40775045D01*
X152518277Y-40775044D01*
X152538902Y-40680231D01*
X152540842Y-40672148D01*
X152566860Y-40563774D01*
X152569051Y-40556598D01*
X152604989Y-40460246D01*
X152648943Y-40354133D01*
X152651797Y-40348167D01*
X152701563Y-40257027D01*
X152703053Y-40254453D01*
X152761500Y-40159075D01*
X152764690Y-40154375D01*
X152827458Y-40070527D01*
X152829873Y-40067508D01*
X152902020Y-39983036D01*
X152905278Y-39979511D01*
X152979511Y-39905278D01*
X152983036Y-39902020D01*
X153067508Y-39829873D01*
X153070527Y-39827458D01*
X153154375Y-39764690D01*
X153159075Y-39761500D01*
X153254453Y-39703053D01*
X153257027Y-39701563D01*
X153348167Y-39651797D01*
X153354133Y-39648943D01*
X153460246Y-39604989D01*
X153556611Y-39569046D01*
X153563764Y-39566863D01*
X153680191Y-39538910D01*
X153775058Y-39518273D01*
X153783351Y-39517050D01*
X153930203Y-39505492D01*
X153997792Y-39500657D01*
X154002213Y-39500500D01*
X163497787Y-39500500D01*
X163502207Y-39500657D01*
X163569755Y-39505489D01*
X163716644Y-39517049D01*
X163724947Y-39518274D01*
X163819760Y-39538899D01*
X163936225Y-39566860D01*
X163943401Y-39569051D01*
X164039737Y-39604983D01*
X164117922Y-39637368D01*
X164145856Y-39648939D01*
X164151847Y-39651805D01*
X164242937Y-39701543D01*
X164245580Y-39703073D01*
X164340903Y-39761488D01*
X164345643Y-39764705D01*
X164429440Y-39827435D01*
X164432520Y-39829898D01*
X164516937Y-39901997D01*
X164520513Y-39905303D01*
X164594695Y-39979485D01*
X164598001Y-39983061D01*
X164670094Y-40067471D01*
X164672576Y-40070574D01*
X164735289Y-40154349D01*
X164738521Y-40159111D01*
X164796910Y-40254393D01*
X164798463Y-40257076D01*
X164848193Y-40348151D01*
X164851059Y-40354141D01*
X164895016Y-40460260D01*
X164930942Y-40556582D01*
X164933140Y-40563781D01*
X164961098Y-40680231D01*
X164981723Y-40775044D01*
X164982950Y-40783367D01*
X164994517Y-40930331D01*
X164999342Y-40997789D01*
X164999500Y-41002213D01*
X164999500Y-85597785D01*
X164999342Y-85602209D01*
X164994520Y-85669626D01*
X164982949Y-85816637D01*
X164981722Y-85824960D01*
X164961107Y-85919727D01*
X164933141Y-86036212D01*
X164930943Y-86043411D01*
X164895019Y-86139730D01*
X164851056Y-86245864D01*
X164848190Y-86251854D01*
X164798469Y-86342912D01*
X164796916Y-86345593D01*
X164738520Y-86440888D01*
X164735288Y-86445651D01*
X164672576Y-86529424D01*
X164670087Y-86532536D01*
X164598001Y-86616937D01*
X164594695Y-86620513D01*
X164520513Y-86694695D01*
X164516937Y-86698001D01*
X164432536Y-86770087D01*
X164429424Y-86772576D01*
X164345651Y-86835288D01*
X164340888Y-86838520D01*
X164245593Y-86896916D01*
X164242912Y-86898469D01*
X164151854Y-86948190D01*
X164145864Y-86951056D01*
X164039730Y-86995019D01*
X163943411Y-87030943D01*
X163936212Y-87033141D01*
X163819727Y-87061107D01*
X163724960Y-87081722D01*
X163716637Y-87082949D01*
X163569626Y-87094520D01*
X163502209Y-87099342D01*
X163497785Y-87099500D01*
X128502214Y-87099500D01*
X128497791Y-87099342D01*
X128470244Y-87097371D01*
X128430373Y-87094520D01*
X128283361Y-87082949D01*
X128275038Y-87081722D01*
X128180272Y-87061107D01*
X128063786Y-87033141D01*
X128056586Y-87030943D01*
X127960269Y-86995019D01*
X127854135Y-86951056D01*
X127848144Y-86948190D01*
X127757086Y-86898469D01*
X127754405Y-86896916D01*
X127659110Y-86838520D01*
X127654347Y-86835288D01*
X127570574Y-86772576D01*
X127567471Y-86770094D01*
X127483061Y-86698001D01*
X127479485Y-86694695D01*
X127405303Y-86620513D01*
X127401997Y-86616937D01*
X127329898Y-86532520D01*
X127327435Y-86529440D01*
X127264701Y-86445638D01*
X127261487Y-86440901D01*
X127203079Y-86345588D01*
X127201546Y-86342943D01*
X127151802Y-86251841D01*
X127148945Y-86245870D01*
X127104980Y-86139730D01*
X127069052Y-86043404D01*
X127066860Y-86036224D01*
X127038900Y-85919764D01*
X127018275Y-85824953D01*
X127017051Y-85816651D01*
X127005480Y-85669626D01*
X127000658Y-85602211D01*
X127000500Y-85597787D01*
X127000500Y-82000003D01*
X127994415Y-82000003D01*
X128014738Y-82348927D01*
X128014739Y-82348938D01*
X128075428Y-82693127D01*
X128075430Y-82693134D01*
X128175674Y-83027972D01*
X128314107Y-83348895D01*
X128314113Y-83348908D01*
X128488870Y-83651597D01*
X128697584Y-83931949D01*
X128697589Y-83931955D01*
X128821463Y-84063253D01*
X128937442Y-84186183D01*
X129101065Y-84323479D01*
X129205186Y-84410847D01*
X129205194Y-84410853D01*
X129497203Y-84602911D01*
X129497207Y-84602913D01*
X129809549Y-84759777D01*
X130137989Y-84879319D01*
X130478086Y-84959923D01*
X130825241Y-85000500D01*
X130825248Y-85000500D01*
X131174752Y-85000500D01*
X131174759Y-85000500D01*
X131521914Y-84959923D01*
X131862011Y-84879319D01*
X132190451Y-84759777D01*
X132502793Y-84602913D01*
X132794811Y-84410849D01*
X133062558Y-84186183D01*
X133302412Y-83931953D01*
X133511130Y-83651596D01*
X133685889Y-83348904D01*
X133824326Y-83027971D01*
X133924569Y-82693136D01*
X133985262Y-82348927D01*
X134005585Y-82000000D01*
X133985262Y-81651073D01*
X133943401Y-81413666D01*
X133924571Y-81306872D01*
X133924569Y-81306865D01*
X133924569Y-81306864D01*
X133824326Y-80972029D01*
X133685889Y-80651096D01*
X133511130Y-80348404D01*
X133494871Y-80326564D01*
X133302415Y-80068050D01*
X133302410Y-80068044D01*
X133127168Y-79882300D01*
X133062558Y-79813817D01*
X132906020Y-79682466D01*
X132794813Y-79589152D01*
X132794805Y-79589146D01*
X132502796Y-79397088D01*
X132190458Y-79240226D01*
X132190452Y-79240223D01*
X131862012Y-79120681D01*
X131862009Y-79120680D01*
X131521915Y-79040077D01*
X131478519Y-79035004D01*
X131174759Y-78999500D01*
X130825241Y-78999500D01*
X130521480Y-79035004D01*
X130478085Y-79040077D01*
X130478083Y-79040077D01*
X130137990Y-79120680D01*
X130137987Y-79120681D01*
X129809547Y-79240223D01*
X129809541Y-79240226D01*
X129497203Y-79397088D01*
X129205194Y-79589146D01*
X129205186Y-79589152D01*
X128937442Y-79813817D01*
X128937440Y-79813819D01*
X128697589Y-80068044D01*
X128697584Y-80068050D01*
X128488870Y-80348402D01*
X128314113Y-80651091D01*
X128314107Y-80651104D01*
X128175674Y-80972027D01*
X128075430Y-81306865D01*
X128075428Y-81306872D01*
X128014739Y-81651061D01*
X128014738Y-81651072D01*
X127994415Y-81999996D01*
X127994415Y-82000003D01*
X127000500Y-82000003D01*
X127000500Y-44000003D01*
X127994415Y-44000003D01*
X128014738Y-44348927D01*
X128014739Y-44348938D01*
X128075428Y-44693127D01*
X128075430Y-44693134D01*
X128175674Y-45027972D01*
X128314107Y-45348895D01*
X128314113Y-45348908D01*
X128488870Y-45651597D01*
X128697584Y-45931949D01*
X128697589Y-45931955D01*
X128821463Y-46063253D01*
X128937442Y-46186183D01*
X129113903Y-46334251D01*
X129205186Y-46410847D01*
X129205194Y-46410853D01*
X129497203Y-46602911D01*
X129497207Y-46602913D01*
X129809549Y-46759777D01*
X130137989Y-46879319D01*
X130478086Y-46959923D01*
X130825241Y-47000500D01*
X130825248Y-47000500D01*
X131174752Y-47000500D01*
X131174759Y-47000500D01*
X131521914Y-46959923D01*
X131862011Y-46879319D01*
X132190451Y-46759777D01*
X132502793Y-46602913D01*
X132794811Y-46410849D01*
X133062558Y-46186183D01*
X133302412Y-45931953D01*
X133511130Y-45651596D01*
X133685889Y-45348904D01*
X133824326Y-45027971D01*
X133924569Y-44693136D01*
X133985262Y-44348927D01*
X134004946Y-44010974D01*
X134005585Y-44000003D01*
X134005585Y-43999996D01*
X133997563Y-43862277D01*
X133985262Y-43651073D01*
X133954955Y-43479190D01*
X133924571Y-43306872D01*
X133924569Y-43306865D01*
X133883384Y-43169296D01*
X133824326Y-42972029D01*
X133685889Y-42651096D01*
X133511130Y-42348404D01*
X133511129Y-42348402D01*
X133302415Y-42068050D01*
X133302410Y-42068044D01*
X133114505Y-41868878D01*
X133062558Y-41813817D01*
X132914488Y-41689572D01*
X132794813Y-41589152D01*
X132794805Y-41589146D01*
X132502796Y-41397088D01*
X132190458Y-41240226D01*
X132190452Y-41240223D01*
X131862012Y-41120681D01*
X131862009Y-41120680D01*
X131521915Y-41040077D01*
X131478519Y-41035004D01*
X131174759Y-40999500D01*
X130825241Y-40999500D01*
X130521480Y-41035004D01*
X130478085Y-41040077D01*
X130478083Y-41040077D01*
X130137990Y-41120680D01*
X130137987Y-41120681D01*
X129809547Y-41240223D01*
X129809541Y-41240226D01*
X129497203Y-41397088D01*
X129205194Y-41589146D01*
X129205186Y-41589152D01*
X128937442Y-41813817D01*
X128937440Y-41813819D01*
X128697589Y-42068044D01*
X128697584Y-42068050D01*
X128488870Y-42348402D01*
X128314113Y-42651091D01*
X128314107Y-42651104D01*
X128175674Y-42972027D01*
X128075430Y-43306865D01*
X128075428Y-43306872D01*
X128014739Y-43651061D01*
X128014738Y-43651072D01*
X127994415Y-43999996D01*
X127994415Y-44000003D01*
X127000500Y-44000003D01*
X127000500Y-41002212D01*
X127000658Y-40997788D01*
X127005492Y-40930203D01*
X127017049Y-40783360D01*
X127018276Y-40775045D01*
X127018277Y-40775044D01*
X127038902Y-40680231D01*
X127040842Y-40672148D01*
X127066860Y-40563774D01*
X127069051Y-40556598D01*
X127104989Y-40460246D01*
X127148943Y-40354133D01*
X127151797Y-40348167D01*
X127201563Y-40257027D01*
X127203053Y-40254453D01*
X127261500Y-40159075D01*
X127264690Y-40154375D01*
X127327458Y-40070527D01*
X127329873Y-40067508D01*
X127402020Y-39983036D01*
X127405278Y-39979511D01*
X127479511Y-39905278D01*
X127483036Y-39902020D01*
X127567508Y-39829873D01*
X127570527Y-39827458D01*
X127654375Y-39764690D01*
X127659075Y-39761500D01*
X127754453Y-39703053D01*
X127757027Y-39701563D01*
X127848167Y-39651797D01*
X127854133Y-39648943D01*
X127960246Y-39604989D01*
X128056611Y-39569046D01*
X128063764Y-39566863D01*
X128180191Y-39538910D01*
X128275058Y-39518273D01*
X128283351Y-39517050D01*
X128430203Y-39505492D01*
X128497792Y-39500657D01*
X128502213Y-39500500D01*
X137997787Y-39500500D01*
X138002207Y-39500657D01*
G37*
%TD.AperFunction*%
%TA.AperFunction,Conductor*%
G36*
X143926441Y-83207047D02*
G01*
X143916123Y-83357886D01*
X143946884Y-83505915D01*
X143980090Y-83570000D01*
X142424852Y-83570000D01*
X142473559Y-83432953D01*
X142483877Y-83282114D01*
X142453116Y-83134085D01*
X142419910Y-83070000D01*
X143975148Y-83070000D01*
X143926441Y-83207047D01*
G37*
%TD.AperFunction*%
%TA.AperFunction,Conductor*%
G36*
X146466441Y-83207047D02*
G01*
X146456123Y-83357886D01*
X146486884Y-83505915D01*
X146520090Y-83570000D01*
X144964852Y-83570000D01*
X145013559Y-83432953D01*
X145023877Y-83282114D01*
X144993116Y-83134085D01*
X144959910Y-83070000D01*
X146515148Y-83070000D01*
X146466441Y-83207047D01*
G37*
%TD.AperFunction*%
%TA.AperFunction,Conductor*%
G36*
X149006441Y-83207047D02*
G01*
X148996123Y-83357886D01*
X149026884Y-83505915D01*
X149060090Y-83570000D01*
X147504852Y-83570000D01*
X147553559Y-83432953D01*
X147563877Y-83282114D01*
X147533116Y-83134085D01*
X147499910Y-83070000D01*
X149055148Y-83070000D01*
X149006441Y-83207047D01*
G37*
%TD.AperFunction*%
%TA.AperFunction,Conductor*%
G36*
X134827187Y-63689897D02*
G01*
X134910704Y-63757030D01*
X134910707Y-63757032D01*
X135081302Y-63841639D01*
X135081303Y-63841639D01*
X135081307Y-63841641D01*
X135266111Y-63887600D01*
X135305520Y-63890272D01*
X135308876Y-63890500D01*
X135308876Y-63890499D01*
X135308877Y-63890500D01*
X137711122Y-63890499D01*
X137711123Y-63890499D01*
X137721813Y-63889774D01*
X137753889Y-63887600D01*
X137770571Y-63883451D01*
X137840380Y-63886373D01*
X137897527Y-63926572D01*
X137923868Y-63991286D01*
X137924500Y-64003785D01*
X137924500Y-65967255D01*
X137922775Y-65982872D01*
X137923061Y-65982899D01*
X137922326Y-65990665D01*
X137924500Y-66059814D01*
X137924500Y-66089343D01*
X137924501Y-66089360D01*
X137925368Y-66096231D01*
X137925826Y-66102050D01*
X137927290Y-66148624D01*
X137927291Y-66148627D01*
X137932880Y-66167867D01*
X137936824Y-66186911D01*
X137939336Y-66206791D01*
X137956490Y-66250119D01*
X137958382Y-66255647D01*
X137971381Y-66300388D01*
X137981580Y-66317634D01*
X137990138Y-66335103D01*
X137997514Y-66353732D01*
X138024898Y-66391423D01*
X138028106Y-66396307D01*
X138051827Y-66436416D01*
X138051833Y-66436424D01*
X138065990Y-66450580D01*
X138078628Y-66465376D01*
X138090405Y-66481586D01*
X138090406Y-66481587D01*
X138126309Y-66511288D01*
X138130620Y-66515210D01*
X143804957Y-72189547D01*
X148334482Y-76719072D01*
X148367967Y-76780395D01*
X148362983Y-76850087D01*
X148359187Y-76859149D01*
X148339286Y-76901829D01*
X148309105Y-76966552D01*
X148309104Y-76966554D01*
X148251930Y-77179929D01*
X148251929Y-77179937D01*
X148232677Y-77399997D01*
X148232677Y-77400000D01*
X148251929Y-77620062D01*
X148251930Y-77620066D01*
X148251930Y-77620070D01*
X148263707Y-77664021D01*
X148262044Y-77733871D01*
X148231613Y-77783795D01*
X146626208Y-79389199D01*
X146613951Y-79399020D01*
X146614134Y-79399241D01*
X146608123Y-79404213D01*
X146560772Y-79454636D01*
X146539889Y-79475519D01*
X146539877Y-79475532D01*
X146535621Y-79481017D01*
X146531837Y-79485447D01*
X146499937Y-79519418D01*
X146499936Y-79519420D01*
X146490284Y-79536976D01*
X146479610Y-79553226D01*
X146467329Y-79569061D01*
X146467324Y-79569068D01*
X146448814Y-79611841D01*
X146446241Y-79617092D01*
X146441529Y-79625661D01*
X146391979Y-79674921D01*
X146385283Y-79678294D01*
X146376344Y-79682462D01*
X146376337Y-79682466D01*
X146195377Y-79809175D01*
X146039175Y-79965377D01*
X145912466Y-80146338D01*
X145912465Y-80146340D01*
X145852382Y-80275189D01*
X145806209Y-80327628D01*
X145739016Y-80346780D01*
X145672135Y-80326564D01*
X145627618Y-80275189D01*
X145567534Y-80146340D01*
X145567533Y-80146338D01*
X145440827Y-79965381D01*
X145375967Y-79900521D01*
X145284620Y-79809174D01*
X145284616Y-79809171D01*
X145284615Y-79809170D01*
X145103666Y-79682468D01*
X145103662Y-79682466D01*
X145050997Y-79657908D01*
X144903450Y-79589106D01*
X144903447Y-79589105D01*
X144903445Y-79589104D01*
X144690070Y-79531930D01*
X144690062Y-79531929D01*
X144470002Y-79512677D01*
X144469998Y-79512677D01*
X144260307Y-79531022D01*
X144191807Y-79517255D01*
X144141624Y-79468640D01*
X144125500Y-79407494D01*
X144125500Y-78567799D01*
X144145185Y-78500760D01*
X144178377Y-78466224D01*
X144314620Y-78370826D01*
X144470826Y-78214620D01*
X144597534Y-78033662D01*
X144690894Y-77833450D01*
X144748070Y-77620068D01*
X144767323Y-77400000D01*
X144748070Y-77179932D01*
X144690894Y-76966550D01*
X144597534Y-76766339D01*
X144470826Y-76585380D01*
X144314620Y-76429174D01*
X144314616Y-76429171D01*
X144314615Y-76429170D01*
X144133666Y-76302468D01*
X144133662Y-76302466D01*
X144083763Y-76279198D01*
X143933450Y-76209106D01*
X143933447Y-76209105D01*
X143933445Y-76209104D01*
X143720070Y-76151930D01*
X143720062Y-76151929D01*
X143500002Y-76132677D01*
X143499998Y-76132677D01*
X143279937Y-76151929D01*
X143279929Y-76151930D01*
X143066554Y-76209104D01*
X143066548Y-76209107D01*
X142866340Y-76302465D01*
X142866338Y-76302466D01*
X142685377Y-76429175D01*
X142529175Y-76585377D01*
X142433776Y-76721623D01*
X142379199Y-76765248D01*
X142332201Y-76774500D01*
X140710452Y-76774500D01*
X140643413Y-76754815D01*
X140622771Y-76738181D01*
X134661819Y-70777228D01*
X134628334Y-70715905D01*
X134625500Y-70689547D01*
X134625500Y-68650000D01*
X136233179Y-68650000D01*
X136252424Y-68869976D01*
X136252426Y-68869986D01*
X136309575Y-69083270D01*
X136309580Y-69083284D01*
X136402899Y-69283407D01*
X136402900Y-69283409D01*
X136448258Y-69348187D01*
X137115096Y-68681349D01*
X137115051Y-68681898D01*
X137146266Y-68805162D01*
X137215813Y-68911612D01*
X137316157Y-68989713D01*
X137436422Y-69031000D01*
X137472553Y-69031000D01*
X136801811Y-69701741D01*
X136866582Y-69747094D01*
X136866592Y-69747100D01*
X137066715Y-69840419D01*
X137066729Y-69840424D01*
X137280013Y-69897573D01*
X137280023Y-69897575D01*
X137499999Y-69916821D01*
X137500001Y-69916821D01*
X137719976Y-69897575D01*
X137719986Y-69897573D01*
X137933270Y-69840424D01*
X137933284Y-69840419D01*
X138133408Y-69747100D01*
X138133420Y-69747093D01*
X138198186Y-69701742D01*
X138198187Y-69701740D01*
X137527448Y-69031000D01*
X137531569Y-69031000D01*
X137625421Y-69015339D01*
X137737251Y-68954820D01*
X137823371Y-68861269D01*
X137874448Y-68744823D01*
X137880105Y-68676552D01*
X138551740Y-69348187D01*
X138551742Y-69348186D01*
X138597093Y-69283420D01*
X138597100Y-69283408D01*
X138690419Y-69083284D01*
X138690424Y-69083270D01*
X138747573Y-68869986D01*
X138747575Y-68869976D01*
X138766821Y-68650000D01*
X138766821Y-68649999D01*
X138747575Y-68430023D01*
X138747573Y-68430013D01*
X138690424Y-68216729D01*
X138690420Y-68216720D01*
X138597098Y-68016590D01*
X138551740Y-67951811D01*
X137884903Y-68618648D01*
X137884949Y-68618102D01*
X137853734Y-68494838D01*
X137784187Y-68388388D01*
X137683843Y-68310287D01*
X137563578Y-68269000D01*
X137527447Y-68269000D01*
X138198187Y-67598258D01*
X138133409Y-67552900D01*
X138133407Y-67552899D01*
X137933284Y-67459580D01*
X137933270Y-67459575D01*
X137719986Y-67402426D01*
X137719976Y-67402424D01*
X137500001Y-67383179D01*
X137499999Y-67383179D01*
X137280023Y-67402424D01*
X137280013Y-67402426D01*
X137066729Y-67459575D01*
X137066720Y-67459579D01*
X136866586Y-67552903D01*
X136801812Y-67598257D01*
X136801811Y-67598258D01*
X137472554Y-68269000D01*
X137468431Y-68269000D01*
X137374579Y-68284661D01*
X137262749Y-68345180D01*
X137176629Y-68438731D01*
X137125552Y-68555177D01*
X137119894Y-68623447D01*
X136448258Y-67951811D01*
X136448257Y-67951812D01*
X136402903Y-68016586D01*
X136309579Y-68216720D01*
X136309575Y-68216729D01*
X136252426Y-68430013D01*
X136252424Y-68430023D01*
X136233179Y-68649999D01*
X136233179Y-68650000D01*
X134625500Y-68650000D01*
X134625500Y-63786544D01*
X134645185Y-63719505D01*
X134697989Y-63673750D01*
X134767147Y-63663806D01*
X134827187Y-63689897D01*
G37*
%TD.AperFunction*%
%TA.AperFunction,Conductor*%
G36*
X149860343Y-66087826D02*
G01*
X149901088Y-66134849D01*
X149942967Y-66219292D01*
X149942969Y-66219295D01*
X150062277Y-66367721D01*
X150062278Y-66367722D01*
X150210704Y-66487030D01*
X150210707Y-66487032D01*
X150381302Y-66571639D01*
X150381303Y-66571639D01*
X150381307Y-66571641D01*
X150566111Y-66617600D01*
X150605520Y-66620272D01*
X150608876Y-66620500D01*
X150608876Y-66620499D01*
X150608877Y-66620500D01*
X151511122Y-66620499D01*
X151511123Y-66620499D01*
X151521813Y-66619774D01*
X151553889Y-66617600D01*
X151553891Y-66617599D01*
X151553895Y-66617599D01*
X151671573Y-66588333D01*
X151720573Y-66576147D01*
X151790382Y-66579070D01*
X151847528Y-66619270D01*
X151873869Y-66683984D01*
X151874500Y-66696481D01*
X151874500Y-72417255D01*
X151872775Y-72432872D01*
X151873061Y-72432899D01*
X151872326Y-72440665D01*
X151874500Y-72509814D01*
X151874500Y-72539343D01*
X151874501Y-72539360D01*
X151875368Y-72546231D01*
X151875826Y-72552050D01*
X151877290Y-72598624D01*
X151877291Y-72598627D01*
X151882880Y-72617867D01*
X151886824Y-72636911D01*
X151889336Y-72656791D01*
X151906490Y-72700119D01*
X151908382Y-72705647D01*
X151921381Y-72750388D01*
X151931580Y-72767634D01*
X151940138Y-72785103D01*
X151947514Y-72803732D01*
X151974898Y-72841423D01*
X151978106Y-72846307D01*
X152001827Y-72886416D01*
X152001833Y-72886424D01*
X152015990Y-72900580D01*
X152028628Y-72915376D01*
X152040405Y-72931586D01*
X152040406Y-72931587D01*
X152076309Y-72961288D01*
X152080620Y-72965210D01*
X154150186Y-75034776D01*
X154838181Y-75722771D01*
X154871666Y-75784094D01*
X154874500Y-75810452D01*
X154874500Y-76232201D01*
X154854815Y-76299240D01*
X154821623Y-76333776D01*
X154685377Y-76429175D01*
X154529175Y-76585377D01*
X154433776Y-76721623D01*
X154379199Y-76765248D01*
X154332201Y-76774500D01*
X153012743Y-76774500D01*
X152997122Y-76772775D01*
X152997096Y-76773061D01*
X152989334Y-76772327D01*
X152989333Y-76772327D01*
X152920186Y-76774500D01*
X152890649Y-76774500D01*
X152883766Y-76775369D01*
X152877949Y-76775826D01*
X152831373Y-76777290D01*
X152812129Y-76782881D01*
X152793079Y-76786825D01*
X152773211Y-76789334D01*
X152729884Y-76806488D01*
X152724358Y-76808379D01*
X152679614Y-76821379D01*
X152679610Y-76821381D01*
X152662366Y-76831579D01*
X152644905Y-76840133D01*
X152626274Y-76847510D01*
X152626262Y-76847517D01*
X152588570Y-76874902D01*
X152583687Y-76878109D01*
X152543580Y-76901829D01*
X152529414Y-76915995D01*
X152514624Y-76928627D01*
X152498414Y-76940404D01*
X152498411Y-76940407D01*
X152468710Y-76976309D01*
X152464777Y-76980631D01*
X149933794Y-79511613D01*
X149872471Y-79545098D01*
X149814020Y-79543707D01*
X149770068Y-79531930D01*
X149627052Y-79519418D01*
X149550002Y-79512677D01*
X149549998Y-79512677D01*
X149329937Y-79531929D01*
X149329929Y-79531930D01*
X149116554Y-79589104D01*
X149116550Y-79589106D01*
X149116451Y-79589152D01*
X148916340Y-79682465D01*
X148916338Y-79682466D01*
X148735377Y-79809175D01*
X148579175Y-79965377D01*
X148452466Y-80146338D01*
X148452465Y-80146340D01*
X148392382Y-80275189D01*
X148346209Y-80327628D01*
X148279016Y-80346780D01*
X148212135Y-80326564D01*
X148167618Y-80275189D01*
X148107534Y-80146340D01*
X148107533Y-80146338D01*
X147980821Y-79965372D01*
X147980116Y-79964532D01*
X147979921Y-79964088D01*
X147977721Y-79960945D01*
X147978353Y-79960502D01*
X147952110Y-79900521D01*
X147963157Y-79831530D01*
X147987430Y-79797159D01*
X149116204Y-78668384D01*
X149177525Y-78634901D01*
X149235976Y-78636292D01*
X149279932Y-78648070D01*
X149437123Y-78661822D01*
X149499998Y-78667323D01*
X149500000Y-78667323D01*
X149500002Y-78667323D01*
X149555017Y-78662509D01*
X149720068Y-78648070D01*
X149933450Y-78590894D01*
X150133662Y-78497534D01*
X150314620Y-78370826D01*
X150470826Y-78214620D01*
X150597534Y-78033662D01*
X150690894Y-77833450D01*
X150748070Y-77620068D01*
X150767323Y-77400000D01*
X150748070Y-77179932D01*
X150690894Y-76966550D01*
X150597534Y-76766339D01*
X150470826Y-76585380D01*
X150314620Y-76429174D01*
X150314616Y-76429171D01*
X150314615Y-76429170D01*
X150133666Y-76302468D01*
X150133662Y-76302466D01*
X150083763Y-76279198D01*
X149933450Y-76209106D01*
X149933447Y-76209105D01*
X149933445Y-76209104D01*
X149720070Y-76151930D01*
X149720063Y-76151929D01*
X149563882Y-76138265D01*
X149498814Y-76112812D01*
X149487009Y-76102418D01*
X143505421Y-70120830D01*
X143471936Y-70059507D01*
X143476920Y-69989815D01*
X143518792Y-69933882D01*
X143582295Y-69909621D01*
X143719975Y-69897575D01*
X143719986Y-69897573D01*
X143933270Y-69840424D01*
X143933284Y-69840419D01*
X144133408Y-69747100D01*
X144133420Y-69747093D01*
X144198186Y-69701742D01*
X144198187Y-69701740D01*
X143527447Y-69031000D01*
X143531569Y-69031000D01*
X143625421Y-69015339D01*
X143737251Y-68954820D01*
X143823371Y-68861269D01*
X143874448Y-68744823D01*
X143880105Y-68676552D01*
X144551740Y-69348187D01*
X144551742Y-69348186D01*
X144597093Y-69283420D01*
X144597100Y-69283408D01*
X144690419Y-69083284D01*
X144690424Y-69083270D01*
X144747573Y-68869986D01*
X144747575Y-68869976D01*
X144766821Y-68650000D01*
X148233179Y-68650000D01*
X148252424Y-68869976D01*
X148252426Y-68869986D01*
X148309575Y-69083270D01*
X148309580Y-69083284D01*
X148402899Y-69283407D01*
X148402900Y-69283409D01*
X148448258Y-69348187D01*
X149115096Y-68681349D01*
X149115051Y-68681898D01*
X149146266Y-68805162D01*
X149215813Y-68911612D01*
X149316157Y-68989713D01*
X149436422Y-69031000D01*
X149472553Y-69031000D01*
X148801811Y-69701741D01*
X148866582Y-69747094D01*
X148866592Y-69747100D01*
X149066715Y-69840419D01*
X149066729Y-69840424D01*
X149280013Y-69897573D01*
X149280023Y-69897575D01*
X149499999Y-69916821D01*
X149500001Y-69916821D01*
X149719976Y-69897575D01*
X149719986Y-69897573D01*
X149933270Y-69840424D01*
X149933284Y-69840419D01*
X150133408Y-69747100D01*
X150133420Y-69747093D01*
X150198186Y-69701742D01*
X150198187Y-69701740D01*
X149527448Y-69031000D01*
X149531569Y-69031000D01*
X149625421Y-69015339D01*
X149737251Y-68954820D01*
X149823371Y-68861269D01*
X149874448Y-68744823D01*
X149880105Y-68676552D01*
X150551740Y-69348187D01*
X150551742Y-69348186D01*
X150597093Y-69283420D01*
X150597100Y-69283408D01*
X150690419Y-69083284D01*
X150690424Y-69083270D01*
X150747573Y-68869986D01*
X150747575Y-68869976D01*
X150766821Y-68650000D01*
X150766821Y-68649999D01*
X150747575Y-68430023D01*
X150747573Y-68430013D01*
X150690424Y-68216729D01*
X150690420Y-68216720D01*
X150597098Y-68016590D01*
X150551740Y-67951811D01*
X149884903Y-68618648D01*
X149884949Y-68618102D01*
X149853734Y-68494838D01*
X149784187Y-68388388D01*
X149683843Y-68310287D01*
X149563578Y-68269000D01*
X149527447Y-68269000D01*
X150198187Y-67598258D01*
X150133409Y-67552900D01*
X150133407Y-67552899D01*
X149933284Y-67459580D01*
X149933270Y-67459575D01*
X149719986Y-67402426D01*
X149719976Y-67402424D01*
X149500001Y-67383179D01*
X149499999Y-67383179D01*
X149280023Y-67402424D01*
X149280013Y-67402426D01*
X149066729Y-67459575D01*
X149066720Y-67459579D01*
X148866586Y-67552903D01*
X148801812Y-67598257D01*
X148801811Y-67598258D01*
X149472554Y-68269000D01*
X149468431Y-68269000D01*
X149374579Y-68284661D01*
X149262749Y-68345180D01*
X149176629Y-68438731D01*
X149125552Y-68555177D01*
X149119894Y-68623447D01*
X148448258Y-67951811D01*
X148448257Y-67951812D01*
X148402903Y-68016586D01*
X148309579Y-68216720D01*
X148309575Y-68216729D01*
X148252426Y-68430013D01*
X148252424Y-68430023D01*
X148233179Y-68649999D01*
X148233179Y-68650000D01*
X144766821Y-68650000D01*
X144766821Y-68649999D01*
X144747575Y-68430023D01*
X144747573Y-68430013D01*
X144690424Y-68216729D01*
X144690420Y-68216720D01*
X144597098Y-68016590D01*
X144551740Y-67951811D01*
X143884903Y-68618648D01*
X143884949Y-68618102D01*
X143853734Y-68494838D01*
X143784187Y-68388388D01*
X143683843Y-68310287D01*
X143563578Y-68269000D01*
X143527447Y-68269000D01*
X144198187Y-67598258D01*
X144133409Y-67552900D01*
X144133407Y-67552899D01*
X143933284Y-67459580D01*
X143933270Y-67459575D01*
X143719986Y-67402426D01*
X143719976Y-67402424D01*
X143500001Y-67383179D01*
X143499999Y-67383179D01*
X143280023Y-67402424D01*
X143280013Y-67402426D01*
X143066729Y-67459575D01*
X143066720Y-67459579D01*
X142866586Y-67552903D01*
X142801812Y-67598257D01*
X142801811Y-67598258D01*
X143472554Y-68269000D01*
X143468431Y-68269000D01*
X143374579Y-68284661D01*
X143262749Y-68345180D01*
X143176629Y-68438731D01*
X143125552Y-68555177D01*
X143119894Y-68623447D01*
X142448258Y-67951811D01*
X142448257Y-67951812D01*
X142402903Y-68016586D01*
X142309579Y-68216720D01*
X142309575Y-68216729D01*
X142252426Y-68430013D01*
X142252424Y-68430023D01*
X142240378Y-68567705D01*
X142214925Y-68632774D01*
X142158334Y-68673752D01*
X142088572Y-68677630D01*
X142029169Y-68644578D01*
X140184289Y-66799698D01*
X140150804Y-66738375D01*
X140155788Y-66668683D01*
X140197660Y-66612750D01*
X140263124Y-66588333D01*
X140301897Y-66591683D01*
X140406102Y-66617598D01*
X140406103Y-66617598D01*
X140406111Y-66617600D01*
X140446885Y-66620364D01*
X140448876Y-66620500D01*
X140448876Y-66620499D01*
X140448877Y-66620500D01*
X141351122Y-66620499D01*
X141351123Y-66620499D01*
X141361813Y-66619774D01*
X141393889Y-66617600D01*
X141578693Y-66571641D01*
X141749296Y-66487030D01*
X141897722Y-66367722D01*
X142017030Y-66219296D01*
X142042541Y-66167858D01*
X142058912Y-66134849D01*
X142106333Y-66083536D01*
X142173968Y-66066006D01*
X142240343Y-66087826D01*
X142281088Y-66134849D01*
X142322967Y-66219292D01*
X142322969Y-66219295D01*
X142442277Y-66367721D01*
X142442278Y-66367722D01*
X142590704Y-66487030D01*
X142590707Y-66487032D01*
X142761302Y-66571639D01*
X142761303Y-66571639D01*
X142761307Y-66571641D01*
X142946111Y-66617600D01*
X142985520Y-66620272D01*
X142988876Y-66620500D01*
X142988876Y-66620499D01*
X142988877Y-66620500D01*
X143891122Y-66620499D01*
X143891123Y-66620499D01*
X143901813Y-66619774D01*
X143933889Y-66617600D01*
X144118693Y-66571641D01*
X144289296Y-66487030D01*
X144437722Y-66367722D01*
X144557030Y-66219296D01*
X144582541Y-66167858D01*
X144598912Y-66134849D01*
X144646333Y-66083536D01*
X144713968Y-66066006D01*
X144780343Y-66087826D01*
X144821088Y-66134849D01*
X144862967Y-66219292D01*
X144862969Y-66219295D01*
X144982277Y-66367721D01*
X144982278Y-66367722D01*
X145130704Y-66487030D01*
X145130707Y-66487032D01*
X145301302Y-66571639D01*
X145301303Y-66571639D01*
X145301307Y-66571641D01*
X145486111Y-66617600D01*
X145525520Y-66620272D01*
X145528876Y-66620500D01*
X145528876Y-66620499D01*
X145528877Y-66620500D01*
X146431122Y-66620499D01*
X146431123Y-66620499D01*
X146441813Y-66619774D01*
X146473889Y-66617600D01*
X146658693Y-66571641D01*
X146829296Y-66487030D01*
X146977722Y-66367722D01*
X147097030Y-66219296D01*
X147122541Y-66167858D01*
X147138912Y-66134849D01*
X147186333Y-66083536D01*
X147253968Y-66066006D01*
X147320343Y-66087826D01*
X147361088Y-66134849D01*
X147402967Y-66219292D01*
X147402969Y-66219295D01*
X147522277Y-66367721D01*
X147522278Y-66367722D01*
X147670704Y-66487030D01*
X147670707Y-66487032D01*
X147841302Y-66571639D01*
X147841303Y-66571639D01*
X147841307Y-66571641D01*
X148026111Y-66617600D01*
X148065520Y-66620272D01*
X148068876Y-66620500D01*
X148068876Y-66620499D01*
X148068877Y-66620500D01*
X148971122Y-66620499D01*
X148971123Y-66620499D01*
X148981813Y-66619774D01*
X149013889Y-66617600D01*
X149198693Y-66571641D01*
X149369296Y-66487030D01*
X149517722Y-66367722D01*
X149637030Y-66219296D01*
X149662541Y-66167858D01*
X149678912Y-66134849D01*
X149726333Y-66083536D01*
X149793968Y-66066006D01*
X149860343Y-66087826D01*
G37*
%TD.AperFunction*%
%TA.AperFunction,Conductor*%
G36*
X134522103Y-55665185D02*
G01*
X134566152Y-55714406D01*
X134642967Y-55869292D01*
X134642969Y-55869295D01*
X134762277Y-56017721D01*
X134762278Y-56017722D01*
X134910704Y-56137030D01*
X134995151Y-56178912D01*
X135046463Y-56226333D01*
X135063992Y-56293968D01*
X135042173Y-56360343D01*
X134995151Y-56401088D01*
X134910704Y-56442969D01*
X134762278Y-56562277D01*
X134762277Y-56562278D01*
X134642969Y-56710704D01*
X134642967Y-56710707D01*
X134558360Y-56881302D01*
X134512400Y-57066108D01*
X134509500Y-57108876D01*
X134509501Y-58011122D01*
X134509501Y-58011123D01*
X134512399Y-58053886D01*
X134512399Y-58053887D01*
X134558360Y-58238696D01*
X134645957Y-58415320D01*
X134644038Y-58416271D01*
X134660726Y-58473619D01*
X134640879Y-58540611D01*
X134624407Y-58561000D01*
X133616208Y-59569199D01*
X133603951Y-59579020D01*
X133604134Y-59579241D01*
X133598123Y-59584213D01*
X133550772Y-59634636D01*
X133529889Y-59655519D01*
X133529877Y-59655532D01*
X133525621Y-59661017D01*
X133521837Y-59665447D01*
X133489937Y-59699418D01*
X133489936Y-59699420D01*
X133480284Y-59716976D01*
X133469610Y-59733226D01*
X133457329Y-59749061D01*
X133457324Y-59749068D01*
X133438815Y-59791838D01*
X133436245Y-59797084D01*
X133413803Y-59837906D01*
X133408822Y-59857307D01*
X133402521Y-59875710D01*
X133394562Y-59894102D01*
X133394561Y-59894105D01*
X133387271Y-59940127D01*
X133386087Y-59945846D01*
X133374501Y-59990972D01*
X133374500Y-59990982D01*
X133374500Y-60011016D01*
X133372973Y-60030415D01*
X133369840Y-60050194D01*
X133369840Y-60050195D01*
X133374225Y-60096583D01*
X133374500Y-60102421D01*
X133374500Y-70917255D01*
X133372775Y-70932872D01*
X133373061Y-70932899D01*
X133372326Y-70940665D01*
X133374500Y-71009814D01*
X133374500Y-71039343D01*
X133374501Y-71039360D01*
X133375368Y-71046231D01*
X133375826Y-71052050D01*
X133377290Y-71098624D01*
X133377291Y-71098627D01*
X133382880Y-71117867D01*
X133386824Y-71136911D01*
X133389336Y-71156791D01*
X133406490Y-71200119D01*
X133408382Y-71205647D01*
X133421381Y-71250388D01*
X133431580Y-71267634D01*
X133440138Y-71285103D01*
X133447514Y-71303732D01*
X133474898Y-71341423D01*
X133478106Y-71346307D01*
X133501827Y-71386416D01*
X133501833Y-71386424D01*
X133515990Y-71400580D01*
X133528628Y-71415376D01*
X133540405Y-71431586D01*
X133540406Y-71431587D01*
X133576309Y-71461288D01*
X133580620Y-71465210D01*
X135883044Y-73767634D01*
X138168941Y-76053531D01*
X138202426Y-76114854D01*
X138197442Y-76184546D01*
X138155570Y-76240479D01*
X138090106Y-76264896D01*
X138028856Y-76253594D01*
X137933456Y-76209108D01*
X137933445Y-76209104D01*
X137720070Y-76151930D01*
X137720062Y-76151929D01*
X137500002Y-76132677D01*
X137499998Y-76132677D01*
X137279937Y-76151929D01*
X137279929Y-76151930D01*
X137066554Y-76209104D01*
X137066548Y-76209107D01*
X136866340Y-76302465D01*
X136866338Y-76302466D01*
X136685377Y-76429175D01*
X136529175Y-76585377D01*
X136433776Y-76721623D01*
X136379199Y-76765248D01*
X136332201Y-76774500D01*
X135710452Y-76774500D01*
X135643413Y-76754815D01*
X135622771Y-76738181D01*
X132161819Y-73277228D01*
X132128334Y-73215905D01*
X132125500Y-73189547D01*
X132125500Y-57310452D01*
X132145185Y-57243413D01*
X132161819Y-57222771D01*
X133702772Y-55681819D01*
X133764095Y-55648334D01*
X133790453Y-55645500D01*
X134455064Y-55645500D01*
X134522103Y-55665185D01*
G37*
%TD.AperFunction*%
%TD*%
M02*
