%TF.GenerationSoftware,KiCad,Pcbnew,7.0.9*%
%TF.CreationDate,2025-02-12T23:41:43+09:00*%
%TF.ProjectId,hid_taiko_rp2040_lite,6869645f-7461-4696-9b6f-5f7270323034,rev?*%
%TF.SameCoordinates,Original*%
%TF.FileFunction,Soldermask,Top*%
%TF.FilePolarity,Negative*%
%FSLAX46Y46*%
G04 Gerber Fmt 4.6, Leading zero omitted, Abs format (unit mm)*
G04 Created by KiCad (PCBNEW 7.0.9) date 2025-02-12 23:41:43*
%MOMM*%
%LPD*%
G01*
G04 APERTURE LIST*
G04 Aperture macros list*
%AMRoundRect*
0 Rectangle with rounded corners*
0 $1 Rounding radius*
0 $2 $3 $4 $5 $6 $7 $8 $9 X,Y pos of 4 corners*
0 Add a 4 corners polygon primitive as box body*
4,1,4,$2,$3,$4,$5,$6,$7,$8,$9,$2,$3,0*
0 Add four circle primitives for the rounded corners*
1,1,$1+$1,$2,$3*
1,1,$1+$1,$4,$5*
1,1,$1+$1,$6,$7*
1,1,$1+$1,$8,$9*
0 Add four rect primitives between the rounded corners*
20,1,$1+$1,$2,$3,$4,$5,0*
20,1,$1+$1,$4,$5,$6,$7,0*
20,1,$1+$1,$6,$7,$8,$9,0*
20,1,$1+$1,$8,$9,$2,$3,0*%
G04 Aperture macros list end*
%ADD10C,1.524000*%
%ADD11C,5.000000*%
%ADD12R,1.524000X1.524000*%
%ADD13O,1.524000X1.524000*%
%ADD14RoundRect,0.375000X-1.125000X-0.375000X1.125000X-0.375000X1.125000X0.375000X-1.125000X0.375000X0*%
%ADD15RoundRect,0.375000X0.375000X-1.125000X0.375000X1.125000X-0.375000X1.125000X-0.375000X-1.125000X0*%
G04 APERTURE END LIST*
D10*
%TO.C,U6*%
X149500000Y-77400000D03*
X149500000Y-68650000D03*
%TD*%
D11*
%TO.C,J2*%
X131000000Y-44000000D03*
%TD*%
%TO.C,J2*%
X161000000Y-44000000D03*
%TD*%
%TO.C,J2*%
X161000000Y-82000000D03*
%TD*%
D12*
%TO.C,U2*%
X141930000Y-83320000D03*
X144470000Y-83320000D03*
X147010000Y-83320000D03*
X149550000Y-83320000D03*
D13*
X141930000Y-80780000D03*
X144470000Y-80780000D03*
X147010000Y-80780000D03*
X149550000Y-80780000D03*
%TD*%
D14*
%TO.C,U3*%
X155510000Y-42320000D03*
X155510000Y-44860000D03*
X155510000Y-47400000D03*
X155510000Y-49940000D03*
X155510000Y-52480000D03*
X155510000Y-55020000D03*
X155510000Y-57560000D03*
X155510000Y-60100000D03*
X155510000Y-62640000D03*
D15*
X151060000Y-64620000D03*
X148520000Y-64620000D03*
X145980000Y-64620000D03*
X143440000Y-64620000D03*
X140900000Y-64620000D03*
D14*
X136510000Y-62640000D03*
X136510000Y-60100000D03*
X136510000Y-57560000D03*
X136510000Y-55020000D03*
X136510000Y-52480000D03*
X136510000Y-49940000D03*
X136510000Y-47400000D03*
X136510000Y-44860000D03*
X136510000Y-42320000D03*
%TD*%
D10*
%TO.C,U8*%
X137500000Y-77400000D03*
X137500000Y-68650000D03*
%TD*%
%TO.C,U7*%
X143500000Y-77400000D03*
X143500000Y-68650000D03*
%TD*%
D11*
%TO.C,J2*%
X131000000Y-82000000D03*
%TD*%
D10*
%TO.C,U5*%
X155500000Y-77400000D03*
X155500000Y-68650000D03*
%TD*%
M02*
