M48
; DRILL file {KiCad 7.0.9} date Wed Feb 12 23:42:11 2025
; FORMAT={-:-/ absolute / metric / decimal}
; #@! TF.CreationDate,2025-02-12T23:42:11+09:00
; #@! TF.GenerationSoftware,Kicad,Pcbnew,7.0.9
; #@! TF.FileFunction,Plated,1,2,PTH
FMAT,2
METRIC
; #@! TA.AperFunction,Plated,PTH,ViaDrill
T1C0.400
; #@! TA.AperFunction,Plated,PTH,ComponentDrill
T2C0.762
; #@! TA.AperFunction,Plated,PTH,ComponentDrill
T3C1.100
; #@! TA.AperFunction,Plated,PTH,ComponentDrill
T4C3.500
%
G90
G05
T1
X128.0Y-41.0
X128.0Y-49.0
X128.0Y-51.0
X128.0Y-53.0
X128.0Y-55.0
X128.0Y-57.0
X128.0Y-59.0
X128.0Y-61.0
X128.0Y-63.0
X128.0Y-65.0
X128.0Y-67.0
X128.0Y-69.0
X128.0Y-71.0
X128.0Y-73.0
X128.0Y-75.0
X128.0Y-77.0
X130.0Y-48.0
X131.0Y-78.0
X133.0Y-51.0
X133.0Y-59.0
X133.0Y-61.0
X133.0Y-63.0
X133.0Y-65.0
X133.0Y-70.0
X134.0Y-41.0
X134.0Y-73.0
X135.0Y-65.0
X135.0Y-75.0
X135.0Y-85.0
X136.0Y-82.0
X136.5Y-45.0
X137.0Y-66.0
X137.0Y-71.0
X137.0Y-80.0
X138.0Y-84.0
X139.0Y-82.0
X140.0Y-74.0
X140.0Y-85.0
X141.0Y-71.0
X143.0Y-74.0
X143.0Y-85.0
X146.0Y-76.0
X146.0Y-85.0
X147.0Y-70.0
X148.0Y-72.0
X149.0Y-85.0
X150.0Y-72.0
X152.0Y-75.0
X152.0Y-81.0
X152.0Y-85.0
X154.0Y-66.0
X154.0Y-79.0
X154.0Y-82.0
X156.0Y-72.0
X156.0Y-85.0
X157.0Y-66.0
X157.0Y-71.0
X157.0Y-75.0
X157.0Y-79.0
X158.0Y-41.0
X162.0Y-51.0
X162.0Y-57.0
X162.0Y-64.0
X162.0Y-71.0
X162.0Y-77.0
X164.0Y-41.0
X164.0Y-48.0
T2
X137.5Y-68.65
X137.5Y-77.4
X143.5Y-68.65
X143.5Y-77.4
X149.5Y-68.65
X149.5Y-77.4
X155.5Y-68.65
X155.5Y-77.4
T3
X141.93Y-80.78
X141.93Y-83.32
X144.47Y-80.78
X144.47Y-83.32
X147.01Y-80.78
X147.01Y-83.32
X149.55Y-80.78
X149.55Y-83.32
T4
X131.0Y-44.0
X131.0Y-82.0
X161.0Y-44.0
X161.0Y-82.0
T0
M30
