%TF.GenerationSoftware,KiCad,Pcbnew,7.0.9*%
%TF.CreationDate,2024-05-12T00:48:34+09:00*%
%TF.ProjectId,hid taiko opeammm,68696420-7461-4696-9b6f-206f7065616d,rev?*%
%TF.SameCoordinates,Original*%
%TF.FileFunction,Copper,L2,Bot*%
%TF.FilePolarity,Positive*%
%FSLAX46Y46*%
G04 Gerber Fmt 4.6, Leading zero omitted, Abs format (unit mm)*
G04 Created by KiCad (PCBNEW 7.0.9) date 2024-05-12 00:48:34*
%MOMM*%
%LPD*%
G01*
G04 APERTURE LIST*
G04 Aperture macros list*
%AMRoundRect*
0 Rectangle with rounded corners*
0 $1 Rounding radius*
0 $2 $3 $4 $5 $6 $7 $8 $9 X,Y pos of 4 corners*
0 Add a 4 corners polygon primitive as box body*
4,1,4,$2,$3,$4,$5,$6,$7,$8,$9,$2,$3,0*
0 Add four circle primitives for the rounded corners*
1,1,$1+$1,$2,$3*
1,1,$1+$1,$4,$5*
1,1,$1+$1,$6,$7*
1,1,$1+$1,$8,$9*
0 Add four rect primitives between the rounded corners*
20,1,$1+$1,$2,$3,$4,$5,0*
20,1,$1+$1,$4,$5,$6,$7,0*
20,1,$1+$1,$6,$7,$8,$9,0*
20,1,$1+$1,$8,$9,$2,$3,0*%
G04 Aperture macros list end*
%TA.AperFunction,ComponentPad*%
%ADD10C,5.000000*%
%TD*%
%TA.AperFunction,ComponentPad*%
%ADD11C,2.000000*%
%TD*%
%TA.AperFunction,ComponentPad*%
%ADD12R,2.500000X3.000000*%
%TD*%
%TA.AperFunction,ComponentPad*%
%ADD13R,2.000000X2.000000*%
%TD*%
%TA.AperFunction,ComponentPad*%
%ADD14R,1.346200X1.346200*%
%TD*%
%TA.AperFunction,ComponentPad*%
%ADD15C,1.346200*%
%TD*%
%TA.AperFunction,ComponentPad*%
%ADD16C,1.800000*%
%TD*%
%TA.AperFunction,ComponentPad*%
%ADD17O,1.600000X1.200000*%
%TD*%
%TA.AperFunction,ComponentPad*%
%ADD18O,1.600000X2.000000*%
%TD*%
%TA.AperFunction,ComponentPad*%
%ADD19C,1.400000*%
%TD*%
%TA.AperFunction,SMDPad,CuDef*%
%ADD20RoundRect,0.250000X-0.250000X-0.475000X0.250000X-0.475000X0.250000X0.475000X-0.250000X0.475000X0*%
%TD*%
%TA.AperFunction,SMDPad,CuDef*%
%ADD21R,1.511300X0.558800*%
%TD*%
%TA.AperFunction,SMDPad,CuDef*%
%ADD22RoundRect,0.250000X-0.262500X-0.450000X0.262500X-0.450000X0.262500X0.450000X-0.262500X0.450000X0*%
%TD*%
%TA.AperFunction,ComponentPad*%
%ADD23C,1.524000*%
%TD*%
%TA.AperFunction,SMDPad,CuDef*%
%ADD24RoundRect,0.250000X0.262500X0.450000X-0.262500X0.450000X-0.262500X-0.450000X0.262500X-0.450000X0*%
%TD*%
%TA.AperFunction,ViaPad*%
%ADD25C,0.800000*%
%TD*%
%TA.AperFunction,Conductor*%
%ADD26C,0.250000*%
%TD*%
G04 APERTURE END LIST*
D10*
%TO.P,,1*%
%TO.N,N/C*%
X225187500Y-98600000D03*
%TD*%
%TO.P,,1*%
%TO.N,N/C*%
X173187500Y-68100000D03*
%TD*%
%TO.P,,1*%
%TO.N,N/C*%
X265187500Y-68100000D03*
%TD*%
%TO.P,J2,1*%
%TO.N,N/C*%
X265187500Y-120100000D03*
%TD*%
D11*
%TO.P,SW1,S2*%
%TO.N,N/C*%
X255687500Y-91850000D03*
%TO.P,SW1,S1*%
X260687500Y-91850000D03*
D12*
%TO.P,SW1,MP*%
X252587500Y-84850000D03*
X263787500Y-84850000D03*
D11*
%TO.P,SW1,C,C*%
%TO.N,Net-(C1-Pad1)*%
X258187500Y-77350000D03*
%TO.P,SW1,B,B*%
%TO.N,Net-(U1-D3{slash}TX0)*%
X255687500Y-77350000D03*
D13*
%TO.P,SW1,A,A*%
%TO.N,Net-(U1-D2{slash}RX1)*%
X260687500Y-77350000D03*
%TD*%
D14*
%TO.P,10k2,1*%
%TO.N,Net-(10k2-Pad1)*%
X198760000Y-66360000D03*
D15*
%TO.P,10k2,2*%
%TO.N,Net-(U3-AINPUT-)*%
X201300000Y-68900000D03*
%TO.P,10k2,3*%
%TO.N,N/C*%
X198760000Y-71440000D03*
%TD*%
D14*
%TO.P,10k1,1*%
%TO.N,Net-(10k1-Pad1)*%
X198647500Y-75948700D03*
D15*
%TO.P,10k1,2*%
%TO.N,Net-(U3-BINPUT-)*%
X201187500Y-78488700D03*
%TO.P,10k1,3*%
%TO.N,N/C*%
X198647500Y-81028700D03*
%TD*%
D11*
%TO.P,SW7,1,1*%
%TO.N,Net-(Brd1-GND)*%
X261237500Y-99100000D03*
%TO.P,SW7,2,2*%
%TO.N,Net-(U1-B4{slash}8)*%
X254737500Y-99100000D03*
%TD*%
D16*
%TO.P,J4,1,Pin_1*%
%TO.N,Net-(J4-Pin_1)*%
X176222500Y-87325000D03*
%TO.P,J4,2,Pin_2*%
%TO.N,Net-(J1-Pin_1)*%
X173682500Y-87325000D03*
%TD*%
D17*
%TO.P,SW4,1,1*%
%TO.N,Net-(Brd1-GND)*%
X232987500Y-116100000D03*
%TO.P,SW4,2,2*%
%TO.N,Net-(U1-C6{slash}5)*%
X237987500Y-118300000D03*
%TD*%
%TO.P,SW5,1,1*%
%TO.N,Net-(Brd1-GND)*%
X194887500Y-116100000D03*
%TO.P,SW5,2,2*%
%TO.N,Net-(U1-D4{slash}4)*%
X199887500Y-118300000D03*
%TD*%
D16*
%TO.P,J2,1,Pin_1*%
%TO.N,Net-(J1-Pin_1)*%
X173682500Y-84785000D03*
%TO.P,J2,2,Pin_2*%
%TO.N,Net-(J2-Pin_2)*%
X176222500Y-84785000D03*
%TD*%
D18*
%TO.P,Brd1,1,GND*%
%TO.N,Net-(Brd1-GND)*%
X232167500Y-68500000D03*
%TO.P,Brd1,2,VCC*%
%TO.N,Net-(Brd1-VCC)*%
X234707500Y-68500000D03*
%TO.P,Brd1,3,SCL*%
%TO.N,Net-(Brd1-SCL)*%
X237247500Y-68500000D03*
%TO.P,Brd1,4,SDA*%
%TO.N,Net-(Brd1-SDA)*%
X239787500Y-68500000D03*
%TD*%
D17*
%TO.P,SW3,1,1*%
%TO.N,Net-(Brd1-GND)*%
X175687500Y-116100000D03*
%TO.P,SW3,2,2*%
%TO.N,Net-(U1-D7{slash}6)*%
X180687500Y-118300000D03*
%TD*%
D19*
%TO.P,SW2,1,C*%
%TO.N,unconnected-(SW2-C-Pad1)*%
X179187500Y-97600000D03*
%TO.P,SW2,2,B*%
%TO.N,Net-(SW2-B)*%
X176687500Y-97600000D03*
%TO.P,SW2,3,A*%
%TO.N,Net-(Brd1-GND)*%
X174187500Y-97600000D03*
%TD*%
D20*
%TO.P,C1,2*%
%TO.N,Net-(U1-D2{slash}RX1)*%
X260537500Y-74400000D03*
%TO.P,C1,1*%
%TO.N,Net-(C1-Pad1)*%
X258637500Y-74400000D03*
%TD*%
D16*
%TO.P,J3,1,Pin_1*%
%TO.N,Net-(J3-Pin_1)*%
X176222500Y-89865000D03*
%TO.P,J3,2,Pin_2*%
%TO.N,Net-(J1-Pin_1)*%
X173682500Y-89865000D03*
%TD*%
D17*
%TO.P,SW6,1,1*%
%TO.N,Net-(Brd1-GND)*%
X213987500Y-116100000D03*
%TO.P,SW6,2,2*%
%TO.N,Net-(U1-E6{slash}7)*%
X218987500Y-118300000D03*
%TD*%
D16*
%TO.P,J1,1,Pin_1*%
%TO.N,Net-(J1-Pin_1)*%
X173682500Y-82245000D03*
%TO.P,J1,2,Pin_2*%
%TO.N,Net-(J1-Pin_2)*%
X176222500Y-82245000D03*
%TD*%
D14*
%TO.P,10k3,1*%
%TO.N,Net-(10k3-Pad1)*%
X198420100Y-93710000D03*
D15*
%TO.P,10k3,2*%
%TO.N,Net-(U4-BINPUT-)*%
X200960100Y-96250000D03*
%TO.P,10k3,3*%
%TO.N,N/C*%
X198420100Y-98790000D03*
%TD*%
D14*
%TO.P,10k4,1*%
%TO.N,Net-(10k4-Pad1)*%
X198637500Y-84850000D03*
D15*
%TO.P,10k4,2*%
%TO.N,Net-(U4-AINPUT-)*%
X201177500Y-87390000D03*
%TO.P,10k4,3*%
%TO.N,N/C*%
X198637500Y-89930000D03*
%TD*%
D20*
%TO.P,C2,2*%
%TO.N,Net-(C1-Pad1)*%
X258487500Y-71350000D03*
%TO.P,C2,1*%
%TO.N,Net-(U1-D3{slash}TX0)*%
X256587500Y-71350000D03*
%TD*%
D21*
%TO.P,U4,8,V+*%
%TO.N,Net-(Brd1-VCC)*%
X191037500Y-98750000D03*
%TO.P,U4,7,BOUTPUT*%
%TO.N,Net-(U4-BOUTPUT)*%
X191037500Y-97480000D03*
%TO.P,U4,6,BINPUT-*%
%TO.N,Net-(U4-BINPUT-)*%
X191037500Y-96210000D03*
%TO.P,U4,5,BINPUT+*%
%TO.N,Net-(J2-Pin_2)*%
X191037500Y-94940000D03*
%TO.P,U4,4,V-*%
%TO.N,Net-(J1-Pin_1)*%
X185436800Y-94940000D03*
%TO.P,U4,3,AINPUT+*%
%TO.N,Net-(J4-Pin_1)*%
X185436800Y-96210000D03*
%TO.P,U4,2,AINPUT-*%
%TO.N,Net-(U4-AINPUT-)*%
X185436800Y-97480000D03*
%TO.P,U4,1,AOUTPUT*%
%TO.N,Net-(U4-AOUTPUT)*%
X185436800Y-98750000D03*
%TD*%
D22*
%TO.P,R7,1*%
%TO.N,Net-(J1-Pin_1)*%
X187164900Y-73588700D03*
%TO.P,R7,2*%
%TO.N,Net-(U3-AINPUT-)*%
X188989900Y-73588700D03*
%TD*%
%TO.P,R10,1*%
%TO.N,Net-(U4-AOUTPUT)*%
X194025000Y-86850000D03*
%TO.P,R10,2*%
%TO.N,Net-(10k4-Pad1)*%
X195850000Y-86850000D03*
%TD*%
%TO.P,R11,1*%
%TO.N,Net-(U3-AOUTPUT)*%
X194264900Y-68500000D03*
%TO.P,R11,2*%
%TO.N,Net-(10k2-Pad1)*%
X196089900Y-68500000D03*
%TD*%
%TO.P,R1,1*%
%TO.N,Net-(U3-BOUTPUT)*%
X194252400Y-78688700D03*
%TO.P,R1,2*%
%TO.N,Net-(10k1-Pad1)*%
X196077400Y-78688700D03*
%TD*%
%TO.P,R2,1*%
%TO.N,Net-(U4-BOUTPUT)*%
X193625000Y-97350000D03*
%TO.P,R2,2*%
%TO.N,Net-(10k3-Pad1)*%
X195450000Y-97350000D03*
%TD*%
D23*
%TO.P,U1,1,D3/TX0*%
%TO.N,Net-(U1-D3{slash}TX0)*%
X219607500Y-71056000D03*
%TO.P,U1,2,D2/RX1*%
%TO.N,Net-(U1-D2{slash}RX1)*%
X219607500Y-73596000D03*
%TO.P,U1,3,GND*%
%TO.N,Net-(C1-Pad1)*%
X219607500Y-76136000D03*
%TO.P,U1,4,GND*%
%TO.N,Net-(Brd1-GND)*%
X219607500Y-78676000D03*
%TO.P,U1,5,SDA/D1/2*%
%TO.N,Net-(Brd1-SDA)*%
X219607500Y-81216000D03*
%TO.P,U1,6,SCL/D0/3*%
%TO.N,Net-(Brd1-SCL)*%
X219607500Y-83756000D03*
%TO.P,U1,7,D4/4*%
%TO.N,Net-(U1-D4{slash}4)*%
X219607500Y-86296000D03*
%TO.P,U1,8,C6/5*%
%TO.N,Net-(U1-C6{slash}5)*%
X219607500Y-88836000D03*
%TO.P,U1,9,D7/6*%
%TO.N,Net-(U1-D7{slash}6)*%
X219607500Y-91376000D03*
%TO.P,U1,10,E6/7*%
%TO.N,Net-(U1-E6{slash}7)*%
X219607500Y-93916000D03*
%TO.P,U1,11,B4/8*%
%TO.N,Net-(U1-B4{slash}8)*%
X219607500Y-96456000D03*
%TO.P,U1,12,B5/9*%
%TO.N,Net-(SW2-B)*%
X219607500Y-98996000D03*
%TO.P,U1,13,10/B6*%
%TO.N,unconnected-(U1-10{slash}B6-Pad13)*%
X204367500Y-98996000D03*
%TO.P,U1,14,16/B2*%
%TO.N,unconnected-(U1-16{slash}B2-Pad14)*%
X204367500Y-96456000D03*
%TO.P,U1,15,14/B3*%
%TO.N,unconnected-(U1-14{slash}B3-Pad15)*%
X204367500Y-93916000D03*
%TO.P,U1,16,15/B1*%
%TO.N,unconnected-(U1-15{slash}B1-Pad16)*%
X204367500Y-91376000D03*
%TO.P,U1,17,A0/F7*%
%TO.N,unconnected-(U1-A0{slash}F7-Pad17)*%
X204367500Y-88836000D03*
%TO.P,U1,18,A1/F6*%
%TO.N,unconnected-(U1-A1{slash}F6-Pad18)*%
X204367500Y-86296000D03*
%TO.P,U1,19,A2/F5*%
%TO.N,unconnected-(U1-A2{slash}F5-Pad19)*%
X204367500Y-83756000D03*
%TO.P,U1,20,A3/F4*%
%TO.N,unconnected-(U1-A3{slash}F4-Pad20)*%
X204367500Y-81216000D03*
%TO.P,U1,21,VCC*%
%TO.N,Net-(Brd1-VCC)*%
X204367500Y-78676000D03*
%TO.P,U1,22,RST*%
%TO.N,unconnected-(U1-RST-Pad22)*%
X204367500Y-76136000D03*
%TO.P,U1,23,GND*%
%TO.N,Net-(J1-Pin_1)*%
X204367500Y-73596000D03*
%TO.P,U1,24,RAW*%
%TO.N,unconnected-(U1-RAW-Pad24)*%
X204367500Y-71056000D03*
%TD*%
D22*
%TO.P,R12,1*%
%TO.N,Net-(J1-Pin_1)*%
X187153750Y-87880000D03*
%TO.P,R12,2*%
%TO.N,Net-(U4-AINPUT-)*%
X188978750Y-87880000D03*
%TD*%
%TO.P,R9,1*%
%TO.N,Net-(J1-Pin_1)*%
X181317500Y-87525000D03*
%TO.P,R9,2*%
%TO.N,Net-(J4-Pin_1)*%
X183142500Y-87525000D03*
%TD*%
%TO.P,R5,1*%
%TO.N,Net-(J1-Pin_1)*%
X193225000Y-92850000D03*
%TO.P,R5,2*%
%TO.N,Net-(U4-BINPUT-)*%
X195050000Y-92850000D03*
%TD*%
D24*
%TO.P,R6,1*%
%TO.N,Net-(J2-Pin_2)*%
X183127500Y-84885000D03*
%TO.P,R6,2*%
%TO.N,Net-(J1-Pin_1)*%
X181302500Y-84885000D03*
%TD*%
D22*
%TO.P,R4,1*%
%TO.N,Net-(J1-Pin_1)*%
X192664900Y-73588700D03*
%TO.P,R4,2*%
%TO.N,Net-(U3-BINPUT-)*%
X194489900Y-73588700D03*
%TD*%
D21*
%TO.P,U3,1,AOUTPUT*%
%TO.N,Net-(U3-AOUTPUT)*%
X186364200Y-80228700D03*
%TO.P,U3,2,AINPUT-*%
%TO.N,Net-(U3-AINPUT-)*%
X186364200Y-78958700D03*
%TO.P,U3,3,AINPUT+*%
%TO.N,Net-(J3-Pin_1)*%
X186364200Y-77688700D03*
%TO.P,U3,4,V-*%
%TO.N,Net-(J1-Pin_1)*%
X186364200Y-76418700D03*
%TO.P,U3,5,BINPUT+*%
%TO.N,Net-(J1-Pin_2)*%
X191964900Y-76418700D03*
%TO.P,U3,6,BINPUT-*%
%TO.N,Net-(U3-BINPUT-)*%
X191964900Y-77688700D03*
%TO.P,U3,7,BOUTPUT*%
%TO.N,Net-(U3-BOUTPUT)*%
X191964900Y-78958700D03*
%TO.P,U3,8,V+*%
%TO.N,Net-(Brd1-VCC)*%
X191964900Y-80228700D03*
%TD*%
D22*
%TO.P,R8,1*%
%TO.N,Net-(J1-Pin_1)*%
X181317500Y-90025000D03*
%TO.P,R8,2*%
%TO.N,Net-(J3-Pin_1)*%
X183142500Y-90025000D03*
%TD*%
D24*
%TO.P,R3,1*%
%TO.N,Net-(J1-Pin_2)*%
X183127500Y-82345000D03*
%TO.P,R3,2*%
%TO.N,Net-(J1-Pin_1)*%
X181302500Y-82345000D03*
%TD*%
D25*
%TO.N,Net-(U1-D4{slash}4)*%
X213187500Y-94100000D03*
X213187500Y-97100000D03*
%TO.N,Net-(Brd1-SDA)*%
X238687500Y-78600000D03*
%TO.N,Net-(U1-D2{slash}RX1)*%
X262687500Y-73100000D03*
X224187500Y-73600000D03*
%TO.N,Net-(C1-Pad1)*%
X241187500Y-72100000D03*
%TO.N,Net-(U1-D3{slash}TX0)*%
X254187500Y-71600000D03*
%TO.N,Net-(J2-Pin_2)*%
X184187500Y-83600000D03*
%TO.N,Net-(J1-Pin_1)*%
X186364200Y-76418700D03*
X181987500Y-80500000D03*
%TO.N,Net-(U3-AOUTPUT)*%
X186364200Y-80228700D03*
X183787500Y-79700000D03*
%TO.N,Net-(J1-Pin_1)*%
X186566250Y-89880000D03*
X185366250Y-93880000D03*
%TO.N,Net-(J2-Pin_2)*%
X191587500Y-86100000D03*
X191587500Y-93700000D03*
%TO.N,Net-(U3-AINPUT-)*%
X189077400Y-77588700D03*
X189877400Y-71888700D03*
%TO.N,Net-(U4-BINPUT-)*%
X194937500Y-94550000D03*
%TO.N,Net-(U4-AINPUT-)*%
X188837500Y-92850000D03*
X186337500Y-92850000D03*
%TO.N,Net-(J3-Pin_1)*%
X185787500Y-89000000D03*
X185587500Y-81500000D03*
%TO.N,Net-(J4-Pin_1)*%
X185436800Y-96210000D03*
X184587500Y-88400000D03*
%TO.N,Net-(U4-AOUTPUT)*%
X187337500Y-93850000D03*
X187437500Y-95850000D03*
%TD*%
D26*
%TO.N,Net-(U1-E6{slash}7)*%
X221687500Y-95996000D02*
X219607500Y-93916000D01*
X221687500Y-100600000D02*
X221687500Y-95996000D01*
X222187500Y-101100000D02*
X221687500Y-100600000D01*
X222187500Y-115100000D02*
X222187500Y-101100000D01*
X218987500Y-118300000D02*
X222187500Y-115100000D01*
%TO.N,Net-(U1-D4{slash}4)*%
X213187500Y-92716000D02*
X219607500Y-86296000D01*
X213187500Y-94100000D02*
X213187500Y-92716000D01*
X202687500Y-107600000D02*
X213187500Y-97100000D01*
X202687500Y-113600000D02*
X202687500Y-107600000D01*
X199887500Y-116400000D02*
X202687500Y-113600000D01*
X199887500Y-118300000D02*
X199887500Y-116400000D01*
%TO.N,Net-(U1-D7{slash}6)*%
X207687500Y-101100000D02*
X217411500Y-91376000D01*
X201187500Y-101100000D02*
X207687500Y-101100000D01*
X217411500Y-91376000D02*
X219607500Y-91376000D01*
X180687500Y-118300000D02*
X183987500Y-118300000D01*
X183987500Y-118300000D02*
X201187500Y-101100000D01*
%TO.N,Net-(U1-C6{slash}5)*%
X235187500Y-97600000D02*
X226423500Y-88836000D01*
X226423500Y-88836000D02*
X219607500Y-88836000D01*
X235187500Y-115500000D02*
X235187500Y-97600000D01*
X237987500Y-118300000D02*
X235187500Y-115500000D01*
%TO.N,Net-(Brd1-SDA)*%
X239787500Y-77500000D02*
X238687500Y-78600000D01*
X239787500Y-68500000D02*
X239787500Y-77500000D01*
%TO.N,Net-(C1-Pad1)*%
X257237500Y-70100000D02*
X258487500Y-71350000D01*
X243187500Y-70100000D02*
X257237500Y-70100000D01*
X241187500Y-72100000D02*
X243187500Y-70100000D01*
%TO.N,Net-(U1-D2{slash}RX1)*%
X224183500Y-73596000D02*
X219607500Y-73596000D01*
X224187500Y-73600000D02*
X224183500Y-73596000D01*
X262387500Y-74400000D02*
X262687500Y-74100000D01*
X260537500Y-74400000D02*
X262387500Y-74400000D01*
X262687500Y-74100000D02*
X262687500Y-73100000D01*
%TO.N,Net-(U1-D3{slash}TX0)*%
X254437500Y-71350000D02*
X254187500Y-71600000D01*
X256587500Y-71350000D02*
X254437500Y-71350000D01*
X256587500Y-76450000D02*
X255687500Y-77350000D01*
X256587500Y-71350000D02*
X256587500Y-76450000D01*
%TO.N,Net-(C1-Pad1)*%
X258637500Y-71500000D02*
X258487500Y-71350000D01*
X258637500Y-74400000D02*
X258637500Y-71500000D01*
X258187500Y-74850000D02*
X258637500Y-74400000D01*
X258187500Y-77350000D02*
X258187500Y-74850000D01*
%TO.N,Net-(U1-D2{slash}RX1)*%
X260687500Y-74550000D02*
X260537500Y-74400000D01*
X260687500Y-77350000D02*
X260687500Y-74550000D01*
%TO.N,Net-(Brd1-SCL)*%
X235031500Y-83756000D02*
X219607500Y-83756000D01*
X237247500Y-81540000D02*
X235031500Y-83756000D01*
X237247500Y-68500000D02*
X237247500Y-81540000D01*
%TO.N,Net-(Brd1-VCC)*%
X216187500Y-77600000D02*
X205443500Y-77600000D01*
X217687500Y-76100000D02*
X216187500Y-77600000D01*
X205443500Y-77600000D02*
X204367500Y-78676000D01*
X217687500Y-68100000D02*
X217687500Y-76100000D01*
X219187500Y-66600000D02*
X217687500Y-68100000D01*
X232807500Y-66600000D02*
X219187500Y-66600000D01*
X234707500Y-68500000D02*
X232807500Y-66600000D01*
%TO.N,Net-(J2-Pin_2)*%
X184187500Y-83825000D02*
X183127500Y-84885000D01*
X184187500Y-83600000D02*
X184187500Y-83825000D01*
%TO.N,Net-(Brd1-VCC)*%
X205763500Y-78676000D02*
X204367500Y-78676000D01*
X207187500Y-80100000D02*
X205763500Y-78676000D01*
X207187500Y-99600000D02*
X207187500Y-80100000D01*
X206187500Y-100600000D02*
X207187500Y-99600000D01*
X194187500Y-100600000D02*
X206187500Y-100600000D01*
X192337500Y-98750000D02*
X194187500Y-100600000D01*
X191037500Y-98750000D02*
X192337500Y-98750000D01*
X203443500Y-79600000D02*
X204367500Y-78676000D01*
X203187500Y-79600000D02*
X203443500Y-79600000D01*
X201687500Y-81100000D02*
X203187500Y-79600000D01*
X201687500Y-81600000D02*
X201687500Y-81100000D01*
X200687500Y-82600000D02*
X201687500Y-81600000D01*
X196687500Y-82600000D02*
X200687500Y-82600000D01*
X194316200Y-80228700D02*
X196687500Y-82600000D01*
X191964900Y-80228700D02*
X194316200Y-80228700D01*
%TO.N,Net-(J1-Pin_1)*%
X173682500Y-87325000D02*
X173682500Y-84785000D01*
X173682500Y-84785000D02*
X173682500Y-82245000D01*
X173682500Y-89865000D02*
X174907500Y-88640000D01*
X174907500Y-88640000D02*
X174997500Y-88640000D01*
X184346250Y-92100000D02*
X186566250Y-89880000D01*
X181317500Y-90230000D02*
X183187500Y-92100000D01*
X181317500Y-90025000D02*
X181317500Y-90230000D01*
X183187500Y-92100000D02*
X184346250Y-92100000D01*
X181302500Y-81185000D02*
X181987500Y-80500000D01*
%TO.N,Net-(U3-AOUTPUT)*%
X183987500Y-74500000D02*
X183987500Y-76500000D01*
X185787500Y-72700000D02*
X183987500Y-74500000D01*
X186587500Y-71900000D02*
X185787500Y-72700000D01*
X188587500Y-71900000D02*
X186587500Y-71900000D01*
X191987500Y-68500000D02*
X188587500Y-71900000D01*
X183987500Y-76500000D02*
X183987500Y-79500000D01*
X183987500Y-79500000D02*
X183787500Y-79700000D01*
X194264900Y-68500000D02*
X191987500Y-68500000D01*
%TO.N,Net-(10k1-Pad1)*%
X196077400Y-78688700D02*
X196077400Y-78518800D01*
X196077400Y-78518800D02*
X198647500Y-75948700D01*
%TO.N,Net-(10k2-Pad1)*%
X196620000Y-68500000D02*
X198760000Y-66360000D01*
X196089900Y-68500000D02*
X196620000Y-68500000D01*
%TO.N,Net-(10k3-Pad1)*%
X195450000Y-97350000D02*
X195450000Y-96680100D01*
X195450000Y-96680100D02*
X198420100Y-93710000D01*
%TO.N,Net-(10k4-Pad1)*%
X198637500Y-84850000D02*
X196637500Y-86850000D01*
X196637500Y-86850000D02*
X195850000Y-86850000D01*
%TO.N,Net-(J1-Pin_1)*%
X185366250Y-93880000D02*
X185366250Y-94869450D01*
X193225000Y-92850000D02*
X190437500Y-92850000D01*
X181317500Y-90025000D02*
X179262500Y-90025000D01*
X174997500Y-86100000D02*
X180087500Y-86100000D01*
X187153750Y-89292500D02*
X186566250Y-89880000D01*
X188347500Y-94940000D02*
X185436800Y-94940000D01*
X185366250Y-94869450D02*
X185436800Y-94940000D01*
X175402500Y-80525000D02*
X173682500Y-82245000D01*
X174997500Y-88640000D02*
X173682500Y-87325000D01*
X192664900Y-73588700D02*
X191477400Y-73588700D01*
X179262500Y-90025000D02*
X177687500Y-91600000D01*
X177947500Y-88640000D02*
X174997500Y-88640000D01*
X187153750Y-87880000D02*
X187153750Y-89292500D01*
X181302500Y-81185000D02*
X180642500Y-80525000D01*
X173682500Y-84785000D02*
X174997500Y-86100000D01*
X188647400Y-76418700D02*
X186364200Y-76418700D01*
X180087500Y-86100000D02*
X181302500Y-84885000D01*
X190437500Y-92850000D02*
X188347500Y-94940000D01*
X180642500Y-80525000D02*
X175402500Y-80525000D01*
X179062500Y-87525000D02*
X177947500Y-88640000D01*
X181302500Y-82345000D02*
X181302500Y-81185000D01*
X177687500Y-91600000D02*
X175417500Y-91600000D01*
X181317500Y-87525000D02*
X179062500Y-87525000D01*
X175417500Y-91600000D02*
X173682500Y-89865000D01*
X187164900Y-75618000D02*
X186364200Y-76418700D01*
X191477400Y-73588700D02*
X188647400Y-76418700D01*
X187164900Y-73588700D02*
X187164900Y-75618000D01*
%TO.N,Net-(J1-Pin_2)*%
X183127500Y-82345000D02*
X186442500Y-82345000D01*
X189987500Y-77700000D02*
X191268800Y-76418700D01*
X183127500Y-83340000D02*
X183127500Y-82345000D01*
X177502500Y-83525000D02*
X182942500Y-83525000D01*
X186442500Y-82345000D02*
X189987500Y-78800000D01*
X176222500Y-82245000D02*
X177502500Y-83525000D01*
X189987500Y-78800000D02*
X189987500Y-77700000D01*
X182942500Y-83525000D02*
X183127500Y-83340000D01*
X191268800Y-76418700D02*
X191964900Y-76418700D01*
%TO.N,Net-(J2-Pin_2)*%
X191587500Y-93700000D02*
X191587500Y-94390000D01*
X190372500Y-84885000D02*
X191587500Y-86100000D01*
X183127500Y-84885000D02*
X190372500Y-84885000D01*
X191587500Y-94390000D02*
X191037500Y-94940000D01*
%TO.N,Net-(U3-BINPUT-)*%
X202177400Y-77498800D02*
X201187500Y-78488700D01*
X201187500Y-78488700D02*
X201187500Y-75911300D01*
X202177400Y-76088700D02*
X202177400Y-77498800D01*
X199677400Y-73588700D02*
X202177400Y-76088700D01*
X199764900Y-74488700D02*
X196564900Y-74488700D01*
X193964900Y-77088700D02*
X193564900Y-77088700D01*
X192964900Y-77688700D02*
X191964900Y-77688700D01*
X194489900Y-73588700D02*
X199677400Y-73588700D01*
X196564900Y-74488700D02*
X193964900Y-77088700D01*
X201187500Y-75911300D02*
X199764900Y-74488700D01*
X193564900Y-77088700D02*
X192964900Y-77688700D01*
%TO.N,Net-(U3-AINPUT-)*%
X187707400Y-78958700D02*
X186364200Y-78958700D01*
X189077400Y-77588700D02*
X187707400Y-78958700D01*
X189877400Y-71888700D02*
X189877400Y-72701200D01*
X189877400Y-72701200D02*
X188989900Y-73588700D01*
%TO.N,Net-(U4-BINPUT-)*%
X194937500Y-94550000D02*
X194337500Y-95150000D01*
X194337500Y-95150000D02*
X192837500Y-95150000D01*
X191777500Y-96210000D02*
X191037500Y-96210000D01*
X194937500Y-94550000D02*
X194937500Y-92962500D01*
X192837500Y-95150000D02*
X191777500Y-96210000D01*
X194937500Y-92962500D02*
X195050000Y-92850000D01*
%TO.N,Net-(U4-AINPUT-)*%
X200504400Y-88063100D02*
X197324400Y-88063100D01*
X188978750Y-89367500D02*
X186337500Y-92008750D01*
X197037500Y-88350000D02*
X193337500Y-88350000D01*
X184967500Y-97480000D02*
X185436800Y-97480000D01*
X193337500Y-88350000D02*
X188837500Y-92850000D01*
X197324400Y-88063100D02*
X197037500Y-88350000D01*
X201177500Y-87390000D02*
X200504400Y-88063100D01*
X186337500Y-92850000D02*
X185137500Y-92850000D01*
X186337500Y-92008750D02*
X186337500Y-92850000D01*
X183637500Y-96150000D02*
X184967500Y-97480000D01*
X185137500Y-92850000D02*
X183637500Y-94350000D01*
X183637500Y-94350000D02*
X183637500Y-96150000D01*
X188978750Y-87880000D02*
X188978750Y-89367500D01*
%TO.N,Net-(J3-Pin_1)*%
X184687500Y-78600000D02*
X185598800Y-77688700D01*
X179387500Y-89000000D02*
X178522500Y-89865000D01*
X183142500Y-90025000D02*
X184762500Y-90025000D01*
X178522500Y-89865000D02*
X176222500Y-89865000D01*
X183142500Y-90025000D02*
X183142500Y-90412500D01*
X176382500Y-90025000D02*
X176222500Y-89865000D01*
X184687500Y-80800000D02*
X184687500Y-78600000D01*
X184762500Y-90025000D02*
X185787500Y-89000000D01*
X183142500Y-90025000D02*
X183142500Y-89655000D01*
X185387500Y-81500000D02*
X184687500Y-80800000D01*
X183142500Y-89655000D02*
X182487500Y-89000000D01*
X182487500Y-89000000D02*
X179387500Y-89000000D01*
X185587500Y-81500000D02*
X185387500Y-81500000D01*
X185598800Y-77688700D02*
X186364200Y-77688700D01*
%TO.N,Net-(J4-Pin_1)*%
X183142500Y-87525000D02*
X183712500Y-87525000D01*
X182387500Y-86100000D02*
X183142500Y-86855000D01*
X180723896Y-86100000D02*
X182387500Y-86100000D01*
X183142500Y-86855000D02*
X183142500Y-87525000D01*
X183712500Y-87525000D02*
X184587500Y-88400000D01*
X176222500Y-87325000D02*
X176997500Y-86550000D01*
X176422500Y-87525000D02*
X176222500Y-87325000D01*
X180273896Y-86550000D02*
X180723896Y-86100000D01*
X176997500Y-86550000D02*
X180273896Y-86550000D01*
%TO.N,Net-(U3-BOUTPUT)*%
X191964900Y-78958700D02*
X193982400Y-78958700D01*
X193982400Y-78958700D02*
X194252400Y-78688700D01*
%TO.N,Net-(U4-BOUTPUT)*%
X191037500Y-97480000D02*
X193495000Y-97480000D01*
X193495000Y-97480000D02*
X193625000Y-97350000D01*
%TO.N,Net-(U4-AOUTPUT)*%
X187437500Y-95850000D02*
X187437500Y-97225550D01*
X185913050Y-98750000D02*
X185436800Y-98750000D01*
X187437500Y-97225550D02*
X185913050Y-98750000D01*
X194025000Y-86850000D02*
X192837500Y-86850000D01*
X190837500Y-88850000D02*
X187337500Y-92350000D01*
X187337500Y-92350000D02*
X187337500Y-93850000D01*
X192837500Y-86850000D02*
X190837500Y-88850000D01*
%TD*%
%TA.AperFunction,Conductor*%
%TO.N,Net-(Brd1-GND)*%
G36*
X197729546Y-65120185D02*
G01*
X197775301Y-65172989D01*
X197785245Y-65242147D01*
X197756220Y-65305703D01*
X197736819Y-65323766D01*
X197729352Y-65329355D01*
X197643106Y-65444564D01*
X197643102Y-65444571D01*
X197592808Y-65579417D01*
X197586401Y-65639016D01*
X197586401Y-65639023D01*
X197586400Y-65639035D01*
X197586400Y-66597646D01*
X197566715Y-66664685D01*
X197550081Y-66685327D01*
X196863828Y-67371579D01*
X196802505Y-67405064D01*
X196732813Y-67400080D01*
X196711050Y-67389436D01*
X196671742Y-67365190D01*
X196671736Y-67365187D01*
X196671734Y-67365186D01*
X196505197Y-67310001D01*
X196505195Y-67310000D01*
X196402410Y-67299500D01*
X195777398Y-67299500D01*
X195777380Y-67299501D01*
X195674603Y-67310000D01*
X195674600Y-67310001D01*
X195508068Y-67365185D01*
X195508063Y-67365187D01*
X195358742Y-67457289D01*
X195265081Y-67550951D01*
X195203758Y-67584436D01*
X195134066Y-67579452D01*
X195089719Y-67550951D01*
X194996057Y-67457289D01*
X194996056Y-67457288D01*
X194888013Y-67390647D01*
X194846736Y-67365187D01*
X194846731Y-67365185D01*
X194845262Y-67364698D01*
X194680197Y-67310001D01*
X194680195Y-67310000D01*
X194577410Y-67299500D01*
X193952398Y-67299500D01*
X193952380Y-67299501D01*
X193849603Y-67310000D01*
X193849600Y-67310001D01*
X193683068Y-67365185D01*
X193683063Y-67365187D01*
X193533742Y-67457289D01*
X193409689Y-67581342D01*
X193317587Y-67730663D01*
X193317586Y-67730666D01*
X193301549Y-67779064D01*
X193298089Y-67789505D01*
X193258316Y-67846949D01*
X193193800Y-67873772D01*
X193180383Y-67874500D01*
X192070238Y-67874500D01*
X192054621Y-67872776D01*
X192054594Y-67873062D01*
X192046832Y-67872327D01*
X191977704Y-67874500D01*
X191948150Y-67874500D01*
X191947429Y-67874590D01*
X191941257Y-67875369D01*
X191935445Y-67875826D01*
X191888873Y-67877290D01*
X191888872Y-67877290D01*
X191869629Y-67882881D01*
X191850579Y-67886825D01*
X191830711Y-67889334D01*
X191830709Y-67889335D01*
X191787384Y-67906488D01*
X191781857Y-67908380D01*
X191737110Y-67921381D01*
X191737109Y-67921382D01*
X191719867Y-67931579D01*
X191702399Y-67940137D01*
X191683769Y-67947513D01*
X191683767Y-67947514D01*
X191646076Y-67974898D01*
X191641194Y-67978105D01*
X191601079Y-68001830D01*
X191586908Y-68016000D01*
X191572123Y-68028628D01*
X191555912Y-68040407D01*
X191526209Y-68076310D01*
X191522276Y-68080631D01*
X189926599Y-69676310D01*
X188364728Y-71238181D01*
X188303405Y-71271666D01*
X188277047Y-71274500D01*
X186670243Y-71274500D01*
X186654622Y-71272775D01*
X186654596Y-71273061D01*
X186646834Y-71272327D01*
X186646833Y-71272327D01*
X186577686Y-71274500D01*
X186548149Y-71274500D01*
X186541266Y-71275369D01*
X186535449Y-71275826D01*
X186488873Y-71277290D01*
X186469629Y-71282881D01*
X186450579Y-71286825D01*
X186430711Y-71289334D01*
X186387384Y-71306488D01*
X186381858Y-71308379D01*
X186337114Y-71321379D01*
X186337110Y-71321381D01*
X186319866Y-71331579D01*
X186302405Y-71340133D01*
X186283774Y-71347510D01*
X186283762Y-71347517D01*
X186246070Y-71374902D01*
X186241187Y-71378109D01*
X186201080Y-71401829D01*
X186186914Y-71415995D01*
X186172124Y-71428627D01*
X186155914Y-71440404D01*
X186155911Y-71440407D01*
X186126210Y-71476309D01*
X186122277Y-71480631D01*
X185383637Y-72219271D01*
X183603708Y-73999199D01*
X183591451Y-74009020D01*
X183591634Y-74009241D01*
X183585623Y-74014213D01*
X183538272Y-74064636D01*
X183517389Y-74085519D01*
X183517377Y-74085532D01*
X183513121Y-74091017D01*
X183509337Y-74095447D01*
X183477437Y-74129418D01*
X183477436Y-74129420D01*
X183467784Y-74146976D01*
X183457110Y-74163226D01*
X183444829Y-74179061D01*
X183444824Y-74179068D01*
X183426315Y-74221838D01*
X183423745Y-74227084D01*
X183401303Y-74267906D01*
X183396322Y-74287307D01*
X183390021Y-74305710D01*
X183382062Y-74324102D01*
X183382061Y-74324105D01*
X183374771Y-74370127D01*
X183373587Y-74375846D01*
X183362001Y-74420972D01*
X183362000Y-74420982D01*
X183362000Y-74441016D01*
X183360473Y-74460413D01*
X183359749Y-74464983D01*
X183357340Y-74480194D01*
X183357340Y-74480195D01*
X183361725Y-74526583D01*
X183362000Y-74532421D01*
X183362000Y-78832883D01*
X183342315Y-78899922D01*
X183310886Y-78933201D01*
X183181627Y-79027113D01*
X183054966Y-79167785D01*
X182960321Y-79331715D01*
X182960318Y-79331722D01*
X182901827Y-79511740D01*
X182901826Y-79511744D01*
X182882827Y-79692511D01*
X182882040Y-79700000D01*
X182895423Y-79827337D01*
X182882853Y-79896067D01*
X182835121Y-79947090D01*
X182767380Y-79964208D01*
X182701139Y-79941985D01*
X182679952Y-79923270D01*
X182676613Y-79919562D01*
X182593371Y-79827112D01*
X182593370Y-79827111D01*
X182440234Y-79715851D01*
X182440229Y-79715848D01*
X182267307Y-79638857D01*
X182267302Y-79638855D01*
X182094627Y-79602153D01*
X182082146Y-79599500D01*
X181892854Y-79599500D01*
X181880373Y-79602153D01*
X181707697Y-79638855D01*
X181707692Y-79638857D01*
X181534770Y-79715848D01*
X181534765Y-79715851D01*
X181381629Y-79827111D01*
X181254967Y-79967783D01*
X181230500Y-80010162D01*
X181179933Y-80058377D01*
X181111325Y-80071599D01*
X181046461Y-80045631D01*
X181038234Y-80038557D01*
X181013082Y-80014938D01*
X181010628Y-80013589D01*
X180995529Y-80005288D01*
X180979263Y-79994604D01*
X180963436Y-79982327D01*
X180963435Y-79982326D01*
X180963433Y-79982325D01*
X180920668Y-79963818D01*
X180915422Y-79961248D01*
X180874593Y-79938803D01*
X180874592Y-79938802D01*
X180855193Y-79933822D01*
X180836781Y-79927518D01*
X180818398Y-79919562D01*
X180818392Y-79919560D01*
X180772374Y-79912272D01*
X180766652Y-79911087D01*
X180721521Y-79899500D01*
X180721519Y-79899500D01*
X180701484Y-79899500D01*
X180682086Y-79897973D01*
X180674662Y-79896797D01*
X180662305Y-79894840D01*
X180662304Y-79894840D01*
X180615916Y-79899225D01*
X180610078Y-79899500D01*
X175485237Y-79899500D01*
X175469620Y-79897776D01*
X175469593Y-79898062D01*
X175461831Y-79897327D01*
X175392703Y-79899500D01*
X175363150Y-79899500D01*
X175362429Y-79899590D01*
X175356257Y-79900369D01*
X175350445Y-79900826D01*
X175303878Y-79902290D01*
X175303867Y-79902292D01*
X175284634Y-79907879D01*
X175265594Y-79911822D01*
X175245717Y-79914334D01*
X175245710Y-79914335D01*
X175245708Y-79914336D01*
X175245706Y-79914336D01*
X175245705Y-79914337D01*
X175202368Y-79931494D01*
X175196842Y-79933386D01*
X175152111Y-79946382D01*
X175152108Y-79946383D01*
X175134863Y-79956581D01*
X175117401Y-79965135D01*
X175098772Y-79972511D01*
X175098767Y-79972513D01*
X175061064Y-79999906D01*
X175056182Y-80003112D01*
X175016080Y-80026828D01*
X175001908Y-80041000D01*
X174987123Y-80053628D01*
X174980960Y-80058106D01*
X174977458Y-80060651D01*
X174970912Y-80065407D01*
X174941209Y-80101310D01*
X174937277Y-80105631D01*
X174181019Y-80861888D01*
X174119696Y-80895373D01*
X174053075Y-80891488D01*
X174027483Y-80882702D01*
X173874859Y-80857234D01*
X173798549Y-80844500D01*
X173566451Y-80844500D01*
X173556078Y-80846231D01*
X173337515Y-80882702D01*
X173118004Y-80958061D01*
X173117995Y-80958064D01*
X172913871Y-81068531D01*
X172913865Y-81068535D01*
X172730722Y-81211081D01*
X172730719Y-81211084D01*
X172730716Y-81211086D01*
X172730716Y-81211087D01*
X172710839Y-81232679D01*
X172573516Y-81381852D01*
X172446575Y-81576151D01*
X172353342Y-81788699D01*
X172296366Y-82013691D01*
X172296364Y-82013702D01*
X172277200Y-82244993D01*
X172277200Y-82245006D01*
X172296364Y-82476297D01*
X172296366Y-82476308D01*
X172353342Y-82701300D01*
X172446575Y-82913848D01*
X172573516Y-83108147D01*
X172573519Y-83108151D01*
X172573521Y-83108153D01*
X172730716Y-83278913D01*
X172730719Y-83278915D01*
X172730722Y-83278918D01*
X172908318Y-83417147D01*
X172949131Y-83473857D01*
X172952806Y-83543630D01*
X172918174Y-83604313D01*
X172908318Y-83612853D01*
X172730722Y-83751081D01*
X172730719Y-83751084D01*
X172730716Y-83751086D01*
X172730716Y-83751087D01*
X172696500Y-83788256D01*
X172573516Y-83921852D01*
X172446575Y-84116151D01*
X172353342Y-84328699D01*
X172296366Y-84553691D01*
X172296364Y-84553702D01*
X172277200Y-84784993D01*
X172277200Y-84785006D01*
X172296364Y-85016297D01*
X172296366Y-85016308D01*
X172353342Y-85241300D01*
X172446575Y-85453848D01*
X172573516Y-85648147D01*
X172573519Y-85648151D01*
X172573521Y-85648153D01*
X172730716Y-85818913D01*
X172730719Y-85818915D01*
X172730722Y-85818918D01*
X172908318Y-85957147D01*
X172949131Y-86013857D01*
X172952806Y-86083630D01*
X172918174Y-86144313D01*
X172908318Y-86152853D01*
X172730722Y-86291081D01*
X172730719Y-86291084D01*
X172730716Y-86291086D01*
X172730716Y-86291087D01*
X172675769Y-86350776D01*
X172573516Y-86461852D01*
X172446575Y-86656151D01*
X172353342Y-86868699D01*
X172296366Y-87093691D01*
X172296364Y-87093702D01*
X172277200Y-87324993D01*
X172277200Y-87325006D01*
X172296364Y-87556297D01*
X172296366Y-87556308D01*
X172353342Y-87781300D01*
X172446575Y-87993848D01*
X172573516Y-88188147D01*
X172573519Y-88188151D01*
X172573521Y-88188153D01*
X172730716Y-88358913D01*
X172730719Y-88358915D01*
X172730722Y-88358918D01*
X172908318Y-88497147D01*
X172949131Y-88553857D01*
X172952806Y-88623630D01*
X172918174Y-88684313D01*
X172908318Y-88692853D01*
X172730722Y-88831081D01*
X172730719Y-88831084D01*
X172730716Y-88831086D01*
X172730716Y-88831087D01*
X172690351Y-88874935D01*
X172573516Y-89001852D01*
X172446575Y-89196151D01*
X172353342Y-89408699D01*
X172296366Y-89633691D01*
X172296364Y-89633702D01*
X172277200Y-89864993D01*
X172277200Y-89865006D01*
X172296364Y-90096297D01*
X172296366Y-90096308D01*
X172353342Y-90321300D01*
X172446575Y-90533848D01*
X172573516Y-90728147D01*
X172573519Y-90728151D01*
X172573521Y-90728153D01*
X172730716Y-90898913D01*
X172730719Y-90898915D01*
X172730722Y-90898918D01*
X172913865Y-91041464D01*
X172913871Y-91041468D01*
X172913874Y-91041470D01*
X173117997Y-91151936D01*
X173231987Y-91191068D01*
X173337515Y-91227297D01*
X173337517Y-91227297D01*
X173337519Y-91227298D01*
X173566451Y-91265500D01*
X173566452Y-91265500D01*
X173798548Y-91265500D01*
X173798549Y-91265500D01*
X174027481Y-91227298D01*
X174053076Y-91218510D01*
X174122871Y-91215359D01*
X174181020Y-91248110D01*
X174916694Y-91983784D01*
X174926519Y-91996048D01*
X174926740Y-91995866D01*
X174931710Y-92001873D01*
X174931713Y-92001876D01*
X174931714Y-92001877D01*
X174982151Y-92049241D01*
X175003030Y-92070120D01*
X175008504Y-92074366D01*
X175012942Y-92078156D01*
X175046918Y-92110062D01*
X175046922Y-92110064D01*
X175064473Y-92119713D01*
X175080731Y-92130392D01*
X175096564Y-92142674D01*
X175118142Y-92152011D01*
X175139337Y-92161183D01*
X175144581Y-92163752D01*
X175185408Y-92186197D01*
X175204812Y-92191179D01*
X175223210Y-92197478D01*
X175241605Y-92205438D01*
X175287629Y-92212726D01*
X175293332Y-92213907D01*
X175338481Y-92225500D01*
X175358516Y-92225500D01*
X175377913Y-92227026D01*
X175397696Y-92230160D01*
X175444084Y-92225775D01*
X175449922Y-92225500D01*
X177604757Y-92225500D01*
X177620377Y-92227224D01*
X177620404Y-92226939D01*
X177628160Y-92227671D01*
X177628167Y-92227673D01*
X177697314Y-92225500D01*
X177726850Y-92225500D01*
X177733728Y-92224630D01*
X177739541Y-92224172D01*
X177786127Y-92222709D01*
X177805369Y-92217117D01*
X177824412Y-92213174D01*
X177844292Y-92210664D01*
X177887622Y-92193507D01*
X177893146Y-92191617D01*
X177896896Y-92190527D01*
X177937890Y-92178618D01*
X177955129Y-92168422D01*
X177972603Y-92159862D01*
X177991227Y-92152488D01*
X177991227Y-92152487D01*
X177991232Y-92152486D01*
X178028949Y-92125082D01*
X178033805Y-92121892D01*
X178073920Y-92098170D01*
X178088089Y-92083999D01*
X178102879Y-92071368D01*
X178119087Y-92059594D01*
X178148799Y-92023676D01*
X178152712Y-92019376D01*
X179485272Y-90686819D01*
X179546595Y-90653334D01*
X179572953Y-90650500D01*
X180232983Y-90650500D01*
X180300022Y-90670185D01*
X180345777Y-90722989D01*
X180350686Y-90735489D01*
X180370109Y-90794102D01*
X180370186Y-90794333D01*
X180370187Y-90794336D01*
X180381419Y-90812546D01*
X180462288Y-90943656D01*
X180586344Y-91067712D01*
X180735666Y-91159814D01*
X180902203Y-91214999D01*
X181004991Y-91225500D01*
X181377047Y-91225499D01*
X181444086Y-91245183D01*
X181464728Y-91261818D01*
X182686697Y-92483788D01*
X182696522Y-92496051D01*
X182696743Y-92495869D01*
X182701714Y-92501878D01*
X182722834Y-92521710D01*
X182752135Y-92549226D01*
X182773029Y-92570120D01*
X182778511Y-92574373D01*
X182782943Y-92578157D01*
X182816918Y-92610062D01*
X182834476Y-92619714D01*
X182850735Y-92630395D01*
X182866564Y-92642673D01*
X182909338Y-92661182D01*
X182914556Y-92663738D01*
X182955408Y-92686197D01*
X182974816Y-92691180D01*
X182993217Y-92697480D01*
X183011604Y-92705437D01*
X183054368Y-92712210D01*
X183057619Y-92712725D01*
X183063339Y-92713909D01*
X183108481Y-92725500D01*
X183128516Y-92725500D01*
X183147914Y-92727026D01*
X183167694Y-92730159D01*
X183167695Y-92730160D01*
X183167695Y-92730159D01*
X183167696Y-92730160D01*
X183214084Y-92725775D01*
X183219922Y-92725500D01*
X184078047Y-92725500D01*
X184145086Y-92745185D01*
X184190841Y-92797989D01*
X184200785Y-92867147D01*
X184171760Y-92930703D01*
X184165728Y-92937181D01*
X183253708Y-93849199D01*
X183241451Y-93859020D01*
X183241634Y-93859241D01*
X183235623Y-93864213D01*
X183188272Y-93914636D01*
X183167389Y-93935519D01*
X183167377Y-93935532D01*
X183163121Y-93941017D01*
X183159337Y-93945447D01*
X183127437Y-93979418D01*
X183127436Y-93979420D01*
X183117784Y-93996976D01*
X183107110Y-94013226D01*
X183094829Y-94029061D01*
X183094824Y-94029068D01*
X183076315Y-94071838D01*
X183073745Y-94077084D01*
X183051303Y-94117906D01*
X183046322Y-94137307D01*
X183040021Y-94155710D01*
X183032062Y-94174102D01*
X183032061Y-94174105D01*
X183024771Y-94220127D01*
X183023587Y-94225846D01*
X183012001Y-94270972D01*
X183012000Y-94270982D01*
X183012000Y-94291016D01*
X183010473Y-94310415D01*
X183007340Y-94330194D01*
X183007340Y-94330195D01*
X183011725Y-94376583D01*
X183012000Y-94382421D01*
X183012000Y-96067255D01*
X183010275Y-96082872D01*
X183010561Y-96082899D01*
X183009826Y-96090665D01*
X183012000Y-96159814D01*
X183012000Y-96189343D01*
X183012001Y-96189360D01*
X183012868Y-96196231D01*
X183013326Y-96202050D01*
X183014790Y-96248624D01*
X183014791Y-96248627D01*
X183020380Y-96267867D01*
X183024324Y-96286911D01*
X183026836Y-96306792D01*
X183043990Y-96350119D01*
X183045882Y-96355647D01*
X183058768Y-96400000D01*
X183058882Y-96400390D01*
X183066822Y-96413817D01*
X183069080Y-96417634D01*
X183077638Y-96435103D01*
X183085014Y-96453732D01*
X183112398Y-96491423D01*
X183115606Y-96496307D01*
X183139327Y-96536416D01*
X183139333Y-96536424D01*
X183153490Y-96550580D01*
X183166128Y-96565376D01*
X183177905Y-96581586D01*
X183177906Y-96581587D01*
X183213809Y-96611288D01*
X183218120Y-96615210D01*
X183917803Y-97314894D01*
X184144331Y-97541422D01*
X184177816Y-97602745D01*
X184180650Y-97629102D01*
X184180650Y-97807269D01*
X184180651Y-97807276D01*
X184187058Y-97866883D01*
X184237352Y-98001728D01*
X184237353Y-98001730D01*
X184266518Y-98040690D01*
X184290934Y-98106155D01*
X184276082Y-98174428D01*
X184266518Y-98189310D01*
X184237353Y-98228269D01*
X184237352Y-98228271D01*
X184187060Y-98363113D01*
X184187059Y-98363117D01*
X184180650Y-98422727D01*
X184180650Y-98422734D01*
X184180650Y-98422735D01*
X184180650Y-99077270D01*
X184180651Y-99077276D01*
X184187058Y-99136883D01*
X184237352Y-99271728D01*
X184237356Y-99271735D01*
X184323602Y-99386944D01*
X184323605Y-99386947D01*
X184438814Y-99473193D01*
X184438821Y-99473197D01*
X184573667Y-99523491D01*
X184573666Y-99523491D01*
X184580594Y-99524235D01*
X184633277Y-99529900D01*
X186240322Y-99529899D01*
X186299933Y-99523491D01*
X186434781Y-99473196D01*
X186549996Y-99386946D01*
X186636246Y-99271731D01*
X186686541Y-99136883D01*
X186692950Y-99077273D01*
X186692949Y-98906051D01*
X186712633Y-98839012D01*
X186729263Y-98818375D01*
X187821287Y-97726352D01*
X187833542Y-97716536D01*
X187833359Y-97716314D01*
X187839366Y-97711342D01*
X187839377Y-97711336D01*
X187870275Y-97678432D01*
X187886727Y-97660914D01*
X187897171Y-97650468D01*
X187907620Y-97640021D01*
X187911879Y-97634528D01*
X187915652Y-97630111D01*
X187947562Y-97596132D01*
X187957215Y-97578570D01*
X187967889Y-97562320D01*
X187980173Y-97546486D01*
X187998680Y-97503717D01*
X188001249Y-97498474D01*
X188023696Y-97457643D01*
X188023697Y-97457642D01*
X188028677Y-97438241D01*
X188034978Y-97419838D01*
X188042938Y-97401446D01*
X188050230Y-97355399D01*
X188051411Y-97349702D01*
X188055861Y-97332371D01*
X188063000Y-97304569D01*
X188063000Y-97284533D01*
X188064527Y-97265132D01*
X188065566Y-97258573D01*
X188067660Y-97245354D01*
X188063707Y-97203540D01*
X188063275Y-97198965D01*
X188063000Y-97193127D01*
X188063000Y-96548687D01*
X188082685Y-96481648D01*
X188094850Y-96465715D01*
X188117225Y-96440865D01*
X188170033Y-96382216D01*
X188264679Y-96218284D01*
X188323174Y-96038256D01*
X188342960Y-95850000D01*
X188327151Y-95699590D01*
X188339720Y-95630865D01*
X188387452Y-95579841D01*
X188438587Y-95565014D01*
X188438416Y-95563931D01*
X188446117Y-95562710D01*
X188446119Y-95562709D01*
X188446127Y-95562709D01*
X188465369Y-95557117D01*
X188484412Y-95553174D01*
X188504292Y-95550664D01*
X188547622Y-95533507D01*
X188553146Y-95531617D01*
X188556896Y-95530527D01*
X188597890Y-95518618D01*
X188615129Y-95508422D01*
X188632603Y-95499862D01*
X188651227Y-95492488D01*
X188651227Y-95492487D01*
X188651232Y-95492486D01*
X188688949Y-95465082D01*
X188693805Y-95461892D01*
X188733920Y-95438170D01*
X188748089Y-95423999D01*
X188762879Y-95411368D01*
X188779087Y-95399594D01*
X188808799Y-95363676D01*
X188812712Y-95359376D01*
X189569670Y-94602419D01*
X189630992Y-94568935D01*
X189700684Y-94573919D01*
X189756617Y-94615791D01*
X189781034Y-94681255D01*
X189781350Y-94690101D01*
X189781350Y-95267270D01*
X189781351Y-95267276D01*
X189787758Y-95326883D01*
X189838052Y-95461728D01*
X189838053Y-95461730D01*
X189867218Y-95500690D01*
X189891634Y-95566155D01*
X189876782Y-95634428D01*
X189867218Y-95649310D01*
X189838053Y-95688269D01*
X189838052Y-95688271D01*
X189787760Y-95823113D01*
X189787759Y-95823117D01*
X189781350Y-95882727D01*
X189781350Y-95882734D01*
X189781350Y-95882735D01*
X189781350Y-96537270D01*
X189781351Y-96537276D01*
X189787758Y-96596883D01*
X189838052Y-96731728D01*
X189838053Y-96731730D01*
X189867218Y-96770690D01*
X189891634Y-96836155D01*
X189876782Y-96904428D01*
X189867218Y-96919310D01*
X189838053Y-96958269D01*
X189838052Y-96958271D01*
X189787760Y-97093113D01*
X189787759Y-97093117D01*
X189781350Y-97152727D01*
X189781350Y-97152734D01*
X189781350Y-97152735D01*
X189781350Y-97807270D01*
X189781351Y-97807276D01*
X189787758Y-97866883D01*
X189838052Y-98001728D01*
X189838053Y-98001730D01*
X189867218Y-98040690D01*
X189891634Y-98106155D01*
X189876782Y-98174428D01*
X189867218Y-98189310D01*
X189838053Y-98228269D01*
X189838052Y-98228271D01*
X189787760Y-98363113D01*
X189787759Y-98363117D01*
X189781350Y-98422727D01*
X189781350Y-98422734D01*
X189781350Y-98422735D01*
X189781350Y-99077270D01*
X189781351Y-99077276D01*
X189787758Y-99136883D01*
X189838052Y-99271728D01*
X189838056Y-99271735D01*
X189924302Y-99386944D01*
X189924305Y-99386947D01*
X190039514Y-99473193D01*
X190039521Y-99473197D01*
X190174367Y-99523491D01*
X190174366Y-99523491D01*
X190181294Y-99524235D01*
X190233977Y-99529900D01*
X191841022Y-99529899D01*
X191900633Y-99523491D01*
X191916377Y-99517619D01*
X192035479Y-99473197D01*
X192043262Y-99468947D01*
X192044827Y-99471813D01*
X192095332Y-99452967D01*
X192163608Y-99467808D01*
X192191878Y-99488968D01*
X192946978Y-100244069D01*
X193686697Y-100983788D01*
X193696522Y-100996051D01*
X193696743Y-100995869D01*
X193701714Y-101001878D01*
X193727717Y-101026295D01*
X193752135Y-101049226D01*
X193773029Y-101070120D01*
X193778511Y-101074373D01*
X193782943Y-101078157D01*
X193816918Y-101110062D01*
X193834476Y-101119714D01*
X193850735Y-101130395D01*
X193866564Y-101142673D01*
X193909338Y-101161182D01*
X193914556Y-101163738D01*
X193955408Y-101186197D01*
X193974816Y-101191180D01*
X193993217Y-101197480D01*
X194011604Y-101205437D01*
X194054988Y-101212308D01*
X194057619Y-101212725D01*
X194063339Y-101213909D01*
X194108481Y-101225500D01*
X194128516Y-101225500D01*
X194147914Y-101227026D01*
X194167694Y-101230159D01*
X194167695Y-101230160D01*
X194167695Y-101230159D01*
X194167696Y-101230160D01*
X194214084Y-101225775D01*
X194219922Y-101225500D01*
X199878047Y-101225500D01*
X199945086Y-101245185D01*
X199990841Y-101297989D01*
X200000785Y-101367147D01*
X199971760Y-101430703D01*
X199965728Y-101437181D01*
X183764728Y-117638181D01*
X183703405Y-117671666D01*
X183677047Y-117674500D01*
X181857020Y-117674500D01*
X181789981Y-117654815D01*
X181756013Y-117622427D01*
X181722990Y-117576052D01*
X181722979Y-117576040D01*
X181570879Y-117431014D01*
X181394074Y-117317388D01*
X181394069Y-117317386D01*
X181283003Y-117272922D01*
X181198955Y-117239274D01*
X180992586Y-117199500D01*
X180992585Y-117199500D01*
X180435075Y-117199500D01*
X180278282Y-117214472D01*
X180278278Y-117214473D01*
X180076627Y-117273683D01*
X179889813Y-117369991D01*
X179724616Y-117499905D01*
X179724612Y-117499909D01*
X179586978Y-117658746D01*
X179481898Y-117840750D01*
X179413156Y-118039365D01*
X179413156Y-118039367D01*
X179394655Y-118168050D01*
X179383246Y-118247401D01*
X179393245Y-118457327D01*
X179442796Y-118661578D01*
X179442798Y-118661582D01*
X179530098Y-118852743D01*
X179530101Y-118852748D01*
X179530102Y-118852750D01*
X179530104Y-118852753D01*
X179652014Y-119023952D01*
X179652015Y-119023953D01*
X179652020Y-119023959D01*
X179804120Y-119168985D01*
X179899078Y-119230011D01*
X179980928Y-119282613D01*
X180176043Y-119360725D01*
X180279229Y-119380612D01*
X180382414Y-119400500D01*
X180382415Y-119400500D01*
X180939919Y-119400500D01*
X180939925Y-119400500D01*
X181096718Y-119385528D01*
X181298375Y-119326316D01*
X181485182Y-119230011D01*
X181650386Y-119100092D01*
X181764588Y-118968297D01*
X181823367Y-118930523D01*
X181858301Y-118925500D01*
X183904757Y-118925500D01*
X183920377Y-118927224D01*
X183920404Y-118926939D01*
X183928160Y-118927671D01*
X183928167Y-118927673D01*
X183997314Y-118925500D01*
X184026850Y-118925500D01*
X184033728Y-118924630D01*
X184039541Y-118924172D01*
X184086127Y-118922709D01*
X184105369Y-118917117D01*
X184124412Y-118913174D01*
X184144292Y-118910664D01*
X184187622Y-118893507D01*
X184193146Y-118891617D01*
X184196896Y-118890527D01*
X184237890Y-118878618D01*
X184255129Y-118868422D01*
X184272603Y-118859862D01*
X184291227Y-118852488D01*
X184291227Y-118852487D01*
X184291232Y-118852486D01*
X184328949Y-118825082D01*
X184333805Y-118821892D01*
X184373920Y-118798170D01*
X184388089Y-118783999D01*
X184402879Y-118771368D01*
X184419087Y-118759594D01*
X184448799Y-118723676D01*
X184452712Y-118719376D01*
X187322088Y-115850000D01*
X193612132Y-115850000D01*
X194371814Y-115850000D01*
X194359859Y-115861955D01*
X194302335Y-115974852D01*
X194282514Y-116100000D01*
X194302335Y-116225148D01*
X194359859Y-116338045D01*
X194371814Y-116350000D01*
X193616242Y-116350000D01*
X193643270Y-116461409D01*
X193730540Y-116652507D01*
X193852389Y-116823619D01*
X193852395Y-116823625D01*
X194004432Y-116968592D01*
X194181157Y-117082166D01*
X194376185Y-117160244D01*
X194582462Y-117200000D01*
X194637500Y-117200000D01*
X194637500Y-116497066D01*
X194656019Y-116500000D01*
X195118981Y-116500000D01*
X195137500Y-116497066D01*
X195137500Y-117200000D01*
X195139898Y-117200000D01*
X195296622Y-117185034D01*
X195296626Y-117185033D01*
X195498186Y-117125850D01*
X195684914Y-117029586D01*
X195850037Y-116899731D01*
X195850040Y-116899728D01*
X195987605Y-116740969D01*
X195987614Y-116740958D01*
X196092644Y-116559039D01*
X196092647Y-116559032D01*
X196161355Y-116360517D01*
X196161355Y-116360515D01*
X196162868Y-116350000D01*
X195403186Y-116350000D01*
X195415141Y-116338045D01*
X195472665Y-116225148D01*
X195492486Y-116100000D01*
X195472665Y-115974852D01*
X195415141Y-115861955D01*
X195403186Y-115850000D01*
X196158757Y-115850000D01*
X196131729Y-115738590D01*
X196044459Y-115547492D01*
X195922610Y-115376380D01*
X195922604Y-115376374D01*
X195770567Y-115231407D01*
X195593842Y-115117833D01*
X195398814Y-115039755D01*
X195192538Y-115000000D01*
X195137500Y-115000000D01*
X195137500Y-115702933D01*
X195118981Y-115700000D01*
X194656019Y-115700000D01*
X194637500Y-115702933D01*
X194637500Y-115000000D01*
X194635102Y-115000000D01*
X194478377Y-115014965D01*
X194478373Y-115014966D01*
X194276813Y-115074149D01*
X194090085Y-115170413D01*
X193924962Y-115300268D01*
X193924959Y-115300271D01*
X193787394Y-115459030D01*
X193787385Y-115459041D01*
X193682355Y-115640960D01*
X193682352Y-115640967D01*
X193613644Y-115839482D01*
X193613644Y-115839484D01*
X193612132Y-115850000D01*
X187322088Y-115850000D01*
X190824688Y-112347401D01*
X193283246Y-112347401D01*
X193293245Y-112557327D01*
X193342796Y-112761578D01*
X193342798Y-112761582D01*
X193430098Y-112952743D01*
X193430101Y-112952748D01*
X193430102Y-112952750D01*
X193430104Y-112952753D01*
X193493127Y-113041256D01*
X193552015Y-113123953D01*
X193552020Y-113123959D01*
X193704120Y-113268985D01*
X193799078Y-113330011D01*
X193880928Y-113382613D01*
X194076043Y-113460725D01*
X194179229Y-113480612D01*
X194282414Y-113500500D01*
X194282415Y-113500500D01*
X194439919Y-113500500D01*
X194439925Y-113500500D01*
X194596718Y-113485528D01*
X194798375Y-113426316D01*
X194985182Y-113330011D01*
X195150386Y-113200092D01*
X195288019Y-113041256D01*
X195393104Y-112859244D01*
X195461844Y-112660633D01*
X195491754Y-112452602D01*
X195481754Y-112242670D01*
X195432204Y-112038424D01*
X195432201Y-112038417D01*
X195344901Y-111847256D01*
X195344898Y-111847251D01*
X195344897Y-111847250D01*
X195344896Y-111847247D01*
X195222986Y-111676048D01*
X195222984Y-111676046D01*
X195222979Y-111676040D01*
X195070879Y-111531014D01*
X194894074Y-111417388D01*
X194698955Y-111339274D01*
X194492586Y-111299500D01*
X194492585Y-111299500D01*
X194335075Y-111299500D01*
X194178282Y-111314472D01*
X194178278Y-111314473D01*
X193976627Y-111373683D01*
X193789813Y-111469991D01*
X193624616Y-111599905D01*
X193624612Y-111599909D01*
X193486978Y-111758746D01*
X193381898Y-111940750D01*
X193313156Y-112139365D01*
X193313156Y-112139367D01*
X193298304Y-112242670D01*
X193283246Y-112347401D01*
X190824688Y-112347401D01*
X201410272Y-101761819D01*
X201471595Y-101728334D01*
X201497953Y-101725500D01*
X207378046Y-101725500D01*
X207445085Y-101745185D01*
X207490840Y-101797989D01*
X207500784Y-101867147D01*
X207471759Y-101930703D01*
X207465727Y-101937181D01*
X202303708Y-107099199D01*
X202291451Y-107109020D01*
X202291634Y-107109241D01*
X202285623Y-107114213D01*
X202238272Y-107164636D01*
X202217389Y-107185519D01*
X202217377Y-107185532D01*
X202213121Y-107191017D01*
X202209337Y-107195447D01*
X202177437Y-107229418D01*
X202177436Y-107229420D01*
X202167784Y-107246976D01*
X202157110Y-107263226D01*
X202144829Y-107279061D01*
X202144824Y-107279068D01*
X202126315Y-107321838D01*
X202123745Y-107327084D01*
X202101303Y-107367906D01*
X202096322Y-107387307D01*
X202090021Y-107405710D01*
X202082062Y-107424102D01*
X202082061Y-107424105D01*
X202074771Y-107470127D01*
X202073587Y-107475846D01*
X202062001Y-107520972D01*
X202062000Y-107520982D01*
X202062000Y-107541016D01*
X202060473Y-107560415D01*
X202057340Y-107580194D01*
X202057340Y-107580195D01*
X202061725Y-107626583D01*
X202062000Y-107632421D01*
X202062000Y-112066641D01*
X202042315Y-112133680D01*
X201989511Y-112179435D01*
X201920353Y-112189379D01*
X201856797Y-112160354D01*
X201819023Y-112101576D01*
X201816834Y-112092999D01*
X201763772Y-111849083D01*
X201763771Y-111849077D01*
X201666269Y-111587663D01*
X201573291Y-111417388D01*
X201532559Y-111342792D01*
X201532554Y-111342784D01*
X201365361Y-111119439D01*
X201365345Y-111119421D01*
X201168078Y-110922154D01*
X201168060Y-110922138D01*
X200944715Y-110754945D01*
X200944707Y-110754940D01*
X200699842Y-110621233D01*
X200699838Y-110621231D01*
X200600730Y-110584266D01*
X200438423Y-110523729D01*
X200438419Y-110523728D01*
X200438416Y-110523727D01*
X200165799Y-110464422D01*
X199957157Y-110449500D01*
X199817843Y-110449500D01*
X199609200Y-110464422D01*
X199336583Y-110523727D01*
X199336578Y-110523728D01*
X199336577Y-110523729D01*
X199273375Y-110547301D01*
X199075161Y-110621231D01*
X199075157Y-110621233D01*
X198830292Y-110754940D01*
X198830284Y-110754945D01*
X198606939Y-110922138D01*
X198606921Y-110922154D01*
X198409654Y-111119421D01*
X198409638Y-111119439D01*
X198242445Y-111342784D01*
X198242440Y-111342792D01*
X198108733Y-111587657D01*
X198108731Y-111587661D01*
X198011227Y-111849083D01*
X197951922Y-112121700D01*
X197932018Y-112399998D01*
X197932018Y-112400001D01*
X197951922Y-112678299D01*
X197991285Y-112859244D01*
X198011229Y-112950923D01*
X198071766Y-113113230D01*
X198108731Y-113212338D01*
X198108733Y-113212342D01*
X198242440Y-113457207D01*
X198242445Y-113457215D01*
X198409638Y-113680560D01*
X198409654Y-113680578D01*
X198606921Y-113877845D01*
X198606939Y-113877861D01*
X198830284Y-114045054D01*
X198830292Y-114045059D01*
X199075157Y-114178766D01*
X199075161Y-114178768D01*
X199075163Y-114178769D01*
X199336577Y-114276271D01*
X199472891Y-114305924D01*
X199609200Y-114335577D01*
X199609202Y-114335577D01*
X199609206Y-114335578D01*
X199817843Y-114350500D01*
X199957157Y-114350500D01*
X200165794Y-114335578D01*
X200438423Y-114276271D01*
X200699837Y-114178769D01*
X200944713Y-114045056D01*
X201168068Y-113877855D01*
X201365355Y-113680568D01*
X201532556Y-113457213D01*
X201666269Y-113212337D01*
X201763771Y-112950923D01*
X201813024Y-112724512D01*
X201816834Y-112707000D01*
X201850319Y-112645677D01*
X201911642Y-112612192D01*
X201981334Y-112617176D01*
X202037267Y-112659048D01*
X202061684Y-112724512D01*
X202062000Y-112733358D01*
X202062000Y-113289546D01*
X202042315Y-113356585D01*
X202025681Y-113377227D01*
X199503708Y-115899199D01*
X199491451Y-115909020D01*
X199491634Y-115909241D01*
X199485623Y-115914213D01*
X199438272Y-115964636D01*
X199417389Y-115985519D01*
X199417377Y-115985532D01*
X199413121Y-115991017D01*
X199409337Y-115995447D01*
X199377437Y-116029418D01*
X199377436Y-116029420D01*
X199367784Y-116046976D01*
X199357110Y-116063226D01*
X199344829Y-116079061D01*
X199344824Y-116079068D01*
X199326315Y-116121838D01*
X199323745Y-116127084D01*
X199301303Y-116167906D01*
X199296322Y-116187307D01*
X199290021Y-116205710D01*
X199282062Y-116224102D01*
X199282061Y-116224105D01*
X199274771Y-116270127D01*
X199273587Y-116275846D01*
X199262001Y-116320972D01*
X199262000Y-116320982D01*
X199262000Y-116341016D01*
X199260473Y-116360415D01*
X199257340Y-116380194D01*
X199257340Y-116380195D01*
X199261725Y-116426583D01*
X199262000Y-116432421D01*
X199262000Y-117205640D01*
X199242315Y-117272679D01*
X199194821Y-117315855D01*
X199089815Y-117369989D01*
X198924616Y-117499905D01*
X198924612Y-117499909D01*
X198786978Y-117658746D01*
X198681898Y-117840750D01*
X198613156Y-118039365D01*
X198613156Y-118039367D01*
X198594655Y-118168050D01*
X198583246Y-118247401D01*
X198593245Y-118457327D01*
X198642796Y-118661578D01*
X198642798Y-118661582D01*
X198730098Y-118852743D01*
X198730101Y-118852748D01*
X198730102Y-118852750D01*
X198730104Y-118852753D01*
X198852014Y-119023952D01*
X198852015Y-119023953D01*
X198852020Y-119023959D01*
X199004120Y-119168985D01*
X199099078Y-119230011D01*
X199180928Y-119282613D01*
X199376043Y-119360725D01*
X199479229Y-119380612D01*
X199582414Y-119400500D01*
X199582415Y-119400500D01*
X200139919Y-119400500D01*
X200139925Y-119400500D01*
X200296718Y-119385528D01*
X200498375Y-119326316D01*
X200685182Y-119230011D01*
X200850386Y-119100092D01*
X200988019Y-118941256D01*
X200996121Y-118927224D01*
X201093101Y-118759249D01*
X201093100Y-118759249D01*
X201093104Y-118759244D01*
X201161844Y-118560633D01*
X201191754Y-118352602D01*
X201181754Y-118142670D01*
X201132204Y-117938424D01*
X201131774Y-117937483D01*
X201044901Y-117747256D01*
X201044898Y-117747251D01*
X201044897Y-117747250D01*
X201044896Y-117747247D01*
X200922986Y-117576048D01*
X200922984Y-117576046D01*
X200922979Y-117576040D01*
X200770879Y-117431014D01*
X200594072Y-117317386D01*
X200590904Y-117316118D01*
X200589558Y-117315059D01*
X200588824Y-117314681D01*
X200588897Y-117314539D01*
X200535986Y-117272922D01*
X200513140Y-117206893D01*
X200513000Y-117201004D01*
X200513000Y-116710452D01*
X200532685Y-116643413D01*
X200549319Y-116622771D01*
X201322090Y-115850000D01*
X212712132Y-115850000D01*
X213471814Y-115850000D01*
X213459859Y-115861955D01*
X213402335Y-115974852D01*
X213382514Y-116100000D01*
X213402335Y-116225148D01*
X213459859Y-116338045D01*
X213471814Y-116350000D01*
X212716242Y-116350000D01*
X212743270Y-116461409D01*
X212830540Y-116652507D01*
X212952389Y-116823619D01*
X212952395Y-116823625D01*
X213104432Y-116968592D01*
X213281157Y-117082166D01*
X213476185Y-117160244D01*
X213682462Y-117200000D01*
X213737500Y-117200000D01*
X213737500Y-116497066D01*
X213756019Y-116500000D01*
X214218981Y-116500000D01*
X214237500Y-116497066D01*
X214237500Y-117200000D01*
X214239898Y-117200000D01*
X214396622Y-117185034D01*
X214396626Y-117185033D01*
X214598186Y-117125850D01*
X214784914Y-117029586D01*
X214950037Y-116899731D01*
X214950040Y-116899728D01*
X215087605Y-116740969D01*
X215087614Y-116740958D01*
X215192644Y-116559039D01*
X215192647Y-116559032D01*
X215261355Y-116360517D01*
X215261355Y-116360515D01*
X215262868Y-116350000D01*
X214503186Y-116350000D01*
X214515141Y-116338045D01*
X214572665Y-116225148D01*
X214592486Y-116100000D01*
X214572665Y-115974852D01*
X214515141Y-115861955D01*
X214503186Y-115850000D01*
X215258757Y-115850000D01*
X215231729Y-115738590D01*
X215144459Y-115547492D01*
X215022610Y-115376380D01*
X215022604Y-115376374D01*
X214870567Y-115231407D01*
X214693842Y-115117833D01*
X214498814Y-115039755D01*
X214292538Y-115000000D01*
X214237500Y-115000000D01*
X214237500Y-115702933D01*
X214218981Y-115700000D01*
X213756019Y-115700000D01*
X213737500Y-115702933D01*
X213737500Y-115000000D01*
X213735102Y-115000000D01*
X213578377Y-115014965D01*
X213578373Y-115014966D01*
X213376813Y-115074149D01*
X213190085Y-115170413D01*
X213024962Y-115300268D01*
X213024959Y-115300271D01*
X212887394Y-115459030D01*
X212887385Y-115459041D01*
X212782355Y-115640960D01*
X212782352Y-115640967D01*
X212713644Y-115839482D01*
X212713644Y-115839484D01*
X212712132Y-115850000D01*
X201322090Y-115850000D01*
X201799173Y-115372917D01*
X203071288Y-114100801D01*
X203083542Y-114090986D01*
X203083359Y-114090764D01*
X203089366Y-114085792D01*
X203089377Y-114085786D01*
X203127627Y-114045054D01*
X203136727Y-114035364D01*
X203147171Y-114024918D01*
X203157620Y-114014471D01*
X203161879Y-114008978D01*
X203165652Y-114004561D01*
X203197562Y-113970582D01*
X203207215Y-113953020D01*
X203217889Y-113936770D01*
X203230173Y-113920936D01*
X203248680Y-113878167D01*
X203251249Y-113872924D01*
X203273696Y-113832093D01*
X203273697Y-113832092D01*
X203278677Y-113812691D01*
X203284978Y-113794288D01*
X203292938Y-113775896D01*
X203300230Y-113729849D01*
X203301411Y-113724152D01*
X203313000Y-113679019D01*
X203313000Y-113658983D01*
X203314527Y-113639582D01*
X203317660Y-113619804D01*
X203313275Y-113573415D01*
X203313000Y-113567577D01*
X203313000Y-112347401D01*
X204283246Y-112347401D01*
X204293245Y-112557327D01*
X204342796Y-112761578D01*
X204342798Y-112761582D01*
X204430098Y-112952743D01*
X204430101Y-112952748D01*
X204430102Y-112952750D01*
X204430104Y-112952753D01*
X204493127Y-113041256D01*
X204552015Y-113123953D01*
X204552020Y-113123959D01*
X204704120Y-113268985D01*
X204799078Y-113330011D01*
X204880928Y-113382613D01*
X205076043Y-113460725D01*
X205179229Y-113480612D01*
X205282414Y-113500500D01*
X205282415Y-113500500D01*
X205439919Y-113500500D01*
X205439925Y-113500500D01*
X205596718Y-113485528D01*
X205798375Y-113426316D01*
X205985182Y-113330011D01*
X206150386Y-113200092D01*
X206288019Y-113041256D01*
X206393104Y-112859244D01*
X206461844Y-112660633D01*
X206491754Y-112452602D01*
X206486743Y-112347401D01*
X212383246Y-112347401D01*
X212393245Y-112557327D01*
X212442796Y-112761578D01*
X212442798Y-112761582D01*
X212530098Y-112952743D01*
X212530101Y-112952748D01*
X212530102Y-112952750D01*
X212530104Y-112952753D01*
X212593127Y-113041256D01*
X212652015Y-113123953D01*
X212652020Y-113123959D01*
X212804120Y-113268985D01*
X212899078Y-113330011D01*
X212980928Y-113382613D01*
X213176043Y-113460725D01*
X213279229Y-113480612D01*
X213382414Y-113500500D01*
X213382415Y-113500500D01*
X213539919Y-113500500D01*
X213539925Y-113500500D01*
X213696718Y-113485528D01*
X213898375Y-113426316D01*
X214085182Y-113330011D01*
X214250386Y-113200092D01*
X214388019Y-113041256D01*
X214493104Y-112859244D01*
X214561844Y-112660633D01*
X214591754Y-112452602D01*
X214589248Y-112400001D01*
X217032018Y-112400001D01*
X217051922Y-112678299D01*
X217091285Y-112859244D01*
X217111229Y-112950923D01*
X217171766Y-113113230D01*
X217208731Y-113212338D01*
X217208733Y-113212342D01*
X217342440Y-113457207D01*
X217342445Y-113457215D01*
X217509638Y-113680560D01*
X217509654Y-113680578D01*
X217706921Y-113877845D01*
X217706939Y-113877861D01*
X217930284Y-114045054D01*
X217930292Y-114045059D01*
X218175157Y-114178766D01*
X218175161Y-114178768D01*
X218175163Y-114178769D01*
X218436577Y-114276271D01*
X218572891Y-114305924D01*
X218709200Y-114335577D01*
X218709202Y-114335577D01*
X218709206Y-114335578D01*
X218917843Y-114350500D01*
X219057157Y-114350500D01*
X219265794Y-114335578D01*
X219538423Y-114276271D01*
X219799837Y-114178769D01*
X220044713Y-114045056D01*
X220268068Y-113877855D01*
X220465355Y-113680568D01*
X220632556Y-113457213D01*
X220766269Y-113212337D01*
X220863771Y-112950923D01*
X220923078Y-112678294D01*
X220942982Y-112400000D01*
X220923078Y-112121706D01*
X220904960Y-112038421D01*
X220863772Y-111849083D01*
X220863771Y-111849077D01*
X220766269Y-111587663D01*
X220673291Y-111417388D01*
X220632559Y-111342792D01*
X220632554Y-111342784D01*
X220465361Y-111119439D01*
X220465345Y-111119421D01*
X220268078Y-110922154D01*
X220268060Y-110922138D01*
X220044715Y-110754945D01*
X220044707Y-110754940D01*
X219799842Y-110621233D01*
X219799838Y-110621231D01*
X219700730Y-110584266D01*
X219538423Y-110523729D01*
X219538419Y-110523728D01*
X219538416Y-110523727D01*
X219265799Y-110464422D01*
X219057157Y-110449500D01*
X218917843Y-110449500D01*
X218709200Y-110464422D01*
X218436583Y-110523727D01*
X218436578Y-110523728D01*
X218436577Y-110523729D01*
X218373375Y-110547301D01*
X218175161Y-110621231D01*
X218175157Y-110621233D01*
X217930292Y-110754940D01*
X217930284Y-110754945D01*
X217706939Y-110922138D01*
X217706921Y-110922154D01*
X217509654Y-111119421D01*
X217509638Y-111119439D01*
X217342445Y-111342784D01*
X217342440Y-111342792D01*
X217208733Y-111587657D01*
X217208731Y-111587661D01*
X217111227Y-111849083D01*
X217051922Y-112121700D01*
X217032018Y-112399998D01*
X217032018Y-112400001D01*
X214589248Y-112400001D01*
X214581754Y-112242670D01*
X214532204Y-112038424D01*
X214532201Y-112038417D01*
X214444901Y-111847256D01*
X214444898Y-111847251D01*
X214444897Y-111847250D01*
X214444896Y-111847247D01*
X214322986Y-111676048D01*
X214322984Y-111676046D01*
X214322979Y-111676040D01*
X214170879Y-111531014D01*
X213994074Y-111417388D01*
X213798955Y-111339274D01*
X213592586Y-111299500D01*
X213592585Y-111299500D01*
X213435075Y-111299500D01*
X213278282Y-111314472D01*
X213278278Y-111314473D01*
X213076627Y-111373683D01*
X212889813Y-111469991D01*
X212724616Y-111599905D01*
X212724612Y-111599909D01*
X212586978Y-111758746D01*
X212481898Y-111940750D01*
X212413156Y-112139365D01*
X212413156Y-112139367D01*
X212398304Y-112242670D01*
X212383246Y-112347401D01*
X206486743Y-112347401D01*
X206481754Y-112242670D01*
X206432204Y-112038424D01*
X206432201Y-112038417D01*
X206344901Y-111847256D01*
X206344898Y-111847251D01*
X206344897Y-111847250D01*
X206344896Y-111847247D01*
X206222986Y-111676048D01*
X206222984Y-111676046D01*
X206222979Y-111676040D01*
X206070879Y-111531014D01*
X205894074Y-111417388D01*
X205698955Y-111339274D01*
X205492586Y-111299500D01*
X205492585Y-111299500D01*
X205335075Y-111299500D01*
X205178282Y-111314472D01*
X205178278Y-111314473D01*
X204976627Y-111373683D01*
X204789813Y-111469991D01*
X204624616Y-111599905D01*
X204624612Y-111599909D01*
X204486978Y-111758746D01*
X204381898Y-111940750D01*
X204313156Y-112139365D01*
X204313156Y-112139367D01*
X204298304Y-112242670D01*
X204283246Y-112347401D01*
X203313000Y-112347401D01*
X203313000Y-107910452D01*
X203332685Y-107843413D01*
X203349319Y-107822771D01*
X213135272Y-98036819D01*
X213196595Y-98003334D01*
X213222953Y-98000500D01*
X213282144Y-98000500D01*
X213282146Y-98000500D01*
X213467303Y-97961144D01*
X213640230Y-97884151D01*
X213793371Y-97772888D01*
X213920033Y-97632216D01*
X214014679Y-97468284D01*
X214073174Y-97288256D01*
X214092960Y-97100000D01*
X214073174Y-96911744D01*
X214014679Y-96731716D01*
X213920033Y-96567784D01*
X213793371Y-96427112D01*
X213775072Y-96413817D01*
X213640234Y-96315851D01*
X213640230Y-96315849D01*
X213608547Y-96301742D01*
X213555313Y-96256495D01*
X213534991Y-96189646D01*
X213554036Y-96122422D01*
X213571299Y-96100789D01*
X217634271Y-92037819D01*
X217695594Y-92004334D01*
X217721952Y-92001500D01*
X218439700Y-92001500D01*
X218506739Y-92021185D01*
X218541275Y-92054376D01*
X218636674Y-92190620D01*
X218636675Y-92190621D01*
X218792878Y-92346824D01*
X218792884Y-92346829D01*
X218973833Y-92473531D01*
X218973835Y-92473532D01*
X218973838Y-92473534D01*
X219037687Y-92503307D01*
X219102689Y-92533618D01*
X219155128Y-92579790D01*
X219174280Y-92646984D01*
X219154064Y-92713865D01*
X219102689Y-92758382D01*
X218973840Y-92818465D01*
X218973838Y-92818466D01*
X218792877Y-92945175D01*
X218636675Y-93101377D01*
X218509966Y-93282338D01*
X218509965Y-93282340D01*
X218478182Y-93350500D01*
X218419894Y-93475500D01*
X218416607Y-93482548D01*
X218416604Y-93482554D01*
X218359430Y-93695929D01*
X218359429Y-93695937D01*
X218340177Y-93915997D01*
X218340177Y-93916002D01*
X218359429Y-94136062D01*
X218359430Y-94136070D01*
X218416604Y-94349445D01*
X218416605Y-94349447D01*
X218416606Y-94349450D01*
X218472016Y-94468277D01*
X218509966Y-94549662D01*
X218509968Y-94549666D01*
X218636670Y-94730615D01*
X218636675Y-94730621D01*
X218792878Y-94886824D01*
X218792884Y-94886829D01*
X218973833Y-95013531D01*
X218973835Y-95013532D01*
X218973838Y-95013534D01*
X219093248Y-95069215D01*
X219102689Y-95073618D01*
X219155128Y-95119790D01*
X219174280Y-95186984D01*
X219154064Y-95253865D01*
X219102689Y-95298382D01*
X218973840Y-95358465D01*
X218973838Y-95358466D01*
X218792877Y-95485175D01*
X218636675Y-95641377D01*
X218509966Y-95822338D01*
X218509965Y-95822340D01*
X218416607Y-96022548D01*
X218416604Y-96022554D01*
X218359430Y-96235929D01*
X218359429Y-96235937D01*
X218340177Y-96455997D01*
X218340177Y-96456002D01*
X218359429Y-96676062D01*
X218359430Y-96676070D01*
X218416604Y-96889445D01*
X218416605Y-96889447D01*
X218416606Y-96889450D01*
X218451983Y-96965316D01*
X218509966Y-97089662D01*
X218509968Y-97089666D01*
X218636670Y-97270615D01*
X218636675Y-97270621D01*
X218792878Y-97426824D01*
X218792884Y-97426829D01*
X218973833Y-97553531D01*
X218973835Y-97553532D01*
X218973838Y-97553534D01*
X219027552Y-97578581D01*
X219102689Y-97613618D01*
X219155128Y-97659790D01*
X219174280Y-97726984D01*
X219154064Y-97793865D01*
X219102689Y-97838382D01*
X218973840Y-97898465D01*
X218973838Y-97898466D01*
X218792877Y-98025175D01*
X218636675Y-98181377D01*
X218509966Y-98362338D01*
X218509965Y-98362340D01*
X218481803Y-98422735D01*
X218422226Y-98550499D01*
X218416607Y-98562548D01*
X218416604Y-98562554D01*
X218359430Y-98775929D01*
X218359429Y-98775937D01*
X218340177Y-98995997D01*
X218340177Y-98996002D01*
X218359429Y-99216062D01*
X218359430Y-99216070D01*
X218416604Y-99429445D01*
X218416605Y-99429447D01*
X218416606Y-99429450D01*
X218482382Y-99570507D01*
X218509966Y-99629662D01*
X218509968Y-99629666D01*
X218636670Y-99810615D01*
X218636675Y-99810621D01*
X218792878Y-99966824D01*
X218792884Y-99966829D01*
X218973833Y-100093531D01*
X218973835Y-100093532D01*
X218973838Y-100093534D01*
X219174050Y-100186894D01*
X219387432Y-100244070D01*
X219544623Y-100257822D01*
X219607498Y-100263323D01*
X219607500Y-100263323D01*
X219607502Y-100263323D01*
X219662517Y-100258509D01*
X219827568Y-100244070D01*
X220040950Y-100186894D01*
X220241162Y-100093534D01*
X220422120Y-99966826D01*
X220578326Y-99810620D01*
X220705034Y-99629662D01*
X220798394Y-99429450D01*
X220818225Y-99355439D01*
X220854590Y-99295780D01*
X220917437Y-99265251D01*
X220986813Y-99273546D01*
X221040690Y-99318031D01*
X221061965Y-99384583D01*
X221062000Y-99387534D01*
X221062000Y-100517255D01*
X221060275Y-100532872D01*
X221060561Y-100532899D01*
X221059826Y-100540665D01*
X221062000Y-100609814D01*
X221062000Y-100639343D01*
X221062001Y-100639360D01*
X221062868Y-100646231D01*
X221063326Y-100652050D01*
X221064790Y-100698624D01*
X221064791Y-100698627D01*
X221070380Y-100717867D01*
X221074324Y-100736911D01*
X221076836Y-100756792D01*
X221092465Y-100796268D01*
X221093990Y-100800119D01*
X221095882Y-100805647D01*
X221108881Y-100850388D01*
X221119080Y-100867634D01*
X221127638Y-100885103D01*
X221135014Y-100903732D01*
X221162398Y-100941423D01*
X221165606Y-100946307D01*
X221189327Y-100986416D01*
X221189333Y-100986424D01*
X221203490Y-101000580D01*
X221216127Y-101015375D01*
X221227906Y-101031587D01*
X221263042Y-101060654D01*
X221263809Y-101061288D01*
X221268120Y-101065210D01*
X221400391Y-101197481D01*
X221525681Y-101322771D01*
X221559166Y-101384094D01*
X221562000Y-101410452D01*
X221562000Y-114789547D01*
X221542315Y-114856586D01*
X221525681Y-114877228D01*
X219239728Y-117163181D01*
X219178405Y-117196666D01*
X219152047Y-117199500D01*
X218735075Y-117199500D01*
X218578282Y-117214472D01*
X218578278Y-117214473D01*
X218376627Y-117273683D01*
X218189813Y-117369991D01*
X218024616Y-117499905D01*
X218024612Y-117499909D01*
X217886978Y-117658746D01*
X217781898Y-117840750D01*
X217713156Y-118039365D01*
X217713156Y-118039367D01*
X217694655Y-118168050D01*
X217683246Y-118247401D01*
X217693245Y-118457327D01*
X217742796Y-118661578D01*
X217742798Y-118661582D01*
X217830098Y-118852743D01*
X217830101Y-118852748D01*
X217830102Y-118852750D01*
X217830104Y-118852753D01*
X217952014Y-119023952D01*
X217952015Y-119023953D01*
X217952020Y-119023959D01*
X218104120Y-119168985D01*
X218199078Y-119230011D01*
X218280928Y-119282613D01*
X218476043Y-119360725D01*
X218579229Y-119380612D01*
X218682414Y-119400500D01*
X218682415Y-119400500D01*
X219239919Y-119400500D01*
X219239925Y-119400500D01*
X219396718Y-119385528D01*
X219598375Y-119326316D01*
X219785182Y-119230011D01*
X219950386Y-119100092D01*
X220088019Y-118941256D01*
X220096121Y-118927224D01*
X220193101Y-118759249D01*
X220193100Y-118759249D01*
X220193104Y-118759244D01*
X220261844Y-118560633D01*
X220291754Y-118352602D01*
X220281754Y-118142670D01*
X220248906Y-118007271D01*
X220252231Y-117937483D01*
X220281728Y-117890360D01*
X222322089Y-115850000D01*
X231712132Y-115850000D01*
X232471814Y-115850000D01*
X232459859Y-115861955D01*
X232402335Y-115974852D01*
X232382514Y-116100000D01*
X232402335Y-116225148D01*
X232459859Y-116338045D01*
X232471814Y-116350000D01*
X231716242Y-116350000D01*
X231743270Y-116461409D01*
X231830540Y-116652507D01*
X231952389Y-116823619D01*
X231952395Y-116823625D01*
X232104432Y-116968592D01*
X232281157Y-117082166D01*
X232476185Y-117160244D01*
X232682462Y-117200000D01*
X232737500Y-117200000D01*
X232737500Y-116497066D01*
X232756019Y-116500000D01*
X233218981Y-116500000D01*
X233237500Y-116497066D01*
X233237500Y-117200000D01*
X233239898Y-117200000D01*
X233396622Y-117185034D01*
X233396626Y-117185033D01*
X233598186Y-117125850D01*
X233784914Y-117029586D01*
X233950037Y-116899731D01*
X233950040Y-116899728D01*
X234087605Y-116740969D01*
X234087614Y-116740958D01*
X234192644Y-116559039D01*
X234192647Y-116559032D01*
X234261355Y-116360517D01*
X234261355Y-116360515D01*
X234262868Y-116350000D01*
X233503186Y-116350000D01*
X233515141Y-116338045D01*
X233572665Y-116225148D01*
X233592486Y-116100000D01*
X233572665Y-115974852D01*
X233515141Y-115861955D01*
X233503186Y-115850000D01*
X234258757Y-115850000D01*
X234231729Y-115738590D01*
X234144459Y-115547492D01*
X234022610Y-115376380D01*
X234022604Y-115376374D01*
X233870567Y-115231407D01*
X233693842Y-115117833D01*
X233498814Y-115039755D01*
X233292538Y-115000000D01*
X233237500Y-115000000D01*
X233237500Y-115702933D01*
X233218981Y-115700000D01*
X232756019Y-115700000D01*
X232737500Y-115702933D01*
X232737500Y-115000000D01*
X232735102Y-115000000D01*
X232578377Y-115014965D01*
X232578373Y-115014966D01*
X232376813Y-115074149D01*
X232190085Y-115170413D01*
X232024962Y-115300268D01*
X232024959Y-115300271D01*
X231887394Y-115459030D01*
X231887385Y-115459041D01*
X231782355Y-115640960D01*
X231782352Y-115640967D01*
X231713644Y-115839482D01*
X231713644Y-115839484D01*
X231712132Y-115850000D01*
X222322089Y-115850000D01*
X222571288Y-115600801D01*
X222583542Y-115590986D01*
X222583359Y-115590764D01*
X222589366Y-115585792D01*
X222589377Y-115585786D01*
X222625337Y-115547492D01*
X222636727Y-115535364D01*
X222647171Y-115524918D01*
X222657620Y-115514471D01*
X222661879Y-115508978D01*
X222665652Y-115504561D01*
X222697562Y-115470582D01*
X222707213Y-115453024D01*
X222717896Y-115436761D01*
X222730173Y-115420936D01*
X222748685Y-115378153D01*
X222751238Y-115372941D01*
X222773697Y-115332092D01*
X222778680Y-115312680D01*
X222784981Y-115294280D01*
X222792937Y-115275896D01*
X222800229Y-115229852D01*
X222801406Y-115224171D01*
X222813000Y-115179019D01*
X222813000Y-115158983D01*
X222814527Y-115139582D01*
X222817660Y-115119804D01*
X222813275Y-115073415D01*
X222813000Y-115067577D01*
X222813000Y-112347401D01*
X223383246Y-112347401D01*
X223393245Y-112557327D01*
X223442796Y-112761578D01*
X223442798Y-112761582D01*
X223530098Y-112952743D01*
X223530101Y-112952748D01*
X223530102Y-112952750D01*
X223530104Y-112952753D01*
X223593127Y-113041256D01*
X223652015Y-113123953D01*
X223652020Y-113123959D01*
X223804120Y-113268985D01*
X223899078Y-113330011D01*
X223980928Y-113382613D01*
X224176043Y-113460725D01*
X224279229Y-113480612D01*
X224382414Y-113500500D01*
X224382415Y-113500500D01*
X224539919Y-113500500D01*
X224539925Y-113500500D01*
X224696718Y-113485528D01*
X224898375Y-113426316D01*
X225085182Y-113330011D01*
X225250386Y-113200092D01*
X225388019Y-113041256D01*
X225493104Y-112859244D01*
X225561844Y-112660633D01*
X225591754Y-112452602D01*
X225586743Y-112347401D01*
X231383246Y-112347401D01*
X231393245Y-112557327D01*
X231442796Y-112761578D01*
X231442798Y-112761582D01*
X231530098Y-112952743D01*
X231530101Y-112952748D01*
X231530102Y-112952750D01*
X231530104Y-112952753D01*
X231593127Y-113041256D01*
X231652015Y-113123953D01*
X231652020Y-113123959D01*
X231804120Y-113268985D01*
X231899078Y-113330011D01*
X231980928Y-113382613D01*
X232176043Y-113460725D01*
X232279229Y-113480612D01*
X232382414Y-113500500D01*
X232382415Y-113500500D01*
X232539919Y-113500500D01*
X232539925Y-113500500D01*
X232696718Y-113485528D01*
X232898375Y-113426316D01*
X233085182Y-113330011D01*
X233250386Y-113200092D01*
X233388019Y-113041256D01*
X233493104Y-112859244D01*
X233561844Y-112660633D01*
X233591754Y-112452602D01*
X233581754Y-112242670D01*
X233532204Y-112038424D01*
X233532201Y-112038417D01*
X233444901Y-111847256D01*
X233444898Y-111847251D01*
X233444897Y-111847250D01*
X233444896Y-111847247D01*
X233322986Y-111676048D01*
X233322984Y-111676046D01*
X233322979Y-111676040D01*
X233170879Y-111531014D01*
X232994074Y-111417388D01*
X232798955Y-111339274D01*
X232592586Y-111299500D01*
X232592585Y-111299500D01*
X232435075Y-111299500D01*
X232278282Y-111314472D01*
X232278278Y-111314473D01*
X232076627Y-111373683D01*
X231889813Y-111469991D01*
X231724616Y-111599905D01*
X231724612Y-111599909D01*
X231586978Y-111758746D01*
X231481898Y-111940750D01*
X231413156Y-112139365D01*
X231413156Y-112139367D01*
X231398304Y-112242670D01*
X231383246Y-112347401D01*
X225586743Y-112347401D01*
X225581754Y-112242670D01*
X225532204Y-112038424D01*
X225532201Y-112038417D01*
X225444901Y-111847256D01*
X225444898Y-111847251D01*
X225444897Y-111847250D01*
X225444896Y-111847247D01*
X225322986Y-111676048D01*
X225322984Y-111676046D01*
X225322979Y-111676040D01*
X225170879Y-111531014D01*
X224994074Y-111417388D01*
X224798955Y-111339274D01*
X224592586Y-111299500D01*
X224592585Y-111299500D01*
X224435075Y-111299500D01*
X224278282Y-111314472D01*
X224278278Y-111314473D01*
X224076627Y-111373683D01*
X223889813Y-111469991D01*
X223724616Y-111599905D01*
X223724612Y-111599909D01*
X223586978Y-111758746D01*
X223481898Y-111940750D01*
X223413156Y-112139365D01*
X223413156Y-112139367D01*
X223398304Y-112242670D01*
X223383246Y-112347401D01*
X222813000Y-112347401D01*
X222813000Y-101182742D01*
X222814724Y-101167122D01*
X222814439Y-101167096D01*
X222815171Y-101159340D01*
X222815173Y-101159333D01*
X222813000Y-101090185D01*
X222813000Y-101060650D01*
X222812131Y-101053772D01*
X222811672Y-101047943D01*
X222810209Y-101001372D01*
X222804622Y-100982144D01*
X222800674Y-100963084D01*
X222798163Y-100943204D01*
X222781012Y-100899887D01*
X222779119Y-100894358D01*
X222766118Y-100849609D01*
X222766116Y-100849606D01*
X222755923Y-100832371D01*
X222747361Y-100814894D01*
X222739987Y-100796270D01*
X222739986Y-100796268D01*
X222712579Y-100758545D01*
X222709388Y-100753686D01*
X222685672Y-100713583D01*
X222685665Y-100713574D01*
X222671506Y-100699415D01*
X222658868Y-100684619D01*
X222647094Y-100668413D01*
X222627314Y-100652050D01*
X222611188Y-100638709D01*
X222606876Y-100634786D01*
X222349319Y-100377228D01*
X222315834Y-100315905D01*
X222313000Y-100289547D01*
X222313000Y-100084994D01*
X222332685Y-100017955D01*
X222385489Y-99972200D01*
X222454647Y-99962256D01*
X222518203Y-99991281D01*
X222544386Y-100022993D01*
X222577564Y-100080459D01*
X222676370Y-100251597D01*
X222885084Y-100531949D01*
X222885089Y-100531955D01*
X222985807Y-100638709D01*
X223124942Y-100786183D01*
X223265032Y-100903732D01*
X223392686Y-101010847D01*
X223392694Y-101010853D01*
X223684703Y-101202911D01*
X223684707Y-101202913D01*
X223997049Y-101359777D01*
X224325489Y-101479319D01*
X224665586Y-101559923D01*
X225012741Y-101600500D01*
X225012748Y-101600500D01*
X225362252Y-101600500D01*
X225362259Y-101600500D01*
X225709414Y-101559923D01*
X226049511Y-101479319D01*
X226377951Y-101359777D01*
X226690293Y-101202913D01*
X226861687Y-101090185D01*
X226982305Y-101010853D01*
X226982305Y-101010852D01*
X226982311Y-101010849D01*
X227250058Y-100786183D01*
X227489912Y-100531953D01*
X227698630Y-100251596D01*
X227873389Y-99948904D01*
X228011826Y-99627971D01*
X228112069Y-99293136D01*
X228115524Y-99273546D01*
X228172760Y-98948938D01*
X228172759Y-98948938D01*
X228172762Y-98948927D01*
X228192428Y-98611282D01*
X228193085Y-98600003D01*
X228193085Y-98599996D01*
X228182760Y-98422735D01*
X228172762Y-98251073D01*
X228170799Y-98239938D01*
X228112071Y-97906872D01*
X228112069Y-97906865D01*
X228109555Y-97898466D01*
X228011826Y-97572029D01*
X227873389Y-97251096D01*
X227753844Y-97044037D01*
X227698629Y-96948402D01*
X227489915Y-96668050D01*
X227489910Y-96668044D01*
X227325514Y-96493796D01*
X227250058Y-96413817D01*
X227053192Y-96248627D01*
X226982313Y-96189152D01*
X226982305Y-96189146D01*
X226690296Y-95997088D01*
X226377958Y-95840226D01*
X226377952Y-95840223D01*
X226049512Y-95720681D01*
X226049509Y-95720680D01*
X225709415Y-95640077D01*
X225661084Y-95634428D01*
X225362259Y-95599500D01*
X225012741Y-95599500D01*
X224713916Y-95634428D01*
X224665585Y-95640077D01*
X224665583Y-95640077D01*
X224325490Y-95720680D01*
X224325487Y-95720681D01*
X223997047Y-95840223D01*
X223997041Y-95840226D01*
X223684703Y-95997088D01*
X223392694Y-96189146D01*
X223392686Y-96189152D01*
X223124942Y-96413817D01*
X223124940Y-96413819D01*
X222885089Y-96668044D01*
X222885084Y-96668050D01*
X222676370Y-96948402D01*
X222544387Y-97177005D01*
X222493820Y-97225221D01*
X222425213Y-97238444D01*
X222360348Y-97212476D01*
X222319820Y-97155561D01*
X222313000Y-97115005D01*
X222313000Y-96078737D01*
X222314724Y-96063123D01*
X222314438Y-96063096D01*
X222315172Y-96055333D01*
X222313000Y-95986203D01*
X222313000Y-95956651D01*
X222313000Y-95956650D01*
X222312129Y-95949759D01*
X222311672Y-95943945D01*
X222310209Y-95897372D01*
X222304622Y-95878144D01*
X222300674Y-95859084D01*
X222299527Y-95850000D01*
X222298164Y-95839208D01*
X222281007Y-95795875D01*
X222279119Y-95790359D01*
X222266119Y-95745612D01*
X222255918Y-95728363D01*
X222247360Y-95710894D01*
X222239986Y-95692268D01*
X222239983Y-95692264D01*
X222239983Y-95692263D01*
X222212598Y-95654571D01*
X222209390Y-95649687D01*
X222185672Y-95609582D01*
X222185663Y-95609571D01*
X222171505Y-95595413D01*
X222158870Y-95580620D01*
X222149482Y-95567700D01*
X222147094Y-95564413D01*
X222146914Y-95564264D01*
X222111193Y-95534713D01*
X222106881Y-95530790D01*
X220875886Y-94299795D01*
X220842401Y-94238472D01*
X220843793Y-94180018D01*
X220845378Y-94174105D01*
X220855570Y-94136068D01*
X220873114Y-93935532D01*
X220874823Y-93916002D01*
X220874823Y-93915997D01*
X220858701Y-93731722D01*
X220855570Y-93695932D01*
X220798394Y-93482550D01*
X220705034Y-93282339D01*
X220641680Y-93191859D01*
X220578327Y-93101381D01*
X220503397Y-93026451D01*
X220422120Y-92945174D01*
X220422116Y-92945171D01*
X220422115Y-92945170D01*
X220241166Y-92818468D01*
X220241158Y-92818464D01*
X220112311Y-92758382D01*
X220059871Y-92712210D01*
X220040719Y-92645017D01*
X220060935Y-92578135D01*
X220112311Y-92533618D01*
X220157043Y-92512759D01*
X220241162Y-92473534D01*
X220422120Y-92346826D01*
X220578326Y-92190620D01*
X220705034Y-92009662D01*
X220798394Y-91809450D01*
X220855570Y-91596068D01*
X220874823Y-91376000D01*
X220868424Y-91302863D01*
X220863378Y-91245183D01*
X220855570Y-91155932D01*
X220798394Y-90942550D01*
X220705034Y-90742339D01*
X220578326Y-90561380D01*
X220422120Y-90405174D01*
X220422116Y-90405171D01*
X220422115Y-90405170D01*
X220241166Y-90278468D01*
X220241158Y-90278464D01*
X220112311Y-90218382D01*
X220059871Y-90172210D01*
X220040719Y-90105017D01*
X220060935Y-90038135D01*
X220112311Y-89993618D01*
X220118302Y-89990824D01*
X220241162Y-89933534D01*
X220422120Y-89806826D01*
X220578326Y-89650620D01*
X220673725Y-89514376D01*
X220728302Y-89470752D01*
X220775300Y-89461500D01*
X226113048Y-89461500D01*
X226180087Y-89481185D01*
X226200729Y-89497819D01*
X234525681Y-97822771D01*
X234559166Y-97884094D01*
X234562000Y-97910452D01*
X234562000Y-115417255D01*
X234560275Y-115432872D01*
X234560561Y-115432899D01*
X234559826Y-115440665D01*
X234562000Y-115509814D01*
X234562000Y-115539343D01*
X234562001Y-115539360D01*
X234562868Y-115546231D01*
X234563326Y-115552050D01*
X234564790Y-115598624D01*
X234564791Y-115598627D01*
X234570380Y-115617867D01*
X234574324Y-115636911D01*
X234574837Y-115640967D01*
X234576836Y-115656791D01*
X234593990Y-115700119D01*
X234595882Y-115705647D01*
X234608881Y-115750388D01*
X234619080Y-115767634D01*
X234627638Y-115785103D01*
X234635014Y-115803732D01*
X234662398Y-115841423D01*
X234665606Y-115846307D01*
X234689327Y-115886416D01*
X234689333Y-115886424D01*
X234703490Y-115900580D01*
X234716128Y-115915376D01*
X234727905Y-115931586D01*
X234727906Y-115931587D01*
X234763809Y-115961288D01*
X234768120Y-115965210D01*
X236233923Y-117431014D01*
X236691468Y-117888559D01*
X236724953Y-117949882D01*
X236720968Y-118016793D01*
X236713157Y-118039363D01*
X236713156Y-118039363D01*
X236683246Y-118247401D01*
X236693245Y-118457327D01*
X236742796Y-118661578D01*
X236742798Y-118661582D01*
X236830098Y-118852743D01*
X236830101Y-118852748D01*
X236830102Y-118852750D01*
X236830104Y-118852753D01*
X236952014Y-119023952D01*
X236952015Y-119023953D01*
X236952020Y-119023959D01*
X237104120Y-119168985D01*
X237199078Y-119230011D01*
X237280928Y-119282613D01*
X237476043Y-119360725D01*
X237579229Y-119380612D01*
X237682414Y-119400500D01*
X237682415Y-119400500D01*
X238239919Y-119400500D01*
X238239925Y-119400500D01*
X238396718Y-119385528D01*
X238598375Y-119326316D01*
X238785182Y-119230011D01*
X238950386Y-119100092D01*
X239088019Y-118941256D01*
X239096121Y-118927224D01*
X239193101Y-118759249D01*
X239193100Y-118759249D01*
X239193104Y-118759244D01*
X239261844Y-118560633D01*
X239291754Y-118352602D01*
X239281754Y-118142670D01*
X239232204Y-117938424D01*
X239231774Y-117937483D01*
X239144901Y-117747256D01*
X239144898Y-117747251D01*
X239144897Y-117747250D01*
X239144896Y-117747247D01*
X239022986Y-117576048D01*
X239022984Y-117576046D01*
X239022979Y-117576040D01*
X238870879Y-117431014D01*
X238694074Y-117317388D01*
X238694069Y-117317386D01*
X238583003Y-117272922D01*
X238498955Y-117239274D01*
X238292586Y-117199500D01*
X238292585Y-117199500D01*
X237822952Y-117199500D01*
X237755913Y-117179815D01*
X237735271Y-117163181D01*
X235849319Y-115277228D01*
X235815834Y-115215905D01*
X235813000Y-115189547D01*
X235813000Y-112733358D01*
X235832685Y-112666319D01*
X235885489Y-112620564D01*
X235954647Y-112610620D01*
X236018203Y-112639645D01*
X236055977Y-112698423D01*
X236058166Y-112707000D01*
X236070039Y-112761578D01*
X236111229Y-112950923D01*
X236171766Y-113113230D01*
X236208731Y-113212338D01*
X236208733Y-113212342D01*
X236342440Y-113457207D01*
X236342445Y-113457215D01*
X236509638Y-113680560D01*
X236509654Y-113680578D01*
X236706921Y-113877845D01*
X236706939Y-113877861D01*
X236930284Y-114045054D01*
X236930292Y-114045059D01*
X237175157Y-114178766D01*
X237175161Y-114178768D01*
X237175163Y-114178769D01*
X237436577Y-114276271D01*
X237572891Y-114305924D01*
X237709200Y-114335577D01*
X237709202Y-114335577D01*
X237709206Y-114335578D01*
X237917843Y-114350500D01*
X238057157Y-114350500D01*
X238265794Y-114335578D01*
X238538423Y-114276271D01*
X238799837Y-114178769D01*
X239044713Y-114045056D01*
X239268068Y-113877855D01*
X239465355Y-113680568D01*
X239632556Y-113457213D01*
X239766269Y-113212337D01*
X239863771Y-112950923D01*
X239923078Y-112678294D01*
X239942982Y-112400000D01*
X239939220Y-112347401D01*
X242383246Y-112347401D01*
X242393245Y-112557327D01*
X242442796Y-112761578D01*
X242442798Y-112761582D01*
X242530098Y-112952743D01*
X242530101Y-112952748D01*
X242530102Y-112952750D01*
X242530104Y-112952753D01*
X242593127Y-113041256D01*
X242652015Y-113123953D01*
X242652020Y-113123959D01*
X242804120Y-113268985D01*
X242899078Y-113330011D01*
X242980928Y-113382613D01*
X243176043Y-113460725D01*
X243279229Y-113480612D01*
X243382414Y-113500500D01*
X243382415Y-113500500D01*
X243539919Y-113500500D01*
X243539925Y-113500500D01*
X243696718Y-113485528D01*
X243898375Y-113426316D01*
X244085182Y-113330011D01*
X244250386Y-113200092D01*
X244388019Y-113041256D01*
X244493104Y-112859244D01*
X244561844Y-112660633D01*
X244591754Y-112452602D01*
X244581754Y-112242670D01*
X244532204Y-112038424D01*
X244532201Y-112038417D01*
X244444901Y-111847256D01*
X244444898Y-111847251D01*
X244444897Y-111847250D01*
X244444896Y-111847247D01*
X244322986Y-111676048D01*
X244322984Y-111676046D01*
X244322979Y-111676040D01*
X244170879Y-111531014D01*
X243994074Y-111417388D01*
X243798955Y-111339274D01*
X243592586Y-111299500D01*
X243592585Y-111299500D01*
X243435075Y-111299500D01*
X243278282Y-111314472D01*
X243278278Y-111314473D01*
X243076627Y-111373683D01*
X242889813Y-111469991D01*
X242724616Y-111599905D01*
X242724612Y-111599909D01*
X242586978Y-111758746D01*
X242481898Y-111940750D01*
X242413156Y-112139365D01*
X242413156Y-112139367D01*
X242398304Y-112242670D01*
X242383246Y-112347401D01*
X239939220Y-112347401D01*
X239923078Y-112121706D01*
X239904960Y-112038421D01*
X239863772Y-111849083D01*
X239863771Y-111849077D01*
X239766269Y-111587663D01*
X239673291Y-111417388D01*
X239632559Y-111342792D01*
X239632554Y-111342784D01*
X239465361Y-111119439D01*
X239465345Y-111119421D01*
X239268078Y-110922154D01*
X239268060Y-110922138D01*
X239044715Y-110754945D01*
X239044707Y-110754940D01*
X238799842Y-110621233D01*
X238799838Y-110621231D01*
X238700730Y-110584266D01*
X238538423Y-110523729D01*
X238538419Y-110523728D01*
X238538416Y-110523727D01*
X238265799Y-110464422D01*
X238057157Y-110449500D01*
X237917843Y-110449500D01*
X237709200Y-110464422D01*
X237436583Y-110523727D01*
X237436578Y-110523728D01*
X237436577Y-110523729D01*
X237373375Y-110547301D01*
X237175161Y-110621231D01*
X237175157Y-110621233D01*
X236930292Y-110754940D01*
X236930284Y-110754945D01*
X236706939Y-110922138D01*
X236706921Y-110922154D01*
X236509654Y-111119421D01*
X236509638Y-111119439D01*
X236342445Y-111342784D01*
X236342440Y-111342792D01*
X236208733Y-111587657D01*
X236208731Y-111587661D01*
X236111227Y-111849083D01*
X236058166Y-112092999D01*
X236024681Y-112154322D01*
X235963358Y-112187807D01*
X235893666Y-112182823D01*
X235837733Y-112140951D01*
X235813316Y-112075487D01*
X235813000Y-112066641D01*
X235813000Y-99100005D01*
X253231857Y-99100005D01*
X253252390Y-99347812D01*
X253252392Y-99347824D01*
X253313436Y-99588881D01*
X253413326Y-99816606D01*
X253549333Y-100024782D01*
X253549336Y-100024785D01*
X253717756Y-100207738D01*
X253913991Y-100360474D01*
X253913993Y-100360475D01*
X254131832Y-100478364D01*
X254132690Y-100478828D01*
X254312815Y-100540665D01*
X254366464Y-100559083D01*
X254367886Y-100559571D01*
X254613165Y-100600500D01*
X254861835Y-100600500D01*
X255107114Y-100559571D01*
X255342310Y-100478828D01*
X255561009Y-100360474D01*
X255757244Y-100207738D01*
X255925664Y-100024785D01*
X256061673Y-99816607D01*
X256161563Y-99588881D01*
X256222608Y-99347821D01*
X256223181Y-99340909D01*
X256243143Y-99100005D01*
X259732359Y-99100005D01*
X259752885Y-99347729D01*
X259752887Y-99347738D01*
X259813912Y-99588717D01*
X259913766Y-99816364D01*
X260014064Y-99969882D01*
X260634952Y-99348993D01*
X260644688Y-99378956D01*
X260732686Y-99517619D01*
X260852403Y-99630040D01*
X260987010Y-99704041D01*
X260367442Y-100323609D01*
X260414268Y-100360055D01*
X260414270Y-100360056D01*
X260632885Y-100478364D01*
X260632896Y-100478369D01*
X260868006Y-100559083D01*
X261113207Y-100600000D01*
X261361793Y-100600000D01*
X261606993Y-100559083D01*
X261842103Y-100478369D01*
X261842114Y-100478364D01*
X262060728Y-100360057D01*
X262060731Y-100360055D01*
X262107556Y-100323609D01*
X261485033Y-99701086D01*
X261553129Y-99674126D01*
X261685992Y-99577595D01*
X261790675Y-99451055D01*
X261839131Y-99348079D01*
X262460934Y-99969882D01*
X262561231Y-99816369D01*
X262661087Y-99588717D01*
X262722112Y-99347738D01*
X262722114Y-99347729D01*
X262742641Y-99100005D01*
X262742641Y-99099994D01*
X262722114Y-98852270D01*
X262722112Y-98852261D01*
X262661087Y-98611282D01*
X262561231Y-98383630D01*
X262460934Y-98230116D01*
X261840046Y-98851004D01*
X261830312Y-98821044D01*
X261742314Y-98682381D01*
X261622597Y-98569960D01*
X261487989Y-98495958D01*
X262107557Y-97876390D01*
X262107556Y-97876389D01*
X262060729Y-97839943D01*
X261842114Y-97721635D01*
X261842103Y-97721630D01*
X261606993Y-97640916D01*
X261361793Y-97600000D01*
X261113207Y-97600000D01*
X260868006Y-97640916D01*
X260632896Y-97721630D01*
X260632890Y-97721632D01*
X260414261Y-97839949D01*
X260367442Y-97876388D01*
X260367442Y-97876390D01*
X260989965Y-98498913D01*
X260921871Y-98525874D01*
X260789008Y-98622405D01*
X260684325Y-98748945D01*
X260635868Y-98851920D01*
X260014064Y-98230116D01*
X259913767Y-98383632D01*
X259813912Y-98611282D01*
X259752887Y-98852261D01*
X259752885Y-98852270D01*
X259732359Y-99099994D01*
X259732359Y-99100005D01*
X256243143Y-99100005D01*
X256243143Y-99099994D01*
X256222609Y-98852187D01*
X256222607Y-98852175D01*
X256161563Y-98611118D01*
X256061673Y-98383393D01*
X255925666Y-98175217D01*
X255890313Y-98136814D01*
X255757244Y-97992262D01*
X255561009Y-97839526D01*
X255561007Y-97839525D01*
X255561006Y-97839524D01*
X255342311Y-97721172D01*
X255342302Y-97721169D01*
X255107116Y-97640429D01*
X254861835Y-97599500D01*
X254613165Y-97599500D01*
X254367883Y-97640429D01*
X254132697Y-97721169D01*
X254132688Y-97721172D01*
X253913993Y-97839524D01*
X253717757Y-97992261D01*
X253549333Y-98175217D01*
X253413326Y-98383393D01*
X253313436Y-98611118D01*
X253252392Y-98852175D01*
X253252390Y-98852187D01*
X253231857Y-99099994D01*
X253231857Y-99100005D01*
X235813000Y-99100005D01*
X235813000Y-97682742D01*
X235814724Y-97667122D01*
X235814439Y-97667095D01*
X235815173Y-97659333D01*
X235813000Y-97590172D01*
X235813000Y-97560656D01*
X235813000Y-97560650D01*
X235812131Y-97553779D01*
X235811673Y-97547952D01*
X235811468Y-97541422D01*
X235810210Y-97501373D01*
X235804619Y-97482130D01*
X235800673Y-97463078D01*
X235798164Y-97443208D01*
X235781004Y-97399867D01*
X235779124Y-97394379D01*
X235766118Y-97349610D01*
X235755922Y-97332370D01*
X235747361Y-97314894D01*
X235739987Y-97296270D01*
X235739986Y-97296268D01*
X235712579Y-97258545D01*
X235709388Y-97253686D01*
X235707856Y-97251096D01*
X235685670Y-97213580D01*
X235685668Y-97213578D01*
X235685665Y-97213574D01*
X235671506Y-97199415D01*
X235658868Y-97184619D01*
X235653336Y-97177005D01*
X235647094Y-97168413D01*
X235642546Y-97164651D01*
X235611188Y-97138709D01*
X235606876Y-97134786D01*
X230322096Y-91850005D01*
X254181857Y-91850005D01*
X254202390Y-92097812D01*
X254202392Y-92097824D01*
X254263436Y-92338881D01*
X254363326Y-92566606D01*
X254499333Y-92774782D01*
X254499336Y-92774785D01*
X254667756Y-92957738D01*
X254863991Y-93110474D01*
X255082690Y-93228828D01*
X255317886Y-93309571D01*
X255563165Y-93350500D01*
X255811835Y-93350500D01*
X256057114Y-93309571D01*
X256292310Y-93228828D01*
X256511009Y-93110474D01*
X256707244Y-92957738D01*
X256875664Y-92774785D01*
X257011673Y-92566607D01*
X257111563Y-92338881D01*
X257172608Y-92097821D01*
X257173752Y-92084013D01*
X257193143Y-91850005D01*
X259181857Y-91850005D01*
X259202390Y-92097812D01*
X259202392Y-92097824D01*
X259263436Y-92338881D01*
X259363326Y-92566606D01*
X259499333Y-92774782D01*
X259499336Y-92774785D01*
X259667756Y-92957738D01*
X259863991Y-93110474D01*
X260082690Y-93228828D01*
X260317886Y-93309571D01*
X260563165Y-93350500D01*
X260811835Y-93350500D01*
X261057114Y-93309571D01*
X261292310Y-93228828D01*
X261511009Y-93110474D01*
X261707244Y-92957738D01*
X261875664Y-92774785D01*
X262011673Y-92566607D01*
X262111563Y-92338881D01*
X262172608Y-92097821D01*
X262173752Y-92084013D01*
X262193143Y-91850005D01*
X262193143Y-91849994D01*
X262172609Y-91602187D01*
X262172607Y-91602175D01*
X262111563Y-91361118D01*
X262011673Y-91133393D01*
X261875666Y-90925217D01*
X261815230Y-90859566D01*
X261707244Y-90742262D01*
X261511009Y-90589526D01*
X261511007Y-90589525D01*
X261511006Y-90589524D01*
X261292311Y-90471172D01*
X261292302Y-90471169D01*
X261057116Y-90390429D01*
X260811835Y-90349500D01*
X260563165Y-90349500D01*
X260317883Y-90390429D01*
X260082697Y-90471169D01*
X260082688Y-90471172D01*
X259863993Y-90589524D01*
X259667757Y-90742261D01*
X259499333Y-90925217D01*
X259363326Y-91133393D01*
X259263436Y-91361118D01*
X259202392Y-91602175D01*
X259202390Y-91602187D01*
X259181857Y-91849994D01*
X259181857Y-91850005D01*
X257193143Y-91850005D01*
X257193143Y-91849994D01*
X257172609Y-91602187D01*
X257172607Y-91602175D01*
X257111563Y-91361118D01*
X257011673Y-91133393D01*
X256875666Y-90925217D01*
X256815230Y-90859566D01*
X256707244Y-90742262D01*
X256511009Y-90589526D01*
X256511007Y-90589525D01*
X256511006Y-90589524D01*
X256292311Y-90471172D01*
X256292302Y-90471169D01*
X256057116Y-90390429D01*
X255811835Y-90349500D01*
X255563165Y-90349500D01*
X255317883Y-90390429D01*
X255082697Y-90471169D01*
X255082688Y-90471172D01*
X254863993Y-90589524D01*
X254667757Y-90742261D01*
X254499333Y-90925217D01*
X254363326Y-91133393D01*
X254263436Y-91361118D01*
X254202392Y-91602175D01*
X254202390Y-91602187D01*
X254181857Y-91849994D01*
X254181857Y-91850005D01*
X230322096Y-91850005D01*
X226924303Y-88452212D01*
X226914480Y-88439950D01*
X226914259Y-88440134D01*
X226909286Y-88434123D01*
X226895718Y-88421382D01*
X226858864Y-88386773D01*
X226844418Y-88372327D01*
X226837975Y-88365883D01*
X226832486Y-88361625D01*
X226828061Y-88357847D01*
X226794082Y-88325938D01*
X226794080Y-88325936D01*
X226794077Y-88325935D01*
X226776529Y-88316288D01*
X226760263Y-88305604D01*
X226744433Y-88293325D01*
X226701668Y-88274818D01*
X226696422Y-88272248D01*
X226655593Y-88249803D01*
X226655592Y-88249802D01*
X226636193Y-88244822D01*
X226617781Y-88238518D01*
X226599398Y-88230562D01*
X226599392Y-88230560D01*
X226553374Y-88223272D01*
X226547652Y-88222087D01*
X226502521Y-88210500D01*
X226502519Y-88210500D01*
X226482484Y-88210500D01*
X226463086Y-88208973D01*
X226455662Y-88207797D01*
X226443305Y-88205840D01*
X226443304Y-88205840D01*
X226396916Y-88210225D01*
X226391078Y-88210500D01*
X220775299Y-88210500D01*
X220708260Y-88190815D01*
X220673724Y-88157623D01*
X220578327Y-88021381D01*
X220517987Y-87961041D01*
X220422120Y-87865174D01*
X220422116Y-87865171D01*
X220422115Y-87865170D01*
X220241166Y-87738468D01*
X220241158Y-87738464D01*
X220112311Y-87678382D01*
X220059871Y-87632210D01*
X220040719Y-87565017D01*
X220060935Y-87498135D01*
X220112311Y-87453618D01*
X220144798Y-87438469D01*
X220241162Y-87393534D01*
X220422120Y-87266826D01*
X220578326Y-87110620D01*
X220705034Y-86929662D01*
X220798394Y-86729450D01*
X220855570Y-86516068D01*
X220865911Y-86397870D01*
X250837000Y-86397870D01*
X250837001Y-86397876D01*
X250843408Y-86457483D01*
X250893702Y-86592328D01*
X250893706Y-86592335D01*
X250979952Y-86707544D01*
X250979955Y-86707547D01*
X251095164Y-86793793D01*
X251095171Y-86793797D01*
X251230017Y-86844091D01*
X251230016Y-86844091D01*
X251236944Y-86844835D01*
X251289627Y-86850500D01*
X253885372Y-86850499D01*
X253944983Y-86844091D01*
X254079831Y-86793796D01*
X254195046Y-86707546D01*
X254281296Y-86592331D01*
X254331591Y-86457483D01*
X254338000Y-86397873D01*
X254338000Y-86397870D01*
X262037000Y-86397870D01*
X262037001Y-86397876D01*
X262043408Y-86457483D01*
X262093702Y-86592328D01*
X262093706Y-86592335D01*
X262179952Y-86707544D01*
X262179955Y-86707547D01*
X262295164Y-86793793D01*
X262295171Y-86793797D01*
X262430017Y-86844091D01*
X262430016Y-86844091D01*
X262436944Y-86844835D01*
X262489627Y-86850500D01*
X265085372Y-86850499D01*
X265144983Y-86844091D01*
X265279831Y-86793796D01*
X265395046Y-86707546D01*
X265481296Y-86592331D01*
X265531591Y-86457483D01*
X265538000Y-86397873D01*
X265537999Y-83302128D01*
X265531591Y-83242517D01*
X265527562Y-83231716D01*
X265481297Y-83107671D01*
X265481293Y-83107664D01*
X265395047Y-82992455D01*
X265395044Y-82992452D01*
X265279835Y-82906206D01*
X265279828Y-82906202D01*
X265144982Y-82855908D01*
X265144983Y-82855908D01*
X265085383Y-82849501D01*
X265085381Y-82849500D01*
X265085373Y-82849500D01*
X265085364Y-82849500D01*
X262489629Y-82849500D01*
X262489623Y-82849501D01*
X262430016Y-82855908D01*
X262295171Y-82906202D01*
X262295164Y-82906206D01*
X262179955Y-82992452D01*
X262179952Y-82992455D01*
X262093706Y-83107664D01*
X262093702Y-83107671D01*
X262043408Y-83242517D01*
X262039495Y-83278918D01*
X262037001Y-83302123D01*
X262037000Y-83302135D01*
X262037000Y-86397870D01*
X254338000Y-86397870D01*
X254337999Y-83302128D01*
X254331591Y-83242517D01*
X254327562Y-83231716D01*
X254281297Y-83107671D01*
X254281293Y-83107664D01*
X254195047Y-82992455D01*
X254195044Y-82992452D01*
X254079835Y-82906206D01*
X254079828Y-82906202D01*
X253944982Y-82855908D01*
X253944983Y-82855908D01*
X253885383Y-82849501D01*
X253885381Y-82849500D01*
X253885373Y-82849500D01*
X253885364Y-82849500D01*
X251289629Y-82849500D01*
X251289623Y-82849501D01*
X251230016Y-82855908D01*
X251095171Y-82906202D01*
X251095164Y-82906206D01*
X250979955Y-82992452D01*
X250979952Y-82992455D01*
X250893706Y-83107664D01*
X250893702Y-83107671D01*
X250843408Y-83242517D01*
X250839495Y-83278918D01*
X250837001Y-83302123D01*
X250837000Y-83302135D01*
X250837000Y-86397870D01*
X220865911Y-86397870D01*
X220874823Y-86296000D01*
X220871355Y-86256365D01*
X220862567Y-86155911D01*
X220855570Y-86075932D01*
X220798394Y-85862550D01*
X220705034Y-85662339D01*
X220618007Y-85538051D01*
X220578327Y-85481381D01*
X220524057Y-85427111D01*
X220422120Y-85325174D01*
X220422116Y-85325171D01*
X220422115Y-85325170D01*
X220241166Y-85198468D01*
X220241158Y-85198464D01*
X220112311Y-85138382D01*
X220059871Y-85092210D01*
X220040719Y-85025017D01*
X220060935Y-84958135D01*
X220112311Y-84913618D01*
X220118302Y-84910824D01*
X220241162Y-84853534D01*
X220422120Y-84726826D01*
X220578326Y-84570620D01*
X220673725Y-84434376D01*
X220728302Y-84390752D01*
X220775300Y-84381500D01*
X234948757Y-84381500D01*
X234964377Y-84383224D01*
X234964404Y-84382939D01*
X234972160Y-84383671D01*
X234972167Y-84383673D01*
X235041314Y-84381500D01*
X235070850Y-84381500D01*
X235077728Y-84380630D01*
X235083541Y-84380172D01*
X235130127Y-84378709D01*
X235149369Y-84373117D01*
X235168412Y-84369174D01*
X235188292Y-84366664D01*
X235231622Y-84349507D01*
X235237146Y-84347617D01*
X235240896Y-84346527D01*
X235281890Y-84334618D01*
X235299129Y-84324422D01*
X235316603Y-84315862D01*
X235335227Y-84308488D01*
X235335227Y-84308487D01*
X235335232Y-84308486D01*
X235372949Y-84281082D01*
X235377805Y-84277892D01*
X235417920Y-84254170D01*
X235432089Y-84239999D01*
X235446879Y-84227368D01*
X235463087Y-84215594D01*
X235492799Y-84179676D01*
X235496712Y-84175376D01*
X237631288Y-82040801D01*
X237643542Y-82030986D01*
X237643359Y-82030764D01*
X237649366Y-82025792D01*
X237649377Y-82025786D01*
X237680275Y-81992882D01*
X237696727Y-81975364D01*
X237707171Y-81964918D01*
X237717620Y-81954471D01*
X237721879Y-81948978D01*
X237725652Y-81944561D01*
X237757562Y-81910582D01*
X237767213Y-81893024D01*
X237777896Y-81876761D01*
X237790173Y-81860936D01*
X237808685Y-81818153D01*
X237811238Y-81812941D01*
X237833697Y-81772092D01*
X237838680Y-81752680D01*
X237844981Y-81734280D01*
X237852937Y-81715896D01*
X237860229Y-81669852D01*
X237861406Y-81664171D01*
X237873000Y-81619019D01*
X237873000Y-81598983D01*
X237874527Y-81579582D01*
X237877660Y-81559804D01*
X237873275Y-81513415D01*
X237873000Y-81507577D01*
X237873000Y-79363546D01*
X237892685Y-79296507D01*
X237945489Y-79250752D01*
X238014647Y-79240808D01*
X238078203Y-79269833D01*
X238079972Y-79271396D01*
X238081624Y-79272883D01*
X238081629Y-79272888D01*
X238162598Y-79331715D01*
X238234765Y-79384148D01*
X238234770Y-79384151D01*
X238407692Y-79461142D01*
X238407697Y-79461144D01*
X238592854Y-79500500D01*
X238592855Y-79500500D01*
X238782144Y-79500500D01*
X238782146Y-79500500D01*
X238967303Y-79461144D01*
X239140230Y-79384151D01*
X239293371Y-79272888D01*
X239420033Y-79132216D01*
X239514679Y-78968284D01*
X239573174Y-78788256D01*
X239590821Y-78620344D01*
X239617404Y-78555734D01*
X239626451Y-78545638D01*
X240171288Y-78000801D01*
X240183542Y-77990986D01*
X240183359Y-77990764D01*
X240189366Y-77985792D01*
X240189377Y-77985786D01*
X240220275Y-77952882D01*
X240236727Y-77935364D01*
X240247171Y-77924918D01*
X240257620Y-77914471D01*
X240261879Y-77908978D01*
X240265652Y-77904561D01*
X240297562Y-77870582D01*
X240307215Y-77853020D01*
X240317889Y-77836770D01*
X240330173Y-77820936D01*
X240348680Y-77778167D01*
X240351249Y-77772924D01*
X240369541Y-77739651D01*
X240373697Y-77732092D01*
X240378677Y-77712691D01*
X240384978Y-77694288D01*
X240392938Y-77675896D01*
X240400230Y-77629849D01*
X240401411Y-77624152D01*
X240413000Y-77579019D01*
X240413000Y-77558983D01*
X240414527Y-77539582D01*
X240417660Y-77519804D01*
X240413344Y-77474141D01*
X240413275Y-77473415D01*
X240413000Y-77467577D01*
X240413000Y-72893735D01*
X240432685Y-72826696D01*
X240485489Y-72780941D01*
X240554647Y-72770997D01*
X240609883Y-72793415D01*
X240725058Y-72877095D01*
X240734770Y-72884151D01*
X240907692Y-72961142D01*
X240907697Y-72961144D01*
X241092854Y-73000500D01*
X241092855Y-73000500D01*
X241282144Y-73000500D01*
X241282146Y-73000500D01*
X241467303Y-72961144D01*
X241640230Y-72884151D01*
X241793371Y-72772888D01*
X241920033Y-72632216D01*
X242014679Y-72468284D01*
X242073174Y-72288256D01*
X242090821Y-72120344D01*
X242117404Y-72055734D01*
X242126451Y-72045638D01*
X243410272Y-70761819D01*
X243471595Y-70728334D01*
X243497953Y-70725500D01*
X253484653Y-70725500D01*
X253551692Y-70745185D01*
X253597447Y-70797989D01*
X253607391Y-70867147D01*
X253578366Y-70930703D01*
X253576812Y-70932461D01*
X253503189Y-71014228D01*
X253454966Y-71067785D01*
X253360321Y-71231715D01*
X253360318Y-71231722D01*
X253305047Y-71401830D01*
X253301826Y-71411744D01*
X253282040Y-71600000D01*
X253301826Y-71788256D01*
X253301827Y-71788259D01*
X253360318Y-71968277D01*
X253360321Y-71968284D01*
X253454967Y-72132216D01*
X253570667Y-72260713D01*
X253581629Y-72272888D01*
X253734765Y-72384148D01*
X253734770Y-72384151D01*
X253907692Y-72461142D01*
X253907697Y-72461144D01*
X254092854Y-72500500D01*
X254092855Y-72500500D01*
X254282144Y-72500500D01*
X254282146Y-72500500D01*
X254467303Y-72461144D01*
X254640230Y-72384151D01*
X254793371Y-72272888D01*
X254920033Y-72132216D01*
X254920036Y-72132211D01*
X254974717Y-72037501D01*
X255025283Y-71989285D01*
X255082104Y-71975500D01*
X255507199Y-71975500D01*
X255574238Y-71995185D01*
X255619993Y-72047989D01*
X255624903Y-72060492D01*
X255651939Y-72142082D01*
X255652685Y-72144331D01*
X255652687Y-72144336D01*
X255658361Y-72153535D01*
X255741457Y-72288256D01*
X255744789Y-72293657D01*
X255868845Y-72417713D01*
X255903094Y-72438837D01*
X255949820Y-72490784D01*
X255962000Y-72544377D01*
X255962000Y-75728151D01*
X255942315Y-75795190D01*
X255889511Y-75840945D01*
X255820353Y-75850889D01*
X255817598Y-75850461D01*
X255811837Y-75849500D01*
X255811835Y-75849500D01*
X255563165Y-75849500D01*
X255317883Y-75890429D01*
X255082697Y-75971169D01*
X255082688Y-75971172D01*
X254863993Y-76089524D01*
X254667757Y-76242261D01*
X254499333Y-76425217D01*
X254363326Y-76633393D01*
X254263436Y-76861118D01*
X254202392Y-77102175D01*
X254202390Y-77102187D01*
X254181857Y-77349994D01*
X254181857Y-77350005D01*
X254202390Y-77597812D01*
X254202392Y-77597824D01*
X254263436Y-77838881D01*
X254363326Y-78066606D01*
X254499333Y-78274782D01*
X254525034Y-78302701D01*
X254667756Y-78457738D01*
X254863991Y-78610474D01*
X255082690Y-78728828D01*
X255317886Y-78809571D01*
X255563165Y-78850500D01*
X255811835Y-78850500D01*
X256057114Y-78809571D01*
X256292310Y-78728828D01*
X256511009Y-78610474D01*
X256707244Y-78457738D01*
X256846272Y-78306712D01*
X256906157Y-78270724D01*
X256975995Y-78272824D01*
X257028726Y-78306711D01*
X257167756Y-78457738D01*
X257363991Y-78610474D01*
X257582690Y-78728828D01*
X257817886Y-78809571D01*
X258063165Y-78850500D01*
X258311835Y-78850500D01*
X258557114Y-78809571D01*
X258792310Y-78728828D01*
X259011009Y-78610474D01*
X259066911Y-78566963D01*
X259131901Y-78541321D01*
X259200441Y-78554887D01*
X259242337Y-78590506D01*
X259329952Y-78707544D01*
X259329955Y-78707547D01*
X259445164Y-78793793D01*
X259445171Y-78793797D01*
X259580017Y-78844091D01*
X259580016Y-78844091D01*
X259586944Y-78844835D01*
X259639627Y-78850500D01*
X261735372Y-78850499D01*
X261794983Y-78844091D01*
X261929831Y-78793796D01*
X262045046Y-78707546D01*
X262131296Y-78592331D01*
X262181591Y-78457483D01*
X262188000Y-78397873D01*
X262187999Y-76302128D01*
X262181591Y-76242517D01*
X262179797Y-76237708D01*
X262131297Y-76107671D01*
X262131293Y-76107664D01*
X262045047Y-75992455D01*
X262045044Y-75992452D01*
X261929835Y-75906206D01*
X261929828Y-75906202D01*
X261794982Y-75855908D01*
X261794983Y-75855908D01*
X261735383Y-75849501D01*
X261735381Y-75849500D01*
X261735373Y-75849500D01*
X261735365Y-75849500D01*
X261437000Y-75849500D01*
X261369961Y-75829815D01*
X261324206Y-75777011D01*
X261313000Y-75725500D01*
X261313000Y-75462230D01*
X261332685Y-75395191D01*
X261349319Y-75374549D01*
X261380212Y-75343656D01*
X261472314Y-75194334D01*
X261500095Y-75110495D01*
X261539868Y-75053051D01*
X261604384Y-75026228D01*
X261617801Y-75025500D01*
X262304757Y-75025500D01*
X262320377Y-75027224D01*
X262320404Y-75026939D01*
X262328160Y-75027671D01*
X262328167Y-75027673D01*
X262397314Y-75025500D01*
X262426850Y-75025500D01*
X262433728Y-75024630D01*
X262439541Y-75024172D01*
X262486127Y-75022709D01*
X262505369Y-75017117D01*
X262524412Y-75013174D01*
X262544292Y-75010664D01*
X262587622Y-74993507D01*
X262593146Y-74991617D01*
X262596896Y-74990527D01*
X262637890Y-74978618D01*
X262655129Y-74968422D01*
X262672603Y-74959862D01*
X262691227Y-74952488D01*
X262691227Y-74952487D01*
X262691232Y-74952486D01*
X262728949Y-74925082D01*
X262733805Y-74921892D01*
X262773920Y-74898170D01*
X262788089Y-74883999D01*
X262802879Y-74871368D01*
X262819087Y-74859594D01*
X262848789Y-74823688D01*
X262852711Y-74819377D01*
X263071288Y-74600801D01*
X263083550Y-74590979D01*
X263083367Y-74590758D01*
X263089376Y-74585787D01*
X263093992Y-74580872D01*
X263136727Y-74535363D01*
X263157620Y-74514471D01*
X263161879Y-74508978D01*
X263165652Y-74504561D01*
X263197562Y-74470582D01*
X263207215Y-74453020D01*
X263217889Y-74436770D01*
X263230173Y-74420936D01*
X263248680Y-74378167D01*
X263251249Y-74372924D01*
X263259360Y-74358170D01*
X263273697Y-74332092D01*
X263278677Y-74312691D01*
X263284978Y-74294288D01*
X263292938Y-74275896D01*
X263300230Y-74229849D01*
X263301411Y-74224152D01*
X263313000Y-74179019D01*
X263313000Y-74158983D01*
X263314527Y-74139582D01*
X263317660Y-74119804D01*
X263313275Y-74073415D01*
X263313000Y-74067577D01*
X263313000Y-73798687D01*
X263332685Y-73731648D01*
X263344850Y-73715715D01*
X263368450Y-73689504D01*
X263420033Y-73632216D01*
X263514679Y-73468284D01*
X263573174Y-73288256D01*
X263592960Y-73100000D01*
X263573174Y-72911744D01*
X263514679Y-72731716D01*
X263420033Y-72567784D01*
X263293371Y-72427112D01*
X263284843Y-72420916D01*
X263140234Y-72315851D01*
X263140229Y-72315848D01*
X262967307Y-72238857D01*
X262967302Y-72238855D01*
X262821501Y-72207865D01*
X262782146Y-72199500D01*
X262592854Y-72199500D01*
X262560397Y-72206398D01*
X262407697Y-72238855D01*
X262407692Y-72238857D01*
X262234770Y-72315848D01*
X262234765Y-72315851D01*
X262081629Y-72427111D01*
X261954966Y-72567785D01*
X261860321Y-72731715D01*
X261860318Y-72731722D01*
X261801827Y-72911740D01*
X261801826Y-72911744D01*
X261782040Y-73100000D01*
X261801826Y-73288256D01*
X261801827Y-73288259D01*
X261860318Y-73468277D01*
X261860320Y-73468281D01*
X261860321Y-73468284D01*
X261884813Y-73510705D01*
X261929728Y-73588501D01*
X261946200Y-73656401D01*
X261923347Y-73722428D01*
X261868425Y-73765618D01*
X261822340Y-73774500D01*
X261617801Y-73774500D01*
X261550762Y-73754815D01*
X261505007Y-73702011D01*
X261500095Y-73689504D01*
X261487500Y-73651494D01*
X261472314Y-73605666D01*
X261380212Y-73456344D01*
X261256156Y-73332288D01*
X261106834Y-73240186D01*
X260940297Y-73185001D01*
X260940295Y-73185000D01*
X260837510Y-73174500D01*
X260237498Y-73174500D01*
X260237480Y-73174501D01*
X260134703Y-73185000D01*
X260134700Y-73185001D01*
X259968168Y-73240185D01*
X259968163Y-73240187D01*
X259818842Y-73332289D01*
X259694785Y-73456346D01*
X259693037Y-73459182D01*
X259691329Y-73460717D01*
X259690307Y-73462011D01*
X259690085Y-73461836D01*
X259641089Y-73505905D01*
X259572126Y-73517126D01*
X259508044Y-73489282D01*
X259481963Y-73459182D01*
X259480214Y-73456346D01*
X259356153Y-73332285D01*
X259321901Y-73311158D01*
X259275178Y-73259210D01*
X259263000Y-73205621D01*
X259263000Y-72412230D01*
X259282685Y-72345191D01*
X259299319Y-72324549D01*
X259308020Y-72315848D01*
X259330212Y-72293656D01*
X259422314Y-72144334D01*
X259477499Y-71977797D01*
X259488000Y-71875009D01*
X259487999Y-70824992D01*
X259477499Y-70722203D01*
X259422314Y-70555666D01*
X259330212Y-70406344D01*
X259206156Y-70282288D01*
X259056834Y-70190186D01*
X258890297Y-70135001D01*
X258890295Y-70135000D01*
X258787516Y-70124500D01*
X258197953Y-70124500D01*
X258130914Y-70104815D01*
X258110272Y-70088181D01*
X257738303Y-69716212D01*
X257728480Y-69703950D01*
X257728259Y-69704134D01*
X257723286Y-69698123D01*
X257704659Y-69680631D01*
X257672864Y-69650773D01*
X257662419Y-69640328D01*
X257651975Y-69629883D01*
X257646486Y-69625625D01*
X257642061Y-69621847D01*
X257608082Y-69589938D01*
X257608080Y-69589936D01*
X257608077Y-69589935D01*
X257590529Y-69580288D01*
X257574263Y-69569604D01*
X257558433Y-69557325D01*
X257515668Y-69538818D01*
X257510422Y-69536248D01*
X257469593Y-69513803D01*
X257469592Y-69513802D01*
X257450193Y-69508822D01*
X257431781Y-69502518D01*
X257413398Y-69494562D01*
X257413392Y-69494560D01*
X257367374Y-69487272D01*
X257361652Y-69486087D01*
X257316521Y-69474500D01*
X257316519Y-69474500D01*
X257296484Y-69474500D01*
X257277086Y-69472973D01*
X257269662Y-69471797D01*
X257257305Y-69469840D01*
X257257304Y-69469840D01*
X257210916Y-69474225D01*
X257205078Y-69474500D01*
X243270238Y-69474500D01*
X243254621Y-69472776D01*
X243254594Y-69473062D01*
X243246832Y-69472327D01*
X243177704Y-69474500D01*
X243148150Y-69474500D01*
X243147429Y-69474590D01*
X243141257Y-69475369D01*
X243135445Y-69475826D01*
X243088873Y-69477290D01*
X243088872Y-69477290D01*
X243069629Y-69482881D01*
X243050579Y-69486825D01*
X243030711Y-69489334D01*
X243030709Y-69489335D01*
X242987384Y-69506488D01*
X242981857Y-69508380D01*
X242937110Y-69521381D01*
X242937109Y-69521382D01*
X242919867Y-69531579D01*
X242902399Y-69540137D01*
X242883769Y-69547513D01*
X242883767Y-69547514D01*
X242846076Y-69574898D01*
X242841194Y-69578105D01*
X242801079Y-69601830D01*
X242786908Y-69616000D01*
X242772123Y-69628628D01*
X242755912Y-69640407D01*
X242726209Y-69676310D01*
X242722276Y-69680631D01*
X241970609Y-70432300D01*
X241239728Y-71163181D01*
X241178405Y-71196666D01*
X241152047Y-71199500D01*
X241092854Y-71199500D01*
X241060397Y-71206398D01*
X240907697Y-71238855D01*
X240907692Y-71238857D01*
X240734770Y-71315848D01*
X240734765Y-71315851D01*
X240609885Y-71406582D01*
X240544079Y-71430062D01*
X240476025Y-71414236D01*
X240427330Y-71364130D01*
X240413000Y-71306264D01*
X240413000Y-69914188D01*
X240432685Y-69847149D01*
X240465877Y-69812613D01*
X240553017Y-69751597D01*
X240626639Y-69700047D01*
X240787547Y-69539139D01*
X240918068Y-69352734D01*
X241014239Y-69146496D01*
X241073135Y-68926692D01*
X241088000Y-68756784D01*
X241088000Y-68243216D01*
X241073135Y-68073308D01*
X241014239Y-67853504D01*
X240918068Y-67647266D01*
X240787547Y-67460861D01*
X240787545Y-67460858D01*
X240626641Y-67299954D01*
X240440234Y-67169432D01*
X240440232Y-67169431D01*
X240233997Y-67073261D01*
X240233988Y-67073258D01*
X240014197Y-67014366D01*
X240014193Y-67014365D01*
X240014192Y-67014365D01*
X240014191Y-67014364D01*
X240014186Y-67014364D01*
X239787502Y-66994532D01*
X239787498Y-66994532D01*
X239560813Y-67014364D01*
X239560802Y-67014366D01*
X239341011Y-67073258D01*
X239341002Y-67073261D01*
X239134767Y-67169431D01*
X239134765Y-67169432D01*
X238948358Y-67299954D01*
X238787454Y-67460858D01*
X238656932Y-67647265D01*
X238656931Y-67647267D01*
X238629882Y-67705275D01*
X238583709Y-67757714D01*
X238516516Y-67776866D01*
X238449635Y-67756650D01*
X238405118Y-67705275D01*
X238378068Y-67647267D01*
X238378067Y-67647265D01*
X238351188Y-67608878D01*
X238247547Y-67460861D01*
X238247545Y-67460858D01*
X238086641Y-67299954D01*
X237900234Y-67169432D01*
X237900232Y-67169431D01*
X237693997Y-67073261D01*
X237693988Y-67073258D01*
X237474197Y-67014366D01*
X237474193Y-67014365D01*
X237474192Y-67014365D01*
X237474191Y-67014364D01*
X237474186Y-67014364D01*
X237247502Y-66994532D01*
X237247498Y-66994532D01*
X237020813Y-67014364D01*
X237020802Y-67014366D01*
X236801011Y-67073258D01*
X236801002Y-67073261D01*
X236594767Y-67169431D01*
X236594765Y-67169432D01*
X236408358Y-67299954D01*
X236247454Y-67460858D01*
X236116932Y-67647265D01*
X236116931Y-67647267D01*
X236089882Y-67705275D01*
X236043709Y-67757714D01*
X235976516Y-67776866D01*
X235909635Y-67756650D01*
X235865118Y-67705275D01*
X235838068Y-67647267D01*
X235838067Y-67647265D01*
X235811188Y-67608878D01*
X235707547Y-67460861D01*
X235707545Y-67460858D01*
X235546641Y-67299954D01*
X235360234Y-67169432D01*
X235360232Y-67169431D01*
X235153997Y-67073261D01*
X235153988Y-67073258D01*
X234934197Y-67014366D01*
X234934193Y-67014365D01*
X234934192Y-67014365D01*
X234934191Y-67014364D01*
X234934186Y-67014364D01*
X234707502Y-66994532D01*
X234707498Y-66994532D01*
X234480813Y-67014364D01*
X234480802Y-67014366D01*
X234255774Y-67074662D01*
X234255168Y-67072401D01*
X234195363Y-67076195D01*
X234135016Y-67042926D01*
X233741098Y-66649008D01*
X233308303Y-66216212D01*
X233298480Y-66203950D01*
X233298259Y-66204134D01*
X233293286Y-66198123D01*
X233274659Y-66180631D01*
X233242864Y-66150773D01*
X233232419Y-66140328D01*
X233221975Y-66129883D01*
X233216486Y-66125625D01*
X233212061Y-66121847D01*
X233178082Y-66089938D01*
X233178080Y-66089936D01*
X233178077Y-66089935D01*
X233160529Y-66080288D01*
X233144263Y-66069604D01*
X233128433Y-66057325D01*
X233085668Y-66038818D01*
X233080422Y-66036248D01*
X233039593Y-66013803D01*
X233039592Y-66013802D01*
X233020193Y-66008822D01*
X233001781Y-66002518D01*
X232983398Y-65994562D01*
X232983392Y-65994560D01*
X232937374Y-65987272D01*
X232931652Y-65986087D01*
X232886521Y-65974500D01*
X232886519Y-65974500D01*
X232866484Y-65974500D01*
X232847086Y-65972973D01*
X232839662Y-65971797D01*
X232827305Y-65969840D01*
X232827304Y-65969840D01*
X232780916Y-65974225D01*
X232775078Y-65974500D01*
X219270237Y-65974500D01*
X219254620Y-65972776D01*
X219254593Y-65973062D01*
X219246831Y-65972327D01*
X219177703Y-65974500D01*
X219148150Y-65974500D01*
X219147429Y-65974590D01*
X219141257Y-65975369D01*
X219135445Y-65975826D01*
X219088878Y-65977290D01*
X219088867Y-65977292D01*
X219069634Y-65982879D01*
X219050594Y-65986822D01*
X219030717Y-65989334D01*
X219030710Y-65989335D01*
X219030708Y-65989336D01*
X219030706Y-65989336D01*
X219030705Y-65989337D01*
X218987368Y-66006494D01*
X218981842Y-66008386D01*
X218937111Y-66021382D01*
X218937108Y-66021383D01*
X218919863Y-66031581D01*
X218902401Y-66040135D01*
X218883772Y-66047511D01*
X218883767Y-66047513D01*
X218846064Y-66074906D01*
X218841182Y-66078112D01*
X218801080Y-66101828D01*
X218786908Y-66116000D01*
X218772123Y-66128628D01*
X218755912Y-66140407D01*
X218726209Y-66176310D01*
X218722277Y-66180631D01*
X217399681Y-67503227D01*
X217338358Y-67536712D01*
X217268666Y-67531728D01*
X217212733Y-67489856D01*
X217188316Y-67424392D01*
X217188000Y-67415546D01*
X217188000Y-65224500D01*
X217207685Y-65157461D01*
X217260489Y-65111706D01*
X217312000Y-65100500D01*
X263952443Y-65100500D01*
X264019482Y-65120185D01*
X264065237Y-65172989D01*
X264075181Y-65242147D01*
X264046156Y-65305703D01*
X263999839Y-65337590D01*
X264000359Y-65338795D01*
X263997041Y-65340226D01*
X263684703Y-65497088D01*
X263392694Y-65689146D01*
X263392686Y-65689152D01*
X263124942Y-65913817D01*
X263124940Y-65913819D01*
X262885089Y-66168044D01*
X262885084Y-66168050D01*
X262676370Y-66448402D01*
X262501613Y-66751091D01*
X262501607Y-66751104D01*
X262363174Y-67072027D01*
X262262930Y-67406865D01*
X262262928Y-67406872D01*
X262202239Y-67751061D01*
X262202238Y-67751072D01*
X262181915Y-68099996D01*
X262181915Y-68100003D01*
X262202238Y-68448927D01*
X262202239Y-68448938D01*
X262262928Y-68793127D01*
X262262930Y-68793134D01*
X262363174Y-69127972D01*
X262501607Y-69448895D01*
X262501613Y-69448908D01*
X262676370Y-69751597D01*
X262885084Y-70031949D01*
X262885089Y-70031955D01*
X262975978Y-70128291D01*
X263124942Y-70286183D01*
X263268142Y-70406342D01*
X263392686Y-70510847D01*
X263392694Y-70510853D01*
X263684703Y-70702911D01*
X263684707Y-70702913D01*
X263997049Y-70859777D01*
X264325489Y-70979319D01*
X264665586Y-71059923D01*
X265012741Y-71100500D01*
X265012748Y-71100500D01*
X265362252Y-71100500D01*
X265362259Y-71100500D01*
X265709414Y-71059923D01*
X266049511Y-70979319D01*
X266377951Y-70859777D01*
X266690293Y-70702913D01*
X266982311Y-70510849D01*
X267250058Y-70286183D01*
X267489912Y-70031953D01*
X267698630Y-69751596D01*
X267873389Y-69448904D01*
X267949141Y-69273290D01*
X267993769Y-69219531D01*
X268060377Y-69198433D01*
X268127818Y-69216695D01*
X268174679Y-69268519D01*
X268187000Y-69322405D01*
X268187000Y-118877594D01*
X268167315Y-118944633D01*
X268114511Y-118990388D01*
X268045353Y-119000332D01*
X267981797Y-118971307D01*
X267949141Y-118926708D01*
X267877055Y-118759595D01*
X267873389Y-118751096D01*
X267763424Y-118560631D01*
X267698629Y-118448402D01*
X267489915Y-118168050D01*
X267489910Y-118168044D01*
X267338230Y-118007274D01*
X267250058Y-117913817D01*
X267051552Y-117747251D01*
X266982313Y-117689152D01*
X266982305Y-117689146D01*
X266690296Y-117497088D01*
X266377958Y-117340226D01*
X266377952Y-117340223D01*
X266049512Y-117220681D01*
X266049509Y-117220680D01*
X265709415Y-117140077D01*
X265666019Y-117135004D01*
X265362259Y-117099500D01*
X265012741Y-117099500D01*
X264708980Y-117135004D01*
X264665585Y-117140077D01*
X264665583Y-117140077D01*
X264325490Y-117220680D01*
X264325487Y-117220681D01*
X263997047Y-117340223D01*
X263997041Y-117340226D01*
X263684703Y-117497088D01*
X263392694Y-117689146D01*
X263392686Y-117689152D01*
X263124942Y-117913817D01*
X263124940Y-117913819D01*
X262885089Y-118168044D01*
X262885084Y-118168050D01*
X262676370Y-118448402D01*
X262501613Y-118751091D01*
X262501607Y-118751104D01*
X262363174Y-119072027D01*
X262262930Y-119406865D01*
X262262928Y-119406872D01*
X262202239Y-119751061D01*
X262202238Y-119751072D01*
X262181915Y-120099996D01*
X262181915Y-120100003D01*
X262202238Y-120448927D01*
X262202239Y-120448938D01*
X262262928Y-120793127D01*
X262262930Y-120793134D01*
X262363174Y-121127972D01*
X262501607Y-121448895D01*
X262501613Y-121448908D01*
X262676370Y-121751597D01*
X262885084Y-122031949D01*
X262885089Y-122031955D01*
X263008963Y-122163253D01*
X263124942Y-122286183D01*
X263301403Y-122434251D01*
X263392686Y-122510847D01*
X263392694Y-122510853D01*
X263684703Y-122702911D01*
X263684707Y-122702913D01*
X263997049Y-122859777D01*
X263997057Y-122859779D01*
X264000359Y-122861205D01*
X263999761Y-122862590D01*
X264051121Y-122900408D01*
X264076053Y-122965678D01*
X264061741Y-123034066D01*
X264012727Y-123083860D01*
X263952443Y-123099500D01*
X170312000Y-123099500D01*
X170244961Y-123079815D01*
X170199206Y-123027011D01*
X170188000Y-122975500D01*
X170188000Y-115850000D01*
X174412132Y-115850000D01*
X175171814Y-115850000D01*
X175159859Y-115861955D01*
X175102335Y-115974852D01*
X175082514Y-116100000D01*
X175102335Y-116225148D01*
X175159859Y-116338045D01*
X175171814Y-116350000D01*
X174416242Y-116350000D01*
X174443270Y-116461409D01*
X174530540Y-116652507D01*
X174652389Y-116823619D01*
X174652395Y-116823625D01*
X174804432Y-116968592D01*
X174981157Y-117082166D01*
X175176185Y-117160244D01*
X175382462Y-117200000D01*
X175437500Y-117200000D01*
X175437500Y-116497066D01*
X175456019Y-116500000D01*
X175918981Y-116500000D01*
X175937500Y-116497066D01*
X175937500Y-117200000D01*
X175939898Y-117200000D01*
X176096622Y-117185034D01*
X176096626Y-117185033D01*
X176298186Y-117125850D01*
X176484914Y-117029586D01*
X176650037Y-116899731D01*
X176650040Y-116899728D01*
X176787605Y-116740969D01*
X176787614Y-116740958D01*
X176892644Y-116559039D01*
X176892647Y-116559032D01*
X176961355Y-116360517D01*
X176961355Y-116360515D01*
X176962868Y-116350000D01*
X176203186Y-116350000D01*
X176215141Y-116338045D01*
X176272665Y-116225148D01*
X176292486Y-116100000D01*
X176272665Y-115974852D01*
X176215141Y-115861955D01*
X176203186Y-115850000D01*
X176958757Y-115850000D01*
X176931729Y-115738590D01*
X176844459Y-115547492D01*
X176722610Y-115376380D01*
X176722604Y-115376374D01*
X176570567Y-115231407D01*
X176393842Y-115117833D01*
X176198814Y-115039755D01*
X175992538Y-115000000D01*
X175937500Y-115000000D01*
X175937500Y-115702933D01*
X175918981Y-115700000D01*
X175456019Y-115700000D01*
X175437500Y-115702933D01*
X175437500Y-115000000D01*
X175435102Y-115000000D01*
X175278377Y-115014965D01*
X175278373Y-115014966D01*
X175076813Y-115074149D01*
X174890085Y-115170413D01*
X174724962Y-115300268D01*
X174724959Y-115300271D01*
X174587394Y-115459030D01*
X174587385Y-115459041D01*
X174482355Y-115640960D01*
X174482352Y-115640967D01*
X174413644Y-115839482D01*
X174413644Y-115839484D01*
X174412132Y-115850000D01*
X170188000Y-115850000D01*
X170188000Y-112347401D01*
X174083246Y-112347401D01*
X174093245Y-112557327D01*
X174142796Y-112761578D01*
X174142798Y-112761582D01*
X174230098Y-112952743D01*
X174230101Y-112952748D01*
X174230102Y-112952750D01*
X174230104Y-112952753D01*
X174293127Y-113041256D01*
X174352015Y-113123953D01*
X174352020Y-113123959D01*
X174504120Y-113268985D01*
X174599078Y-113330011D01*
X174680928Y-113382613D01*
X174876043Y-113460725D01*
X174979229Y-113480612D01*
X175082414Y-113500500D01*
X175082415Y-113500500D01*
X175239919Y-113500500D01*
X175239925Y-113500500D01*
X175396718Y-113485528D01*
X175598375Y-113426316D01*
X175785182Y-113330011D01*
X175950386Y-113200092D01*
X176088019Y-113041256D01*
X176193104Y-112859244D01*
X176261844Y-112660633D01*
X176291754Y-112452602D01*
X176289248Y-112400001D01*
X178732018Y-112400001D01*
X178751922Y-112678299D01*
X178791285Y-112859244D01*
X178811229Y-112950923D01*
X178871766Y-113113230D01*
X178908731Y-113212338D01*
X178908733Y-113212342D01*
X179042440Y-113457207D01*
X179042445Y-113457215D01*
X179209638Y-113680560D01*
X179209654Y-113680578D01*
X179406921Y-113877845D01*
X179406939Y-113877861D01*
X179630284Y-114045054D01*
X179630292Y-114045059D01*
X179875157Y-114178766D01*
X179875161Y-114178768D01*
X179875163Y-114178769D01*
X180136577Y-114276271D01*
X180272891Y-114305924D01*
X180409200Y-114335577D01*
X180409202Y-114335577D01*
X180409206Y-114335578D01*
X180617843Y-114350500D01*
X180757157Y-114350500D01*
X180965794Y-114335578D01*
X181238423Y-114276271D01*
X181499837Y-114178769D01*
X181744713Y-114045056D01*
X181968068Y-113877855D01*
X182165355Y-113680568D01*
X182332556Y-113457213D01*
X182466269Y-113212337D01*
X182563771Y-112950923D01*
X182623078Y-112678294D01*
X182642982Y-112400000D01*
X182639220Y-112347401D01*
X185083246Y-112347401D01*
X185093245Y-112557327D01*
X185142796Y-112761578D01*
X185142798Y-112761582D01*
X185230098Y-112952743D01*
X185230101Y-112952748D01*
X185230102Y-112952750D01*
X185230104Y-112952753D01*
X185293127Y-113041256D01*
X185352015Y-113123953D01*
X185352020Y-113123959D01*
X185504120Y-113268985D01*
X185599078Y-113330011D01*
X185680928Y-113382613D01*
X185876043Y-113460725D01*
X185979229Y-113480612D01*
X186082414Y-113500500D01*
X186082415Y-113500500D01*
X186239919Y-113500500D01*
X186239925Y-113500500D01*
X186396718Y-113485528D01*
X186598375Y-113426316D01*
X186785182Y-113330011D01*
X186950386Y-113200092D01*
X187088019Y-113041256D01*
X187193104Y-112859244D01*
X187261844Y-112660633D01*
X187291754Y-112452602D01*
X187281754Y-112242670D01*
X187232204Y-112038424D01*
X187232201Y-112038417D01*
X187144901Y-111847256D01*
X187144898Y-111847251D01*
X187144897Y-111847250D01*
X187144896Y-111847247D01*
X187022986Y-111676048D01*
X187022984Y-111676046D01*
X187022979Y-111676040D01*
X186870879Y-111531014D01*
X186694074Y-111417388D01*
X186498955Y-111339274D01*
X186292586Y-111299500D01*
X186292585Y-111299500D01*
X186135075Y-111299500D01*
X185978282Y-111314472D01*
X185978278Y-111314473D01*
X185776627Y-111373683D01*
X185589813Y-111469991D01*
X185424616Y-111599905D01*
X185424612Y-111599909D01*
X185286978Y-111758746D01*
X185181898Y-111940750D01*
X185113156Y-112139365D01*
X185113156Y-112139367D01*
X185098304Y-112242670D01*
X185083246Y-112347401D01*
X182639220Y-112347401D01*
X182623078Y-112121706D01*
X182604960Y-112038421D01*
X182563772Y-111849083D01*
X182563771Y-111849077D01*
X182466269Y-111587663D01*
X182373291Y-111417388D01*
X182332559Y-111342792D01*
X182332554Y-111342784D01*
X182165361Y-111119439D01*
X182165345Y-111119421D01*
X181968078Y-110922154D01*
X181968060Y-110922138D01*
X181744715Y-110754945D01*
X181744707Y-110754940D01*
X181499842Y-110621233D01*
X181499838Y-110621231D01*
X181400730Y-110584266D01*
X181238423Y-110523729D01*
X181238419Y-110523728D01*
X181238416Y-110523727D01*
X180965799Y-110464422D01*
X180757157Y-110449500D01*
X180617843Y-110449500D01*
X180409200Y-110464422D01*
X180136583Y-110523727D01*
X180136578Y-110523728D01*
X180136577Y-110523729D01*
X180073375Y-110547301D01*
X179875161Y-110621231D01*
X179875157Y-110621233D01*
X179630292Y-110754940D01*
X179630284Y-110754945D01*
X179406939Y-110922138D01*
X179406921Y-110922154D01*
X179209654Y-111119421D01*
X179209638Y-111119439D01*
X179042445Y-111342784D01*
X179042440Y-111342792D01*
X178908733Y-111587657D01*
X178908731Y-111587661D01*
X178811227Y-111849083D01*
X178751922Y-112121700D01*
X178732018Y-112399998D01*
X178732018Y-112400001D01*
X176289248Y-112400001D01*
X176281754Y-112242670D01*
X176232204Y-112038424D01*
X176232201Y-112038417D01*
X176144901Y-111847256D01*
X176144898Y-111847251D01*
X176144897Y-111847250D01*
X176144896Y-111847247D01*
X176022986Y-111676048D01*
X176022984Y-111676046D01*
X176022979Y-111676040D01*
X175870879Y-111531014D01*
X175694074Y-111417388D01*
X175498955Y-111339274D01*
X175292586Y-111299500D01*
X175292585Y-111299500D01*
X175135075Y-111299500D01*
X174978282Y-111314472D01*
X174978278Y-111314473D01*
X174776627Y-111373683D01*
X174589813Y-111469991D01*
X174424616Y-111599905D01*
X174424612Y-111599909D01*
X174286978Y-111758746D01*
X174181898Y-111940750D01*
X174113156Y-112139365D01*
X174113156Y-112139367D01*
X174098304Y-112242670D01*
X174083246Y-112347401D01*
X170188000Y-112347401D01*
X170188000Y-97600000D01*
X172982359Y-97600000D01*
X173002878Y-97821439D01*
X173063740Y-98035350D01*
X173162869Y-98234428D01*
X173178637Y-98255308D01*
X173178638Y-98255308D01*
X173743050Y-97690896D01*
X173743827Y-97701265D01*
X173793387Y-97827541D01*
X173877965Y-97933599D01*
X173990047Y-98010016D01*
X174097799Y-98043253D01*
X173534172Y-98606879D01*
X173534172Y-98606880D01*
X173650321Y-98678797D01*
X173650322Y-98678798D01*
X173857695Y-98759134D01*
X174076307Y-98800000D01*
X174298693Y-98800000D01*
X174517309Y-98759133D01*
X174724668Y-98678801D01*
X174724681Y-98678795D01*
X174840826Y-98606879D01*
X174275732Y-98041784D01*
X174321638Y-98034865D01*
X174443857Y-97976007D01*
X174543298Y-97883740D01*
X174611125Y-97766260D01*
X174628999Y-97687946D01*
X175196361Y-98255308D01*
X175212131Y-98234425D01*
X175212133Y-98234422D01*
X175311260Y-98035348D01*
X175311261Y-98035345D01*
X175317973Y-98011756D01*
X175355250Y-97952662D01*
X175418559Y-97923102D01*
X175487799Y-97932462D01*
X175540987Y-97977771D01*
X175556505Y-98011750D01*
X175563220Y-98035350D01*
X175563271Y-98035527D01*
X175563275Y-98035538D01*
X175662438Y-98234683D01*
X175662443Y-98234691D01*
X175796520Y-98412238D01*
X175960937Y-98562123D01*
X175960939Y-98562125D01*
X176150095Y-98679245D01*
X176150096Y-98679245D01*
X176150099Y-98679247D01*
X176357560Y-98759618D01*
X176576257Y-98800500D01*
X176576259Y-98800500D01*
X176798741Y-98800500D01*
X176798743Y-98800500D01*
X177017440Y-98759618D01*
X177224901Y-98679247D01*
X177414062Y-98562124D01*
X177578481Y-98412236D01*
X177712558Y-98234689D01*
X177811729Y-98035528D01*
X177818234Y-98012661D01*
X177855512Y-97953571D01*
X177918822Y-97924013D01*
X177988061Y-97933375D01*
X178041248Y-97978684D01*
X178056764Y-98012658D01*
X178063270Y-98035523D01*
X178063272Y-98035530D01*
X178063275Y-98035538D01*
X178162438Y-98234683D01*
X178162443Y-98234691D01*
X178296520Y-98412238D01*
X178460937Y-98562123D01*
X178460939Y-98562125D01*
X178650095Y-98679245D01*
X178650096Y-98679245D01*
X178650099Y-98679247D01*
X178857560Y-98759618D01*
X179076257Y-98800500D01*
X179076259Y-98800500D01*
X179298741Y-98800500D01*
X179298743Y-98800500D01*
X179517440Y-98759618D01*
X179724901Y-98679247D01*
X179914062Y-98562124D01*
X180078481Y-98412236D01*
X180212558Y-98234689D01*
X180311729Y-98035528D01*
X180372615Y-97821536D01*
X180393143Y-97600000D01*
X180391080Y-97577741D01*
X180372615Y-97378464D01*
X180372614Y-97378462D01*
X180364431Y-97349702D01*
X180311729Y-97164472D01*
X180304523Y-97150000D01*
X180212561Y-96965316D01*
X180212556Y-96965308D01*
X180078479Y-96787761D01*
X179914062Y-96637876D01*
X179914060Y-96637874D01*
X179724904Y-96520754D01*
X179724898Y-96520752D01*
X179517440Y-96440382D01*
X179298743Y-96399500D01*
X179076257Y-96399500D01*
X178857560Y-96440382D01*
X178726364Y-96491207D01*
X178650101Y-96520752D01*
X178650095Y-96520754D01*
X178460939Y-96637874D01*
X178460937Y-96637876D01*
X178296520Y-96787761D01*
X178162443Y-96965308D01*
X178162438Y-96965316D01*
X178063275Y-97164461D01*
X178063269Y-97164476D01*
X178056766Y-97187335D01*
X178019487Y-97246429D01*
X177956177Y-97275986D01*
X177886938Y-97266624D01*
X177833751Y-97221314D01*
X177818234Y-97187335D01*
X177811730Y-97164476D01*
X177811729Y-97164472D01*
X177804523Y-97150000D01*
X177712561Y-96965316D01*
X177712556Y-96965308D01*
X177578479Y-96787761D01*
X177414062Y-96637876D01*
X177414060Y-96637874D01*
X177224904Y-96520754D01*
X177224898Y-96520752D01*
X177017440Y-96440382D01*
X176798743Y-96399500D01*
X176576257Y-96399500D01*
X176357560Y-96440382D01*
X176226364Y-96491207D01*
X176150101Y-96520752D01*
X176150095Y-96520754D01*
X175960939Y-96637874D01*
X175960937Y-96637876D01*
X175796520Y-96787761D01*
X175662443Y-96965308D01*
X175662438Y-96965316D01*
X175563275Y-97164461D01*
X175563268Y-97164479D01*
X175556505Y-97188249D01*
X175519225Y-97247342D01*
X175455914Y-97276898D01*
X175386675Y-97267534D01*
X175333490Y-97222223D01*
X175317973Y-97188244D01*
X175311261Y-97164652D01*
X175311260Y-97164651D01*
X175212135Y-96965580D01*
X175212130Y-96965572D01*
X175196360Y-96944690D01*
X174631949Y-97509101D01*
X174631173Y-97498735D01*
X174581613Y-97372459D01*
X174497035Y-97266401D01*
X174384953Y-97189984D01*
X174277200Y-97156747D01*
X174840827Y-96593119D01*
X174724678Y-96521202D01*
X174724677Y-96521201D01*
X174517304Y-96440865D01*
X174298693Y-96400000D01*
X174076307Y-96400000D01*
X173857695Y-96440865D01*
X173650324Y-96521200D01*
X173650323Y-96521201D01*
X173534171Y-96593119D01*
X174099268Y-97158215D01*
X174053362Y-97165135D01*
X173931143Y-97223993D01*
X173831702Y-97316260D01*
X173763875Y-97433740D01*
X173746000Y-97512053D01*
X173178638Y-96944691D01*
X173178637Y-96944691D01*
X173162868Y-96965574D01*
X173063740Y-97164649D01*
X173002878Y-97378560D01*
X172982359Y-97599999D01*
X172982359Y-97600000D01*
X170188000Y-97600000D01*
X170188000Y-69322405D01*
X170207685Y-69255366D01*
X170260489Y-69209611D01*
X170329647Y-69199667D01*
X170393203Y-69228692D01*
X170425859Y-69273291D01*
X170501607Y-69448895D01*
X170501613Y-69448908D01*
X170676370Y-69751597D01*
X170885084Y-70031949D01*
X170885089Y-70031955D01*
X170975978Y-70128291D01*
X171124942Y-70286183D01*
X171268142Y-70406342D01*
X171392686Y-70510847D01*
X171392694Y-70510853D01*
X171684703Y-70702911D01*
X171684707Y-70702913D01*
X171997049Y-70859777D01*
X172325489Y-70979319D01*
X172665586Y-71059923D01*
X173012741Y-71100500D01*
X173012748Y-71100500D01*
X173362252Y-71100500D01*
X173362259Y-71100500D01*
X173709414Y-71059923D01*
X174049511Y-70979319D01*
X174377951Y-70859777D01*
X174690293Y-70702913D01*
X174982311Y-70510849D01*
X175250058Y-70286183D01*
X175489912Y-70031953D01*
X175698630Y-69751596D01*
X175873389Y-69448904D01*
X176011826Y-69127971D01*
X176112069Y-68793136D01*
X176131414Y-68683428D01*
X176172760Y-68448938D01*
X176172759Y-68448938D01*
X176172762Y-68448927D01*
X176193085Y-68100000D01*
X176172762Y-67751073D01*
X176167148Y-67719235D01*
X176112071Y-67406872D01*
X176112069Y-67406865D01*
X176107214Y-67390647D01*
X176011826Y-67072029D01*
X175873389Y-66751096D01*
X175698630Y-66448404D01*
X175518562Y-66206530D01*
X175489915Y-66168050D01*
X175489910Y-66168044D01*
X175369233Y-66040135D01*
X175250058Y-65913817D01*
X175101988Y-65789572D01*
X174982313Y-65689152D01*
X174982305Y-65689146D01*
X174690296Y-65497088D01*
X174377958Y-65340226D01*
X174374641Y-65338795D01*
X174375238Y-65337409D01*
X174323879Y-65299592D01*
X174298947Y-65234322D01*
X174313259Y-65165934D01*
X174362273Y-65116140D01*
X174422557Y-65100500D01*
X197662507Y-65100500D01*
X197729546Y-65120185D01*
G37*
%TD.AperFunction*%
%TA.AperFunction,Conductor*%
G36*
X218324919Y-76440855D02*
G01*
X218382139Y-76480950D01*
X218405029Y-76526245D01*
X218416604Y-76569445D01*
X218416606Y-76569450D01*
X218463341Y-76669673D01*
X218509966Y-76769662D01*
X218509968Y-76769666D01*
X218636670Y-76950615D01*
X218636675Y-76950621D01*
X218792878Y-77106824D01*
X218792884Y-77106829D01*
X218973833Y-77233531D01*
X218973835Y-77233532D01*
X218973838Y-77233534D01*
X219102689Y-77293618D01*
X219103281Y-77293894D01*
X219155720Y-77340066D01*
X219174872Y-77407260D01*
X219154656Y-77474141D01*
X219103281Y-77518658D01*
X218974086Y-77578903D01*
X218909312Y-77624257D01*
X218909311Y-77624258D01*
X219541248Y-78256194D01*
X219474531Y-78266762D01*
X219354577Y-78327882D01*
X219259382Y-78423077D01*
X219198262Y-78543031D01*
X219187695Y-78609748D01*
X218555758Y-77977811D01*
X218555757Y-77977812D01*
X218510403Y-78042586D01*
X218417079Y-78242720D01*
X218417075Y-78242729D01*
X218359926Y-78456013D01*
X218359924Y-78456023D01*
X218340679Y-78675999D01*
X218340679Y-78676000D01*
X218359924Y-78895976D01*
X218359926Y-78895986D01*
X218417075Y-79109270D01*
X218417080Y-79109284D01*
X218510399Y-79309407D01*
X218510400Y-79309409D01*
X218555758Y-79374187D01*
X219187695Y-78742250D01*
X219198262Y-78808969D01*
X219259382Y-78928923D01*
X219354577Y-79024118D01*
X219474531Y-79085238D01*
X219541248Y-79095804D01*
X218909311Y-79727741D01*
X218974082Y-79773094D01*
X218974088Y-79773098D01*
X219103281Y-79833342D01*
X219155720Y-79879514D01*
X219174872Y-79946708D01*
X219154656Y-80013589D01*
X219103281Y-80058106D01*
X218973840Y-80118465D01*
X218973838Y-80118466D01*
X218792877Y-80245175D01*
X218636675Y-80401377D01*
X218509966Y-80582338D01*
X218509965Y-80582340D01*
X218416607Y-80782548D01*
X218416604Y-80782554D01*
X218359430Y-80995929D01*
X218359429Y-80995937D01*
X218340177Y-81215997D01*
X218340177Y-81216002D01*
X218359429Y-81436062D01*
X218359430Y-81436070D01*
X218416604Y-81649445D01*
X218416605Y-81649447D01*
X218416606Y-81649450D01*
X218495281Y-81818169D01*
X218509966Y-81849662D01*
X218509968Y-81849666D01*
X218636670Y-82030615D01*
X218636675Y-82030621D01*
X218792878Y-82186824D01*
X218792884Y-82186829D01*
X218973833Y-82313531D01*
X218973835Y-82313532D01*
X218973838Y-82313534D01*
X219093248Y-82369215D01*
X219102689Y-82373618D01*
X219155128Y-82419790D01*
X219174280Y-82486984D01*
X219154064Y-82553865D01*
X219102689Y-82598382D01*
X218973840Y-82658465D01*
X218973838Y-82658466D01*
X218792877Y-82785175D01*
X218636675Y-82941377D01*
X218509966Y-83122338D01*
X218509965Y-83122340D01*
X218416607Y-83322548D01*
X218416604Y-83322554D01*
X218359430Y-83535929D01*
X218359429Y-83535937D01*
X218340177Y-83755997D01*
X218340177Y-83756002D01*
X218359429Y-83976062D01*
X218359430Y-83976070D01*
X218416604Y-84189445D01*
X218416605Y-84189447D01*
X218416606Y-84189450D01*
X218490360Y-84347617D01*
X218509966Y-84389662D01*
X218509968Y-84389666D01*
X218636670Y-84570615D01*
X218636675Y-84570621D01*
X218792878Y-84726824D01*
X218792884Y-84726829D01*
X218973833Y-84853531D01*
X218973835Y-84853532D01*
X218973838Y-84853534D01*
X219093248Y-84909215D01*
X219102689Y-84913618D01*
X219155128Y-84959790D01*
X219174280Y-85026984D01*
X219154064Y-85093865D01*
X219102689Y-85138382D01*
X218973840Y-85198465D01*
X218973838Y-85198466D01*
X218792877Y-85325175D01*
X218636675Y-85481377D01*
X218509966Y-85662338D01*
X218509965Y-85662340D01*
X218416607Y-85862548D01*
X218416604Y-85862554D01*
X218359430Y-86075929D01*
X218359429Y-86075937D01*
X218341004Y-86286547D01*
X218340177Y-86296000D01*
X218359429Y-86516062D01*
X218359430Y-86516066D01*
X218359430Y-86516070D01*
X218371207Y-86560021D01*
X218369544Y-86629871D01*
X218339113Y-86679795D01*
X212803708Y-92215199D01*
X212791451Y-92225020D01*
X212791634Y-92225241D01*
X212785623Y-92230213D01*
X212738272Y-92280636D01*
X212717389Y-92301519D01*
X212717377Y-92301532D01*
X212713121Y-92307017D01*
X212709337Y-92311447D01*
X212677437Y-92345418D01*
X212677436Y-92345420D01*
X212667784Y-92362976D01*
X212657110Y-92379226D01*
X212644829Y-92395061D01*
X212644824Y-92395068D01*
X212626315Y-92437838D01*
X212623745Y-92443084D01*
X212601303Y-92483906D01*
X212596322Y-92503307D01*
X212590021Y-92521710D01*
X212582064Y-92540098D01*
X212582061Y-92540105D01*
X212574771Y-92586127D01*
X212573587Y-92591846D01*
X212562001Y-92636972D01*
X212562000Y-92636982D01*
X212562000Y-92657016D01*
X212560473Y-92676413D01*
X212557340Y-92696196D01*
X212560316Y-92727673D01*
X212561725Y-92742583D01*
X212562000Y-92748421D01*
X212562000Y-93401312D01*
X212542315Y-93468351D01*
X212530150Y-93484284D01*
X212454966Y-93567784D01*
X212360321Y-93731715D01*
X212360318Y-93731722D01*
X212308010Y-93892712D01*
X212301826Y-93911744D01*
X212282040Y-94100000D01*
X212301826Y-94288256D01*
X212301827Y-94288259D01*
X212360318Y-94468277D01*
X212360321Y-94468284D01*
X212454967Y-94632216D01*
X212507362Y-94690406D01*
X212581629Y-94772888D01*
X212734765Y-94884148D01*
X212734766Y-94884148D01*
X212734770Y-94884151D01*
X212766448Y-94898255D01*
X212819685Y-94943505D01*
X212840006Y-95010354D01*
X212820961Y-95077578D01*
X212803693Y-95099215D01*
X207997630Y-99905278D01*
X207936307Y-99938763D01*
X207866615Y-99933779D01*
X207810682Y-99891907D01*
X207786265Y-99826443D01*
X207790873Y-99783000D01*
X207792934Y-99775904D01*
X207792938Y-99775895D01*
X207800229Y-99729853D01*
X207801408Y-99724162D01*
X207813000Y-99679019D01*
X207813000Y-99658983D01*
X207814527Y-99639582D01*
X207817660Y-99619804D01*
X207813275Y-99573415D01*
X207813000Y-99567577D01*
X207813000Y-80182738D01*
X207814724Y-80167124D01*
X207814438Y-80167097D01*
X207815172Y-80159334D01*
X207813000Y-80090203D01*
X207813000Y-80060651D01*
X207813000Y-80060650D01*
X207812129Y-80053759D01*
X207811672Y-80047945D01*
X207811670Y-80047897D01*
X207810209Y-80001373D01*
X207804674Y-79982325D01*
X207804622Y-79982144D01*
X207800674Y-79963084D01*
X207798913Y-79949142D01*
X207798164Y-79943208D01*
X207781007Y-79899875D01*
X207779119Y-79894359D01*
X207766119Y-79849612D01*
X207755918Y-79832363D01*
X207747360Y-79814894D01*
X207739986Y-79796268D01*
X207739983Y-79796264D01*
X207739983Y-79796263D01*
X207712598Y-79758571D01*
X207709390Y-79753687D01*
X207685672Y-79713582D01*
X207685663Y-79713571D01*
X207671505Y-79699413D01*
X207658870Y-79684620D01*
X207647093Y-79668412D01*
X207611193Y-79638713D01*
X207606881Y-79634790D01*
X206409272Y-78437181D01*
X206375787Y-78375858D01*
X206380771Y-78306166D01*
X206422643Y-78250233D01*
X206488107Y-78225816D01*
X206496953Y-78225500D01*
X216104757Y-78225500D01*
X216120377Y-78227224D01*
X216120404Y-78226939D01*
X216128160Y-78227671D01*
X216128167Y-78227673D01*
X216197314Y-78225500D01*
X216226850Y-78225500D01*
X216233728Y-78224630D01*
X216239541Y-78224172D01*
X216286127Y-78222709D01*
X216305369Y-78217117D01*
X216324412Y-78213174D01*
X216344292Y-78210664D01*
X216387622Y-78193507D01*
X216393146Y-78191617D01*
X216396896Y-78190527D01*
X216437890Y-78178618D01*
X216455129Y-78168422D01*
X216472603Y-78159862D01*
X216491227Y-78152488D01*
X216491227Y-78152487D01*
X216491232Y-78152486D01*
X216528949Y-78125082D01*
X216533805Y-78121892D01*
X216573920Y-78098170D01*
X216588089Y-78083999D01*
X216602879Y-78071368D01*
X216619087Y-78059594D01*
X216648799Y-78023676D01*
X216652712Y-78019376D01*
X218071287Y-76600802D01*
X218083542Y-76590986D01*
X218083359Y-76590764D01*
X218089366Y-76585792D01*
X218089377Y-76585786D01*
X218120275Y-76552882D01*
X218136727Y-76535364D01*
X218157616Y-76514475D01*
X218157616Y-76514474D01*
X218157620Y-76514471D01*
X218161871Y-76508989D01*
X218165649Y-76504564D01*
X218194865Y-76473453D01*
X218255105Y-76438061D01*
X218324919Y-76440855D01*
G37*
%TD.AperFunction*%
%TA.AperFunction,Conductor*%
G36*
X231171199Y-67245185D02*
G01*
X231216954Y-67297989D01*
X231226898Y-67367147D01*
X231197873Y-67430703D01*
X231191841Y-67437181D01*
X231167842Y-67461179D01*
X231037365Y-67647517D01*
X230941234Y-67853673D01*
X230941230Y-67853682D01*
X230882360Y-68073389D01*
X230882358Y-68073400D01*
X230867500Y-68243237D01*
X230867500Y-68250000D01*
X231733814Y-68250000D01*
X231708007Y-68290156D01*
X231667500Y-68428111D01*
X231667500Y-68571889D01*
X231708007Y-68709844D01*
X231733814Y-68750000D01*
X230867500Y-68750000D01*
X230867500Y-68756763D01*
X230882358Y-68926599D01*
X230882360Y-68926610D01*
X230941230Y-69146317D01*
X230941234Y-69146326D01*
X231037365Y-69352482D01*
X231167842Y-69538820D01*
X231328679Y-69699657D01*
X231515017Y-69830134D01*
X231721173Y-69926265D01*
X231721182Y-69926269D01*
X231917499Y-69978872D01*
X231917500Y-69978871D01*
X231917500Y-68935501D01*
X232025185Y-68984680D01*
X232131737Y-69000000D01*
X232203263Y-69000000D01*
X232309815Y-68984680D01*
X232417500Y-68935501D01*
X232417500Y-69978872D01*
X232613817Y-69926269D01*
X232613826Y-69926265D01*
X232819982Y-69830134D01*
X233006320Y-69699657D01*
X233167157Y-69538820D01*
X233297632Y-69352484D01*
X233324841Y-69294134D01*
X233371013Y-69241695D01*
X233438207Y-69222542D01*
X233505088Y-69242757D01*
X233549606Y-69294133D01*
X233576931Y-69352732D01*
X233576932Y-69352734D01*
X233707454Y-69539141D01*
X233868358Y-69700045D01*
X233869008Y-69700500D01*
X234054766Y-69830568D01*
X234261004Y-69926739D01*
X234480808Y-69985635D01*
X234642730Y-69999801D01*
X234707498Y-70005468D01*
X234707500Y-70005468D01*
X234707502Y-70005468D01*
X234764173Y-70000509D01*
X234934192Y-69985635D01*
X235153996Y-69926739D01*
X235360234Y-69830568D01*
X235546639Y-69700047D01*
X235707547Y-69539139D01*
X235838068Y-69352734D01*
X235865118Y-69294724D01*
X235911290Y-69242285D01*
X235978483Y-69223133D01*
X236045365Y-69243348D01*
X236089882Y-69294725D01*
X236116929Y-69352728D01*
X236116932Y-69352734D01*
X236247454Y-69539141D01*
X236408358Y-69700045D01*
X236569123Y-69812613D01*
X236612748Y-69867189D01*
X236622000Y-69914188D01*
X236622000Y-81229547D01*
X236602315Y-81296586D01*
X236585681Y-81317228D01*
X234808728Y-83094181D01*
X234747405Y-83127666D01*
X234721047Y-83130500D01*
X220775299Y-83130500D01*
X220708260Y-83110815D01*
X220673724Y-83077623D01*
X220578327Y-82941381D01*
X220503834Y-82866888D01*
X220422120Y-82785174D01*
X220422116Y-82785171D01*
X220422115Y-82785170D01*
X220241166Y-82658468D01*
X220241158Y-82658464D01*
X220112311Y-82598382D01*
X220059871Y-82552210D01*
X220040719Y-82485017D01*
X220060935Y-82418135D01*
X220112311Y-82373618D01*
X220118302Y-82370824D01*
X220241162Y-82313534D01*
X220422120Y-82186826D01*
X220578326Y-82030620D01*
X220705034Y-81849662D01*
X220798394Y-81649450D01*
X220855570Y-81436068D01*
X220873459Y-81231587D01*
X220874823Y-81216002D01*
X220874823Y-81215997D01*
X220862942Y-81080194D01*
X220855570Y-80995932D01*
X220798394Y-80782550D01*
X220705034Y-80582339D01*
X220641680Y-80491859D01*
X220578327Y-80401381D01*
X220536036Y-80359090D01*
X220422120Y-80245174D01*
X220422116Y-80245171D01*
X220422115Y-80245170D01*
X220241166Y-80118468D01*
X220241158Y-80118464D01*
X220111719Y-80058106D01*
X220059279Y-80011934D01*
X220040127Y-79944741D01*
X220060343Y-79877859D01*
X220111719Y-79833342D01*
X220240908Y-79773100D01*
X220240920Y-79773093D01*
X220305686Y-79727742D01*
X220305687Y-79727740D01*
X219673752Y-79095804D01*
X219740469Y-79085238D01*
X219860423Y-79024118D01*
X219955618Y-78928923D01*
X220016738Y-78808969D01*
X220027304Y-78742251D01*
X220659240Y-79374187D01*
X220659242Y-79374186D01*
X220704593Y-79309420D01*
X220704600Y-79309408D01*
X220797919Y-79109284D01*
X220797924Y-79109270D01*
X220855073Y-78895986D01*
X220855075Y-78895976D01*
X220874321Y-78676000D01*
X220874321Y-78675999D01*
X220855075Y-78456023D01*
X220855073Y-78456013D01*
X220797924Y-78242729D01*
X220797920Y-78242720D01*
X220704598Y-78042590D01*
X220659240Y-77977811D01*
X220027304Y-78609747D01*
X220016738Y-78543031D01*
X219955618Y-78423077D01*
X219860423Y-78327882D01*
X219740469Y-78266762D01*
X219673751Y-78256195D01*
X220305687Y-77624258D01*
X220240909Y-77578900D01*
X220240907Y-77578899D01*
X220111719Y-77518658D01*
X220059279Y-77472486D01*
X220040127Y-77405293D01*
X220060343Y-77338411D01*
X220111719Y-77293894D01*
X220112311Y-77293618D01*
X220241162Y-77233534D01*
X220422120Y-77106826D01*
X220578326Y-76950620D01*
X220705034Y-76769662D01*
X220798394Y-76569450D01*
X220855570Y-76356068D01*
X220874823Y-76136000D01*
X220873897Y-76125419D01*
X220862265Y-75992455D01*
X220855570Y-75915932D01*
X220798394Y-75702550D01*
X220705034Y-75502339D01*
X220593925Y-75343658D01*
X220578327Y-75321381D01*
X220539818Y-75282872D01*
X220422120Y-75165174D01*
X220422116Y-75165171D01*
X220422115Y-75165170D01*
X220241166Y-75038468D01*
X220241158Y-75038464D01*
X220112311Y-74978382D01*
X220059871Y-74932210D01*
X220040719Y-74865017D01*
X220060935Y-74798135D01*
X220112311Y-74753618D01*
X220118302Y-74750824D01*
X220241162Y-74693534D01*
X220422120Y-74566826D01*
X220578326Y-74410620D01*
X220673725Y-74274376D01*
X220728302Y-74230752D01*
X220775300Y-74221500D01*
X223480150Y-74221500D01*
X223547189Y-74241185D01*
X223572300Y-74262528D01*
X223581623Y-74272883D01*
X223581630Y-74272889D01*
X223734765Y-74384148D01*
X223734770Y-74384151D01*
X223907692Y-74461142D01*
X223907697Y-74461144D01*
X224092854Y-74500500D01*
X224092855Y-74500500D01*
X224282144Y-74500500D01*
X224282146Y-74500500D01*
X224467303Y-74461144D01*
X224640230Y-74384151D01*
X224793371Y-74272888D01*
X224920033Y-74132216D01*
X225014679Y-73968284D01*
X225073174Y-73788256D01*
X225092960Y-73600000D01*
X225073174Y-73411744D01*
X225014679Y-73231716D01*
X224920033Y-73067784D01*
X224793371Y-72927112D01*
X224785621Y-72921481D01*
X224640234Y-72815851D01*
X224640229Y-72815848D01*
X224467307Y-72738857D01*
X224467302Y-72738855D01*
X224321501Y-72707865D01*
X224282146Y-72699500D01*
X224092854Y-72699500D01*
X224060397Y-72706398D01*
X223907697Y-72738855D01*
X223907692Y-72738857D01*
X223734770Y-72815848D01*
X223734765Y-72815851D01*
X223581635Y-72927106D01*
X223581628Y-72927112D01*
X223579503Y-72929473D01*
X223577933Y-72930440D01*
X223576805Y-72931456D01*
X223576619Y-72931249D01*
X223520016Y-72966121D01*
X223487354Y-72970500D01*
X220775299Y-72970500D01*
X220708260Y-72950815D01*
X220673724Y-72917623D01*
X220578327Y-72781381D01*
X220517950Y-72721004D01*
X220422120Y-72625174D01*
X220422116Y-72625171D01*
X220422115Y-72625170D01*
X220241166Y-72498468D01*
X220241158Y-72498464D01*
X220112311Y-72438382D01*
X220059871Y-72392210D01*
X220040719Y-72325017D01*
X220060935Y-72258135D01*
X220112311Y-72213618D01*
X220137590Y-72201830D01*
X220241162Y-72153534D01*
X220422120Y-72026826D01*
X220578326Y-71870620D01*
X220705034Y-71689662D01*
X220798394Y-71489450D01*
X220855570Y-71276068D01*
X220874823Y-71056000D01*
X220855570Y-70835932D01*
X220798394Y-70622550D01*
X220705034Y-70422339D01*
X220609697Y-70286183D01*
X220578327Y-70241381D01*
X220527131Y-70190185D01*
X220422120Y-70085174D01*
X220422116Y-70085171D01*
X220422115Y-70085170D01*
X220241166Y-69958468D01*
X220241162Y-69958466D01*
X220241160Y-69958465D01*
X220040950Y-69865106D01*
X220040947Y-69865105D01*
X220040945Y-69865104D01*
X219827570Y-69807930D01*
X219827562Y-69807929D01*
X219607502Y-69788677D01*
X219607498Y-69788677D01*
X219387437Y-69807929D01*
X219387429Y-69807930D01*
X219174054Y-69865104D01*
X219174048Y-69865107D01*
X218973840Y-69958465D01*
X218973838Y-69958466D01*
X218792877Y-70085175D01*
X218636675Y-70241377D01*
X218538575Y-70381481D01*
X218483999Y-70425106D01*
X218414500Y-70432300D01*
X218352145Y-70400778D01*
X218316731Y-70340548D01*
X218313000Y-70310358D01*
X218313000Y-68410452D01*
X218332685Y-68343413D01*
X218349319Y-68322771D01*
X219410272Y-67261819D01*
X219471595Y-67228334D01*
X219497953Y-67225500D01*
X231104160Y-67225500D01*
X231171199Y-67245185D01*
G37*
%TD.AperFunction*%
%TD*%
M02*
