%TF.GenerationSoftware,KiCad,Pcbnew,7.0.9*%
%TF.CreationDate,2024-05-12T00:48:34+09:00*%
%TF.ProjectId,hid taiko opeammm,68696420-7461-4696-9b6f-206f7065616d,rev?*%
%TF.SameCoordinates,Original*%
%TF.FileFunction,Soldermask,Bot*%
%TF.FilePolarity,Negative*%
%FSLAX46Y46*%
G04 Gerber Fmt 4.6, Leading zero omitted, Abs format (unit mm)*
G04 Created by KiCad (PCBNEW 7.0.9) date 2024-05-12 00:48:34*
%MOMM*%
%LPD*%
G01*
G04 APERTURE LIST*
G04 Aperture macros list*
%AMRoundRect*
0 Rectangle with rounded corners*
0 $1 Rounding radius*
0 $2 $3 $4 $5 $6 $7 $8 $9 X,Y pos of 4 corners*
0 Add a 4 corners polygon primitive as box body*
4,1,4,$2,$3,$4,$5,$6,$7,$8,$9,$2,$3,0*
0 Add four circle primitives for the rounded corners*
1,1,$1+$1,$2,$3*
1,1,$1+$1,$4,$5*
1,1,$1+$1,$6,$7*
1,1,$1+$1,$8,$9*
0 Add four rect primitives between the rounded corners*
20,1,$1+$1,$2,$3,$4,$5,0*
20,1,$1+$1,$4,$5,$6,$7,0*
20,1,$1+$1,$6,$7,$8,$9,0*
20,1,$1+$1,$8,$9,$2,$3,0*%
G04 Aperture macros list end*
%ADD10C,5.000000*%
%ADD11C,2.000000*%
%ADD12R,2.500000X3.000000*%
%ADD13R,2.000000X2.000000*%
%ADD14R,1.346200X1.346200*%
%ADD15C,1.346200*%
%ADD16C,1.800000*%
%ADD17C,1.700000*%
%ADD18C,3.400000*%
%ADD19O,1.600000X1.200000*%
%ADD20O,1.600000X2.000000*%
%ADD21C,1.400000*%
%ADD22RoundRect,0.250000X-0.250000X-0.475000X0.250000X-0.475000X0.250000X0.475000X-0.250000X0.475000X0*%
%ADD23R,1.511300X0.558800*%
%ADD24RoundRect,0.250000X-0.262500X-0.450000X0.262500X-0.450000X0.262500X0.450000X-0.262500X0.450000X0*%
%ADD25C,1.524000*%
%ADD26RoundRect,0.250000X0.262500X0.450000X-0.262500X0.450000X-0.262500X-0.450000X0.262500X-0.450000X0*%
G04 APERTURE END LIST*
D10*
%TO.C,*%
X225187500Y-98600000D03*
%TD*%
%TO.C,*%
X173187500Y-68100000D03*
%TD*%
%TO.C,*%
X265187500Y-68100000D03*
%TD*%
%TO.C,J2*%
X265187500Y-120100000D03*
%TD*%
D11*
%TO.C,SW1*%
X255687500Y-91850000D03*
X260687500Y-91850000D03*
D12*
X252587500Y-84850000D03*
X263787500Y-84850000D03*
D11*
X258187500Y-77350000D03*
X255687500Y-77350000D03*
D13*
X260687500Y-77350000D03*
%TD*%
D14*
%TO.C,10k2*%
X198760000Y-66360000D03*
D15*
X201300000Y-68900000D03*
X198760000Y-71440000D03*
%TD*%
D14*
%TO.C,10k1*%
X198647500Y-75948700D03*
D15*
X201187500Y-78488700D03*
X198647500Y-81028700D03*
%TD*%
D11*
%TO.C,SW7*%
X261237500Y-99100000D03*
X254737500Y-99100000D03*
%TD*%
D16*
%TO.C,J4*%
X176222500Y-87325000D03*
X173682500Y-87325000D03*
%TD*%
D17*
%TO.C,SW4*%
X232487500Y-112400000D03*
D18*
X237987500Y-112400000D03*
D17*
X243487500Y-112400000D03*
D19*
X232987500Y-116100000D03*
X237987500Y-118300000D03*
%TD*%
D17*
%TO.C,SW5*%
X194387500Y-112400000D03*
D18*
X199887500Y-112400000D03*
D17*
X205387500Y-112400000D03*
D19*
X194887500Y-116100000D03*
X199887500Y-118300000D03*
%TD*%
D16*
%TO.C,J2*%
X173682500Y-84785000D03*
X176222500Y-84785000D03*
%TD*%
D20*
%TO.C,Brd1*%
X232167500Y-68500000D03*
X234707500Y-68500000D03*
X237247500Y-68500000D03*
X239787500Y-68500000D03*
%TD*%
D17*
%TO.C,SW3*%
X175187500Y-112400000D03*
D18*
X180687500Y-112400000D03*
D17*
X186187500Y-112400000D03*
D19*
X175687500Y-116100000D03*
X180687500Y-118300000D03*
%TD*%
D21*
%TO.C,SW2*%
X179187500Y-97600000D03*
X176687500Y-97600000D03*
X174187500Y-97600000D03*
%TD*%
D22*
%TO.C,C1*%
X260537500Y-74400000D03*
X258637500Y-74400000D03*
%TD*%
D16*
%TO.C,J3*%
X176222500Y-89865000D03*
X173682500Y-89865000D03*
%TD*%
D17*
%TO.C,SW6*%
X213487500Y-112400000D03*
D18*
X218987500Y-112400000D03*
D17*
X224487500Y-112400000D03*
D19*
X213987500Y-116100000D03*
X218987500Y-118300000D03*
%TD*%
D16*
%TO.C,J1*%
X173682500Y-82245000D03*
X176222500Y-82245000D03*
%TD*%
D14*
%TO.C,10k3*%
X198420100Y-93710000D03*
D15*
X200960100Y-96250000D03*
X198420100Y-98790000D03*
%TD*%
D14*
%TO.C,10k4*%
X198637500Y-84850000D03*
D15*
X201177500Y-87390000D03*
X198637500Y-89930000D03*
%TD*%
D22*
%TO.C,C2*%
X258487500Y-71350000D03*
X256587500Y-71350000D03*
%TD*%
D23*
%TO.C,U4*%
X191037500Y-98750000D03*
X191037500Y-97480000D03*
X191037500Y-96210000D03*
X191037500Y-94940000D03*
X185436800Y-94940000D03*
X185436800Y-96210000D03*
X185436800Y-97480000D03*
X185436800Y-98750000D03*
%TD*%
D24*
%TO.C,R7*%
X187164900Y-73588700D03*
X188989900Y-73588700D03*
%TD*%
%TO.C,R10*%
X194025000Y-86850000D03*
X195850000Y-86850000D03*
%TD*%
%TO.C,R11*%
X194264900Y-68500000D03*
X196089900Y-68500000D03*
%TD*%
%TO.C,R1*%
X194252400Y-78688700D03*
X196077400Y-78688700D03*
%TD*%
%TO.C,R2*%
X193625000Y-97350000D03*
X195450000Y-97350000D03*
%TD*%
D25*
%TO.C,U1*%
X219607500Y-71056000D03*
X219607500Y-73596000D03*
X219607500Y-76136000D03*
X219607500Y-78676000D03*
X219607500Y-81216000D03*
X219607500Y-83756000D03*
X219607500Y-86296000D03*
X219607500Y-88836000D03*
X219607500Y-91376000D03*
X219607500Y-93916000D03*
X219607500Y-96456000D03*
X219607500Y-98996000D03*
X204367500Y-98996000D03*
X204367500Y-96456000D03*
X204367500Y-93916000D03*
X204367500Y-91376000D03*
X204367500Y-88836000D03*
X204367500Y-86296000D03*
X204367500Y-83756000D03*
X204367500Y-81216000D03*
X204367500Y-78676000D03*
X204367500Y-76136000D03*
X204367500Y-73596000D03*
X204367500Y-71056000D03*
%TD*%
D24*
%TO.C,R12*%
X187153750Y-87880000D03*
X188978750Y-87880000D03*
%TD*%
%TO.C,R9*%
X181317500Y-87525000D03*
X183142500Y-87525000D03*
%TD*%
%TO.C,R5*%
X193225000Y-92850000D03*
X195050000Y-92850000D03*
%TD*%
D26*
%TO.C,R6*%
X183127500Y-84885000D03*
X181302500Y-84885000D03*
%TD*%
D24*
%TO.C,R4*%
X192664900Y-73588700D03*
X194489900Y-73588700D03*
%TD*%
D23*
%TO.C,U3*%
X186364200Y-80228700D03*
X186364200Y-78958700D03*
X186364200Y-77688700D03*
X186364200Y-76418700D03*
X191964900Y-76418700D03*
X191964900Y-77688700D03*
X191964900Y-78958700D03*
X191964900Y-80228700D03*
%TD*%
D24*
%TO.C,R8*%
X181317500Y-90025000D03*
X183142500Y-90025000D03*
%TD*%
D26*
%TO.C,R3*%
X183127500Y-82345000D03*
X181302500Y-82345000D03*
%TD*%
M02*
