%TF.GenerationSoftware,KiCad,Pcbnew,7.0.9*%
%TF.CreationDate,2024-05-12T00:48:34+09:00*%
%TF.ProjectId,hid taiko opeammm,68696420-7461-4696-9b6f-206f7065616d,rev?*%
%TF.SameCoordinates,Original*%
%TF.FileFunction,Soldermask,Top*%
%TF.FilePolarity,Negative*%
%FSLAX46Y46*%
G04 Gerber Fmt 4.6, Leading zero omitted, Abs format (unit mm)*
G04 Created by KiCad (PCBNEW 7.0.9) date 2024-05-12 00:48:34*
%MOMM*%
%LPD*%
G01*
G04 APERTURE LIST*
%ADD10C,5.000000*%
%ADD11C,2.000000*%
%ADD12R,2.500000X3.000000*%
%ADD13R,2.000000X2.000000*%
%ADD14R,1.346200X1.346200*%
%ADD15C,1.346200*%
%ADD16C,1.800000*%
%ADD17C,1.700000*%
%ADD18C,3.400000*%
%ADD19O,1.600000X1.200000*%
%ADD20O,1.600000X2.000000*%
%ADD21C,1.400000*%
%ADD22C,1.524000*%
G04 APERTURE END LIST*
D10*
%TO.C,*%
X225187500Y-98600000D03*
%TD*%
%TO.C,*%
X173187500Y-68100000D03*
%TD*%
%TO.C,*%
X265187500Y-68100000D03*
%TD*%
%TO.C,J2*%
X265187500Y-120100000D03*
%TD*%
D11*
%TO.C,SW1*%
X255687500Y-91850000D03*
X260687500Y-91850000D03*
D12*
X252587500Y-84850000D03*
X263787500Y-84850000D03*
D11*
X258187500Y-77350000D03*
X255687500Y-77350000D03*
D13*
X260687500Y-77350000D03*
%TD*%
D14*
%TO.C,10k2*%
X198760000Y-66360000D03*
D15*
X201300000Y-68900000D03*
X198760000Y-71440000D03*
%TD*%
D14*
%TO.C,10k1*%
X198647500Y-75948700D03*
D15*
X201187500Y-78488700D03*
X198647500Y-81028700D03*
%TD*%
D11*
%TO.C,SW7*%
X261237500Y-99100000D03*
X254737500Y-99100000D03*
%TD*%
D16*
%TO.C,J4*%
X176222500Y-87325000D03*
X173682500Y-87325000D03*
%TD*%
D17*
%TO.C,SW4*%
X232487500Y-112400000D03*
D18*
X237987500Y-112400000D03*
D17*
X243487500Y-112400000D03*
D19*
X232987500Y-116100000D03*
X237987500Y-118300000D03*
%TD*%
D17*
%TO.C,SW5*%
X194387500Y-112400000D03*
D18*
X199887500Y-112400000D03*
D17*
X205387500Y-112400000D03*
D19*
X194887500Y-116100000D03*
X199887500Y-118300000D03*
%TD*%
D16*
%TO.C,J2*%
X173682500Y-84785000D03*
X176222500Y-84785000D03*
%TD*%
D20*
%TO.C,Brd1*%
X232167500Y-68500000D03*
X234707500Y-68500000D03*
X237247500Y-68500000D03*
X239787500Y-68500000D03*
%TD*%
D17*
%TO.C,SW3*%
X175187500Y-112400000D03*
D18*
X180687500Y-112400000D03*
D17*
X186187500Y-112400000D03*
D19*
X175687500Y-116100000D03*
X180687500Y-118300000D03*
%TD*%
D21*
%TO.C,SW2*%
X179187500Y-97600000D03*
X176687500Y-97600000D03*
X174187500Y-97600000D03*
%TD*%
D16*
%TO.C,J3*%
X176222500Y-89865000D03*
X173682500Y-89865000D03*
%TD*%
D17*
%TO.C,SW6*%
X213487500Y-112400000D03*
D18*
X218987500Y-112400000D03*
D17*
X224487500Y-112400000D03*
D19*
X213987500Y-116100000D03*
X218987500Y-118300000D03*
%TD*%
D16*
%TO.C,J1*%
X173682500Y-82245000D03*
X176222500Y-82245000D03*
%TD*%
D14*
%TO.C,10k3*%
X198420100Y-93710000D03*
D15*
X200960100Y-96250000D03*
X198420100Y-98790000D03*
%TD*%
D14*
%TO.C,10k4*%
X198637500Y-84850000D03*
D15*
X201177500Y-87390000D03*
X198637500Y-89930000D03*
%TD*%
D22*
%TO.C,U1*%
X219607500Y-71056000D03*
X219607500Y-73596000D03*
X219607500Y-76136000D03*
X219607500Y-78676000D03*
X219607500Y-81216000D03*
X219607500Y-83756000D03*
X219607500Y-86296000D03*
X219607500Y-88836000D03*
X219607500Y-91376000D03*
X219607500Y-93916000D03*
X219607500Y-96456000D03*
X219607500Y-98996000D03*
X204367500Y-98996000D03*
X204367500Y-96456000D03*
X204367500Y-93916000D03*
X204367500Y-91376000D03*
X204367500Y-88836000D03*
X204367500Y-86296000D03*
X204367500Y-83756000D03*
X204367500Y-81216000D03*
X204367500Y-78676000D03*
X204367500Y-76136000D03*
X204367500Y-73596000D03*
X204367500Y-71056000D03*
%TD*%
M02*
