%TF.GenerationSoftware,KiCad,Pcbnew,7.0.9*%
%TF.CreationDate,2024-05-12T00:48:34+09:00*%
%TF.ProjectId,hid taiko opeammm,68696420-7461-4696-9b6f-206f7065616d,rev?*%
%TF.SameCoordinates,Original*%
%TF.FileFunction,Paste,Bot*%
%TF.FilePolarity,Positive*%
%FSLAX46Y46*%
G04 Gerber Fmt 4.6, Leading zero omitted, Abs format (unit mm)*
G04 Created by KiCad (PCBNEW 7.0.9) date 2024-05-12 00:48:34*
%MOMM*%
%LPD*%
G01*
G04 APERTURE LIST*
G04 Aperture macros list*
%AMRoundRect*
0 Rectangle with rounded corners*
0 $1 Rounding radius*
0 $2 $3 $4 $5 $6 $7 $8 $9 X,Y pos of 4 corners*
0 Add a 4 corners polygon primitive as box body*
4,1,4,$2,$3,$4,$5,$6,$7,$8,$9,$2,$3,0*
0 Add four circle primitives for the rounded corners*
1,1,$1+$1,$2,$3*
1,1,$1+$1,$4,$5*
1,1,$1+$1,$6,$7*
1,1,$1+$1,$8,$9*
0 Add four rect primitives between the rounded corners*
20,1,$1+$1,$2,$3,$4,$5,0*
20,1,$1+$1,$4,$5,$6,$7,0*
20,1,$1+$1,$6,$7,$8,$9,0*
20,1,$1+$1,$8,$9,$2,$3,0*%
G04 Aperture macros list end*
%ADD10RoundRect,0.250000X-0.250000X-0.475000X0.250000X-0.475000X0.250000X0.475000X-0.250000X0.475000X0*%
%ADD11R,1.511300X0.558800*%
%ADD12RoundRect,0.250000X-0.262500X-0.450000X0.262500X-0.450000X0.262500X0.450000X-0.262500X0.450000X0*%
%ADD13RoundRect,0.250000X0.262500X0.450000X-0.262500X0.450000X-0.262500X-0.450000X0.262500X-0.450000X0*%
G04 APERTURE END LIST*
D10*
%TO.C,C1*%
X260537500Y-74400000D03*
X258637500Y-74400000D03*
%TD*%
%TO.C,C2*%
X258487500Y-71350000D03*
X256587500Y-71350000D03*
%TD*%
D11*
%TO.C,U4*%
X191037500Y-98750000D03*
X191037500Y-97480000D03*
X191037500Y-96210000D03*
X191037500Y-94940000D03*
X185436800Y-94940000D03*
X185436800Y-96210000D03*
X185436800Y-97480000D03*
X185436800Y-98750000D03*
%TD*%
D12*
%TO.C,R7*%
X187164900Y-73588700D03*
X188989900Y-73588700D03*
%TD*%
%TO.C,R10*%
X194025000Y-86850000D03*
X195850000Y-86850000D03*
%TD*%
%TO.C,R11*%
X194264900Y-68500000D03*
X196089900Y-68500000D03*
%TD*%
%TO.C,R1*%
X194252400Y-78688700D03*
X196077400Y-78688700D03*
%TD*%
%TO.C,R2*%
X193625000Y-97350000D03*
X195450000Y-97350000D03*
%TD*%
%TO.C,R12*%
X187153750Y-87880000D03*
X188978750Y-87880000D03*
%TD*%
%TO.C,R9*%
X181317500Y-87525000D03*
X183142500Y-87525000D03*
%TD*%
%TO.C,R5*%
X193225000Y-92850000D03*
X195050000Y-92850000D03*
%TD*%
D13*
%TO.C,R6*%
X183127500Y-84885000D03*
X181302500Y-84885000D03*
%TD*%
D12*
%TO.C,R4*%
X192664900Y-73588700D03*
X194489900Y-73588700D03*
%TD*%
D11*
%TO.C,U3*%
X186364200Y-80228700D03*
X186364200Y-78958700D03*
X186364200Y-77688700D03*
X186364200Y-76418700D03*
X191964900Y-76418700D03*
X191964900Y-77688700D03*
X191964900Y-78958700D03*
X191964900Y-80228700D03*
%TD*%
D12*
%TO.C,R8*%
X181317500Y-90025000D03*
X183142500Y-90025000D03*
%TD*%
D13*
%TO.C,R3*%
X183127500Y-82345000D03*
X181302500Y-82345000D03*
%TD*%
M02*
