%TF.GenerationSoftware,KiCad,Pcbnew,7.0.9*%
%TF.CreationDate,2024-05-12T00:48:34+09:00*%
%TF.ProjectId,hid taiko opeammm,68696420-7461-4696-9b6f-206f7065616d,rev?*%
%TF.SameCoordinates,Original*%
%TF.FileFunction,Legend,Top*%
%TF.FilePolarity,Positive*%
%FSLAX46Y46*%
G04 Gerber Fmt 4.6, Leading zero omitted, Abs format (unit mm)*
G04 Created by KiCad (PCBNEW 7.0.9) date 2024-05-12 00:48:34*
%MOMM*%
%LPD*%
G01*
G04 APERTURE LIST*
%ADD10C,0.300000*%
%ADD11C,0.150000*%
%ADD12C,0.100000*%
%ADD13C,0.120000*%
%ADD14C,0.152400*%
G04 APERTURE END LIST*
D10*
G36*
X249841303Y-114068290D02*
G01*
X249855065Y-114114416D01*
X249866903Y-114153183D01*
X249879652Y-114192851D01*
X249893471Y-114232722D01*
X249908521Y-114272098D01*
X249924962Y-114310281D01*
X249942954Y-114346572D01*
X249957562Y-114372128D01*
X249980002Y-114406866D01*
X250003726Y-114439279D01*
X250028735Y-114469380D01*
X250068661Y-114510221D01*
X250111487Y-114545922D01*
X250157217Y-114576523D01*
X250205856Y-114602062D01*
X250257410Y-114622577D01*
X250311882Y-114638108D01*
X250369279Y-114648694D01*
X250409169Y-114653022D01*
X250450363Y-114655180D01*
X250471449Y-114655450D01*
X250512503Y-114654778D01*
X250554049Y-114652274D01*
X250595664Y-114647206D01*
X250636924Y-114638841D01*
X250677405Y-114626446D01*
X250716684Y-114609288D01*
X250754338Y-114586634D01*
X250789942Y-114557752D01*
X250823562Y-114519483D01*
X250848842Y-114483202D01*
X250873809Y-114442014D01*
X250898128Y-114397348D01*
X250921467Y-114350635D01*
X250943492Y-114303303D01*
X250963870Y-114256782D01*
X250982268Y-114212503D01*
X250998352Y-114171895D01*
X251015622Y-114125931D01*
X251045245Y-114048599D01*
X251064608Y-113998389D01*
X251086689Y-113941232D01*
X251111252Y-113877690D01*
X251138060Y-113808325D01*
X251166875Y-113733700D01*
X251197461Y-113654375D01*
X251229582Y-113570912D01*
X251262999Y-113483874D01*
X251297477Y-113393823D01*
X251332779Y-113301320D01*
X251368668Y-113206927D01*
X251404906Y-113111206D01*
X251441258Y-113014719D01*
X251477486Y-112918028D01*
X251513353Y-112821695D01*
X251548622Y-112726281D01*
X251583057Y-112632350D01*
X251616422Y-112540461D01*
X251648478Y-112451178D01*
X251678989Y-112365062D01*
X251707718Y-112282675D01*
X251734429Y-112204579D01*
X251758884Y-112131337D01*
X251780848Y-112063508D01*
X251800082Y-112001657D01*
X251816350Y-111946344D01*
X251829415Y-111898132D01*
X251839040Y-111857582D01*
X251847025Y-111801716D01*
X251842331Y-111736614D01*
X251828711Y-111670392D01*
X251806852Y-111603783D01*
X251777446Y-111537522D01*
X251741182Y-111472343D01*
X251698750Y-111408979D01*
X251650840Y-111348167D01*
X251598142Y-111290638D01*
X251541344Y-111237128D01*
X251481138Y-111188371D01*
X251418212Y-111145101D01*
X251353258Y-111108051D01*
X251286963Y-111077957D01*
X251220019Y-111055552D01*
X251153115Y-111041571D01*
X251086941Y-111036748D01*
X251030945Y-111039390D01*
X250979108Y-111047380D01*
X250931724Y-111060808D01*
X250889087Y-111079767D01*
X250851494Y-111104347D01*
X250819237Y-111134642D01*
X250792612Y-111170742D01*
X250771914Y-111212740D01*
X250757436Y-111260727D01*
X250749475Y-111314794D01*
X250747932Y-111354263D01*
X250751275Y-111403009D01*
X250760755Y-111450037D01*
X250775547Y-111494913D01*
X250794827Y-111537201D01*
X250817770Y-111576467D01*
X250843553Y-111612275D01*
X250871351Y-111644191D01*
X250900340Y-111671779D01*
X250887758Y-111711933D01*
X250875110Y-111752146D01*
X250862400Y-111792400D01*
X250849629Y-111832674D01*
X250836801Y-111872948D01*
X250823918Y-111913202D01*
X250810984Y-111953415D01*
X250798002Y-111993569D01*
X250784974Y-112033642D01*
X250771902Y-112073616D01*
X250758791Y-112113469D01*
X250745642Y-112153182D01*
X250732459Y-112192734D01*
X250719245Y-112232106D01*
X250706002Y-112271278D01*
X250692733Y-112310230D01*
X250679442Y-112348941D01*
X250666130Y-112387391D01*
X250652801Y-112425562D01*
X250639458Y-112463431D01*
X250626103Y-112500980D01*
X250612740Y-112538189D01*
X250599371Y-112575036D01*
X250572627Y-112647570D01*
X250545895Y-112718420D01*
X250519197Y-112787427D01*
X250492557Y-112854431D01*
X250479265Y-112887131D01*
X250220368Y-112094808D01*
X250203921Y-112044377D01*
X250187836Y-111994609D01*
X250171988Y-111945565D01*
X250156254Y-111897307D01*
X250140508Y-111849896D01*
X250124626Y-111803393D01*
X250108484Y-111757861D01*
X250091957Y-111713361D01*
X250074920Y-111669955D01*
X250057250Y-111627703D01*
X250038821Y-111586667D01*
X250019508Y-111546910D01*
X249999189Y-111508492D01*
X249977737Y-111471475D01*
X249955029Y-111435921D01*
X249930940Y-111401891D01*
X249905345Y-111369446D01*
X249878120Y-111338649D01*
X249849141Y-111309560D01*
X249818283Y-111282242D01*
X249785421Y-111256756D01*
X249750431Y-111233163D01*
X249713189Y-111211525D01*
X249673569Y-111191903D01*
X249631448Y-111174359D01*
X249586701Y-111158955D01*
X249539203Y-111145752D01*
X249488830Y-111134811D01*
X249435457Y-111126195D01*
X249378961Y-111119964D01*
X249319215Y-111116180D01*
X249256097Y-111114905D01*
X249201182Y-111116843D01*
X249147025Y-111122987D01*
X249094638Y-111133836D01*
X249045037Y-111149887D01*
X248999235Y-111171638D01*
X248958247Y-111199585D01*
X248923087Y-111234226D01*
X248894770Y-111276060D01*
X248874310Y-111325583D01*
X248862720Y-111383292D01*
X248860423Y-111426559D01*
X248863095Y-111481542D01*
X248870666Y-111529639D01*
X248882474Y-111571431D01*
X248897854Y-111607497D01*
X248926168Y-111652128D01*
X248958785Y-111687136D01*
X248993462Y-111714478D01*
X249027959Y-111736108D01*
X249069801Y-111759447D01*
X249107956Y-111786298D01*
X249119321Y-111804647D01*
X249214087Y-112113370D01*
X249227754Y-112158064D01*
X249241461Y-112202752D01*
X249255207Y-112247434D01*
X249268992Y-112292112D01*
X249282816Y-112336784D01*
X249296678Y-112381452D01*
X249310578Y-112426115D01*
X249324515Y-112470774D01*
X249338490Y-112515428D01*
X249352502Y-112560078D01*
X249366550Y-112604724D01*
X249380634Y-112649367D01*
X249394754Y-112694006D01*
X249408909Y-112738641D01*
X249423100Y-112783273D01*
X249437325Y-112827903D01*
X249451585Y-112872529D01*
X249465878Y-112917153D01*
X249480205Y-112961774D01*
X249494566Y-113006393D01*
X249508959Y-113051009D01*
X249523385Y-113095624D01*
X249537843Y-113140237D01*
X249552333Y-113184848D01*
X249566854Y-113229458D01*
X249581407Y-113274067D01*
X249595990Y-113318674D01*
X249610604Y-113363281D01*
X249625248Y-113407887D01*
X249639921Y-113452492D01*
X249654624Y-113497097D01*
X249669356Y-113541702D01*
X249841303Y-114068290D01*
G37*
G36*
X253971828Y-111083410D02*
G01*
X254047961Y-111088538D01*
X254123973Y-111097015D01*
X254199702Y-111108782D01*
X254274987Y-111123783D01*
X254349668Y-111141960D01*
X254423583Y-111163256D01*
X254496571Y-111187613D01*
X254568472Y-111214974D01*
X254639124Y-111245282D01*
X254708367Y-111278479D01*
X254776039Y-111314507D01*
X254841979Y-111353310D01*
X254906026Y-111394829D01*
X254968020Y-111439007D01*
X255027800Y-111485788D01*
X255085203Y-111535113D01*
X255140070Y-111586925D01*
X255192240Y-111641167D01*
X255241550Y-111697781D01*
X255287841Y-111756710D01*
X255330952Y-111817897D01*
X255370720Y-111881283D01*
X255406987Y-111946812D01*
X255439589Y-112014426D01*
X255468367Y-112084067D01*
X255493159Y-112155679D01*
X255513805Y-112229204D01*
X255530143Y-112304584D01*
X255542012Y-112381763D01*
X255549251Y-112460682D01*
X255551700Y-112541284D01*
X255548338Y-112605530D01*
X255538542Y-112664342D01*
X255522746Y-112717965D01*
X255501386Y-112766643D01*
X255474898Y-112810622D01*
X255443715Y-112850146D01*
X255408273Y-112885459D01*
X255369007Y-112916807D01*
X255326352Y-112944434D01*
X255280744Y-112968584D01*
X255232616Y-112989504D01*
X255182405Y-113007436D01*
X255130546Y-113022627D01*
X255077472Y-113035320D01*
X255023621Y-113045761D01*
X254969426Y-113054193D01*
X254907195Y-113062230D01*
X254844726Y-113069533D01*
X254782054Y-113076169D01*
X254719214Y-113082205D01*
X254656243Y-113087709D01*
X254593175Y-113092748D01*
X254530048Y-113097388D01*
X254466896Y-113101699D01*
X254403756Y-113105746D01*
X254340662Y-113109597D01*
X254277652Y-113113319D01*
X254214761Y-113116979D01*
X254152024Y-113120645D01*
X254089478Y-113124385D01*
X254027157Y-113128264D01*
X253965099Y-113132351D01*
X253432650Y-113160683D01*
X253395567Y-113162996D01*
X253351036Y-113165551D01*
X253308404Y-113167392D01*
X253263801Y-113167965D01*
X253223578Y-113165568D01*
X253226811Y-113208798D01*
X253231732Y-113250214D01*
X253246544Y-113327719D01*
X253267825Y-113398314D01*
X253295385Y-113462232D01*
X253329036Y-113519704D01*
X253368589Y-113570962D01*
X253413855Y-113616238D01*
X253464645Y-113655764D01*
X253520771Y-113689771D01*
X253582042Y-113718492D01*
X253648271Y-113742158D01*
X253719269Y-113761002D01*
X253794845Y-113775254D01*
X253834292Y-113780731D01*
X253874813Y-113785147D01*
X253916384Y-113788532D01*
X253958982Y-113790913D01*
X254002584Y-113792321D01*
X254047165Y-113792784D01*
X254111382Y-113791850D01*
X254171043Y-113789021D01*
X254226701Y-113784257D01*
X254278905Y-113777519D01*
X254328207Y-113768765D01*
X254375158Y-113757956D01*
X254420308Y-113745053D01*
X254464209Y-113730013D01*
X254507412Y-113712799D01*
X254550467Y-113693369D01*
X254593926Y-113671684D01*
X254638339Y-113647704D01*
X254684258Y-113621387D01*
X254732233Y-113592696D01*
X254782816Y-113561588D01*
X254836557Y-113528025D01*
X254870969Y-113507222D01*
X254906136Y-113487633D01*
X254942173Y-113469738D01*
X254979195Y-113454019D01*
X255017316Y-113440956D01*
X255056651Y-113431030D01*
X255097313Y-113424721D01*
X255139419Y-113422512D01*
X255177379Y-113424721D01*
X255232750Y-113435893D01*
X255285552Y-113455668D01*
X255335019Y-113483119D01*
X255380381Y-113517320D01*
X255420872Y-113557342D01*
X255455723Y-113602259D01*
X255484166Y-113651143D01*
X255505433Y-113703067D01*
X255518756Y-113757102D01*
X255523368Y-113812323D01*
X255520643Y-113857119D01*
X255512927Y-113901228D01*
X255500906Y-113944421D01*
X255485266Y-113986468D01*
X255466696Y-114027143D01*
X255445882Y-114066214D01*
X255423511Y-114103453D01*
X255400270Y-114138632D01*
X255370851Y-114175562D01*
X255339797Y-114210899D01*
X255307185Y-114244672D01*
X255273094Y-114276908D01*
X255237599Y-114307633D01*
X255200778Y-114336876D01*
X255162708Y-114364665D01*
X255123466Y-114391026D01*
X255083130Y-114415988D01*
X255041776Y-114439578D01*
X254999481Y-114461823D01*
X254956322Y-114482751D01*
X254912378Y-114502390D01*
X254867723Y-114520766D01*
X254822437Y-114537909D01*
X254776596Y-114553845D01*
X254730276Y-114568601D01*
X254683556Y-114582206D01*
X254636512Y-114594687D01*
X254589221Y-114606071D01*
X254541761Y-114616386D01*
X254494208Y-114625659D01*
X254446640Y-114633919D01*
X254399134Y-114641192D01*
X254351766Y-114647506D01*
X254304614Y-114652889D01*
X254257756Y-114657369D01*
X254211267Y-114660972D01*
X254165226Y-114663726D01*
X254119709Y-114665660D01*
X254074793Y-114666799D01*
X254030556Y-114667173D01*
X253924139Y-114665303D01*
X253820520Y-114659707D01*
X253719736Y-114650412D01*
X253621825Y-114637441D01*
X253526826Y-114620819D01*
X253434777Y-114600571D01*
X253345715Y-114576722D01*
X253259680Y-114549296D01*
X253176708Y-114518318D01*
X253096839Y-114483812D01*
X253020110Y-114445804D01*
X252946559Y-114404318D01*
X252876224Y-114359379D01*
X252809144Y-114311011D01*
X252745357Y-114259240D01*
X252684900Y-114204089D01*
X252627812Y-114145583D01*
X252574131Y-114083748D01*
X252523896Y-114018608D01*
X252477143Y-113950187D01*
X252433911Y-113878510D01*
X252394239Y-113803603D01*
X252358165Y-113725488D01*
X252325726Y-113644193D01*
X252296960Y-113559740D01*
X252271907Y-113472155D01*
X252250603Y-113381462D01*
X252233087Y-113287686D01*
X252219397Y-113190852D01*
X252209572Y-113090984D01*
X252203648Y-112988107D01*
X252201666Y-112882247D01*
X252202237Y-112833060D01*
X252203948Y-112784239D01*
X252206793Y-112735787D01*
X252210767Y-112687709D01*
X252215865Y-112640010D01*
X252222080Y-112592694D01*
X252229409Y-112545765D01*
X252232877Y-112526629D01*
X253250933Y-112526629D01*
X253309022Y-112526181D01*
X253368192Y-112524873D01*
X253428359Y-112522765D01*
X253489436Y-112519912D01*
X253551337Y-112516373D01*
X253613977Y-112512203D01*
X253677269Y-112507462D01*
X253741128Y-112502205D01*
X253805468Y-112496490D01*
X253870203Y-112490374D01*
X253935247Y-112483915D01*
X254000514Y-112477170D01*
X254065919Y-112470195D01*
X254131375Y-112463049D01*
X254196797Y-112455789D01*
X254262098Y-112448471D01*
X254271687Y-112447153D01*
X254312132Y-112442239D01*
X254356072Y-112437127D01*
X254404677Y-112431474D01*
X254452750Y-112425749D01*
X254495092Y-112420422D01*
X254542489Y-112412323D01*
X254541564Y-112388418D01*
X254535970Y-112344986D01*
X254526318Y-112300783D01*
X254513774Y-112257280D01*
X254499502Y-112215952D01*
X254481055Y-112167878D01*
X254460504Y-112121930D01*
X254437829Y-112078243D01*
X254413010Y-112036953D01*
X254386027Y-111998192D01*
X254356861Y-111962096D01*
X254325490Y-111928799D01*
X254291896Y-111898436D01*
X254256058Y-111871142D01*
X254217955Y-111847050D01*
X254177569Y-111826295D01*
X254134878Y-111809013D01*
X254089864Y-111795337D01*
X254042505Y-111785402D01*
X253992782Y-111779342D01*
X253940675Y-111777292D01*
X253899786Y-111778429D01*
X253860446Y-111781790D01*
X253786296Y-111794864D01*
X253717982Y-111815887D01*
X253655262Y-111844230D01*
X253597894Y-111879264D01*
X253545637Y-111920363D01*
X253498248Y-111966897D01*
X253455486Y-112018237D01*
X253417109Y-112073757D01*
X253382876Y-112132827D01*
X253352543Y-112194820D01*
X253325870Y-112259107D01*
X253302614Y-112325059D01*
X253282534Y-112392049D01*
X253265387Y-112459449D01*
X253250933Y-112526629D01*
X252232877Y-112526629D01*
X252237844Y-112499228D01*
X252247382Y-112453088D01*
X252258016Y-112407348D01*
X252269741Y-112362014D01*
X252282552Y-112317090D01*
X252296444Y-112272580D01*
X252311410Y-112228488D01*
X252327447Y-112184820D01*
X252344548Y-112141580D01*
X252362708Y-112098772D01*
X252381921Y-112056401D01*
X252402183Y-112014470D01*
X252423488Y-111972986D01*
X252445830Y-111931951D01*
X252469205Y-111891371D01*
X252493606Y-111851250D01*
X252519029Y-111811593D01*
X252545468Y-111772403D01*
X252572917Y-111733686D01*
X252601372Y-111695446D01*
X252630827Y-111657687D01*
X252661277Y-111620414D01*
X252692715Y-111583632D01*
X252725138Y-111547344D01*
X252758539Y-111511556D01*
X252787244Y-111482129D01*
X252816562Y-111453920D01*
X252846475Y-111426911D01*
X252876967Y-111401082D01*
X252908019Y-111376415D01*
X252939615Y-111352891D01*
X252971738Y-111330493D01*
X253037494Y-111288996D01*
X253105151Y-111251775D01*
X253174572Y-111218682D01*
X253245618Y-111189567D01*
X253318152Y-111164281D01*
X253392037Y-111142677D01*
X253467136Y-111124604D01*
X253543312Y-111109915D01*
X253620426Y-111098460D01*
X253659292Y-111093898D01*
X253698341Y-111090090D01*
X253737556Y-111087016D01*
X253776920Y-111084657D01*
X253816416Y-111082995D01*
X253856026Y-111082012D01*
X253895734Y-111081688D01*
X253971828Y-111083410D01*
G37*
G36*
X256911645Y-112266755D02*
G01*
X256920912Y-112226728D01*
X256935657Y-112185312D01*
X256955320Y-112138070D01*
X256972296Y-112101885D01*
X256996570Y-112056731D01*
X257021195Y-112019791D01*
X257049944Y-111992947D01*
X257060144Y-111990272D01*
X257102906Y-112007515D01*
X257136379Y-112031335D01*
X257175441Y-112062084D01*
X257219871Y-112097165D01*
X257252363Y-112121674D01*
X257287077Y-112146184D01*
X257323946Y-112169924D01*
X257362904Y-112192124D01*
X257403886Y-112212014D01*
X257446825Y-112228824D01*
X257491657Y-112241785D01*
X257538314Y-112250126D01*
X257586732Y-112253077D01*
X257635743Y-112250393D01*
X257682660Y-112242554D01*
X257727336Y-112229874D01*
X257769624Y-112212670D01*
X257809376Y-112191259D01*
X257846444Y-112165957D01*
X257880682Y-112137079D01*
X257911941Y-112104944D01*
X257940075Y-112069865D01*
X257964936Y-112032161D01*
X257986377Y-111992147D01*
X258004250Y-111950140D01*
X258018407Y-111906455D01*
X258028703Y-111861409D01*
X258034988Y-111815318D01*
X258037116Y-111768499D01*
X258032119Y-111691274D01*
X258017613Y-111617631D01*
X257994322Y-111547764D01*
X257962973Y-111481865D01*
X257924291Y-111420128D01*
X257879001Y-111362745D01*
X257827829Y-111309911D01*
X257771502Y-111261817D01*
X257710743Y-111218659D01*
X257646279Y-111180628D01*
X257578836Y-111147917D01*
X257509139Y-111120721D01*
X257437913Y-111099232D01*
X257365885Y-111083644D01*
X257293779Y-111074149D01*
X257222322Y-111070942D01*
X257164683Y-111072785D01*
X257108355Y-111078270D01*
X257053463Y-111087330D01*
X257000133Y-111099896D01*
X256948490Y-111115901D01*
X256898660Y-111135277D01*
X256850769Y-111157957D01*
X256804941Y-111183873D01*
X256761303Y-111212958D01*
X256719980Y-111245143D01*
X256693780Y-111268290D01*
X256655005Y-111239491D01*
X256613561Y-111211622D01*
X256569668Y-111185100D01*
X256523541Y-111160338D01*
X256475398Y-111137754D01*
X256425458Y-111117761D01*
X256373936Y-111100776D01*
X256321050Y-111087214D01*
X256267018Y-111077490D01*
X256212058Y-111072020D01*
X256175008Y-111070942D01*
X256120528Y-111073224D01*
X256068995Y-111080234D01*
X256020937Y-111092220D01*
X255976880Y-111109427D01*
X255937350Y-111132101D01*
X255902873Y-111160490D01*
X255873977Y-111194838D01*
X255851188Y-111235393D01*
X255835032Y-111282401D01*
X255826036Y-111336108D01*
X255824275Y-111375757D01*
X255827753Y-111432012D01*
X255837259Y-111479275D01*
X255851401Y-111519117D01*
X255875066Y-111563406D01*
X255901203Y-111601012D01*
X255926517Y-111635656D01*
X255947709Y-111671058D01*
X255961482Y-111710940D01*
X255964959Y-111746029D01*
X255964942Y-111811164D01*
X255964892Y-111876326D01*
X255964810Y-111941513D01*
X255964696Y-112006724D01*
X255964552Y-112071956D01*
X255964380Y-112137207D01*
X255964179Y-112202477D01*
X255963952Y-112267762D01*
X255963699Y-112333062D01*
X255963421Y-112398374D01*
X255963120Y-112463697D01*
X255962796Y-112529029D01*
X255962450Y-112594369D01*
X255962084Y-112659713D01*
X255961699Y-112725061D01*
X255961296Y-112790411D01*
X255960875Y-112855761D01*
X255960438Y-112921109D01*
X255959987Y-112986454D01*
X255959521Y-113051793D01*
X255959043Y-113117125D01*
X255958552Y-113182448D01*
X255958051Y-113247761D01*
X255957540Y-113313060D01*
X255957021Y-113378346D01*
X255956494Y-113443615D01*
X255955961Y-113508867D01*
X255955422Y-113574099D01*
X255954880Y-113639309D01*
X255954333Y-113704496D01*
X255953785Y-113769658D01*
X255953236Y-113834794D01*
X255952992Y-113896013D01*
X255954766Y-113960657D01*
X255959019Y-114027708D01*
X255966211Y-114096149D01*
X255976804Y-114164962D01*
X255991257Y-114233129D01*
X256010033Y-114299633D01*
X256033592Y-114363457D01*
X256062394Y-114423583D01*
X256096900Y-114478994D01*
X256137572Y-114528671D01*
X256184870Y-114571598D01*
X256239254Y-114606757D01*
X256301186Y-114633130D01*
X256371127Y-114649700D01*
X256449537Y-114655450D01*
X256504408Y-114652860D01*
X256556815Y-114645139D01*
X256606614Y-114632360D01*
X256653659Y-114614594D01*
X256697807Y-114591915D01*
X256738912Y-114564394D01*
X256776829Y-114532105D01*
X256811413Y-114495119D01*
X256842520Y-114453510D01*
X256870005Y-114407349D01*
X256886243Y-114374082D01*
X256898484Y-114336467D01*
X256908438Y-114285530D01*
X256913919Y-114245656D01*
X256918559Y-114202090D01*
X256922428Y-114155723D01*
X256925595Y-114107447D01*
X256928131Y-114058154D01*
X256930106Y-114008734D01*
X256931591Y-113960081D01*
X256932654Y-113913084D01*
X256933367Y-113868637D01*
X256933799Y-113827629D01*
X256934076Y-113774519D01*
X256934115Y-113734166D01*
X256933863Y-113664579D01*
X256933149Y-113595037D01*
X256932041Y-113525538D01*
X256930604Y-113456080D01*
X256928903Y-113386662D01*
X256927005Y-113317283D01*
X256924975Y-113247941D01*
X256922880Y-113178635D01*
X256920784Y-113109364D01*
X256918754Y-113040125D01*
X256916856Y-112970917D01*
X256915156Y-112901740D01*
X256913718Y-112832592D01*
X256912610Y-112763470D01*
X256911897Y-112694374D01*
X256911645Y-112625303D01*
X256911645Y-112266755D01*
G37*
G36*
X259261261Y-113698018D02*
G01*
X259288493Y-113659172D01*
X259317220Y-113629534D01*
X259352185Y-113597973D01*
X259391490Y-113565405D01*
X259422673Y-113540869D01*
X259454426Y-113516667D01*
X259485948Y-113493187D01*
X259526229Y-113463670D01*
X259535790Y-113456706D01*
X259596681Y-113412567D01*
X259657698Y-113368431D01*
X259718806Y-113324278D01*
X259779972Y-113280088D01*
X259841160Y-113235840D01*
X259902337Y-113191515D01*
X259963469Y-113147093D01*
X260024520Y-113102554D01*
X260085456Y-113057877D01*
X260146244Y-113013042D01*
X260206849Y-112968031D01*
X260267236Y-112922821D01*
X260327371Y-112877395D01*
X260387220Y-112831730D01*
X260446749Y-112785808D01*
X260505922Y-112739609D01*
X260546606Y-112707440D01*
X260588849Y-112673968D01*
X260632464Y-112639226D01*
X260677264Y-112603243D01*
X260723063Y-112566052D01*
X260769672Y-112527683D01*
X260816906Y-112488169D01*
X260864578Y-112447540D01*
X260912500Y-112405828D01*
X260960485Y-112363063D01*
X261008347Y-112319278D01*
X261055898Y-112274504D01*
X261102952Y-112228771D01*
X261149322Y-112182111D01*
X261194821Y-112134556D01*
X261239262Y-112086137D01*
X261282457Y-112036885D01*
X261324221Y-111986831D01*
X261364365Y-111936007D01*
X261402704Y-111884444D01*
X261439050Y-111832173D01*
X261473216Y-111779226D01*
X261505015Y-111725634D01*
X261534261Y-111671428D01*
X261560766Y-111616639D01*
X261584344Y-111561300D01*
X261604807Y-111505440D01*
X261621969Y-111449092D01*
X261635643Y-111392287D01*
X261645641Y-111335056D01*
X261651777Y-111277430D01*
X261653864Y-111219441D01*
X261652659Y-111164853D01*
X261649066Y-111110507D01*
X261643119Y-111056488D01*
X261634853Y-111002886D01*
X261624300Y-110949785D01*
X261611495Y-110897274D01*
X261596471Y-110845439D01*
X261579263Y-110794367D01*
X261559903Y-110744145D01*
X261538427Y-110694861D01*
X261522950Y-110662568D01*
X261495190Y-110610054D01*
X261465624Y-110559481D01*
X261434310Y-110510829D01*
X261401307Y-110464082D01*
X261366675Y-110419221D01*
X261330473Y-110376228D01*
X261292760Y-110335086D01*
X261253596Y-110295776D01*
X261213038Y-110258281D01*
X261171148Y-110222582D01*
X261127984Y-110188663D01*
X261083604Y-110156504D01*
X261038070Y-110126088D01*
X260991438Y-110097398D01*
X260943770Y-110070415D01*
X260895123Y-110045122D01*
X260845558Y-110021500D01*
X260795133Y-109999531D01*
X260743908Y-109979199D01*
X260691942Y-109960484D01*
X260639294Y-109943369D01*
X260586023Y-109927836D01*
X260532188Y-109913868D01*
X260477850Y-109901446D01*
X260423066Y-109890552D01*
X260367896Y-109881169D01*
X260312400Y-109873278D01*
X260256636Y-109866863D01*
X260200664Y-109861904D01*
X260144543Y-109858384D01*
X260088333Y-109856285D01*
X260032091Y-109855589D01*
X259982564Y-109856116D01*
X259933635Y-109857706D01*
X259885307Y-109860375D01*
X259837582Y-109864140D01*
X259790465Y-109869016D01*
X259743957Y-109875019D01*
X259698062Y-109882165D01*
X259652782Y-109890470D01*
X259608121Y-109899950D01*
X259564080Y-109910621D01*
X259520663Y-109922499D01*
X259477874Y-109935600D01*
X259435714Y-109949939D01*
X259394186Y-109965533D01*
X259353294Y-109982397D01*
X259313040Y-110000547D01*
X259273428Y-110020000D01*
X259234459Y-110040771D01*
X259196137Y-110062877D01*
X259158465Y-110086332D01*
X259121446Y-110111153D01*
X259085082Y-110137356D01*
X259049376Y-110164958D01*
X259014331Y-110193972D01*
X258979951Y-110224417D01*
X258946237Y-110256307D01*
X258913193Y-110289659D01*
X258880822Y-110324488D01*
X258849126Y-110360810D01*
X258818109Y-110398642D01*
X258787773Y-110437999D01*
X258758121Y-110478897D01*
X258735179Y-110511667D01*
X258709226Y-110549086D01*
X258680823Y-110588841D01*
X258650532Y-110628618D01*
X258618912Y-110666105D01*
X258586525Y-110698990D01*
X258553932Y-110724960D01*
X258521693Y-110741702D01*
X258476243Y-110758107D01*
X258437262Y-110777133D01*
X258404623Y-110799662D01*
X258372552Y-110834094D01*
X258349949Y-110877098D01*
X258338517Y-110918832D01*
X258332862Y-110968036D01*
X258332161Y-110995715D01*
X258336372Y-111056862D01*
X258348586Y-111116605D01*
X258368174Y-111174594D01*
X258394504Y-111230478D01*
X258426948Y-111283906D01*
X258464877Y-111334527D01*
X258507659Y-111381992D01*
X258554666Y-111425949D01*
X258605268Y-111466047D01*
X258658836Y-111501937D01*
X258714739Y-111533267D01*
X258772348Y-111559687D01*
X258831033Y-111580846D01*
X258890164Y-111596394D01*
X258949113Y-111605980D01*
X259007248Y-111609253D01*
X259067800Y-111606489D01*
X259123110Y-111598435D01*
X259173531Y-111585441D01*
X259219413Y-111567861D01*
X259261109Y-111546048D01*
X259298969Y-111520355D01*
X259333346Y-111491134D01*
X259364591Y-111458738D01*
X259393055Y-111423520D01*
X259419090Y-111385833D01*
X259443047Y-111346029D01*
X259465278Y-111304461D01*
X259486135Y-111261482D01*
X259505968Y-111217444D01*
X259525130Y-111172702D01*
X259543972Y-111127606D01*
X259562845Y-111082510D01*
X259582102Y-111037767D01*
X259602093Y-110993730D01*
X259623170Y-110950751D01*
X259645684Y-110909183D01*
X259669988Y-110869379D01*
X259696432Y-110831692D01*
X259725368Y-110796474D01*
X259757148Y-110764078D01*
X259792123Y-110734857D01*
X259830645Y-110709163D01*
X259873064Y-110687351D01*
X259919734Y-110669771D01*
X259971005Y-110656777D01*
X260027228Y-110648722D01*
X260088756Y-110645959D01*
X260130986Y-110647762D01*
X260174174Y-110653101D01*
X260217811Y-110661872D01*
X260261390Y-110673971D01*
X260304401Y-110689292D01*
X260346338Y-110707731D01*
X260386693Y-110729185D01*
X260424956Y-110753548D01*
X260460620Y-110780716D01*
X260493178Y-110810584D01*
X260522120Y-110843049D01*
X260546940Y-110878005D01*
X260567128Y-110915348D01*
X260582178Y-110954974D01*
X260591580Y-110996778D01*
X260594827Y-111040655D01*
X260586653Y-111113707D01*
X260576759Y-111151832D01*
X260563279Y-111190882D01*
X260546431Y-111230751D01*
X260526428Y-111271334D01*
X260503485Y-111312525D01*
X260477819Y-111354217D01*
X260449644Y-111396307D01*
X260419176Y-111438687D01*
X260386629Y-111481252D01*
X260352219Y-111523896D01*
X260316161Y-111566513D01*
X260278671Y-111608999D01*
X260239963Y-111651246D01*
X260200252Y-111693150D01*
X260159755Y-111734605D01*
X260118686Y-111775504D01*
X260077260Y-111815743D01*
X260035692Y-111855215D01*
X259994198Y-111893815D01*
X259952993Y-111931437D01*
X259912292Y-111967975D01*
X259872311Y-112003323D01*
X259833264Y-112037377D01*
X259795366Y-112070030D01*
X259758834Y-112101176D01*
X259723882Y-112130709D01*
X259690725Y-112158525D01*
X259659578Y-112184517D01*
X259604178Y-112230607D01*
X259548365Y-112275861D01*
X259492351Y-112321167D01*
X259436208Y-112366576D01*
X259380009Y-112412140D01*
X259323827Y-112457910D01*
X259267735Y-112503937D01*
X259211807Y-112550274D01*
X259156114Y-112596971D01*
X259100731Y-112644080D01*
X259045730Y-112691653D01*
X258991184Y-112739741D01*
X258937166Y-112788396D01*
X258883749Y-112837669D01*
X258831006Y-112887612D01*
X258779010Y-112938276D01*
X258727834Y-112989713D01*
X258686687Y-113032658D01*
X258646223Y-113076864D01*
X258606715Y-113122332D01*
X258568435Y-113169064D01*
X258531655Y-113217061D01*
X258496647Y-113266324D01*
X258463682Y-113316855D01*
X258433033Y-113368656D01*
X258404972Y-113421728D01*
X258379769Y-113476071D01*
X258357698Y-113531689D01*
X258339030Y-113588582D01*
X258324038Y-113646751D01*
X258312992Y-113706198D01*
X258306165Y-113766924D01*
X258303829Y-113828932D01*
X258305133Y-113879137D01*
X258308994Y-113927547D01*
X258315336Y-113974175D01*
X258324084Y-114019033D01*
X258335161Y-114062135D01*
X258348490Y-114103495D01*
X258363997Y-114143125D01*
X258381605Y-114181038D01*
X258401238Y-114217249D01*
X258422820Y-114251770D01*
X258446275Y-114284614D01*
X258471526Y-114315796D01*
X258498499Y-114345327D01*
X258527117Y-114373221D01*
X258557303Y-114399491D01*
X258588982Y-114424152D01*
X258622078Y-114447215D01*
X258656515Y-114468694D01*
X258692217Y-114488603D01*
X258729107Y-114506954D01*
X258767110Y-114523761D01*
X258806150Y-114539037D01*
X258846150Y-114552795D01*
X258887035Y-114565049D01*
X258928728Y-114575812D01*
X258971154Y-114585097D01*
X259014237Y-114592917D01*
X259057900Y-114599285D01*
X259102068Y-114604215D01*
X259146663Y-114607721D01*
X259191612Y-114609814D01*
X259236837Y-114610509D01*
X259308210Y-114609224D01*
X259379772Y-114605494D01*
X259451460Y-114599509D01*
X259523211Y-114591458D01*
X259594962Y-114581529D01*
X259666651Y-114569911D01*
X259738213Y-114556794D01*
X259809586Y-114542365D01*
X259880707Y-114526815D01*
X259951514Y-114510331D01*
X260021943Y-114493103D01*
X260091931Y-114475321D01*
X260161415Y-114457171D01*
X260230332Y-114438844D01*
X260298620Y-114420529D01*
X260366215Y-114402414D01*
X260411364Y-114389562D01*
X260450365Y-114379086D01*
X260490047Y-114369563D01*
X260529871Y-114361686D01*
X260569301Y-114356148D01*
X260615343Y-114353565D01*
X260669377Y-114359917D01*
X260722829Y-114377278D01*
X260758668Y-114393713D01*
X260795039Y-114413159D01*
X260832259Y-114434864D01*
X260870644Y-114458074D01*
X260910511Y-114482037D01*
X260952174Y-114506000D01*
X260995952Y-114529210D01*
X261042159Y-114550915D01*
X261091113Y-114570362D01*
X261143129Y-114586797D01*
X261198525Y-114599468D01*
X261257615Y-114607623D01*
X261320717Y-114610509D01*
X261369790Y-114609315D01*
X261417553Y-114605628D01*
X261463751Y-114599290D01*
X261508127Y-114590145D01*
X261550425Y-114578035D01*
X261590389Y-114562801D01*
X261627763Y-114544288D01*
X261662290Y-114522337D01*
X261693715Y-114496791D01*
X261721780Y-114467493D01*
X261746231Y-114434285D01*
X261766811Y-114397010D01*
X261783263Y-114355510D01*
X261795332Y-114309628D01*
X261802761Y-114259207D01*
X261805294Y-114204089D01*
X261803213Y-114154571D01*
X261797092Y-114106761D01*
X261787117Y-114060651D01*
X261773474Y-114016232D01*
X261756347Y-113973494D01*
X261735923Y-113932428D01*
X261712385Y-113893027D01*
X261685921Y-113855280D01*
X261656714Y-113819178D01*
X261624951Y-113784714D01*
X261590816Y-113751877D01*
X261554495Y-113720660D01*
X261516174Y-113691052D01*
X261476037Y-113663046D01*
X261434270Y-113636631D01*
X261391058Y-113611800D01*
X261346588Y-113588543D01*
X261301043Y-113566851D01*
X261254609Y-113546716D01*
X261207472Y-113528128D01*
X261159817Y-113511078D01*
X261111829Y-113495558D01*
X261063694Y-113481558D01*
X261015596Y-113469071D01*
X260967722Y-113458085D01*
X260920257Y-113448594D01*
X260873385Y-113440587D01*
X260827293Y-113434056D01*
X260782165Y-113428992D01*
X260738187Y-113425386D01*
X260695544Y-113423229D01*
X260654422Y-113422512D01*
X260576144Y-113424246D01*
X260536585Y-113426357D01*
X260496779Y-113429246D01*
X260456749Y-113432873D01*
X260416520Y-113437201D01*
X260376117Y-113442192D01*
X260335563Y-113447806D01*
X260294883Y-113454006D01*
X260254102Y-113460752D01*
X260213244Y-113468007D01*
X260172332Y-113475732D01*
X260131392Y-113483888D01*
X260090448Y-113492437D01*
X260049524Y-113501341D01*
X260008644Y-113510561D01*
X259967833Y-113520059D01*
X259927115Y-113529796D01*
X259886514Y-113539733D01*
X259846055Y-113549833D01*
X259805761Y-113560056D01*
X259765659Y-113570365D01*
X259725770Y-113580721D01*
X259686121Y-113591085D01*
X259646735Y-113601419D01*
X259607637Y-113611685D01*
X259568851Y-113621843D01*
X259530401Y-113631856D01*
X259492312Y-113641686D01*
X259417313Y-113660639D01*
X259380451Y-113669685D01*
X259342122Y-113680094D01*
X259304107Y-113689162D01*
X259265300Y-113697241D01*
X259261261Y-113698018D01*
G37*
G36*
X263084150Y-114499134D02*
G01*
X263137750Y-114496938D01*
X263187570Y-114490446D01*
X263233654Y-114479808D01*
X263276048Y-114465169D01*
X263314796Y-114446678D01*
X263349941Y-114424482D01*
X263381529Y-114398728D01*
X263409603Y-114369563D01*
X263434209Y-114337136D01*
X263455389Y-114301593D01*
X263473190Y-114263082D01*
X263487654Y-114221751D01*
X263498827Y-114177746D01*
X263506753Y-114131215D01*
X263511476Y-114082305D01*
X263513040Y-114031165D01*
X263509729Y-113966479D01*
X263500017Y-113903447D01*
X263484234Y-113842415D01*
X263462711Y-113783732D01*
X263435778Y-113727744D01*
X263403766Y-113674801D01*
X263367006Y-113625250D01*
X263325828Y-113579438D01*
X263280563Y-113537713D01*
X263231541Y-113500423D01*
X263179093Y-113467916D01*
X263123549Y-113440540D01*
X263065241Y-113418642D01*
X263004498Y-113402570D01*
X262941652Y-113392671D01*
X262877032Y-113389295D01*
X262828145Y-113391641D01*
X262780909Y-113398543D01*
X262735530Y-113409793D01*
X262692216Y-113425183D01*
X262651175Y-113444506D01*
X262612614Y-113467554D01*
X262576741Y-113494119D01*
X262543763Y-113523995D01*
X262513887Y-113556973D01*
X262487321Y-113592846D01*
X262464274Y-113631407D01*
X262444951Y-113672448D01*
X262429561Y-113715762D01*
X262418311Y-113761141D01*
X262411409Y-113808377D01*
X262409063Y-113857264D01*
X262413134Y-113919534D01*
X262424967Y-113980775D01*
X262443987Y-114040572D01*
X262469620Y-114098515D01*
X262501292Y-114154191D01*
X262538429Y-114207188D01*
X262580458Y-114257093D01*
X262626805Y-114303496D01*
X262676896Y-114345982D01*
X262730156Y-114384142D01*
X262786013Y-114417561D01*
X262843891Y-114445828D01*
X262903218Y-114468531D01*
X262963419Y-114485258D01*
X263023921Y-114495596D01*
X263084150Y-114499134D01*
G37*
G36*
X266667639Y-109796482D02*
G01*
X266714240Y-109803504D01*
X266760337Y-109814648D01*
X266805678Y-109829455D01*
X266850012Y-109847468D01*
X266893087Y-109868229D01*
X266934650Y-109891279D01*
X266974450Y-109916161D01*
X267028060Y-109954636D01*
X267078917Y-109996630D01*
X267126923Y-110041907D01*
X267171981Y-110090230D01*
X267213994Y-110141365D01*
X267252864Y-110195073D01*
X267288494Y-110251121D01*
X267320786Y-110309270D01*
X267349644Y-110369286D01*
X267374970Y-110430932D01*
X267396667Y-110493972D01*
X267414637Y-110558169D01*
X267428783Y-110623288D01*
X267439007Y-110689093D01*
X267445214Y-110755347D01*
X267447304Y-110821814D01*
X267446362Y-110855972D01*
X267443965Y-110896461D01*
X267442419Y-110939050D01*
X267452189Y-110975198D01*
X267466250Y-111038207D01*
X267478813Y-111101546D01*
X267489960Y-111165180D01*
X267499771Y-111229074D01*
X267508328Y-111293190D01*
X267515713Y-111357494D01*
X267522008Y-111421949D01*
X267527294Y-111486521D01*
X267531652Y-111551172D01*
X267535165Y-111615868D01*
X267537913Y-111680573D01*
X267539979Y-111745250D01*
X267541444Y-111809865D01*
X267542389Y-111874380D01*
X267542896Y-111938761D01*
X267543047Y-112002972D01*
X267542180Y-112117755D01*
X267539463Y-112233473D01*
X267534723Y-112349827D01*
X267527788Y-112466517D01*
X267518485Y-112583241D01*
X267506642Y-112699701D01*
X267492086Y-112815594D01*
X267474644Y-112930622D01*
X267454144Y-113044483D01*
X267430413Y-113156878D01*
X267403278Y-113267505D01*
X267372568Y-113376066D01*
X267338108Y-113482258D01*
X267299727Y-113585782D01*
X267257252Y-113686338D01*
X267210511Y-113783625D01*
X267159330Y-113877342D01*
X267103537Y-113967191D01*
X267042959Y-114052869D01*
X266977425Y-114134077D01*
X266906760Y-114210514D01*
X266830793Y-114281881D01*
X266749351Y-114347876D01*
X266662262Y-114408200D01*
X266569352Y-114462551D01*
X266470449Y-114510630D01*
X266365380Y-114552136D01*
X266253974Y-114586770D01*
X266136056Y-114614229D01*
X266011455Y-114634216D01*
X265879998Y-114646427D01*
X265741512Y-114650565D01*
X265634751Y-114648105D01*
X265531885Y-114640798D01*
X265432879Y-114628757D01*
X265337700Y-114612093D01*
X265246317Y-114590916D01*
X265158694Y-114565338D01*
X265074801Y-114535470D01*
X264994602Y-114501424D01*
X264918066Y-114463311D01*
X264845159Y-114421241D01*
X264775848Y-114375327D01*
X264710099Y-114325680D01*
X264647881Y-114272410D01*
X264589159Y-114215630D01*
X264533901Y-114155450D01*
X264482074Y-114091981D01*
X264433644Y-114025336D01*
X264388578Y-113955625D01*
X264346844Y-113882959D01*
X264308408Y-113807450D01*
X264273236Y-113729209D01*
X264241297Y-113648347D01*
X264212557Y-113564976D01*
X264186983Y-113479207D01*
X264164541Y-113391150D01*
X264145199Y-113300918D01*
X264128923Y-113208622D01*
X264115681Y-113114373D01*
X264105439Y-113018281D01*
X264098164Y-112920460D01*
X264093824Y-112821018D01*
X264092384Y-112720069D01*
X264092637Y-112662402D01*
X264093409Y-112604285D01*
X264094723Y-112545759D01*
X264096599Y-112486865D01*
X264097383Y-112468011D01*
X265196362Y-112468011D01*
X265197511Y-112540351D01*
X265199029Y-112581546D01*
X265201249Y-112625687D01*
X265204225Y-112672466D01*
X265208012Y-112721581D01*
X265212664Y-112772726D01*
X265218237Y-112825597D01*
X265224784Y-112879890D01*
X265232360Y-112935298D01*
X265241020Y-112991518D01*
X265250819Y-113048246D01*
X265261810Y-113105176D01*
X265274048Y-113162004D01*
X265287589Y-113218425D01*
X265302486Y-113274134D01*
X265318794Y-113328828D01*
X265336567Y-113382200D01*
X265355861Y-113433948D01*
X265376730Y-113483765D01*
X265399228Y-113531348D01*
X265423409Y-113576391D01*
X265449330Y-113618591D01*
X265477043Y-113657641D01*
X265506604Y-113693239D01*
X265538067Y-113725078D01*
X265571486Y-113752855D01*
X265606917Y-113776265D01*
X265644414Y-113795003D01*
X265684031Y-113808764D01*
X265725823Y-113817245D01*
X265769844Y-113820139D01*
X265818634Y-113817806D01*
X265865556Y-113810952D01*
X265910646Y-113799798D01*
X265953937Y-113784562D01*
X265995462Y-113765464D01*
X266035256Y-113742724D01*
X266073352Y-113716561D01*
X266109784Y-113687195D01*
X266144587Y-113654844D01*
X266177793Y-113619730D01*
X266209437Y-113582071D01*
X266239552Y-113542086D01*
X266268172Y-113499995D01*
X266295332Y-113456018D01*
X266321064Y-113410374D01*
X266345403Y-113363283D01*
X266368382Y-113314964D01*
X266390035Y-113265636D01*
X266410397Y-113215520D01*
X266429500Y-113164834D01*
X266447379Y-113113798D01*
X266464068Y-113062632D01*
X266479600Y-113011554D01*
X266494009Y-112960786D01*
X266507329Y-112910545D01*
X266519594Y-112861053D01*
X266530837Y-112812527D01*
X266541093Y-112765187D01*
X266550394Y-112719254D01*
X266558776Y-112674947D01*
X266566272Y-112632484D01*
X266572915Y-112592086D01*
X266579991Y-112545096D01*
X266586569Y-112498266D01*
X266592655Y-112451574D01*
X266598255Y-112404996D01*
X266603374Y-112358510D01*
X266608017Y-112312092D01*
X266612191Y-112265720D01*
X266615901Y-112219371D01*
X266619154Y-112173023D01*
X266621954Y-112126651D01*
X266624308Y-112080233D01*
X266626221Y-112033747D01*
X266627699Y-111987169D01*
X266628747Y-111940477D01*
X266629372Y-111893647D01*
X266629579Y-111846657D01*
X266629317Y-111802946D01*
X266628539Y-111759376D01*
X266627254Y-111715953D01*
X266625473Y-111672680D01*
X266623205Y-111629561D01*
X266620460Y-111586601D01*
X266617249Y-111543805D01*
X266613581Y-111501175D01*
X266609467Y-111458718D01*
X266604916Y-111416436D01*
X266599939Y-111374335D01*
X266594545Y-111332419D01*
X266588745Y-111290691D01*
X266582549Y-111249157D01*
X266575966Y-111207820D01*
X266569007Y-111166685D01*
X266535393Y-111129025D01*
X266502834Y-111089023D01*
X266470988Y-111047339D01*
X266439512Y-111004630D01*
X266408065Y-110961554D01*
X266376305Y-110918771D01*
X266343889Y-110876937D01*
X266310476Y-110836713D01*
X266275723Y-110798755D01*
X266239289Y-110763722D01*
X266200831Y-110732273D01*
X266160007Y-110705066D01*
X266116476Y-110682759D01*
X266069895Y-110666010D01*
X266019922Y-110655478D01*
X265966215Y-110651821D01*
X265906846Y-110655700D01*
X265850505Y-110667066D01*
X265797116Y-110685510D01*
X265746605Y-110710626D01*
X265698897Y-110742006D01*
X265653916Y-110779243D01*
X265611589Y-110821928D01*
X265571840Y-110869655D01*
X265534593Y-110922016D01*
X265499775Y-110978603D01*
X265467310Y-111039009D01*
X265437123Y-111102827D01*
X265409139Y-111169648D01*
X265383283Y-111239066D01*
X265359481Y-111310673D01*
X265337657Y-111384061D01*
X265317736Y-111458823D01*
X265299644Y-111534551D01*
X265283305Y-111610838D01*
X265268645Y-111687277D01*
X265255588Y-111763459D01*
X265244060Y-111838978D01*
X265233985Y-111913425D01*
X265225290Y-111986394D01*
X265217898Y-112057477D01*
X265211734Y-112126266D01*
X265206725Y-112192353D01*
X265202794Y-112255332D01*
X265199868Y-112314795D01*
X265197870Y-112370334D01*
X265196727Y-112421542D01*
X265196362Y-112468011D01*
X264097383Y-112468011D01*
X264099061Y-112427646D01*
X264102128Y-112368143D01*
X264105823Y-112308397D01*
X264110168Y-112248452D01*
X264115184Y-112188347D01*
X264120893Y-112128125D01*
X264127317Y-112067828D01*
X264134476Y-112007497D01*
X264142393Y-111947173D01*
X264151090Y-111886899D01*
X264160588Y-111826717D01*
X264170908Y-111766667D01*
X264182073Y-111706792D01*
X264194104Y-111647134D01*
X264207023Y-111587733D01*
X264220850Y-111528632D01*
X264235609Y-111469872D01*
X264251320Y-111411495D01*
X264268006Y-111353543D01*
X264285687Y-111296057D01*
X264304386Y-111239079D01*
X264324124Y-111182651D01*
X264344923Y-111126815D01*
X264366805Y-111071611D01*
X264389790Y-111017083D01*
X264413901Y-110963270D01*
X264439160Y-110910216D01*
X264465587Y-110857962D01*
X264495757Y-110801342D01*
X264526922Y-110746171D01*
X264559092Y-110692471D01*
X264592279Y-110640265D01*
X264626492Y-110589576D01*
X264661743Y-110540427D01*
X264698042Y-110492841D01*
X264735399Y-110446840D01*
X264773826Y-110402448D01*
X264813332Y-110359687D01*
X264853928Y-110318581D01*
X264895625Y-110279152D01*
X264938433Y-110241423D01*
X264982363Y-110205417D01*
X265027425Y-110171158D01*
X265073630Y-110138667D01*
X265120989Y-110107967D01*
X265169511Y-110079083D01*
X265219209Y-110052036D01*
X265270091Y-110026849D01*
X265322169Y-110003546D01*
X265375453Y-109982149D01*
X265429954Y-109962681D01*
X265485683Y-109945165D01*
X265542649Y-109929624D01*
X265600864Y-109916081D01*
X265660338Y-109904559D01*
X265721082Y-109895080D01*
X265783105Y-109887668D01*
X265846419Y-109882345D01*
X265911035Y-109879135D01*
X265976962Y-109878060D01*
X266026162Y-109878886D01*
X266075270Y-109881372D01*
X266123828Y-109885530D01*
X266171379Y-109891371D01*
X266217465Y-109898906D01*
X266261627Y-109908147D01*
X266303408Y-109919106D01*
X266342349Y-109931793D01*
X266351433Y-109915112D01*
X266380952Y-109878118D01*
X266418857Y-109847850D01*
X266454091Y-109828478D01*
X266492759Y-109813411D01*
X266534004Y-109802650D01*
X266576966Y-109796192D01*
X266620786Y-109794040D01*
X266667639Y-109796482D01*
G37*
G36*
X232258644Y-99517006D02*
G01*
X232258545Y-99477447D01*
X232258266Y-99437907D01*
X232257833Y-99398386D01*
X232257270Y-99358885D01*
X232256605Y-99319406D01*
X232255862Y-99279949D01*
X232255068Y-99240516D01*
X232254248Y-99201108D01*
X232253428Y-99161726D01*
X232252633Y-99122370D01*
X232251891Y-99083042D01*
X232251225Y-99043743D01*
X232250663Y-99004475D01*
X232250229Y-98965237D01*
X232249950Y-98926031D01*
X232249851Y-98886859D01*
X232248955Y-98840018D01*
X232247800Y-98788449D01*
X232246214Y-98732868D01*
X232244024Y-98673990D01*
X232242648Y-98643539D01*
X232241056Y-98612532D01*
X232239227Y-98581060D01*
X232237139Y-98549210D01*
X232234770Y-98517074D01*
X232232098Y-98484740D01*
X232229103Y-98452297D01*
X232225763Y-98419836D01*
X232222055Y-98387446D01*
X232217959Y-98355217D01*
X232213452Y-98323237D01*
X232208514Y-98291596D01*
X232203122Y-98260384D01*
X232197255Y-98229691D01*
X232190891Y-98199605D01*
X232184009Y-98170216D01*
X232176587Y-98141615D01*
X232160037Y-98087129D01*
X232141068Y-98036865D01*
X232119508Y-97991537D01*
X232107702Y-97970949D01*
X232091323Y-97945283D01*
X232074341Y-97920623D01*
X232056770Y-97896955D01*
X232019905Y-97852547D01*
X231980823Y-97811959D01*
X231939620Y-97775093D01*
X231896390Y-97741847D01*
X231851231Y-97712122D01*
X231804236Y-97685819D01*
X231755502Y-97662837D01*
X231705124Y-97643076D01*
X231653198Y-97626437D01*
X231599820Y-97612821D01*
X231545084Y-97602126D01*
X231489086Y-97594254D01*
X231431922Y-97589104D01*
X231373688Y-97586577D01*
X231344199Y-97586266D01*
X231301019Y-97587460D01*
X231258355Y-97590942D01*
X231216275Y-97596559D01*
X231174847Y-97604161D01*
X231134140Y-97613596D01*
X231094224Y-97624713D01*
X231055166Y-97637360D01*
X231017035Y-97651387D01*
X230979901Y-97666642D01*
X230943831Y-97682973D01*
X230908895Y-97700230D01*
X230875161Y-97718260D01*
X230842698Y-97736913D01*
X230811574Y-97756037D01*
X230781858Y-97775481D01*
X230753620Y-97795094D01*
X230753244Y-97763053D01*
X230753187Y-97729907D01*
X230753410Y-97695734D01*
X230753871Y-97660615D01*
X230754530Y-97624629D01*
X230755345Y-97587855D01*
X230756277Y-97550372D01*
X230757283Y-97512260D01*
X230758324Y-97473599D01*
X230759358Y-97434468D01*
X230760345Y-97394946D01*
X230761244Y-97355113D01*
X230762015Y-97315048D01*
X230762615Y-97274831D01*
X230763006Y-97234540D01*
X230763145Y-97194256D01*
X230762145Y-97160742D01*
X230759192Y-97128341D01*
X230754353Y-97097049D01*
X230747698Y-97066865D01*
X230739294Y-97037783D01*
X230729209Y-97009802D01*
X230717514Y-96982918D01*
X230689561Y-96932427D01*
X230655983Y-96886285D01*
X230617328Y-96844467D01*
X230574141Y-96806947D01*
X230526972Y-96773698D01*
X230476366Y-96744696D01*
X230449946Y-96731779D01*
X230422873Y-96719913D01*
X230395214Y-96709097D01*
X230367038Y-96699326D01*
X230338414Y-96690597D01*
X230309410Y-96682907D01*
X230280095Y-96676253D01*
X230250536Y-96670631D01*
X230220803Y-96666039D01*
X230190963Y-96662473D01*
X230161086Y-96659930D01*
X230131239Y-96658406D01*
X230101491Y-96657899D01*
X230058044Y-96659499D01*
X230016284Y-96664516D01*
X229976773Y-96673277D01*
X229940079Y-96686106D01*
X229906766Y-96703331D01*
X229877399Y-96725277D01*
X229852543Y-96752271D01*
X229832763Y-96784638D01*
X229818625Y-96822705D01*
X229812612Y-96851410D01*
X229809526Y-96882889D01*
X229809132Y-96899699D01*
X229810688Y-96932769D01*
X229818219Y-96973941D01*
X229830771Y-97006895D01*
X229846974Y-97033774D01*
X229865460Y-97056717D01*
X229891291Y-97084886D01*
X229915499Y-97114941D01*
X229930637Y-97141771D01*
X229941668Y-97174657D01*
X229947221Y-97215740D01*
X229947618Y-97231625D01*
X229947617Y-97261576D01*
X229947610Y-97291525D01*
X229947589Y-97321471D01*
X229947549Y-97351415D01*
X229947484Y-97381354D01*
X229947386Y-97411288D01*
X229947250Y-97441216D01*
X229947069Y-97471136D01*
X229946836Y-97501048D01*
X229946545Y-97530949D01*
X229946190Y-97560840D01*
X229945763Y-97590720D01*
X229945260Y-97620586D01*
X229944673Y-97650438D01*
X229943996Y-97680276D01*
X229943222Y-97710097D01*
X229942102Y-97769163D01*
X229941076Y-97828208D01*
X229940138Y-97887235D01*
X229939282Y-97946243D01*
X229938503Y-98005235D01*
X229937794Y-98064212D01*
X229937152Y-98123174D01*
X229936570Y-98182123D01*
X229936043Y-98241061D01*
X229935564Y-98299988D01*
X229935130Y-98358905D01*
X229934734Y-98417814D01*
X229934370Y-98476717D01*
X229934034Y-98535613D01*
X229933720Y-98594505D01*
X229933422Y-98653394D01*
X229933134Y-98712280D01*
X229932852Y-98771166D01*
X229932569Y-98830051D01*
X229932281Y-98888939D01*
X229931981Y-98947829D01*
X229931665Y-99006722D01*
X229931326Y-99065621D01*
X229930960Y-99124527D01*
X229930560Y-99183439D01*
X229930122Y-99242361D01*
X229929639Y-99301292D01*
X229929107Y-99360235D01*
X229928519Y-99419190D01*
X229927870Y-99478158D01*
X229927156Y-99537141D01*
X229926369Y-99596140D01*
X229926129Y-99627161D01*
X229925519Y-99657846D01*
X229924709Y-99688397D01*
X229923865Y-99719016D01*
X229923155Y-99749902D01*
X229922747Y-99781258D01*
X229922705Y-99793977D01*
X229924368Y-99847030D01*
X229929379Y-99897571D01*
X229937770Y-99945473D01*
X229949576Y-99990612D01*
X229964829Y-100032861D01*
X229983563Y-100072095D01*
X230005812Y-100108188D01*
X230031607Y-100141016D01*
X230060983Y-100170451D01*
X230093974Y-100196370D01*
X230130611Y-100218645D01*
X230170929Y-100237152D01*
X230214960Y-100251765D01*
X230262739Y-100262358D01*
X230314297Y-100268806D01*
X230369670Y-100270983D01*
X230408229Y-100269951D01*
X230444146Y-100266905D01*
X230477514Y-100261922D01*
X230508426Y-100255080D01*
X230536975Y-100246455D01*
X230587357Y-100224168D01*
X230629402Y-100195677D01*
X230663856Y-100161600D01*
X230691461Y-100122555D01*
X230712961Y-100079157D01*
X230729100Y-100032025D01*
X230740623Y-99981775D01*
X230748273Y-99929025D01*
X230752793Y-99874392D01*
X230754927Y-99818493D01*
X230755421Y-99761945D01*
X230755016Y-99705365D01*
X230754457Y-99649371D01*
X230754352Y-99621786D01*
X230754311Y-99578502D01*
X230754195Y-99535210D01*
X230754014Y-99491917D01*
X230753780Y-99448633D01*
X230753503Y-99405366D01*
X230753193Y-99362125D01*
X230752862Y-99318919D01*
X230752520Y-99275755D01*
X230752179Y-99232643D01*
X230751848Y-99189591D01*
X230751538Y-99146607D01*
X230751261Y-99103701D01*
X230751027Y-99060881D01*
X230750846Y-99018155D01*
X230750730Y-98975532D01*
X230750689Y-98933021D01*
X230750689Y-98565191D01*
X230803870Y-98568223D01*
X230856373Y-98563202D01*
X230907966Y-98551213D01*
X230958417Y-98533341D01*
X231007494Y-98510668D01*
X231054966Y-98484279D01*
X231100599Y-98455259D01*
X231144164Y-98424691D01*
X231185427Y-98393659D01*
X231224157Y-98363247D01*
X231260122Y-98334540D01*
X231293091Y-98308622D01*
X231322831Y-98286576D01*
X231349110Y-98269487D01*
X231381534Y-98255518D01*
X231390361Y-98254515D01*
X231408679Y-98277229D01*
X231412478Y-98313663D01*
X231414449Y-98358505D01*
X231415634Y-98395334D01*
X231416716Y-98436233D01*
X231417695Y-98479932D01*
X231418571Y-98525166D01*
X231419343Y-98570666D01*
X231420013Y-98615164D01*
X231420580Y-98657394D01*
X231421044Y-98696086D01*
X231421404Y-98729975D01*
X231421752Y-98769027D01*
X231421868Y-98790139D01*
X231421868Y-99180683D01*
X231421883Y-99212579D01*
X231421987Y-99253776D01*
X231422269Y-99302911D01*
X231422818Y-99358622D01*
X231423221Y-99388517D01*
X231423724Y-99419545D01*
X231424338Y-99451535D01*
X231425075Y-99484316D01*
X231425946Y-99517720D01*
X231426961Y-99551574D01*
X231428132Y-99585709D01*
X231429470Y-99619954D01*
X231430986Y-99654139D01*
X231432692Y-99688094D01*
X231434598Y-99721648D01*
X231436716Y-99754630D01*
X231439056Y-99786871D01*
X231441630Y-99818200D01*
X231444450Y-99848446D01*
X231450868Y-99905010D01*
X231458399Y-99955199D01*
X231467133Y-99997650D01*
X231477159Y-100031001D01*
X231482684Y-100043838D01*
X231497691Y-100070330D01*
X231514092Y-100094623D01*
X231541158Y-100127088D01*
X231570986Y-100154984D01*
X231603349Y-100178540D01*
X231638023Y-100197985D01*
X231674784Y-100213547D01*
X231713406Y-100225454D01*
X231753666Y-100233933D01*
X231795339Y-100239214D01*
X231838200Y-100241525D01*
X231852712Y-100241674D01*
X231887077Y-100241011D01*
X231919457Y-100239039D01*
X231949911Y-100235784D01*
X232005274Y-100225532D01*
X232053635Y-100210465D01*
X232095463Y-100190793D01*
X232131227Y-100166727D01*
X232161396Y-100138477D01*
X232186440Y-100106253D01*
X232206827Y-100070267D01*
X232223027Y-100030727D01*
X232235508Y-99987846D01*
X232244739Y-99941832D01*
X232251190Y-99892897D01*
X232255329Y-99841251D01*
X232257627Y-99787103D01*
X232258550Y-99730665D01*
X232258644Y-99701653D01*
X232258644Y-99517006D01*
G37*
G36*
X232774485Y-99634242D02*
G01*
X232774733Y-99691384D01*
X232775850Y-99748697D01*
X232778397Y-99805649D01*
X232782934Y-99861709D01*
X232790021Y-99916343D01*
X232800219Y-99969019D01*
X232814088Y-100019205D01*
X232832187Y-100066369D01*
X232855078Y-100109978D01*
X232883321Y-100149499D01*
X232917475Y-100184401D01*
X232958102Y-100214151D01*
X233005761Y-100238217D01*
X233061013Y-100256066D01*
X233091662Y-100262492D01*
X233124418Y-100267165D01*
X233159353Y-100270018D01*
X233196536Y-100270983D01*
X233248361Y-100268593D01*
X233295931Y-100261580D01*
X233339374Y-100250181D01*
X233378814Y-100234633D01*
X233414377Y-100215175D01*
X233446189Y-100192042D01*
X233474376Y-100165473D01*
X233499062Y-100135703D01*
X233520373Y-100102972D01*
X233538436Y-100067515D01*
X233553375Y-100029571D01*
X233565316Y-99989375D01*
X233574386Y-99947166D01*
X233580708Y-99903181D01*
X233584409Y-99857656D01*
X233585615Y-99810830D01*
X233585525Y-99758073D01*
X233585269Y-99705317D01*
X233584872Y-99652561D01*
X233584356Y-99599804D01*
X233583746Y-99547048D01*
X233583065Y-99494291D01*
X233582337Y-99441535D01*
X233581585Y-99388778D01*
X233580834Y-99336022D01*
X233580106Y-99283265D01*
X233579425Y-99230509D01*
X233578815Y-99177752D01*
X233578299Y-99124996D01*
X233577902Y-99072240D01*
X233577646Y-99019483D01*
X233577555Y-98966727D01*
X233577555Y-98310935D01*
X233577539Y-98275218D01*
X233577421Y-98238969D01*
X233577103Y-98202404D01*
X233576635Y-98173071D01*
X233575701Y-98136488D01*
X233574283Y-98100200D01*
X233573159Y-98078660D01*
X233571422Y-98046163D01*
X233569119Y-98015870D01*
X233564231Y-97974160D01*
X233557110Y-97936376D01*
X233547180Y-97901898D01*
X233533866Y-97870107D01*
X233516592Y-97840383D01*
X233494780Y-97812107D01*
X233467857Y-97784659D01*
X233435244Y-97757420D01*
X233410058Y-97739071D01*
X233381917Y-97720355D01*
X233345583Y-97698145D01*
X233308327Y-97677373D01*
X233270192Y-97658202D01*
X233231221Y-97640796D01*
X233191458Y-97625316D01*
X233150946Y-97611927D01*
X233109730Y-97600791D01*
X233067851Y-97592071D01*
X233025354Y-97585930D01*
X232982283Y-97582531D01*
X232953271Y-97581870D01*
X232913426Y-97583228D01*
X232874316Y-97587559D01*
X232836636Y-97595248D01*
X232801081Y-97606677D01*
X232768346Y-97622230D01*
X232739128Y-97642293D01*
X232714121Y-97667248D01*
X232694022Y-97697481D01*
X232679526Y-97733373D01*
X232671328Y-97775311D01*
X232669705Y-97806817D01*
X232671071Y-97836225D01*
X232677685Y-97875003D01*
X232688710Y-97907968D01*
X232702941Y-97935785D01*
X232724827Y-97966011D01*
X232747425Y-97989833D01*
X232772332Y-98013000D01*
X232790989Y-98038593D01*
X232791338Y-98042023D01*
X232791289Y-98077057D01*
X232791148Y-98112091D01*
X232790921Y-98147125D01*
X232790613Y-98182159D01*
X232790232Y-98217194D01*
X232789782Y-98252230D01*
X232789271Y-98287266D01*
X232788704Y-98322303D01*
X232788088Y-98357342D01*
X232787429Y-98392381D01*
X232786733Y-98427422D01*
X232786005Y-98462465D01*
X232785253Y-98497509D01*
X232784483Y-98532555D01*
X232783700Y-98567602D01*
X232782911Y-98602652D01*
X232782122Y-98637704D01*
X232781340Y-98672758D01*
X232780569Y-98707815D01*
X232779817Y-98742874D01*
X232779090Y-98777936D01*
X232778394Y-98813000D01*
X232777734Y-98848068D01*
X232777118Y-98883138D01*
X232776551Y-98918212D01*
X232776040Y-98953289D01*
X232775591Y-98988370D01*
X232775209Y-99023454D01*
X232774901Y-99058543D01*
X232774674Y-99093634D01*
X232774533Y-99128730D01*
X232774485Y-99163831D01*
X232774485Y-99634242D01*
G37*
G36*
X233623717Y-97131242D02*
G01*
X233620591Y-97077384D01*
X233611483Y-97026333D01*
X233596800Y-96978179D01*
X233576949Y-96933016D01*
X233552336Y-96890935D01*
X233523369Y-96852029D01*
X233490455Y-96816391D01*
X233453999Y-96784112D01*
X233414409Y-96755284D01*
X233372092Y-96730001D01*
X233327455Y-96708355D01*
X233280903Y-96690437D01*
X233232845Y-96676340D01*
X233183687Y-96666157D01*
X233133835Y-96659979D01*
X233083696Y-96657899D01*
X233044727Y-96659339D01*
X233005805Y-96663651D01*
X232967272Y-96670819D01*
X232929468Y-96680831D01*
X232892733Y-96693672D01*
X232857408Y-96709329D01*
X232823832Y-96727787D01*
X232792345Y-96749032D01*
X232763289Y-96773051D01*
X232737003Y-96799829D01*
X232713827Y-96829353D01*
X232694102Y-96861609D01*
X232678168Y-96896582D01*
X232666366Y-96934259D01*
X232659035Y-96974626D01*
X232656516Y-97017669D01*
X232660162Y-97067292D01*
X232670715Y-97115183D01*
X232687592Y-97161141D01*
X232710211Y-97204961D01*
X232737990Y-97246442D01*
X232770349Y-97285379D01*
X232806705Y-97321572D01*
X232846475Y-97354815D01*
X232889080Y-97384908D01*
X232933936Y-97411646D01*
X232980463Y-97434828D01*
X233028078Y-97454249D01*
X233076199Y-97469708D01*
X233124245Y-97481001D01*
X233171635Y-97487925D01*
X233217786Y-97490279D01*
X233260864Y-97489064D01*
X233302337Y-97485370D01*
X233342044Y-97479121D01*
X233379822Y-97470243D01*
X233415509Y-97458660D01*
X233448943Y-97444297D01*
X233479962Y-97427079D01*
X233508404Y-97406931D01*
X233534107Y-97383777D01*
X233556909Y-97357543D01*
X233576647Y-97328154D01*
X233593160Y-97295533D01*
X233606286Y-97259607D01*
X233615862Y-97220300D01*
X233621726Y-97177536D01*
X233623717Y-97131242D01*
G37*
G36*
X235874402Y-96650539D02*
G01*
X235912792Y-96654092D01*
X235951355Y-96660418D01*
X235989870Y-96669255D01*
X236028115Y-96680343D01*
X236065870Y-96693421D01*
X236102914Y-96708228D01*
X236139026Y-96724504D01*
X236173984Y-96741987D01*
X236207569Y-96760416D01*
X236239558Y-96779532D01*
X236267047Y-96796752D01*
X236293399Y-96814908D01*
X236318529Y-96834022D01*
X236342346Y-96854121D01*
X236364764Y-96875229D01*
X236385695Y-96897371D01*
X236405049Y-96920571D01*
X236422740Y-96944854D01*
X236438680Y-96970244D01*
X236452779Y-96996767D01*
X236464951Y-97024447D01*
X236475107Y-97053309D01*
X236483160Y-97083377D01*
X236489021Y-97114677D01*
X236492602Y-97147232D01*
X236493815Y-97181067D01*
X236493765Y-97194611D01*
X236493237Y-97228035D01*
X236492231Y-97261013D01*
X236490862Y-97293763D01*
X236489248Y-97326504D01*
X236487506Y-97359452D01*
X236485755Y-97392826D01*
X236482838Y-97442285D01*
X236480381Y-97491746D01*
X236478347Y-97541208D01*
X236476699Y-97590674D01*
X236475398Y-97640144D01*
X236474408Y-97689619D01*
X236473690Y-97739101D01*
X236473207Y-97788591D01*
X236472922Y-97838089D01*
X236472796Y-97887596D01*
X236472793Y-97937115D01*
X236472875Y-97986645D01*
X236473004Y-98036188D01*
X236473143Y-98085745D01*
X236473253Y-98135317D01*
X236473299Y-98184905D01*
X236473299Y-99176287D01*
X236473871Y-99205035D01*
X236475130Y-99234814D01*
X236476390Y-99265004D01*
X236476962Y-99294989D01*
X236468902Y-99550711D01*
X236471201Y-99588314D01*
X236479644Y-99625106D01*
X236492840Y-99661434D01*
X236509397Y-99697646D01*
X236527925Y-99734090D01*
X236547032Y-99771114D01*
X236565328Y-99809065D01*
X236581422Y-99848291D01*
X236593922Y-99889140D01*
X236601437Y-99931959D01*
X236602991Y-99961772D01*
X236600342Y-99998884D01*
X236592680Y-100033564D01*
X236580440Y-100065815D01*
X236564054Y-100095644D01*
X236543954Y-100123055D01*
X236520572Y-100148055D01*
X236494342Y-100170649D01*
X236465696Y-100190841D01*
X236435067Y-100208638D01*
X236402886Y-100224044D01*
X236369588Y-100237066D01*
X236335603Y-100247708D01*
X236301365Y-100255976D01*
X236267306Y-100261874D01*
X236233859Y-100265410D01*
X236201456Y-100266587D01*
X236175601Y-100266015D01*
X236137311Y-100263045D01*
X236099756Y-100257600D01*
X236063099Y-100249750D01*
X236027504Y-100239563D01*
X235993133Y-100227109D01*
X235960150Y-100212455D01*
X235928717Y-100195672D01*
X235898997Y-100176828D01*
X235871154Y-100155991D01*
X235845350Y-100133230D01*
X235810572Y-100151029D01*
X235774716Y-100167361D01*
X235737873Y-100182269D01*
X235700133Y-100195799D01*
X235661585Y-100207993D01*
X235622320Y-100218895D01*
X235582429Y-100228551D01*
X235542001Y-100237003D01*
X235501126Y-100244296D01*
X235459895Y-100250474D01*
X235418398Y-100255581D01*
X235376724Y-100259661D01*
X235334965Y-100262757D01*
X235293211Y-100264914D01*
X235251550Y-100266176D01*
X235210075Y-100266587D01*
X235136519Y-100264964D01*
X235065327Y-100260138D01*
X234996496Y-100252174D01*
X234930026Y-100241136D01*
X234865914Y-100227088D01*
X234804158Y-100210095D01*
X234744757Y-100190222D01*
X234687708Y-100167531D01*
X234633009Y-100142089D01*
X234580660Y-100113959D01*
X234530657Y-100083206D01*
X234482999Y-100049894D01*
X234437684Y-100014088D01*
X234394710Y-99975851D01*
X234354076Y-99935249D01*
X234315779Y-99892346D01*
X234279818Y-99847206D01*
X234246191Y-99799893D01*
X234214895Y-99750473D01*
X234185929Y-99699009D01*
X234159291Y-99645565D01*
X234134980Y-99590207D01*
X234112992Y-99532998D01*
X234093328Y-99474004D01*
X234075983Y-99413287D01*
X234060958Y-99350914D01*
X234048249Y-99286948D01*
X234037855Y-99221453D01*
X234029774Y-99154494D01*
X234024004Y-99086136D01*
X234020544Y-99016442D01*
X234019391Y-98945478D01*
X234019609Y-98924228D01*
X234826125Y-98924228D01*
X234826389Y-98957062D01*
X234827211Y-98989847D01*
X234828633Y-99022518D01*
X234830696Y-99055012D01*
X234833442Y-99087262D01*
X234836915Y-99119203D01*
X234841155Y-99150769D01*
X234846206Y-99181897D01*
X234852109Y-99212520D01*
X234858906Y-99242574D01*
X234866640Y-99271992D01*
X234875352Y-99300711D01*
X234885085Y-99328664D01*
X234907782Y-99382014D01*
X234935067Y-99431520D01*
X234967278Y-99476661D01*
X235004751Y-99516915D01*
X235047824Y-99551760D01*
X235096834Y-99580675D01*
X235123670Y-99592746D01*
X235152117Y-99603139D01*
X235182217Y-99611788D01*
X235214011Y-99618629D01*
X235247542Y-99623596D01*
X235282852Y-99626624D01*
X235319984Y-99627648D01*
X235342726Y-99627191D01*
X235376562Y-99624853D01*
X235409995Y-99620653D01*
X235442945Y-99614723D01*
X235475332Y-99607198D01*
X235507077Y-99598212D01*
X235538099Y-99587899D01*
X235568320Y-99576393D01*
X235597660Y-99563828D01*
X235626038Y-99550338D01*
X235653375Y-99536057D01*
X235653533Y-99505979D01*
X235653948Y-99475137D01*
X235654534Y-99443591D01*
X235655207Y-99411401D01*
X235655880Y-99378627D01*
X235656466Y-99345330D01*
X235656882Y-99311568D01*
X235657039Y-99277404D01*
X235657039Y-98417913D01*
X235645877Y-98412416D01*
X235610496Y-98394483D01*
X235572671Y-98374985D01*
X235546351Y-98361496D01*
X235519326Y-98347881D01*
X235491747Y-98334366D01*
X235463769Y-98321180D01*
X235435542Y-98308550D01*
X235407220Y-98296704D01*
X235378955Y-98285868D01*
X235350899Y-98276271D01*
X235309541Y-98264696D01*
X235269511Y-98257188D01*
X235231324Y-98254515D01*
X235199088Y-98255618D01*
X235168572Y-98258872D01*
X235112513Y-98271480D01*
X235062782Y-98291643D01*
X235019016Y-98318663D01*
X234980847Y-98351843D01*
X234947912Y-98390489D01*
X234919846Y-98433902D01*
X234896284Y-98481386D01*
X234876860Y-98532244D01*
X234861210Y-98585781D01*
X234848969Y-98641299D01*
X234839772Y-98698101D01*
X234833254Y-98755492D01*
X234829050Y-98812775D01*
X234826795Y-98869252D01*
X234826125Y-98924228D01*
X234019609Y-98924228D01*
X234019876Y-98898289D01*
X234021352Y-98851142D01*
X234023846Y-98804085D01*
X234027386Y-98757169D01*
X234032002Y-98710443D01*
X234037720Y-98663956D01*
X234044571Y-98617759D01*
X234052581Y-98571900D01*
X234061779Y-98526431D01*
X234072194Y-98481399D01*
X234083854Y-98436855D01*
X234096787Y-98392849D01*
X234111021Y-98349429D01*
X234126585Y-98306647D01*
X234143506Y-98264550D01*
X234161815Y-98223190D01*
X234181538Y-98182616D01*
X234202704Y-98142877D01*
X234225341Y-98104023D01*
X234249477Y-98066103D01*
X234275142Y-98029168D01*
X234302363Y-97993266D01*
X234331168Y-97958448D01*
X234361586Y-97924764D01*
X234393646Y-97892262D01*
X234427374Y-97860992D01*
X234462801Y-97831005D01*
X234499953Y-97802349D01*
X234538860Y-97775075D01*
X234579550Y-97749232D01*
X234622050Y-97724869D01*
X234666390Y-97702037D01*
X234697108Y-97688058D01*
X234728240Y-97674973D01*
X234759754Y-97662784D01*
X234791618Y-97651490D01*
X234823800Y-97641094D01*
X234856267Y-97631596D01*
X234888987Y-97622998D01*
X234921929Y-97615300D01*
X234955060Y-97608504D01*
X234988347Y-97602611D01*
X235021759Y-97597621D01*
X235055263Y-97593536D01*
X235088827Y-97590357D01*
X235122419Y-97588085D01*
X235156007Y-97586721D01*
X235189558Y-97586266D01*
X235205565Y-97586389D01*
X235237559Y-97587353D01*
X235269477Y-97589225D01*
X235301257Y-97591945D01*
X235332836Y-97595455D01*
X235364153Y-97599694D01*
X235395144Y-97604606D01*
X235425747Y-97610129D01*
X235455901Y-97616206D01*
X235485543Y-97622777D01*
X235514610Y-97629784D01*
X235543041Y-97637166D01*
X235584358Y-97648817D01*
X235623893Y-97660981D01*
X235661435Y-97673461D01*
X235660416Y-97648815D01*
X235658827Y-97619027D01*
X235657578Y-97588318D01*
X235657039Y-97555491D01*
X235657001Y-97528595D01*
X235656846Y-97487904D01*
X235656661Y-97446899D01*
X235656544Y-97405690D01*
X235656592Y-97364391D01*
X235656903Y-97323114D01*
X235657576Y-97281970D01*
X235658707Y-97241073D01*
X235660395Y-97200535D01*
X235662737Y-97160468D01*
X235665832Y-97120983D01*
X235660895Y-97109882D01*
X235640633Y-97082801D01*
X235618878Y-97060600D01*
X235594929Y-97036627D01*
X235571311Y-97009689D01*
X235550548Y-96978593D01*
X235538368Y-96951825D01*
X235530279Y-96921543D01*
X235527346Y-96887243D01*
X235527842Y-96869414D01*
X235531708Y-96836354D01*
X235539169Y-96806624D01*
X235556483Y-96767923D01*
X235580299Y-96735809D01*
X235609663Y-96709741D01*
X235643623Y-96689173D01*
X235681226Y-96673564D01*
X235721519Y-96662369D01*
X235763550Y-96655046D01*
X235806366Y-96651050D01*
X235849014Y-96649839D01*
X235874402Y-96650539D01*
G37*
G36*
X239306760Y-98327055D02*
G01*
X239336949Y-98323355D01*
X239366844Y-98321926D01*
X239401925Y-98322331D01*
X239436988Y-98323317D01*
X239471857Y-98324534D01*
X239506360Y-98325635D01*
X239540321Y-98326273D01*
X239551491Y-98326322D01*
X239586189Y-98325188D01*
X239619075Y-98321784D01*
X239650092Y-98316106D01*
X239679181Y-98308153D01*
X239719067Y-98291946D01*
X239754282Y-98270599D01*
X239784626Y-98244101D01*
X239809900Y-98212441D01*
X239829904Y-98175608D01*
X239844439Y-98133592D01*
X239850992Y-98102695D01*
X239854968Y-98069487D01*
X239856306Y-98033963D01*
X239853331Y-97983201D01*
X239844663Y-97934859D01*
X239830688Y-97889054D01*
X239811793Y-97845904D01*
X239788364Y-97805528D01*
X239760788Y-97768043D01*
X239729451Y-97733568D01*
X239694740Y-97702220D01*
X239657040Y-97674119D01*
X239616738Y-97649381D01*
X239574221Y-97628125D01*
X239529876Y-97610469D01*
X239484087Y-97596531D01*
X239437243Y-97586429D01*
X239389728Y-97580282D01*
X239341931Y-97578206D01*
X239312233Y-97579195D01*
X239300165Y-97584801D01*
X239303561Y-97549751D01*
X239305897Y-97517830D01*
X239307767Y-97484050D01*
X239309154Y-97448983D01*
X239310042Y-97413198D01*
X239310413Y-97377265D01*
X239310423Y-97370111D01*
X239307495Y-97313279D01*
X239298916Y-97258854D01*
X239284993Y-97207009D01*
X239266036Y-97157918D01*
X239242352Y-97111755D01*
X239214249Y-97068694D01*
X239182034Y-97028908D01*
X239146017Y-96992573D01*
X239106506Y-96959861D01*
X239063807Y-96930946D01*
X239018230Y-96906003D01*
X238970082Y-96885205D01*
X238919672Y-96868726D01*
X238867307Y-96856740D01*
X238813296Y-96849421D01*
X238757946Y-96846943D01*
X238718192Y-96848284D01*
X238679330Y-96852570D01*
X238642018Y-96860196D01*
X238606915Y-96871557D01*
X238574682Y-96887047D01*
X238545977Y-96907062D01*
X238521459Y-96931996D01*
X238501789Y-96962245D01*
X238487624Y-96998202D01*
X238479626Y-97040264D01*
X238478044Y-97071891D01*
X238479459Y-97103297D01*
X238486313Y-97143514D01*
X238497736Y-97176476D01*
X238512482Y-97203323D01*
X238535159Y-97231579D01*
X238558574Y-97253698D01*
X238584381Y-97276837D01*
X238602658Y-97304962D01*
X238604073Y-97315889D01*
X238603367Y-97345841D01*
X238601900Y-97375825D01*
X238600650Y-97406917D01*
X238600409Y-97425066D01*
X238600756Y-97455497D01*
X238601669Y-97485791D01*
X238602960Y-97515947D01*
X238604439Y-97545966D01*
X238605919Y-97575848D01*
X238607210Y-97605592D01*
X238608123Y-97635199D01*
X238608469Y-97664668D01*
X238608469Y-97707166D01*
X238576754Y-97711916D01*
X238545872Y-97717306D01*
X238512739Y-97722720D01*
X238478456Y-97727028D01*
X238444126Y-97729100D01*
X238438476Y-97729148D01*
X238397096Y-97729565D01*
X238358823Y-97731399D01*
X238323869Y-97735527D01*
X238292443Y-97742827D01*
X238264756Y-97754174D01*
X238234017Y-97777114D01*
X238215870Y-97801314D01*
X238202161Y-97832484D01*
X238193101Y-97871501D01*
X238189748Y-97902304D01*
X238188616Y-97937243D01*
X238190826Y-97983335D01*
X238197300Y-98028323D01*
X238207801Y-98071995D01*
X238222093Y-98114140D01*
X238239939Y-98154546D01*
X238261105Y-98193001D01*
X238285353Y-98229295D01*
X238312447Y-98263216D01*
X238342152Y-98294552D01*
X238374231Y-98323092D01*
X238408448Y-98348625D01*
X238444567Y-98370938D01*
X238482352Y-98389822D01*
X238521567Y-98405063D01*
X238561975Y-98416451D01*
X238603340Y-98423775D01*
X238602373Y-98461210D01*
X238601646Y-98500276D01*
X238601238Y-98530512D01*
X238600931Y-98561447D01*
X238600711Y-98592984D01*
X238600564Y-98625032D01*
X238600475Y-98657495D01*
X238600429Y-98690279D01*
X238600412Y-98723290D01*
X238600409Y-98756434D01*
X238599285Y-98800231D01*
X238598654Y-98829537D01*
X238598109Y-98858913D01*
X238597646Y-98888348D01*
X238597256Y-98917828D01*
X238596933Y-98947339D01*
X238596672Y-98976871D01*
X238596466Y-99006408D01*
X238596308Y-99035939D01*
X238596192Y-99065451D01*
X238596111Y-99094931D01*
X238596059Y-99124365D01*
X238596030Y-99153742D01*
X238596014Y-99197670D01*
X238596013Y-99226845D01*
X238596022Y-99257729D01*
X238596088Y-99293317D01*
X238596264Y-99332925D01*
X238596608Y-99375864D01*
X238597176Y-99421448D01*
X238598022Y-99468989D01*
X238599204Y-99517801D01*
X238600776Y-99567198D01*
X238602794Y-99616491D01*
X238605315Y-99664994D01*
X238608394Y-99712020D01*
X238612087Y-99756883D01*
X238616450Y-99798894D01*
X238621538Y-99837368D01*
X238627408Y-99871618D01*
X238634115Y-99900956D01*
X238651698Y-99952807D01*
X238672978Y-99999953D01*
X238697736Y-100042579D01*
X238725752Y-100080875D01*
X238756808Y-100115027D01*
X238790684Y-100145225D01*
X238827162Y-100171655D01*
X238866024Y-100194505D01*
X238907049Y-100213964D01*
X238950018Y-100230218D01*
X238994714Y-100243457D01*
X239040917Y-100253867D01*
X239088407Y-100261637D01*
X239136967Y-100266955D01*
X239186377Y-100270008D01*
X239236418Y-100270983D01*
X239286797Y-100270239D01*
X239339091Y-100267779D01*
X239392588Y-100263260D01*
X239446574Y-100256340D01*
X239500336Y-100246677D01*
X239553163Y-100233928D01*
X239604341Y-100217750D01*
X239653157Y-100197802D01*
X239698900Y-100173741D01*
X239740856Y-100145225D01*
X239778312Y-100111910D01*
X239810556Y-100073456D01*
X239836876Y-100029519D01*
X239856558Y-99979757D01*
X239868890Y-99923827D01*
X239872077Y-99893443D01*
X239873159Y-99861388D01*
X239871762Y-99828508D01*
X239867619Y-99795975D01*
X239860799Y-99764035D01*
X239851372Y-99732932D01*
X239839407Y-99702911D01*
X239824975Y-99674216D01*
X239808145Y-99647093D01*
X239788987Y-99621786D01*
X239767570Y-99598540D01*
X239743965Y-99577599D01*
X239718242Y-99559209D01*
X239690469Y-99543613D01*
X239660717Y-99531057D01*
X239629056Y-99521786D01*
X239595555Y-99516043D01*
X239560284Y-99514075D01*
X239526886Y-99515712D01*
X239493960Y-99520028D01*
X239461842Y-99526131D01*
X239430866Y-99533126D01*
X239401366Y-99540121D01*
X239367079Y-99547505D01*
X239336277Y-99551749D01*
X239325078Y-99552177D01*
X239331673Y-99543384D01*
X239325393Y-99514677D01*
X239320461Y-99485131D01*
X239316716Y-99454914D01*
X239314001Y-99424193D01*
X239312155Y-99393133D01*
X239311019Y-99361902D01*
X239310434Y-99330666D01*
X239310240Y-99299591D01*
X239310278Y-99268846D01*
X239310388Y-99238595D01*
X239310423Y-99218785D01*
X239310382Y-99165900D01*
X239310266Y-99113030D01*
X239310085Y-99060176D01*
X239309851Y-99007336D01*
X239309574Y-98954508D01*
X239309264Y-98901693D01*
X239308933Y-98848888D01*
X239308592Y-98796092D01*
X239308250Y-98743306D01*
X239307919Y-98690527D01*
X239307610Y-98637754D01*
X239307332Y-98584987D01*
X239307098Y-98532223D01*
X239306917Y-98479464D01*
X239306801Y-98426706D01*
X239306760Y-98373949D01*
X239306760Y-98327055D01*
G37*
G36*
X241305339Y-97582720D02*
G01*
X241355607Y-97585273D01*
X241405790Y-97589531D01*
X241455791Y-97595495D01*
X241505511Y-97603169D01*
X241554852Y-97612555D01*
X241603717Y-97623654D01*
X241652006Y-97636469D01*
X241699623Y-97651003D01*
X241746468Y-97667258D01*
X241792445Y-97685235D01*
X241837454Y-97704938D01*
X241881398Y-97726368D01*
X241924178Y-97749528D01*
X241965697Y-97774421D01*
X242005857Y-97801047D01*
X242044559Y-97829410D01*
X242081705Y-97859512D01*
X242117198Y-97891356D01*
X242150939Y-97924943D01*
X242182830Y-97960275D01*
X242212772Y-97997356D01*
X242240669Y-98036187D01*
X242266422Y-98076771D01*
X242289933Y-98119109D01*
X242311103Y-98163205D01*
X242329835Y-98209060D01*
X242346030Y-98256677D01*
X242359592Y-98306058D01*
X242370420Y-98357205D01*
X242378418Y-98410121D01*
X242383487Y-98464808D01*
X242385589Y-98499915D01*
X242387252Y-98535154D01*
X242388518Y-98570502D01*
X242389429Y-98605938D01*
X242390026Y-98641438D01*
X242390352Y-98676980D01*
X242390448Y-98712541D01*
X242390356Y-98748099D01*
X242390119Y-98783631D01*
X242389777Y-98819115D01*
X242389373Y-98854528D01*
X242388948Y-98889847D01*
X242388545Y-98925051D01*
X242388205Y-98960116D01*
X242387971Y-98995021D01*
X242387883Y-99029741D01*
X242387883Y-99571228D01*
X242389109Y-99594971D01*
X242395047Y-99629634D01*
X242404942Y-99663483D01*
X242417716Y-99696887D01*
X242432290Y-99730217D01*
X242447583Y-99763842D01*
X242462516Y-99798130D01*
X242476010Y-99833452D01*
X242486984Y-99870178D01*
X242494361Y-99908676D01*
X242497060Y-99949316D01*
X242494951Y-99989208D01*
X242488807Y-100025454D01*
X242478904Y-100058200D01*
X242465518Y-100087595D01*
X242448925Y-100113788D01*
X242429401Y-100136926D01*
X242407222Y-100157157D01*
X242382663Y-100174630D01*
X242356000Y-100189492D01*
X242327509Y-100201892D01*
X242297466Y-100211978D01*
X242266147Y-100219899D01*
X242233828Y-100225801D01*
X242200784Y-100229833D01*
X242167292Y-100232144D01*
X242133627Y-100232882D01*
X242105256Y-100232199D01*
X242063546Y-100228650D01*
X242022996Y-100222143D01*
X241983770Y-100212757D01*
X241946030Y-100200572D01*
X241909940Y-100185668D01*
X241875662Y-100168124D01*
X241843359Y-100148020D01*
X241813195Y-100125436D01*
X241785333Y-100100452D01*
X241759935Y-100073147D01*
X241721569Y-100098624D01*
X241681826Y-100122061D01*
X241640806Y-100143512D01*
X241598609Y-100163032D01*
X241555334Y-100180676D01*
X241511081Y-100196498D01*
X241465950Y-100210554D01*
X241420040Y-100222898D01*
X241373453Y-100233585D01*
X241326287Y-100242669D01*
X241278642Y-100250205D01*
X241230619Y-100256249D01*
X241182316Y-100260854D01*
X241133834Y-100264075D01*
X241085273Y-100265968D01*
X241036732Y-100266587D01*
X240990637Y-100265996D01*
X240944600Y-100264200D01*
X240898712Y-100261168D01*
X240853067Y-100256868D01*
X240807757Y-100251268D01*
X240762873Y-100244335D01*
X240718507Y-100236038D01*
X240674753Y-100226344D01*
X240631701Y-100215222D01*
X240589445Y-100202639D01*
X240548076Y-100188563D01*
X240507686Y-100172962D01*
X240468368Y-100155805D01*
X240430215Y-100137059D01*
X240393317Y-100116691D01*
X240357767Y-100094671D01*
X240323658Y-100070965D01*
X240291082Y-100045542D01*
X240260130Y-100018370D01*
X240230895Y-99989417D01*
X240203469Y-99958650D01*
X240177945Y-99926038D01*
X240154414Y-99891548D01*
X240132968Y-99855149D01*
X240113701Y-99816808D01*
X240096703Y-99776493D01*
X240082068Y-99734172D01*
X240069887Y-99689814D01*
X240060252Y-99643385D01*
X240053256Y-99594855D01*
X240048991Y-99544191D01*
X240047548Y-99491360D01*
X240049589Y-99437138D01*
X240766355Y-99437138D01*
X240766648Y-99453212D01*
X240771000Y-99497398D01*
X240780443Y-99535764D01*
X240794825Y-99568610D01*
X240813993Y-99596237D01*
X240837796Y-99618947D01*
X240866081Y-99637038D01*
X240898696Y-99650813D01*
X240935489Y-99660572D01*
X240976308Y-99666615D01*
X241005681Y-99668729D01*
X241036732Y-99669413D01*
X241090017Y-99667122D01*
X241140566Y-99660387D01*
X241188460Y-99649422D01*
X241233779Y-99634437D01*
X241276603Y-99615644D01*
X241317013Y-99593254D01*
X241355090Y-99567479D01*
X241390915Y-99538530D01*
X241424566Y-99506618D01*
X241456126Y-99471956D01*
X241485674Y-99434754D01*
X241513292Y-99395224D01*
X241539059Y-99353577D01*
X241563056Y-99310026D01*
X241585363Y-99264780D01*
X241606062Y-99218053D01*
X241606062Y-99070041D01*
X241558958Y-99070300D01*
X241504344Y-99071389D01*
X241474677Y-99072393D01*
X241443677Y-99073780D01*
X241411529Y-99075610D01*
X241378412Y-99077941D01*
X241344510Y-99080833D01*
X241310005Y-99084344D01*
X241275077Y-99088532D01*
X241239909Y-99093457D01*
X241204684Y-99099178D01*
X241169583Y-99105752D01*
X241134787Y-99113240D01*
X241100479Y-99121699D01*
X241066841Y-99131188D01*
X241034055Y-99141767D01*
X241002302Y-99153493D01*
X240971765Y-99166427D01*
X240942626Y-99180625D01*
X240915065Y-99196148D01*
X240889266Y-99213054D01*
X240865411Y-99231402D01*
X240843680Y-99251250D01*
X240807323Y-99295683D01*
X240781649Y-99346823D01*
X240773274Y-99375056D01*
X240768115Y-99405141D01*
X240766355Y-99437138D01*
X240049589Y-99437138D01*
X240050362Y-99416619D01*
X240058636Y-99345787D01*
X240072122Y-99278759D01*
X240090570Y-99215428D01*
X240113732Y-99155690D01*
X240141357Y-99099438D01*
X240173196Y-99046568D01*
X240209001Y-98996975D01*
X240248521Y-98950551D01*
X240291508Y-98907194D01*
X240337712Y-98866795D01*
X240386885Y-98829251D01*
X240438776Y-98794456D01*
X240493136Y-98762304D01*
X240549717Y-98732690D01*
X240608269Y-98705509D01*
X240668542Y-98680654D01*
X240730288Y-98658021D01*
X240793257Y-98637505D01*
X240857199Y-98618998D01*
X240921866Y-98602397D01*
X240987008Y-98587596D01*
X241052376Y-98574489D01*
X241117721Y-98562970D01*
X241182793Y-98552935D01*
X241247344Y-98544278D01*
X241311123Y-98536894D01*
X241373881Y-98530676D01*
X241435370Y-98525520D01*
X241495340Y-98521320D01*
X241553542Y-98517970D01*
X241609726Y-98515366D01*
X241609775Y-98511921D01*
X241611514Y-98481457D01*
X241613274Y-98451572D01*
X241614122Y-98420111D01*
X241612575Y-98382087D01*
X241608001Y-98347349D01*
X241600497Y-98315782D01*
X241590159Y-98287270D01*
X241569556Y-98249980D01*
X241543130Y-98218920D01*
X241511209Y-98193702D01*
X241474124Y-98173939D01*
X241446694Y-98163602D01*
X241417213Y-98155402D01*
X241385778Y-98149224D01*
X241352488Y-98144953D01*
X241317439Y-98142475D01*
X241280730Y-98141674D01*
X241237794Y-98142975D01*
X241198930Y-98146768D01*
X241163874Y-98152886D01*
X241132359Y-98161163D01*
X241078882Y-98183531D01*
X241036366Y-98212543D01*
X241002676Y-98246870D01*
X240975681Y-98285183D01*
X240953244Y-98326154D01*
X240933234Y-98368454D01*
X240913515Y-98410753D01*
X240891955Y-98451724D01*
X240866419Y-98490038D01*
X240834774Y-98524365D01*
X240794885Y-98553377D01*
X240744619Y-98575744D01*
X240714928Y-98584022D01*
X240681843Y-98590140D01*
X240645096Y-98593932D01*
X240604422Y-98595233D01*
X240569020Y-98593567D01*
X240531375Y-98588632D01*
X240492112Y-98580526D01*
X240451854Y-98569347D01*
X240411227Y-98555193D01*
X240370856Y-98538162D01*
X240331365Y-98518351D01*
X240293379Y-98495857D01*
X240257522Y-98470779D01*
X240224419Y-98443214D01*
X240194695Y-98413259D01*
X240168975Y-98381013D01*
X240147883Y-98346573D01*
X240132044Y-98310037D01*
X240122082Y-98271503D01*
X240118623Y-98231067D01*
X240119044Y-98210023D01*
X240122263Y-98173313D01*
X240128319Y-98143230D01*
X240141853Y-98109102D01*
X240166112Y-98080693D01*
X240194552Y-98067028D01*
X240223989Y-98062876D01*
X240257332Y-98063099D01*
X240286418Y-98055212D01*
X240306626Y-98024458D01*
X240327798Y-97994835D01*
X240349903Y-97966333D01*
X240372910Y-97938943D01*
X240396787Y-97912655D01*
X240421502Y-97887457D01*
X240447024Y-97863340D01*
X240473321Y-97840294D01*
X240500362Y-97818308D01*
X240528115Y-97797373D01*
X240556550Y-97777477D01*
X240585633Y-97758612D01*
X240615334Y-97740766D01*
X240645621Y-97723930D01*
X240676463Y-97708092D01*
X240707828Y-97693244D01*
X240739685Y-97679375D01*
X240772002Y-97666475D01*
X240804747Y-97654533D01*
X240837889Y-97643539D01*
X240871397Y-97633484D01*
X240905238Y-97624356D01*
X240939382Y-97616146D01*
X240973797Y-97608843D01*
X241008452Y-97602438D01*
X241043314Y-97596920D01*
X241078352Y-97592279D01*
X241113535Y-97588504D01*
X241148832Y-97585586D01*
X241184210Y-97583515D01*
X241219638Y-97582279D01*
X241255085Y-97581870D01*
X241305339Y-97582720D01*
G37*
G36*
X242918379Y-99634242D02*
G01*
X242918627Y-99691384D01*
X242919744Y-99748697D01*
X242922291Y-99805649D01*
X242926828Y-99861709D01*
X242933915Y-99916343D01*
X242944113Y-99969019D01*
X242957982Y-100019205D01*
X242976081Y-100066369D01*
X242998972Y-100109978D01*
X243027215Y-100149499D01*
X243061369Y-100184401D01*
X243101996Y-100214151D01*
X243149655Y-100238217D01*
X243204907Y-100256066D01*
X243235555Y-100262492D01*
X243268312Y-100267165D01*
X243303247Y-100270018D01*
X243340430Y-100270983D01*
X243392255Y-100268593D01*
X243439825Y-100261580D01*
X243483268Y-100250181D01*
X243522708Y-100234633D01*
X243558271Y-100215175D01*
X243590083Y-100192042D01*
X243618270Y-100165473D01*
X243642956Y-100135703D01*
X243664267Y-100102972D01*
X243682330Y-100067515D01*
X243697269Y-100029571D01*
X243709210Y-99989375D01*
X243718280Y-99947166D01*
X243724602Y-99903181D01*
X243728303Y-99857656D01*
X243729509Y-99810830D01*
X243729419Y-99758073D01*
X243729163Y-99705317D01*
X243728765Y-99652561D01*
X243728250Y-99599804D01*
X243727640Y-99547048D01*
X243726959Y-99494291D01*
X243726231Y-99441535D01*
X243725479Y-99388778D01*
X243724728Y-99336022D01*
X243723999Y-99283265D01*
X243723319Y-99230509D01*
X243722709Y-99177752D01*
X243722193Y-99124996D01*
X243721796Y-99072240D01*
X243721540Y-99019483D01*
X243721449Y-98966727D01*
X243721449Y-98310935D01*
X243721432Y-98275218D01*
X243721315Y-98238969D01*
X243720996Y-98202404D01*
X243720529Y-98173071D01*
X243719595Y-98136488D01*
X243718177Y-98100200D01*
X243717053Y-98078660D01*
X243715316Y-98046163D01*
X243713013Y-98015870D01*
X243708125Y-97974160D01*
X243701004Y-97936376D01*
X243691074Y-97901898D01*
X243677760Y-97870107D01*
X243660486Y-97840383D01*
X243638674Y-97812107D01*
X243611751Y-97784659D01*
X243579138Y-97757420D01*
X243553952Y-97739071D01*
X243525811Y-97720355D01*
X243489477Y-97698145D01*
X243452221Y-97677373D01*
X243414086Y-97658202D01*
X243375115Y-97640796D01*
X243335352Y-97625316D01*
X243294840Y-97611927D01*
X243253623Y-97600791D01*
X243211745Y-97592071D01*
X243169248Y-97585930D01*
X243126177Y-97582531D01*
X243097165Y-97581870D01*
X243057320Y-97583228D01*
X243018210Y-97587559D01*
X242980530Y-97595248D01*
X242944975Y-97606677D01*
X242912240Y-97622230D01*
X242883022Y-97642293D01*
X242858015Y-97667248D01*
X242837916Y-97697481D01*
X242823420Y-97733373D01*
X242815221Y-97775311D01*
X242813599Y-97806817D01*
X242814965Y-97836225D01*
X242821579Y-97875003D01*
X242832604Y-97907968D01*
X242846835Y-97935785D01*
X242868721Y-97966011D01*
X242891319Y-97989833D01*
X242916226Y-98013000D01*
X242934883Y-98038593D01*
X242935232Y-98042023D01*
X242935183Y-98077057D01*
X242935042Y-98112091D01*
X242934815Y-98147125D01*
X242934507Y-98182159D01*
X242934126Y-98217194D01*
X242933676Y-98252230D01*
X242933165Y-98287266D01*
X242932598Y-98322303D01*
X242931982Y-98357342D01*
X242931323Y-98392381D01*
X242930626Y-98427422D01*
X242929899Y-98462465D01*
X242929147Y-98497509D01*
X242928377Y-98532555D01*
X242927594Y-98567602D01*
X242926805Y-98602652D01*
X242926016Y-98637704D01*
X242925233Y-98672758D01*
X242924463Y-98707815D01*
X242923711Y-98742874D01*
X242922984Y-98777936D01*
X242922287Y-98813000D01*
X242921628Y-98848068D01*
X242921012Y-98883138D01*
X242920445Y-98918212D01*
X242919934Y-98953289D01*
X242919485Y-98988370D01*
X242919103Y-99023454D01*
X242918795Y-99058543D01*
X242918568Y-99093634D01*
X242918427Y-99128730D01*
X242918379Y-99163831D01*
X242918379Y-99634242D01*
G37*
G36*
X243767611Y-97131242D02*
G01*
X243764485Y-97077384D01*
X243755377Y-97026333D01*
X243740694Y-96978179D01*
X243720842Y-96933016D01*
X243696230Y-96890935D01*
X243667263Y-96852029D01*
X243634348Y-96816391D01*
X243597893Y-96784112D01*
X243558303Y-96755284D01*
X243515986Y-96730001D01*
X243471349Y-96708355D01*
X243424797Y-96690437D01*
X243376739Y-96676340D01*
X243327580Y-96666157D01*
X243277729Y-96659979D01*
X243227590Y-96657899D01*
X243188621Y-96659339D01*
X243149699Y-96663651D01*
X243111166Y-96670819D01*
X243073362Y-96680831D01*
X243036627Y-96693672D01*
X243001302Y-96709329D01*
X242967725Y-96727787D01*
X242936239Y-96749032D01*
X242907183Y-96773051D01*
X242880897Y-96799829D01*
X242857721Y-96829353D01*
X242837996Y-96861609D01*
X242822062Y-96896582D01*
X242810260Y-96934259D01*
X242802929Y-96974626D01*
X242800409Y-97017669D01*
X242804056Y-97067292D01*
X242814609Y-97115183D01*
X242831486Y-97161141D01*
X242854105Y-97204961D01*
X242881884Y-97246442D01*
X242914243Y-97285379D01*
X242950598Y-97321572D01*
X242990369Y-97354815D01*
X243032974Y-97384908D01*
X243077830Y-97411646D01*
X243124357Y-97434828D01*
X243171972Y-97454249D01*
X243220093Y-97469708D01*
X243268139Y-97481001D01*
X243315529Y-97487925D01*
X243361680Y-97490279D01*
X243404758Y-97489064D01*
X243446231Y-97485370D01*
X243485938Y-97479121D01*
X243523716Y-97470243D01*
X243559403Y-97458660D01*
X243592837Y-97444297D01*
X243623856Y-97427079D01*
X243652298Y-97406931D01*
X243678001Y-97383777D01*
X243700803Y-97357543D01*
X243720541Y-97328154D01*
X243737054Y-97295533D01*
X243750180Y-97259607D01*
X243759756Y-97220300D01*
X243765620Y-97177536D01*
X243767611Y-97131242D01*
G37*
G36*
X245602363Y-99907550D02*
G01*
X245630365Y-99935661D01*
X245659416Y-99965031D01*
X245689519Y-99995235D01*
X245720676Y-100025851D01*
X245752889Y-100056454D01*
X245786161Y-100086621D01*
X245820493Y-100115926D01*
X245855887Y-100143947D01*
X245892347Y-100170258D01*
X245929873Y-100194438D01*
X245968468Y-100216060D01*
X246008135Y-100234702D01*
X246048875Y-100249939D01*
X246090690Y-100261348D01*
X246133583Y-100268504D01*
X246177555Y-100270983D01*
X246215836Y-100269089D01*
X246253064Y-100263525D01*
X246289041Y-100254465D01*
X246323574Y-100242086D01*
X246356467Y-100226565D01*
X246387525Y-100208078D01*
X246416552Y-100186799D01*
X246443353Y-100162906D01*
X246467732Y-100136574D01*
X246489494Y-100107980D01*
X246508445Y-100077299D01*
X246524388Y-100044708D01*
X246537128Y-100010382D01*
X246546470Y-99974497D01*
X246552218Y-99937231D01*
X246554178Y-99898757D01*
X246553416Y-99865243D01*
X246550873Y-99832518D01*
X246546163Y-99800295D01*
X246538901Y-99768290D01*
X246528700Y-99736218D01*
X246515176Y-99703794D01*
X246508749Y-99690662D01*
X246493364Y-99663772D01*
X246475344Y-99636181D01*
X246454846Y-99607961D01*
X246432031Y-99579183D01*
X246407057Y-99549920D01*
X246380082Y-99520242D01*
X246351267Y-99490223D01*
X246320769Y-99459933D01*
X246288749Y-99429445D01*
X246255364Y-99398830D01*
X246220775Y-99368159D01*
X246185139Y-99337506D01*
X246148616Y-99306941D01*
X246111365Y-99276536D01*
X246073545Y-99246364D01*
X246035314Y-99216495D01*
X245996833Y-99187003D01*
X245958259Y-99157957D01*
X245919752Y-99129431D01*
X245881471Y-99101496D01*
X245843575Y-99074223D01*
X245806223Y-99047685D01*
X245769573Y-99021954D01*
X245733785Y-98997101D01*
X245699018Y-98973197D01*
X245665430Y-98950315D01*
X245633182Y-98928527D01*
X245602431Y-98907904D01*
X245573336Y-98888518D01*
X245546058Y-98870440D01*
X245520754Y-98853744D01*
X245497583Y-98838499D01*
X245856620Y-98655317D01*
X245900496Y-98633228D01*
X245945734Y-98610739D01*
X245991756Y-98587570D01*
X246037982Y-98563440D01*
X246083835Y-98538069D01*
X246128736Y-98511177D01*
X246172106Y-98482484D01*
X246213367Y-98451710D01*
X246251941Y-98418575D01*
X246287249Y-98382798D01*
X246318711Y-98344099D01*
X246345751Y-98302199D01*
X246367789Y-98256817D01*
X246384246Y-98207673D01*
X246394545Y-98154487D01*
X246398107Y-98096978D01*
X246395180Y-98051052D01*
X246386643Y-98003041D01*
X246372865Y-97953641D01*
X246354212Y-97903549D01*
X246331050Y-97853461D01*
X246303748Y-97804074D01*
X246272672Y-97756084D01*
X246238189Y-97710189D01*
X246200666Y-97667084D01*
X246160471Y-97627466D01*
X246117970Y-97592033D01*
X246073531Y-97561479D01*
X246027520Y-97536503D01*
X245980305Y-97517800D01*
X245932253Y-97506068D01*
X245883731Y-97502002D01*
X245843904Y-97503977D01*
X245806999Y-97509919D01*
X245773233Y-97519852D01*
X245742824Y-97533803D01*
X245715989Y-97551797D01*
X245692946Y-97573858D01*
X245673912Y-97600013D01*
X245659104Y-97630287D01*
X245648740Y-97664705D01*
X245643036Y-97703292D01*
X245641931Y-97731346D01*
X245644756Y-97764572D01*
X245652166Y-97794235D01*
X245665444Y-97825792D01*
X245683148Y-97854699D01*
X245702098Y-97877375D01*
X245703480Y-97878625D01*
X245679337Y-97899926D01*
X245649136Y-97922317D01*
X245609588Y-97950079D01*
X245562353Y-97982203D01*
X245536372Y-97999584D01*
X245509092Y-98017676D01*
X245480720Y-98036353D01*
X245451465Y-98055488D01*
X245421533Y-98074956D01*
X245391133Y-98094628D01*
X245360471Y-98114380D01*
X245329756Y-98134085D01*
X245299195Y-98153616D01*
X245268995Y-98172847D01*
X245239364Y-98191652D01*
X245210509Y-98209903D01*
X245182639Y-98227476D01*
X245155960Y-98244243D01*
X245130681Y-98260079D01*
X245085150Y-98288448D01*
X245047707Y-98311573D01*
X245020011Y-98328442D01*
X245003724Y-98338046D01*
X245003724Y-98189302D01*
X245003760Y-98158263D01*
X245003864Y-98127244D01*
X245004032Y-98096243D01*
X245004259Y-98065259D01*
X245004542Y-98034290D01*
X245004874Y-98003334D01*
X245005252Y-97972390D01*
X245005671Y-97941456D01*
X245006126Y-97910531D01*
X245006613Y-97879613D01*
X245007128Y-97848700D01*
X245007665Y-97817791D01*
X245008221Y-97786884D01*
X245008791Y-97755978D01*
X245009369Y-97725070D01*
X245009952Y-97694160D01*
X245010536Y-97663246D01*
X245011114Y-97632326D01*
X245011684Y-97601398D01*
X245012239Y-97570461D01*
X245012777Y-97539513D01*
X245013292Y-97508553D01*
X245013779Y-97477579D01*
X245014234Y-97446590D01*
X245014653Y-97415583D01*
X245015031Y-97384557D01*
X245015363Y-97353512D01*
X245015645Y-97322444D01*
X245015873Y-97291352D01*
X245016041Y-97260236D01*
X245016145Y-97229092D01*
X245016181Y-97197920D01*
X245015364Y-97164975D01*
X245012941Y-97133050D01*
X245008957Y-97102146D01*
X245003455Y-97072264D01*
X244996478Y-97043407D01*
X244978274Y-96988773D01*
X244954692Y-96938259D01*
X244926081Y-96891877D01*
X244892788Y-96849642D01*
X244855161Y-96811567D01*
X244813547Y-96777668D01*
X244768295Y-96747957D01*
X244719752Y-96722449D01*
X244668265Y-96701157D01*
X244614184Y-96684096D01*
X244557855Y-96671279D01*
X244499626Y-96662721D01*
X244469908Y-96660043D01*
X244439845Y-96658435D01*
X244409481Y-96657899D01*
X244366113Y-96659744D01*
X244325285Y-96665395D01*
X244287374Y-96675026D01*
X244252758Y-96688811D01*
X244221812Y-96706923D01*
X244194914Y-96729538D01*
X244172440Y-96756827D01*
X244154767Y-96788966D01*
X244142271Y-96826128D01*
X244135331Y-96868487D01*
X244133975Y-96899699D01*
X244135391Y-96932897D01*
X244142245Y-96974214D01*
X244153668Y-97007239D01*
X244168413Y-97034091D01*
X244191090Y-97063955D01*
X244214505Y-97091635D01*
X244235705Y-97122156D01*
X244248374Y-97149931D01*
X244256889Y-97184250D01*
X244260005Y-97227229D01*
X244259956Y-97301278D01*
X244259812Y-97375324D01*
X244259578Y-97449365D01*
X244259256Y-97523403D01*
X244258851Y-97597438D01*
X244258367Y-97671470D01*
X244257808Y-97745499D01*
X244257177Y-97819526D01*
X244256478Y-97893550D01*
X244255716Y-97967573D01*
X244254894Y-98041594D01*
X244254016Y-98115614D01*
X244253085Y-98189632D01*
X244252107Y-98263650D01*
X244251084Y-98337668D01*
X244250021Y-98411685D01*
X244248922Y-98485702D01*
X244247790Y-98559719D01*
X244246629Y-98633737D01*
X244245443Y-98707756D01*
X244244237Y-98781776D01*
X244243013Y-98855797D01*
X244241776Y-98929819D01*
X244240530Y-99003844D01*
X244239279Y-99077871D01*
X244238026Y-99151900D01*
X244236775Y-99225932D01*
X244235531Y-99299966D01*
X244234297Y-99374004D01*
X244233077Y-99448046D01*
X244231876Y-99522091D01*
X244230696Y-99596140D01*
X244230170Y-99652211D01*
X244230610Y-99709519D01*
X244232570Y-99767393D01*
X244236603Y-99825164D01*
X244243264Y-99882162D01*
X244253107Y-99937718D01*
X244266684Y-99991161D01*
X244284551Y-100041823D01*
X244307261Y-100089032D01*
X244335367Y-100132120D01*
X244369424Y-100170416D01*
X244409985Y-100203252D01*
X244457605Y-100229956D01*
X244512836Y-100249860D01*
X244543480Y-100257053D01*
X244576234Y-100262294D01*
X244611168Y-100265500D01*
X244648351Y-100266587D01*
X244691598Y-100264955D01*
X244732657Y-100259946D01*
X244771426Y-100251389D01*
X244807805Y-100239114D01*
X244841692Y-100222951D01*
X244872984Y-100202730D01*
X244901582Y-100178280D01*
X244927383Y-100149431D01*
X244950286Y-100116013D01*
X244970190Y-100077855D01*
X244981742Y-100049699D01*
X244990449Y-100009666D01*
X244995542Y-99968489D01*
X244998326Y-99937005D01*
X245000665Y-99903087D01*
X245002599Y-99867416D01*
X245004166Y-99830673D01*
X245005404Y-99793538D01*
X245006352Y-99756692D01*
X245007049Y-99720816D01*
X245007534Y-99686589D01*
X245007844Y-99654692D01*
X245008069Y-99612704D01*
X245008120Y-99579787D01*
X245008121Y-99571228D01*
X245008116Y-99535032D01*
X245008086Y-99499420D01*
X245008005Y-99465045D01*
X245007846Y-99432559D01*
X245007584Y-99402614D01*
X245007072Y-99369752D01*
X245006122Y-99338700D01*
X245005922Y-99334556D01*
X245028478Y-99354002D01*
X245052749Y-99375518D01*
X245078559Y-99398893D01*
X245105729Y-99423918D01*
X245134083Y-99450382D01*
X245163443Y-99478075D01*
X245193631Y-99506787D01*
X245224470Y-99536309D01*
X245255782Y-99566429D01*
X245287391Y-99596938D01*
X245308539Y-99617390D01*
X245602363Y-99907550D01*
G37*
G36*
X248133712Y-97582611D02*
G01*
X248171722Y-97584781D01*
X248209801Y-97588294D01*
X248247880Y-97593067D01*
X248285890Y-97599016D01*
X248323763Y-97606058D01*
X248361430Y-97614109D01*
X248398822Y-97623086D01*
X248435870Y-97632903D01*
X248472507Y-97643479D01*
X248508662Y-97654729D01*
X248544269Y-97666569D01*
X248579256Y-97678915D01*
X248613557Y-97691685D01*
X248647102Y-97704793D01*
X248679823Y-97718157D01*
X248703252Y-97709059D01*
X248733955Y-97699806D01*
X248767236Y-97692676D01*
X248796975Y-97688778D01*
X248827102Y-97687383D01*
X248853141Y-97688892D01*
X248903161Y-97700512D01*
X248950372Y-97722587D01*
X248994698Y-97753901D01*
X249036066Y-97793237D01*
X249055616Y-97815534D01*
X249074399Y-97839380D01*
X249092404Y-97864624D01*
X249109622Y-97891114D01*
X249126045Y-97918697D01*
X249141661Y-97947221D01*
X249156463Y-97976536D01*
X249170441Y-98006487D01*
X249183585Y-98036925D01*
X249195885Y-98067696D01*
X249207333Y-98098648D01*
X249217920Y-98129630D01*
X249227635Y-98160489D01*
X249236469Y-98191074D01*
X249244414Y-98221233D01*
X249251458Y-98250812D01*
X249257594Y-98279662D01*
X249267102Y-98334561D01*
X249272862Y-98384714D01*
X249274799Y-98428904D01*
X249273645Y-98452189D01*
X249268549Y-98484369D01*
X249259452Y-98514126D01*
X249242559Y-98541744D01*
X249258878Y-98571374D01*
X249274301Y-98601965D01*
X249288804Y-98633450D01*
X249302368Y-98665758D01*
X249314969Y-98698823D01*
X249326588Y-98732574D01*
X249337202Y-98766944D01*
X249346789Y-98801863D01*
X249355330Y-98837263D01*
X249362801Y-98873075D01*
X249369181Y-98909230D01*
X249374450Y-98945661D01*
X249378585Y-98982297D01*
X249381565Y-99019071D01*
X249383369Y-99055913D01*
X249383975Y-99092756D01*
X249383574Y-99121550D01*
X249381489Y-99164988D01*
X249377667Y-99208619D01*
X249374177Y-99237756D01*
X249369949Y-99266893D01*
X249364998Y-99295997D01*
X249359337Y-99325031D01*
X249352981Y-99353962D01*
X249345944Y-99382756D01*
X249338238Y-99411378D01*
X249329879Y-99439795D01*
X249320881Y-99467970D01*
X249311256Y-99495871D01*
X249301020Y-99523463D01*
X249290186Y-99550711D01*
X249269816Y-99596796D01*
X249248020Y-99641223D01*
X249224832Y-99684006D01*
X249200287Y-99725156D01*
X249174418Y-99764688D01*
X249147260Y-99802613D01*
X249118847Y-99838945D01*
X249089212Y-99873696D01*
X249058391Y-99906878D01*
X249026416Y-99938506D01*
X248993323Y-99968590D01*
X248959145Y-99997145D01*
X248923915Y-100024182D01*
X248887670Y-100049715D01*
X248850441Y-100073757D01*
X248812264Y-100096319D01*
X248773172Y-100117416D01*
X248733200Y-100137059D01*
X248692382Y-100155261D01*
X248650752Y-100172035D01*
X248608343Y-100187394D01*
X248565190Y-100201351D01*
X248521328Y-100213918D01*
X248476789Y-100225108D01*
X248431608Y-100234934D01*
X248385820Y-100243408D01*
X248339458Y-100250544D01*
X248292556Y-100256353D01*
X248245149Y-100260850D01*
X248197270Y-100264046D01*
X248148954Y-100265954D01*
X248100235Y-100266587D01*
X248028407Y-100265178D01*
X247957908Y-100260971D01*
X247888801Y-100253998D01*
X247821147Y-100244292D01*
X247755009Y-100231883D01*
X247690450Y-100216804D01*
X247627532Y-100199087D01*
X247566316Y-100178763D01*
X247506867Y-100155864D01*
X247449245Y-100130421D01*
X247393514Y-100102468D01*
X247339736Y-100072035D01*
X247287973Y-100039154D01*
X247238287Y-100003857D01*
X247190741Y-99966176D01*
X247145398Y-99926143D01*
X247102320Y-99883789D01*
X247061568Y-99839147D01*
X247023206Y-99792247D01*
X246987296Y-99743123D01*
X246953900Y-99691805D01*
X246923081Y-99638325D01*
X246894901Y-99582716D01*
X246869423Y-99525009D01*
X246846708Y-99465235D01*
X246826820Y-99403427D01*
X246809820Y-99339617D01*
X246795771Y-99273836D01*
X246784735Y-99206116D01*
X246776775Y-99136488D01*
X246771954Y-99064986D01*
X246770333Y-98991639D01*
X246771816Y-98918551D01*
X246772502Y-98907376D01*
X247565343Y-98907376D01*
X247565828Y-98939500D01*
X247567290Y-98972060D01*
X247569741Y-99004963D01*
X247573191Y-99038110D01*
X247577653Y-99071409D01*
X247583137Y-99104762D01*
X247589654Y-99138074D01*
X247597217Y-99171250D01*
X247605835Y-99204193D01*
X247615521Y-99236810D01*
X247626286Y-99269004D01*
X247638141Y-99300679D01*
X247651097Y-99331740D01*
X247665165Y-99362092D01*
X247680358Y-99391639D01*
X247696685Y-99420286D01*
X247714158Y-99447936D01*
X247732790Y-99474495D01*
X247752590Y-99499866D01*
X247773570Y-99523955D01*
X247795741Y-99546666D01*
X247819116Y-99567903D01*
X247843704Y-99587571D01*
X247869517Y-99605574D01*
X247896567Y-99621817D01*
X247924865Y-99636204D01*
X247954421Y-99648640D01*
X247985248Y-99659029D01*
X248017357Y-99667276D01*
X248050758Y-99673284D01*
X248085463Y-99676960D01*
X248121484Y-99678206D01*
X248157756Y-99677000D01*
X248192534Y-99673441D01*
X248225842Y-99667619D01*
X248257702Y-99659626D01*
X248288135Y-99649551D01*
X248317165Y-99637484D01*
X248344814Y-99623517D01*
X248371104Y-99607738D01*
X248396058Y-99590239D01*
X248419698Y-99571110D01*
X248442047Y-99550441D01*
X248463126Y-99528322D01*
X248482959Y-99504843D01*
X248501567Y-99480096D01*
X248518974Y-99454170D01*
X248535201Y-99427155D01*
X248550271Y-99399142D01*
X248564207Y-99370221D01*
X248577030Y-99340483D01*
X248588763Y-99310017D01*
X248599429Y-99278914D01*
X248609050Y-99247265D01*
X248617648Y-99215159D01*
X248625246Y-99182687D01*
X248631867Y-99149939D01*
X248637532Y-99117006D01*
X248642264Y-99083977D01*
X248646085Y-99050943D01*
X248649018Y-99017995D01*
X248651085Y-98985222D01*
X248652309Y-98952715D01*
X248652712Y-98920565D01*
X248652654Y-98900028D01*
X248652281Y-98868563D01*
X248651442Y-98836507D01*
X248649993Y-98804084D01*
X248647795Y-98771518D01*
X248644705Y-98739034D01*
X248640584Y-98706857D01*
X248635288Y-98675211D01*
X248628678Y-98644321D01*
X248620611Y-98614412D01*
X248610947Y-98585708D01*
X248607283Y-98565924D01*
X248594862Y-98553056D01*
X248571963Y-98527654D01*
X248551217Y-98501899D01*
X248532104Y-98474836D01*
X248514102Y-98445507D01*
X248499572Y-98418646D01*
X248481618Y-98386989D01*
X248463133Y-98356908D01*
X248444017Y-98328466D01*
X248424170Y-98301730D01*
X248403489Y-98276762D01*
X248381875Y-98253627D01*
X248359226Y-98232390D01*
X248335441Y-98213115D01*
X248310420Y-98195867D01*
X248284061Y-98180709D01*
X248256264Y-98167707D01*
X248226928Y-98156924D01*
X248195952Y-98148426D01*
X248163235Y-98142275D01*
X248128677Y-98138538D01*
X248092175Y-98137278D01*
X248054884Y-98138508D01*
X248019242Y-98142135D01*
X247985218Y-98148068D01*
X247952781Y-98156213D01*
X247921900Y-98166479D01*
X247892546Y-98178772D01*
X247864688Y-98193002D01*
X247838296Y-98209074D01*
X247813339Y-98226897D01*
X247789786Y-98246378D01*
X247767607Y-98267424D01*
X247746772Y-98289945D01*
X247727250Y-98313845D01*
X247709011Y-98339035D01*
X247692025Y-98365420D01*
X247676260Y-98392909D01*
X247661687Y-98421408D01*
X247648274Y-98450827D01*
X247635992Y-98481072D01*
X247624810Y-98512050D01*
X247614698Y-98543670D01*
X247605624Y-98575838D01*
X247597560Y-98608463D01*
X247590473Y-98641452D01*
X247584335Y-98674713D01*
X247579114Y-98708153D01*
X247574779Y-98741679D01*
X247571301Y-98775200D01*
X247568649Y-98808622D01*
X247566792Y-98841854D01*
X247565700Y-98874803D01*
X247565343Y-98907376D01*
X246772502Y-98907376D01*
X246776243Y-98846484D01*
X246783576Y-98775523D01*
X246793779Y-98705754D01*
X246806814Y-98637261D01*
X246822646Y-98570130D01*
X246841238Y-98504447D01*
X246862553Y-98440296D01*
X246886555Y-98377762D01*
X246913207Y-98316931D01*
X246942472Y-98257888D01*
X246974313Y-98200718D01*
X247008695Y-98145506D01*
X247045580Y-98092338D01*
X247084932Y-98041298D01*
X247126714Y-97992472D01*
X247170889Y-97945946D01*
X247217421Y-97901804D01*
X247266274Y-97860131D01*
X247317410Y-97821013D01*
X247370794Y-97784534D01*
X247426388Y-97750781D01*
X247484155Y-97719838D01*
X247544060Y-97691790D01*
X247606065Y-97666724D01*
X247670134Y-97644722D01*
X247736230Y-97625872D01*
X247804317Y-97610259D01*
X247874358Y-97597966D01*
X247946316Y-97589081D01*
X248020155Y-97583687D01*
X248095839Y-97581870D01*
X248133712Y-97582611D01*
G37*
D11*
X265794700Y-81483332D02*
X265842319Y-81340475D01*
X265842319Y-81340475D02*
X265842319Y-81102380D01*
X265842319Y-81102380D02*
X265794700Y-81007142D01*
X265794700Y-81007142D02*
X265747080Y-80959523D01*
X265747080Y-80959523D02*
X265651842Y-80911904D01*
X265651842Y-80911904D02*
X265556604Y-80911904D01*
X265556604Y-80911904D02*
X265461366Y-80959523D01*
X265461366Y-80959523D02*
X265413747Y-81007142D01*
X265413747Y-81007142D02*
X265366128Y-81102380D01*
X265366128Y-81102380D02*
X265318509Y-81292856D01*
X265318509Y-81292856D02*
X265270890Y-81388094D01*
X265270890Y-81388094D02*
X265223271Y-81435713D01*
X265223271Y-81435713D02*
X265128033Y-81483332D01*
X265128033Y-81483332D02*
X265032795Y-81483332D01*
X265032795Y-81483332D02*
X264937557Y-81435713D01*
X264937557Y-81435713D02*
X264889938Y-81388094D01*
X264889938Y-81388094D02*
X264842319Y-81292856D01*
X264842319Y-81292856D02*
X264842319Y-81054761D01*
X264842319Y-81054761D02*
X264889938Y-80911904D01*
X264842319Y-80578570D02*
X265842319Y-80340475D01*
X265842319Y-80340475D02*
X265128033Y-80149999D01*
X265128033Y-80149999D02*
X265842319Y-79959523D01*
X265842319Y-79959523D02*
X264842319Y-79721428D01*
X265842319Y-78816666D02*
X265842319Y-79388094D01*
X265842319Y-79102380D02*
X264842319Y-79102380D01*
X264842319Y-79102380D02*
X264985176Y-79197618D01*
X264985176Y-79197618D02*
X265080414Y-79292856D01*
X265080414Y-79292856D02*
X265128033Y-79388094D01*
X198267080Y-67828571D02*
X198267080Y-67257143D01*
X198267080Y-67542857D02*
X199267080Y-67542857D01*
X199267080Y-67542857D02*
X199124223Y-67447619D01*
X199124223Y-67447619D02*
X199028985Y-67352381D01*
X199028985Y-67352381D02*
X198981366Y-67257143D01*
X199267080Y-68447619D02*
X199267080Y-68542857D01*
X199267080Y-68542857D02*
X199219461Y-68638095D01*
X199219461Y-68638095D02*
X199171842Y-68685714D01*
X199171842Y-68685714D02*
X199076604Y-68733333D01*
X199076604Y-68733333D02*
X198886128Y-68780952D01*
X198886128Y-68780952D02*
X198648033Y-68780952D01*
X198648033Y-68780952D02*
X198457557Y-68733333D01*
X198457557Y-68733333D02*
X198362319Y-68685714D01*
X198362319Y-68685714D02*
X198314700Y-68638095D01*
X198314700Y-68638095D02*
X198267080Y-68542857D01*
X198267080Y-68542857D02*
X198267080Y-68447619D01*
X198267080Y-68447619D02*
X198314700Y-68352381D01*
X198314700Y-68352381D02*
X198362319Y-68304762D01*
X198362319Y-68304762D02*
X198457557Y-68257143D01*
X198457557Y-68257143D02*
X198648033Y-68209524D01*
X198648033Y-68209524D02*
X198886128Y-68209524D01*
X198886128Y-68209524D02*
X199076604Y-68257143D01*
X199076604Y-68257143D02*
X199171842Y-68304762D01*
X199171842Y-68304762D02*
X199219461Y-68352381D01*
X199219461Y-68352381D02*
X199267080Y-68447619D01*
X198267080Y-69209524D02*
X199267080Y-69209524D01*
X198648033Y-69304762D02*
X198267080Y-69590476D01*
X198933747Y-69590476D02*
X198552795Y-69209524D01*
X199171842Y-69971429D02*
X199219461Y-70019048D01*
X199219461Y-70019048D02*
X199267080Y-70114286D01*
X199267080Y-70114286D02*
X199267080Y-70352381D01*
X199267080Y-70352381D02*
X199219461Y-70447619D01*
X199219461Y-70447619D02*
X199171842Y-70495238D01*
X199171842Y-70495238D02*
X199076604Y-70542857D01*
X199076604Y-70542857D02*
X198981366Y-70542857D01*
X198981366Y-70542857D02*
X198838509Y-70495238D01*
X198838509Y-70495238D02*
X198267080Y-69923810D01*
X198267080Y-69923810D02*
X198267080Y-70542857D01*
X198154580Y-77417271D02*
X198154580Y-76845843D01*
X198154580Y-77131557D02*
X199154580Y-77131557D01*
X199154580Y-77131557D02*
X199011723Y-77036319D01*
X199011723Y-77036319D02*
X198916485Y-76941081D01*
X198916485Y-76941081D02*
X198868866Y-76845843D01*
X199154580Y-78036319D02*
X199154580Y-78131557D01*
X199154580Y-78131557D02*
X199106961Y-78226795D01*
X199106961Y-78226795D02*
X199059342Y-78274414D01*
X199059342Y-78274414D02*
X198964104Y-78322033D01*
X198964104Y-78322033D02*
X198773628Y-78369652D01*
X198773628Y-78369652D02*
X198535533Y-78369652D01*
X198535533Y-78369652D02*
X198345057Y-78322033D01*
X198345057Y-78322033D02*
X198249819Y-78274414D01*
X198249819Y-78274414D02*
X198202200Y-78226795D01*
X198202200Y-78226795D02*
X198154580Y-78131557D01*
X198154580Y-78131557D02*
X198154580Y-78036319D01*
X198154580Y-78036319D02*
X198202200Y-77941081D01*
X198202200Y-77941081D02*
X198249819Y-77893462D01*
X198249819Y-77893462D02*
X198345057Y-77845843D01*
X198345057Y-77845843D02*
X198535533Y-77798224D01*
X198535533Y-77798224D02*
X198773628Y-77798224D01*
X198773628Y-77798224D02*
X198964104Y-77845843D01*
X198964104Y-77845843D02*
X199059342Y-77893462D01*
X199059342Y-77893462D02*
X199106961Y-77941081D01*
X199106961Y-77941081D02*
X199154580Y-78036319D01*
X198154580Y-78798224D02*
X199154580Y-78798224D01*
X198535533Y-78893462D02*
X198154580Y-79179176D01*
X198821247Y-79179176D02*
X198440295Y-78798224D01*
X198154580Y-80131557D02*
X198154580Y-79560129D01*
X198154580Y-79845843D02*
X199154580Y-79845843D01*
X199154580Y-79845843D02*
X199011723Y-79750605D01*
X199011723Y-79750605D02*
X198916485Y-79655367D01*
X198916485Y-79655367D02*
X198868866Y-79560129D01*
X256654167Y-99907200D02*
X256797024Y-99954819D01*
X256797024Y-99954819D02*
X257035119Y-99954819D01*
X257035119Y-99954819D02*
X257130357Y-99907200D01*
X257130357Y-99907200D02*
X257177976Y-99859580D01*
X257177976Y-99859580D02*
X257225595Y-99764342D01*
X257225595Y-99764342D02*
X257225595Y-99669104D01*
X257225595Y-99669104D02*
X257177976Y-99573866D01*
X257177976Y-99573866D02*
X257130357Y-99526247D01*
X257130357Y-99526247D02*
X257035119Y-99478628D01*
X257035119Y-99478628D02*
X256844643Y-99431009D01*
X256844643Y-99431009D02*
X256749405Y-99383390D01*
X256749405Y-99383390D02*
X256701786Y-99335771D01*
X256701786Y-99335771D02*
X256654167Y-99240533D01*
X256654167Y-99240533D02*
X256654167Y-99145295D01*
X256654167Y-99145295D02*
X256701786Y-99050057D01*
X256701786Y-99050057D02*
X256749405Y-99002438D01*
X256749405Y-99002438D02*
X256844643Y-98954819D01*
X256844643Y-98954819D02*
X257082738Y-98954819D01*
X257082738Y-98954819D02*
X257225595Y-99002438D01*
X257558929Y-98954819D02*
X257797024Y-99954819D01*
X257797024Y-99954819D02*
X257987500Y-99240533D01*
X257987500Y-99240533D02*
X258177976Y-99954819D01*
X258177976Y-99954819D02*
X258416072Y-98954819D01*
X258701786Y-98954819D02*
X259368452Y-98954819D01*
X259368452Y-98954819D02*
X258939881Y-99954819D01*
D12*
X175355833Y-87967580D02*
X175355833Y-87253295D01*
X175355833Y-87253295D02*
X175403452Y-87110438D01*
X175403452Y-87110438D02*
X175498690Y-87015200D01*
X175498690Y-87015200D02*
X175641547Y-86967580D01*
X175641547Y-86967580D02*
X175736785Y-86967580D01*
X174451071Y-87634247D02*
X174451071Y-86967580D01*
X174689166Y-88015200D02*
X174927261Y-87300914D01*
X174927261Y-87300914D02*
X174308214Y-87300914D01*
X174549166Y-84142419D02*
X174549166Y-84856704D01*
X174549166Y-84856704D02*
X174501547Y-84999561D01*
X174501547Y-84999561D02*
X174406309Y-85094800D01*
X174406309Y-85094800D02*
X174263452Y-85142419D01*
X174263452Y-85142419D02*
X174168214Y-85142419D01*
X174977738Y-84237657D02*
X175025357Y-84190038D01*
X175025357Y-84190038D02*
X175120595Y-84142419D01*
X175120595Y-84142419D02*
X175358690Y-84142419D01*
X175358690Y-84142419D02*
X175453928Y-84190038D01*
X175453928Y-84190038D02*
X175501547Y-84237657D01*
X175501547Y-84237657D02*
X175549166Y-84332895D01*
X175549166Y-84332895D02*
X175549166Y-84428133D01*
X175549166Y-84428133D02*
X175501547Y-84570990D01*
X175501547Y-84570990D02*
X174930119Y-85142419D01*
X174930119Y-85142419D02*
X175549166Y-85142419D01*
D11*
X234620833Y-79285009D02*
X234763690Y-79332628D01*
X234763690Y-79332628D02*
X234811309Y-79380247D01*
X234811309Y-79380247D02*
X234858928Y-79475485D01*
X234858928Y-79475485D02*
X234858928Y-79618342D01*
X234858928Y-79618342D02*
X234811309Y-79713580D01*
X234811309Y-79713580D02*
X234763690Y-79761200D01*
X234763690Y-79761200D02*
X234668452Y-79808819D01*
X234668452Y-79808819D02*
X234287500Y-79808819D01*
X234287500Y-79808819D02*
X234287500Y-78808819D01*
X234287500Y-78808819D02*
X234620833Y-78808819D01*
X234620833Y-78808819D02*
X234716071Y-78856438D01*
X234716071Y-78856438D02*
X234763690Y-78904057D01*
X234763690Y-78904057D02*
X234811309Y-78999295D01*
X234811309Y-78999295D02*
X234811309Y-79094533D01*
X234811309Y-79094533D02*
X234763690Y-79189771D01*
X234763690Y-79189771D02*
X234716071Y-79237390D01*
X234716071Y-79237390D02*
X234620833Y-79285009D01*
X234620833Y-79285009D02*
X234287500Y-79285009D01*
X235287500Y-79808819D02*
X235287500Y-79142152D01*
X235287500Y-79332628D02*
X235335119Y-79237390D01*
X235335119Y-79237390D02*
X235382738Y-79189771D01*
X235382738Y-79189771D02*
X235477976Y-79142152D01*
X235477976Y-79142152D02*
X235573214Y-79142152D01*
X236335119Y-79808819D02*
X236335119Y-78808819D01*
X236335119Y-79761200D02*
X236239881Y-79808819D01*
X236239881Y-79808819D02*
X236049405Y-79808819D01*
X236049405Y-79808819D02*
X235954167Y-79761200D01*
X235954167Y-79761200D02*
X235906548Y-79713580D01*
X235906548Y-79713580D02*
X235858929Y-79618342D01*
X235858929Y-79618342D02*
X235858929Y-79332628D01*
X235858929Y-79332628D02*
X235906548Y-79237390D01*
X235906548Y-79237390D02*
X235954167Y-79189771D01*
X235954167Y-79189771D02*
X236049405Y-79142152D01*
X236049405Y-79142152D02*
X236239881Y-79142152D01*
X236239881Y-79142152D02*
X236335119Y-79189771D01*
X237335119Y-79808819D02*
X236763691Y-79808819D01*
X237049405Y-79808819D02*
X237049405Y-78808819D01*
X237049405Y-78808819D02*
X236954167Y-78951676D01*
X236954167Y-78951676D02*
X236858929Y-79046914D01*
X236858929Y-79046914D02*
X236763691Y-79094533D01*
D12*
X175355833Y-90507580D02*
X175355833Y-89793295D01*
X175355833Y-89793295D02*
X175403452Y-89650438D01*
X175403452Y-89650438D02*
X175498690Y-89555200D01*
X175498690Y-89555200D02*
X175641547Y-89507580D01*
X175641547Y-89507580D02*
X175736785Y-89507580D01*
X174974880Y-90507580D02*
X174355833Y-90507580D01*
X174355833Y-90507580D02*
X174689166Y-90126628D01*
X174689166Y-90126628D02*
X174546309Y-90126628D01*
X174546309Y-90126628D02*
X174451071Y-90079009D01*
X174451071Y-90079009D02*
X174403452Y-90031390D01*
X174403452Y-90031390D02*
X174355833Y-89936152D01*
X174355833Y-89936152D02*
X174355833Y-89698057D01*
X174355833Y-89698057D02*
X174403452Y-89602819D01*
X174403452Y-89602819D02*
X174451071Y-89555200D01*
X174451071Y-89555200D02*
X174546309Y-89507580D01*
X174546309Y-89507580D02*
X174832023Y-89507580D01*
X174832023Y-89507580D02*
X174927261Y-89555200D01*
X174927261Y-89555200D02*
X174974880Y-89602819D01*
X174549166Y-81602419D02*
X174549166Y-82316704D01*
X174549166Y-82316704D02*
X174501547Y-82459561D01*
X174501547Y-82459561D02*
X174406309Y-82554800D01*
X174406309Y-82554800D02*
X174263452Y-82602419D01*
X174263452Y-82602419D02*
X174168214Y-82602419D01*
X175549166Y-82602419D02*
X174977738Y-82602419D01*
X175263452Y-82602419D02*
X175263452Y-81602419D01*
X175263452Y-81602419D02*
X175168214Y-81745276D01*
X175168214Y-81745276D02*
X175072976Y-81840514D01*
X175072976Y-81840514D02*
X174977738Y-81888133D01*
D11*
X197927180Y-95178571D02*
X197927180Y-94607143D01*
X197927180Y-94892857D02*
X198927180Y-94892857D01*
X198927180Y-94892857D02*
X198784323Y-94797619D01*
X198784323Y-94797619D02*
X198689085Y-94702381D01*
X198689085Y-94702381D02*
X198641466Y-94607143D01*
X198927180Y-95797619D02*
X198927180Y-95892857D01*
X198927180Y-95892857D02*
X198879561Y-95988095D01*
X198879561Y-95988095D02*
X198831942Y-96035714D01*
X198831942Y-96035714D02*
X198736704Y-96083333D01*
X198736704Y-96083333D02*
X198546228Y-96130952D01*
X198546228Y-96130952D02*
X198308133Y-96130952D01*
X198308133Y-96130952D02*
X198117657Y-96083333D01*
X198117657Y-96083333D02*
X198022419Y-96035714D01*
X198022419Y-96035714D02*
X197974800Y-95988095D01*
X197974800Y-95988095D02*
X197927180Y-95892857D01*
X197927180Y-95892857D02*
X197927180Y-95797619D01*
X197927180Y-95797619D02*
X197974800Y-95702381D01*
X197974800Y-95702381D02*
X198022419Y-95654762D01*
X198022419Y-95654762D02*
X198117657Y-95607143D01*
X198117657Y-95607143D02*
X198308133Y-95559524D01*
X198308133Y-95559524D02*
X198546228Y-95559524D01*
X198546228Y-95559524D02*
X198736704Y-95607143D01*
X198736704Y-95607143D02*
X198831942Y-95654762D01*
X198831942Y-95654762D02*
X198879561Y-95702381D01*
X198879561Y-95702381D02*
X198927180Y-95797619D01*
X197927180Y-96559524D02*
X198927180Y-96559524D01*
X198308133Y-96654762D02*
X197927180Y-96940476D01*
X198593847Y-96940476D02*
X198212895Y-96559524D01*
X198927180Y-97273810D02*
X198927180Y-97892857D01*
X198927180Y-97892857D02*
X198546228Y-97559524D01*
X198546228Y-97559524D02*
X198546228Y-97702381D01*
X198546228Y-97702381D02*
X198498609Y-97797619D01*
X198498609Y-97797619D02*
X198450990Y-97845238D01*
X198450990Y-97845238D02*
X198355752Y-97892857D01*
X198355752Y-97892857D02*
X198117657Y-97892857D01*
X198117657Y-97892857D02*
X198022419Y-97845238D01*
X198022419Y-97845238D02*
X197974800Y-97797619D01*
X197974800Y-97797619D02*
X197927180Y-97702381D01*
X197927180Y-97702381D02*
X197927180Y-97416667D01*
X197927180Y-97416667D02*
X197974800Y-97321429D01*
X197974800Y-97321429D02*
X198022419Y-97273810D01*
X198144580Y-86318571D02*
X198144580Y-85747143D01*
X198144580Y-86032857D02*
X199144580Y-86032857D01*
X199144580Y-86032857D02*
X199001723Y-85937619D01*
X199001723Y-85937619D02*
X198906485Y-85842381D01*
X198906485Y-85842381D02*
X198858866Y-85747143D01*
X199144580Y-86937619D02*
X199144580Y-87032857D01*
X199144580Y-87032857D02*
X199096961Y-87128095D01*
X199096961Y-87128095D02*
X199049342Y-87175714D01*
X199049342Y-87175714D02*
X198954104Y-87223333D01*
X198954104Y-87223333D02*
X198763628Y-87270952D01*
X198763628Y-87270952D02*
X198525533Y-87270952D01*
X198525533Y-87270952D02*
X198335057Y-87223333D01*
X198335057Y-87223333D02*
X198239819Y-87175714D01*
X198239819Y-87175714D02*
X198192200Y-87128095D01*
X198192200Y-87128095D02*
X198144580Y-87032857D01*
X198144580Y-87032857D02*
X198144580Y-86937619D01*
X198144580Y-86937619D02*
X198192200Y-86842381D01*
X198192200Y-86842381D02*
X198239819Y-86794762D01*
X198239819Y-86794762D02*
X198335057Y-86747143D01*
X198335057Y-86747143D02*
X198525533Y-86699524D01*
X198525533Y-86699524D02*
X198763628Y-86699524D01*
X198763628Y-86699524D02*
X198954104Y-86747143D01*
X198954104Y-86747143D02*
X199049342Y-86794762D01*
X199049342Y-86794762D02*
X199096961Y-86842381D01*
X199096961Y-86842381D02*
X199144580Y-86937619D01*
X198144580Y-87699524D02*
X199144580Y-87699524D01*
X198525533Y-87794762D02*
X198144580Y-88080476D01*
X198811247Y-88080476D02*
X198430295Y-87699524D01*
X198811247Y-88937619D02*
X198144580Y-88937619D01*
X199192200Y-88699524D02*
X198477914Y-88461429D01*
X198477914Y-88461429D02*
X198477914Y-89080476D01*
X157856400Y-101366619D02*
X157856400Y-101604714D01*
X157618305Y-101509476D02*
X157856400Y-101604714D01*
X157856400Y-101604714D02*
X158094495Y-101509476D01*
X157713543Y-101795190D02*
X157856400Y-101604714D01*
X157856400Y-101604714D02*
X157999257Y-101795190D01*
X157856399Y-102456980D02*
X157856399Y-102218885D01*
X158094494Y-102314123D02*
X157856399Y-102218885D01*
X157856399Y-102218885D02*
X157618304Y-102314123D01*
X157999256Y-102028409D02*
X157856399Y-102218885D01*
X157856399Y-102218885D02*
X157713542Y-102028409D01*
D13*
%TO.C,SW1*%
X261187500Y-84850000D02*
G75*
G03*
X261187500Y-84850000I-3000000J0D01*
G01*
X251887500Y-91550000D02*
X251887500Y-86650000D01*
X254487500Y-91550000D02*
X251887500Y-91550000D01*
X259487500Y-91550000D02*
X256887500Y-91550000D01*
X264487500Y-91550000D02*
X261887500Y-91550000D01*
X264487500Y-86650000D02*
X264487500Y-91550000D01*
X258687500Y-84850000D02*
X257687500Y-84850000D01*
X258187500Y-84350000D02*
X258187500Y-85350000D01*
X251887500Y-83050000D02*
X251887500Y-78150000D01*
X264487500Y-82950000D02*
X264487500Y-78150000D01*
X251887500Y-78150000D02*
X254687500Y-78150000D01*
X264487500Y-78150000D02*
X261987500Y-78150000D01*
X262287500Y-77650000D02*
X261987500Y-77350000D01*
X261987500Y-77350000D02*
X262287500Y-77050000D01*
X262287500Y-77050000D02*
X262287500Y-77650000D01*
D14*
%TO.C,10k2*%
X202341400Y-65471000D02*
X199686286Y-65471000D01*
X197833714Y-65471000D02*
X195102400Y-65471000D01*
X195102400Y-65471000D02*
X195102400Y-72329000D01*
X202341400Y-72329000D02*
X202341400Y-65471000D01*
X199230524Y-72329000D02*
X202341400Y-72329000D01*
X195102400Y-72329000D02*
X198289476Y-72329000D01*
X194086400Y-66360000D02*
G75*
G03*
X194086400Y-66360000I-127000J0D01*
G01*
%TO.C,10k1*%
X202228900Y-75059700D02*
X199573786Y-75059700D01*
X197721214Y-75059700D02*
X194989900Y-75059700D01*
X194989900Y-75059700D02*
X194989900Y-81917700D01*
X202228900Y-81917700D02*
X202228900Y-75059700D01*
X199118024Y-81917700D02*
X202228900Y-81917700D01*
X194989900Y-81917700D02*
X198176976Y-81917700D01*
X193973900Y-75948700D02*
G75*
G03*
X193973900Y-75948700I-127000J0D01*
G01*
D11*
%TO.C,SW7*%
X254987500Y-97350000D02*
X254987500Y-97600000D01*
X254987500Y-97350000D02*
X260987500Y-97350000D01*
X254987500Y-100850000D02*
X254987500Y-100600000D01*
X254987500Y-100850000D02*
X260987500Y-100850000D01*
X260987500Y-97350000D02*
X260987500Y-97600000D01*
X260987500Y-100850000D02*
X260987500Y-100600000D01*
D13*
%TO.C,Brd1*%
X222387500Y-66800000D02*
X249787500Y-66800000D01*
X222387500Y-94100000D02*
X222387500Y-66800000D01*
X222809500Y-70095000D02*
X245909500Y-70095000D01*
X222809500Y-86695000D02*
X222809500Y-70095000D01*
X231088500Y-67289000D02*
X231088500Y-69702000D01*
X231088500Y-67289000D02*
X240867500Y-67289000D01*
X240867500Y-67289000D02*
X240867500Y-69702000D01*
X240867500Y-69702000D02*
X231088500Y-69702000D01*
X245909500Y-70095000D02*
X248995500Y-70095000D01*
X245909500Y-86695000D02*
X222809500Y-86695000D01*
X245909500Y-86695000D02*
X249249500Y-86720000D01*
X249249500Y-70083000D02*
X248995500Y-70095000D01*
X249249500Y-86720000D02*
X249249500Y-70083000D01*
X249787500Y-66800000D02*
X249787500Y-94100000D01*
X249787500Y-94100000D02*
X222387500Y-94100000D01*
D12*
%TO.C,SW2*%
X180937500Y-99350000D02*
X172437500Y-99350000D01*
X180937500Y-95850000D02*
X180937500Y-99350000D01*
X172437500Y-99350000D02*
X172437500Y-95850000D01*
X172437500Y-95850000D02*
X180937500Y-95850000D01*
D14*
%TO.C,10k3*%
X202001500Y-92821000D02*
X199346386Y-92821000D01*
X197493814Y-92821000D02*
X194762500Y-92821000D01*
X194762500Y-92821000D02*
X194762500Y-99679000D01*
X202001500Y-99679000D02*
X202001500Y-92821000D01*
X198890624Y-99679000D02*
X202001500Y-99679000D01*
X194762500Y-99679000D02*
X197949576Y-99679000D01*
X193746500Y-93710000D02*
G75*
G03*
X193746500Y-93710000I-127000J0D01*
G01*
%TO.C,10k4*%
X202218900Y-83961000D02*
X199563786Y-83961000D01*
X197711214Y-83961000D02*
X194979900Y-83961000D01*
X194979900Y-83961000D02*
X194979900Y-90819000D01*
X202218900Y-90819000D02*
X202218900Y-83961000D01*
X199108024Y-90819000D02*
X202218900Y-90819000D01*
X194979900Y-90819000D02*
X198166976Y-90819000D01*
X193963900Y-84850000D02*
G75*
G03*
X193963900Y-84850000I-127000J0D01*
G01*
%TD*%
M02*
