%TF.GenerationSoftware,KiCad,Pcbnew,7.0.5*%
%TF.CreationDate,2023-10-14T21:24:46+09:00*%
%TF.ProjectId,hidtaiko,68696474-6169-46b6-9f2e-6b696361645f,rev?*%
%TF.SameCoordinates,Original*%
%TF.FileFunction,Soldermask,Bot*%
%TF.FilePolarity,Negative*%
%FSLAX46Y46*%
G04 Gerber Fmt 4.6, Leading zero omitted, Abs format (unit mm)*
G04 Created by KiCad (PCBNEW 7.0.5) date 2023-10-14 21:24:46*
%MOMM*%
%LPD*%
G01*
G04 APERTURE LIST*
%ADD10R,1.700000X1.700000*%
%ADD11O,1.700000X1.700000*%
%ADD12C,1.900000*%
%ADD13C,3.400000*%
%ADD14C,2.200000*%
%ADD15R,1.600000X1.600000*%
%ADD16C,1.600000*%
G04 APERTURE END LIST*
D10*
%TO.C,REF\u002A\u002A*%
X152000000Y-52500000D03*
D11*
X154540000Y-52500000D03*
X157080000Y-52500000D03*
X159620000Y-52500000D03*
X162160000Y-52500000D03*
%TD*%
D12*
%TO.C,REF\u002A\u002A*%
X154000000Y-65500000D03*
D13*
X159500000Y-65500000D03*
D12*
X165000000Y-65500000D03*
D14*
X159500000Y-59600000D03*
X164500000Y-61700000D03*
%TD*%
D12*
%TO.C,REF\u002A\u002A*%
X192000000Y-84500000D03*
X203000000Y-84500000D03*
D13*
X197500000Y-84500000D03*
D14*
X197500000Y-78600000D03*
X202500000Y-80700000D03*
%TD*%
D12*
%TO.C,REF\u002A\u002A*%
X192000000Y-65500000D03*
X203000000Y-65500000D03*
D13*
X197500000Y-65500000D03*
D14*
X197500000Y-59600000D03*
X202500000Y-61700000D03*
%TD*%
D12*
%TO.C,REF\u002A\u002A*%
X173000000Y-65500000D03*
D13*
X178500000Y-65500000D03*
D12*
X184000000Y-65500000D03*
D14*
X178500000Y-59600000D03*
X183500000Y-61700000D03*
%TD*%
D12*
%TO.C,REF\u002A\u002A*%
X173000000Y-84500000D03*
D13*
X178500000Y-84500000D03*
D12*
X184000000Y-84500000D03*
D14*
X178500000Y-78600000D03*
X183500000Y-80700000D03*
%TD*%
D12*
%TO.C,REF\u002A\u002A*%
X154000000Y-84500000D03*
X165000000Y-84500000D03*
D13*
X159500000Y-84500000D03*
D14*
X159500000Y-78600000D03*
X164500000Y-80700000D03*
%TD*%
D15*
%TO.C,REF\u002A\u002A*%
X148000000Y-60000000D03*
D16*
X148000000Y-62540000D03*
X148000000Y-65080000D03*
X148000000Y-67620000D03*
X148000000Y-70160000D03*
X148000000Y-72700000D03*
X148000000Y-75240000D03*
X148000000Y-77780000D03*
X148000000Y-80320000D03*
X148000000Y-82860000D03*
X148000000Y-85400000D03*
X148000000Y-87940000D03*
X132760000Y-87940000D03*
X132760000Y-85400000D03*
X132760000Y-82860000D03*
X132760000Y-80320000D03*
X132760000Y-77780000D03*
X132760000Y-75240000D03*
X132760000Y-72700000D03*
X132760000Y-70160000D03*
X132760000Y-67620000D03*
X132760000Y-65080000D03*
X132760000Y-62540000D03*
X132760000Y-60000000D03*
%TD*%
M02*
